<svg xmlns="http://www.w3.org/2000/svg" width="92.706" height="92.706" viewBox="0 0 92.706 92.706"><path d="M536.8,51.956A46.353,46.353,0,1,0,583.15,98.309,46.354,46.354,0,0,0,536.8,51.956Zm0,86.941a40.588,40.588,0,1,1,40.588-40.588A40.588,40.588,0,0,1,536.8,138.9Z" transform="translate(-490.444 -51.956)"/><path d="M540.375,101.334V75.119a36.961,36.961,0,0,0-26.217,26.215Z" transform="translate(-503.221 -64.436)"/><path d="M514.159,172.956a36.962,36.962,0,0,0,26.217,26.215V172.956Z" transform="translate(-503.221 -117.148)"/><path d="M610.159,172.956v26.215a36.963,36.963,0,0,0,26.216-26.215Z" transform="translate(-554.943 -117.148)"/><path d="M636.375,101.334a36.963,36.963,0,0,0-26.216-26.215v26.215Z" transform="translate(-554.943 -64.436)"/></svg>