<svg width="40" height="40" viewBox="0 0 40 40" fill="none" xmlns="http://www.w3.org/2000/svg">
<g clip-path="url(#clip0_286_639)">
<path d="M33.5396 6.46042C33.3936 6.31444 33.2203 6.19864 33.0295 6.11964C32.8388 6.04064 32.6344 5.99999 32.4279 6H32.4229L24.0649 6.02635C23.8467 6.02703 23.6311 6.07313 23.4317 6.16172C23.2323 6.2503 23.0535 6.37943 22.9067 6.54089L13.5354 16.849L13.3197 16.6333C12.8278 16.1428 12.1615 15.8674 11.4669 15.8675C10.7723 15.8675 10.1061 16.143 9.61426 16.6335L7.42849 18.8192C7.18514 19.0625 6.9921 19.3513 6.8604 19.6692C6.72869 19.9871 6.66089 20.3278 6.66088 20.6719C6.66087 21.0159 6.72864 21.3567 6.86033 21.6746C6.99201 21.9924 7.18503 22.2813 7.42836 22.5246L9.27012 24.3664L6.76617 26.8701C6.27554 27.3618 6 28.0281 6 28.7227C6 29.4174 6.27554 30.0836 6.76617 30.5754L9.42364 33.2325C9.66693 33.4759 9.95576 33.6689 10.2736 33.8005C10.5915 33.9322 10.9322 34 11.2763 34C11.6204 34 11.9611 33.9322 12.279 33.8006C12.5969 33.6689 12.8857 33.4759 13.129 33.2326L15.6328 30.7288L17.4747 32.5708C17.9666 33.0612 18.6329 33.3366 19.3275 33.3366C20.0221 33.3365 20.6883 33.061 21.1801 32.5705L23.3659 30.3848C23.6092 30.1416 23.8023 29.8527 23.934 29.5348C24.0657 29.217 24.1335 28.8763 24.1335 28.5322C24.1335 28.1881 24.0657 27.8474 23.9341 27.5295C23.8024 27.2116 23.6094 26.9228 23.366 26.6795L23.1505 26.4639L33.4591 17.0929C33.6205 16.9461 33.7497 16.7673 33.8383 16.5679C33.9269 16.3685 33.973 16.1528 33.9736 15.9346L34 7.57699C34.0006 7.36971 33.9603 7.16436 33.8813 6.97273C33.8022 6.7811 33.6861 6.607 33.5396 6.46042ZM19.3274 29.9769L17.4856 28.1352C17.2423 27.8919 16.9535 27.6989 16.6356 27.5672C16.3177 27.4355 15.977 27.3677 15.6329 27.3677C15.2888 27.3677 14.9481 27.4355 14.6302 27.5672C14.3123 27.6989 14.0235 27.8919 13.7802 28.1352L11.2763 30.6389L9.35993 28.7228L11.8639 26.2189C12.3545 25.7272 12.63 25.061 12.63 24.3663C12.63 23.6717 12.3545 23.0055 11.8639 22.5138L10.0221 20.672L11.467 19.2271L16.1193 23.8793L16.1196 23.8796L16.12 23.8799L20.7723 28.532L19.3274 29.9769ZM30.8317 15.2323L20.9248 24.2382L19.4545 22.768L26.2032 16.0196C26.4977 15.7247 26.6631 15.325 26.6629 14.9082C26.6628 14.4915 26.4971 14.0919 26.2025 13.7972C25.9078 13.5025 25.5081 13.3369 25.0914 13.3368C24.6746 13.3366 24.2749 13.502 23.98 13.7964L17.2313 20.5449L15.761 19.0746L24.7673 9.16818L30.8509 9.14899L30.8317 15.2323Z" fill="white"/>
</g>
<defs>
<clipPath id="clip0_286_639">
<rect width="28" height="28" fill="white" transform="translate(6 6)"/>
</clipPath>
</defs>
</svg>
