<svg width="40" height="40" viewBox="0 0 40 40" fill="none" xmlns="http://www.w3.org/2000/svg">
<g clip-path="url(#clip0_286_621)">
<path d="M19.9979 34C19.7694 34 19.5409 33.9314 19.3466 33.8C10.9307 28.138 6.06863 19.6765 6.00007 10.5807C5.99435 10.0494 6.3543 9.58088 6.86851 9.44376L19.7008 6.03857C19.8951 5.98714 20.1008 5.98714 20.3007 6.03857L33.1331 9.44376C33.6473 9.58088 34.0015 10.0494 34.0015 10.5807C33.9386 19.6708 29.0708 28.138 20.655 33.8C20.455 33.9314 20.2265 34 19.9979 34ZM8.35971 11.4663C8.71394 19.2023 12.9076 26.3954 19.9979 31.4175C27.0883 26.3954 31.2819 19.2023 31.6361 11.4663L19.9979 8.37535L8.35971 11.4663Z" fill="white"/>
<path d="M20 28C15.1262 24.5128 12.2435 19.518 12 14.1463L20 12L28 14.1463C27.7565 19.518 24.8738 24.5128 20 28Z" fill="white"/>
</g>
<defs>
<clipPath id="clip0_286_621">
<rect width="28" height="28" fill="white" transform="translate(6 6)"/>
</clipPath>
</defs>
</svg>
