<svg xmlns="http://www.w3.org/2000/svg" width="92.706" height="92.706" viewBox="0 0 92.706 92.706"><g transform="translate(0 0)"><path d="M1221.853,57.5a46.353,46.353,0,1,0,46.353,46.353A46.353,46.353,0,0,0,1221.853,57.5Zm0,86.941a40.588,40.588,0,1,1,40.588-40.588A40.588,40.588,0,0,1,1221.853,144.441Z" transform="translate(-1175.5 -57.5)"/><path d="M1277.779,120.774V92.009a12.117,12.117,0,0,1,.68,1.267c2.234,6.147,4.478,12.29,6.644,18.46a2.335,2.335,0,0,1-.212,1.955c-2.018,2.263-4.164,4.412-6.278,6.589A4.655,4.655,0,0,1,1277.779,120.774Z" transform="translate(-1230.605 -76.093)"/><path d="M1207.993,145.662c3.064-1.031,6.131-2.056,9.193-3.1,4.062-1.379,8.132-2.733,12.168-4.181a1.775,1.775,0,0,1,2.387.7c1.3,1.77,2.7,3.464,4.049,5.2.3.39.543.827,1.024,1.57h-28.783Z" transform="translate(-1193.006 -100.975)"/><path d="M1262.8,162.013v28.5l-.274.063c-.174-.4-.379-.8-.515-1.211-2.1-6.4-4.184-12.808-6.313-19.2a1.854,1.854,0,0,1,.477-2.2c2.047-2.076,3.991-4.255,5.976-6.394Z" transform="translate(-1218.617 -113.572)"/><path d="M1308.927,161.645q-10.849,2.753-21.7,5.494a1.9,1.9,0,0,1-1.349-.021,67.194,67.194,0,0,1-6.877-5.71h29.947Z" transform="translate(-1231.263 -113.483)"/><g transform="translate(9.541 9.566)"><path d="M1291.424,104.039l24.569,8.6a36.89,36.89,0,0,0-34.09-34.4Z" transform="translate(-1242.368 -78.24)"/><path d="M1218.9,104.043l11.362-25.8a36.889,36.889,0,0,0-34.022,34.064Z" transform="translate(-1196.215 -78.244)"/><path d="M1220.755,172.1l-24.568-8.906a36.9,36.9,0,0,0,33.249,34.327Z" transform="translate(-1196.186 -124.012)"/><path d="M1292.889,172.517l-8.267,26.758a36.907,36.907,0,0,0,32.711-32.75Z" transform="translate(-1243.833 -125.806)"/></g></g></svg>