<svg xmlns="http://www.w3.org/2000/svg" width="32" height="32" viewBox="0 0 32 32"><path d="M32,16A16,16,0,1,1,16,0,16,16,0,0,1,32,16Z"/><path d="M16,.8A15.2,15.2,0,1,0,31.2,16,15.228,15.228,0,0,0,16,.8Zm0,25.333A10.133,10.133,0,1,1,26.133,16,10.128,10.128,0,0,1,16,26.133Z" fill="#d21708"/><path d="M16.373,9.387a7.391,7.391,0,0,1-2.08,2.187,11.018,11.018,0,0,1-3.307,1.547l-.533,3.2a17.539,17.539,0,0,0,2.347-.853A15.477,15.477,0,0,0,14.827,14.3l-1.6,9.28h3.84L19.52,9.388H16.373Z" fill="#fac807"/></svg>