<svg xmlns="http://www.w3.org/2000/svg" width="31.467" height="31.467" viewBox="0 0 31.467 31.467"><g transform="translate(-0.374 -0.374)"><path d="M31.307,16.107a15.2,15.2,0,1,1-15.2-15.2,15.2,15.2,0,0,1,15.2,15.2Z" fill="#d21708" stroke="#000" stroke-width="1.067"/><path d="M26.24,16.107A10.133,10.133,0,1,1,16.107,5.974,10.133,10.133,0,0,1,26.24,16.107Z"/><path d="M20.587,19.467h-5.28c.373-.32.693-.533.96-.747.267-.16.8-.533,1.547-.96a12.237,12.237,0,0,0,2.773-2.187,4.477,4.477,0,0,0,1.013-2.08,3.2,3.2,0,0,0-.213-1.867A2.512,2.512,0,0,0,20.054,10.4a6.6,6.6,0,0,0-2.72-.373,6.776,6.776,0,0,0-2.72.427,4.807,4.807,0,0,0-1.707,1.227,5.692,5.692,0,0,0-1.12,2.187l3.307.267a2.816,2.816,0,0,1,.8-1.387,1.436,1.436,0,0,1,1.12-.373,1.289,1.289,0,0,1,.96.373,1.215,1.215,0,0,1,.267.96,2.312,2.312,0,0,1-.587,1.067,13.073,13.073,0,0,1-2.187,1.653,16.59,16.59,0,0,0-3.84,3.093,7.905,7.905,0,0,0-1.547,2.773H20.213l.373-2.827Z" fill="#fac807"/></g></svg>