<svg xmlns="http://www.w3.org/2000/svg" width="92.706" height="92.706" viewBox="0 0 92.706 92.706"><path d="M82.9,72.456a36.9,36.9,0,1,0,36.9,36.9A36.9,36.9,0,0,0,82.9,72.456Zm9.631,56.474c-5.475-2.913-8.756-7.417-10.871-13.085-1.681-4.506-3.512-8.969-5.55-13.324-2.863-6.117-11.29-4.879-14.3-.68-3.351,4.669-3.45,9.589-1.265,14.824,1.838,4.4,9.79,4.675,12.361,1.725,1.395-1.6,2.757-3.228,4.535-5.313,1.225,2.294,2.349,4.5,3.569,6.651,1.016,1.79.323,3.131-.787,4.582-6.431,8.4-15.716,7.455-22.114,2.572-9.632-7.352-11.384-24.247-3.212-33.293,5.113-5.66,15.2-8.752,23.581-.069a26.475,26.475,0,0,1,4.706,7.261c1.863,4.03,3.287,8.264,4.862,12.424,1.91,5.048,5.162,7.55,9.455,7.218a10.093,10.093,0,0,0,9.073-8.751,17.677,17.677,0,0,0-.143-6.58c-.76-3.459-2.567-6.289-6.562-6.751-3.908-.452-6.851,1.207-9.052,4.331-.572.811-1.021,1.709-1.53,2.575-3.051-1.236-3.321-4.155-4.534-6.464a3.078,3.078,0,0,1,.277-3.582c5.469-7.948,14.689-9.014,22.5-3.344,10.706,7.775,10.776,24.988,3.633,33.443A15.719,15.719,0,0,1,92.529,128.93Z" transform="translate(-36.545 -63.001)"/><path d="M71.853,51.956a46.353,46.353,0,1,0,46.353,46.353A46.353,46.353,0,0,0,71.853,51.956Zm0,86.941a40.588,40.588,0,1,1,40.588-40.588A40.588,40.588,0,0,1,71.853,138.9Z" transform="translate(-25.5 -51.956)"/></svg>