<svg xmlns="http://www.w3.org/2000/svg" width="92.706" height="92.706" viewBox="0 0 92.706 92.706"><path d="M299.853,51.956a46.353,46.353,0,1,0,46.353,46.353A46.353,46.353,0,0,0,299.853,51.956Zm0,86.941a40.588,40.588,0,1,1,40.588-40.588A40.588,40.588,0,0,1,299.853,138.9Z" transform="translate(-253.5 -51.956)"/><path d="M310.9,72.456a36.9,36.9,0,1,0,36.9,36.9A36.9,36.9,0,0,0,310.9,72.456Zm23.454,45.67a32.945,32.945,0,0,1-16.061,7.58c-3.515.545-6.666,2.355-10.857,2.074l3.665,9.549a8.533,8.533,0,0,1-2.461-.619q-14.048-9.829-28.031-19.752c-.1-.074-.127-.264-.326-.71,2.363-1.658,24-16.913,28.954-20.362,1.8.6,1.356,1.847.9,3.075-.816,2.22-1.654,4.433-2.6,6.959,6.915.545,13.566,1.148,19.647-2.559,4.973-3.031,6.495-7.935,6.5-13.352a71.284,71.284,0,0,0-.989-8.629c3.23,1.978,8.813,12.755,8.813,21.18A19.521,19.521,0,0,1,334.352,118.126Z" transform="translate(-264.545 -63.001)"/></svg>