<svg xmlns="http://www.w3.org/2000/svg" width="92.706" height="92.706" viewBox="0 0 92.706 92.706"><path d="M769.686,51.956a46.353,46.353,0,1,0,46.353,46.353A46.353,46.353,0,0,0,769.686,51.956Zm0,86.941a40.588,40.588,0,1,1,40.588-40.588A40.588,40.588,0,0,1,769.686,138.9Z" transform="translate(-723.333 -51.956)"/><path d="M777.272,116.414l-12.914-16.6,16.6-26.751c.059-.033.125-.061.187-.092-.14,0-.278-.011-.418-.011A36.892,36.892,0,0,0,759.469,140Z" transform="translate(-734.378 -63.27)"/><path d="M849.273,83.922c.012.04.03.078.041.118L837.322,107.1l15.22,16.143L836.456,152.2a36.9,36.9,0,0,0,12.817-68.277Z" transform="translate(-784.281 -69.178)"/></svg>