<svg xmlns="http://www.w3.org/2000/svg" width="92.706" height="92.706" viewBox="0 0 92.706 92.706"><path d="M995.853,51.956a46.353,46.353,0,1,0,46.353,46.353A46.353,46.353,0,0,0,995.853,51.956Zm0,86.941a40.588,40.588,0,1,1,40.588-40.588A40.588,40.588,0,0,1,995.853,138.9Z" transform="translate(-949.5 -51.956)"/><path d="M1006.9,72.709a36.9,36.9,0,0,0-4.11,73.563c.073-.683.411-3.429.347-3.25-10.585-1.615-19.466-5.757-24.779-15.525a92.529,92.529,0,0,0,28.012,3.941c9.466-.073,18.878-.778,27.892-4.61.417,1.017,1.314,2.121,1.066,2.819a11.325,11.325,0,0,1-2.541,3.985c-5.269,5.395-12.071,7.683-19.236,9.125-2.977.6-3.152.648-2.454,3.5a36.9,36.9,0,0,0-4.2-73.552Zm22.556,53.043a4.273,4.273,0,0,1-2.653,1.944c-4.068.708-8.175,1.25-12.289,1.59-.921.076-1.929-.912-2.772-1.346l1.389-6.7-.692-.234-1.295,1.432c-4.259-2.091-2.876-5.995-3.052-9.344-5.926.518-8.522,6.993-6.372,15.888a5.815,5.815,0,0,1-1.507.184c-4.168-.6-8.366-1.073-12.467-1.98a5.618,5.618,0,0,1-3.112-2.785c-3.559-6.824-3.442-13.87-.523-20.858a78.662,78.662,0,0,1,4.154-7.5L993,108.714l.9-.224c4.132-10.241,3.767-20.686.665-31.81,13.249,4.158,20.8,12.972,25,25.925,1.9-5.2,1.477-9.851.882-14.512l.6-.209c1.771,2.539,3.659,5.006,5.291,7.631,3.659,5.885,6.083,12.164,6.076,19.26A22.832,22.832,0,0,1,1029.454,125.752Z" transform="translate(-960.545 -63.137)"/></svg>