<svg width="380" height="380" viewBox="0 0 380 380" fill="none" xmlns="http://www.w3.org/2000/svg">
<path d="M305.402 253.635L306.05 254.445L306.698 255.903V256.388L307.184 257.198L307.022 258.17L306.374 258.008L305.564 257.846L304.106 257.684L303.62 257.36L303.782 257.036L303.134 256.065L302.487 254.931L301.839 253.149L301.353 251.53L301.515 251.044L301.677 250.558L300.705 248.615L300.867 246.833V246.024H301.191L301.515 246.671L301.677 247.319L302.163 247.967L302.487 248.453L302.81 248.939L303.296 250.072L303.782 251.206L304.43 251.854L305.078 253.311L305.402 253.635ZM225.228 245.862L226.2 246.186L227.657 246.509L229.601 247.967L229.763 248.291L226.524 246.833L225.228 246.671L223.446 246.509L221.665 246.995L220.369 247.157L220.045 246.833L220.369 246.348L220.693 246.024L221.179 246.186H221.989L223.446 245.862L224.256 246.024L225.228 245.862ZM216.32 242.299L217.615 244.89L218.425 245.7H218.911L219.073 246.024L218.749 246.833L219.073 247.319L218.749 248.291L218.263 248.939L218.425 249.748L216.968 247.805L215.996 246.995L213.728 245.214L211.947 243.756L210.813 242.785L209.031 241.813L208.707 241.489L208.221 241.165L207.573 240.517L205.954 239.708L204.658 239.222L204.496 238.898L205.306 238.25L206.116 238.736H206.602L209.193 238.574L210.327 238.736L211.137 238.574L211.785 239.06L212.433 238.898L212.271 239.546L212.594 240.355L213.08 240.679L213.242 241.327L214.214 241.489H215.186L216.32 242.299ZM282.726 238.736L283.05 239.384H283.536L283.698 240.193L284.022 240.841L284.346 241.165L284.184 241.813H283.536L283.212 242.299L283.536 243.109L283.05 243.432L282.726 243.756L282.564 244.728L281.593 244.566V244.08L281.431 243.756L281.593 243.27L281.269 242.947L280.945 242.785L280.621 243.27L280.459 242.785L280.297 242.299L281.107 241.975V241.813L280.783 241.651L280.621 241.489L280.297 241.165L279.973 241.003L279.649 240.517L279.487 239.708L279.811 239.384L279.325 239.06V238.574L279.973 238.412L280.297 238.088H279.811L279.325 237.764L279.487 237.278L279.001 237.44L278.839 236.954L279.001 236.631L278.677 236.469L278.515 235.983L279.163 235.497L279.325 235.011L279.811 235.173L280.135 235.821L280.297 236.145L280.945 236.631V237.278L280.783 237.926L281.755 238.088L282.726 238.736ZM264.748 209.099L264.91 208.775V208.613L265.072 208.775L265.396 209.261L265.882 210.557L266.692 211.366L267.987 211.528L269.283 211.852L270.255 212.176L270.417 212.662L270.579 212.824L271.065 213.148V213.634L271.389 214.12L271.551 215.091L271.227 216.225L271.713 217.359L272.037 217.844L272.361 218.492L273.008 219.626L273.332 220.112L273.008 220.274L272.037 220.597L271.551 220.436L271.227 220.597L270.903 221.083L270.579 220.921L270.903 220.597L271.065 220.274V219.788L270.579 219.464L270.093 219.14L269.445 218.816V218.492L268.959 218.33H268.473H267.987V218.006L268.149 217.682L267.825 217.035L267.34 216.711L267.016 215.901V215.577L266.854 215.091L266.53 214.605L266.368 214.12V213.472L266.044 212.986H265.396L265.072 212.5H264.586L264.424 212.014V211.204L264.586 210.881V210.233L264.748 209.099ZM199.961 233.553L200.285 234.201L201.095 235.335H201.419V235.821L201.743 236.145L202.067 236.792V237.602L201.581 237.44L200.609 236.954L199.961 236.631L200.123 236.307L199.961 235.335L199.475 234.525L198.827 233.877L198.341 233.553H198.017L197.37 232.258L196.722 232.096L196.56 231.772L196.884 231.448L197.046 230.8H197.37L197.693 230.962L198.017 230.8L198.341 230.314L198.503 229.505L198.341 228.695L198.017 227.723L197.531 227.237L197.046 226.59L196.56 226.104L195.912 225.618L195.102 225.132L194.778 224.97L194.292 224.808H193.806H193.32L193.158 224.97L192.834 225.132L192.672 225.456V225.78L192.834 226.752L192.672 226.914L192.349 226.428L192.187 225.618L190.567 224.646L190.729 224.16V223.836L190.891 223.675H191.377L192.025 222.217L192.834 219.95L195.264 213.148L195.912 210.719L197.208 206.022L198.017 202.297L198.179 200.84L198.341 200.354H198.989L199.151 202.621L198.827 203.593L198.179 205.698L197.531 206.832L196.884 210.233L196.398 211.69L196.884 212.5L197.046 212.986L196.884 213.634L197.208 214.12V214.605V215.253L196.884 215.577L196.398 215.253L196.074 216.063V216.387V218.006L195.75 218.33L195.912 219.626L196.236 220.112L196.56 220.597L196.236 220.921L195.75 220.759L195.264 220.921L195.102 221.083V221.407L194.778 221.893L194.94 222.217L195.102 223.027L195.264 223.351L195.75 223.675L196.074 223.998L196.236 224.322L196.56 224.484H196.884L196.722 224.646L196.56 224.808L197.046 225.456L197.208 226.266L198.341 227.399L198.665 227.885V228.533V228.857L198.827 229.019H198.989L199.475 229.991L198.989 230.8L198.665 231.124L198.341 231.448L198.179 231.934L198.341 232.258L198.503 232.744L199.961 233.553ZM262.157 183.511L261.185 182.863L260.375 180.92V179.3L261.023 178.167L261.347 177.519L261.833 177.357L261.995 178.167L262.319 178.329L262.157 179.3L262.48 180.758L262.804 183.187L262.157 183.511ZM247.579 162.62H248.065V163.267L248.227 163.429V163.915V164.239L247.903 163.915H247.579L247.256 163.429L246.932 163.267L246.608 162.62H246.122L245.798 162.943V163.267L245.636 163.753L245.15 164.401L244.664 164.887L244.178 166.02L243.206 166.992L242.882 167.478L243.044 167.802L242.72 168.612L242.882 169.421L242.558 169.907H242.073L241.749 170.555L241.911 171.527V172.337L241.749 172.66L241.425 172.013H241.101L240.615 171.689V171.203L240.453 170.555V170.231L241.101 169.098V168.45L241.587 166.83L241.425 166.182L241.911 165.535L242.073 164.887L242.558 164.077L243.206 163.591L243.368 163.105V162.296L243.53 161.324L243.044 160.676V160.19H243.692L244.988 159.704V159.219L245.312 158.895L245.636 159.381L246.446 159.704L247.579 159.381L247.741 158.895L248.713 158.733L247.903 159.704L247.418 161L247.579 162.62ZM108.935 58.162H111.041L119.463 58H127.885L136.146 58.162H144.568H152.99H161.251H169.349L169.511 58.3239L169.349 58.9717L169.673 59.7815L169.511 60.1054L169.187 61.401L169.349 62.3727V63.0205V63.3443V63.6682L169.187 63.8302L169.025 64.478L168.863 65.2877L169.511 66.2594L170.321 66.7453L170.483 67.0692L171.131 67.555V67.2312H171.293V67.717L171.617 68.3648L171.455 68.6887L171.617 69.4984L171.941 69.8223L171.779 70.3082L172.103 70.956L172.588 71.6038L173.236 72.4135L173.56 73.0613H173.884L174.208 73.5472L174.694 73.3852H174.856L175.18 73.7091L175.342 74.195L175.828 74.5189L175.99 75.0047L176.962 75.6525V76.3003L178.419 76.9481H179.553L180.201 77.272L180.849 77.5959L181.659 77.9198L182.307 78.0818L182.469 78.4057L183.116 78.8915L183.602 79.2154L185.384 79.7013L186.032 80.1871L187.49 80.9969L188.299 81.9686V82.6164L189.271 83.5881L189.757 84.7217L189.919 86.5032V87.3129L190.405 88.4465L190.891 89.4183L190.729 90.066L190.891 90.7139L191.377 91.3616L192.187 91.8475L192.51 92.6573L192.834 93.305L193.482 93.467L193.806 94.1148L194.13 95.4104L194.616 95.7343L195.102 96.8679L195.75 97.5157L195.426 98.4874L195.102 98.8113L194.94 99.1352V99.6211L195.75 100.107L196.398 100.755L196.884 101.403L197.046 101.888L197.531 102.05L198.503 102.212L199.475 103.184L200.609 103.67L201.581 103.508L201.743 103.832L202.229 104.156L204.334 104.48L205.144 105.613H206.602H207.088V106.099L207.25 106.423L207.412 106.909L206.764 107.233L206.116 107.071L205.468 107.557L204.658 108.69L204.172 109.824V110.634L204.01 111.605L204.658 113.063L205.63 113.711L205.954 113.873L206.116 114.359L206.764 115.168L207.088 116.14L207.573 116.464L208.707 116.95L209.031 117.921L210.813 119.541L211.137 120.675L211.299 121.484V121.808L210.651 122.132L210.489 122.78V123.266L209.841 122.942L209.193 124.399L209.355 125.371L210.165 125.533L211.137 126.505L211.623 127.314L211.785 128.124L211.947 128.448L212.109 129.096L212.918 129.258L213.566 129.906L214.214 130.715L214.862 132.821L215.834 133.792L217.13 134.602L218.101 133.954L219.883 132.335L219.721 131.687L219.073 131.201L218.101 129.906L216.806 128.61L216.158 128.286L215.672 127.476L214.376 126.667L213.728 125.371H213.404V125.047V124.561L213.242 124.075V122.78L213.08 122.132V121.322L212.756 120.513L212.918 119.865L212.594 119.541L212.433 119.217V118.731L212.271 118.407L211.947 118.083V117.436L211.623 117.112V116.788L212.433 116.626L212.918 116.302L213.242 115.978L214.376 116.626V117.112L215.51 117.759L216.644 118.731L217.454 119.865L217.777 120.675L219.721 122.132L220.207 121.97L220.531 122.618L220.693 123.104L221.179 123.428V123.752L222.151 124.075L222.313 124.399L222.96 124.885V125.047L224.094 125.533L224.742 125.857V126.181L225.228 126.343L225.066 127.638L224.904 128.772L225.066 130.068L224.904 132.659L225.066 133.631L225.714 134.116L226.848 134.44L227.819 134.926L228.791 135.088L229.277 134.926V134.764L229.925 134.602V135.088L230.087 135.25L230.735 135.736L230.411 135.898L230.087 136.222V137.355L229.439 138.327L229.601 139.623L229.439 140.756L229.763 141.728L230.897 142.538L231.383 142.7L231.545 143.024L231.707 143.186L231.221 143.509V143.833L231.545 144.319L232.355 144.643L233.002 145.453L233.326 146.263V146.91L233.488 148.206L233.002 148.044L232.84 149.502L233.164 149.987L233.326 150.311L233.812 151.445L233.65 152.093L233.812 153.064L234.298 153.388L234.622 154.036V155.008L234.946 155.98L235.432 156.789L236.242 157.437V158.085L236.566 158.733L236.404 159.219L236.08 159.381V160.028L235.432 160.514L235.27 161L235.594 161.81V163.105L235.108 163.753L234.46 164.401L234.784 165.373L235.108 166.344L235.594 167.316L235.756 167.64V168.45L235.594 169.098L235.756 169.421L235.918 170.879L236.242 171.203L236.566 171.041L236.89 171.203L237.376 171.689V172.013L237.699 172.175L237.537 172.498H237.214L237.052 172.175V172.013L236.566 171.851L236.728 172.013L236.89 172.822V173.47L237.052 173.956L237.214 174.28L237.861 174.766L238.347 175.414L238.995 175.575L239.481 175.899L239.805 176.385L239.967 176.871L240.291 177.033L240.453 176.709H240.777L241.425 177.843L241.263 178.329L241.425 178.814L241.587 179.624L241.911 180.434V181.082L242.073 181.568L242.397 182.377L242.72 183.025L243.206 183.349L243.692 184.483L244.34 184.645L244.502 184.969V185.292L244.826 186.102L245.312 186.264L245.474 186.75L245.96 186.912L246.446 187.074L246.608 186.75L246.77 186.912L247.741 187.074L248.065 186.588L248.227 186.75L247.903 187.236V187.398L248.389 187.56L248.551 187.236H248.713L249.037 187.398L249.361 187.56L249.523 187.236H249.685L249.847 187.398L250.333 187.56L250.657 188.046L250.333 188.37L250.657 189.179V189.503L250.333 189.665V190.313L250.009 190.475L250.171 190.961L250.333 191.447L250.657 192.256L251.143 192.58L251.305 193.876L251.467 194.362L252.115 195.495L252.277 196.467L252.6 196.791L253.41 197.115L253.248 197.439L253.734 197.763L253.896 198.248H253.734V198.734L254.058 198.896L254.382 199.058L254.22 199.22V199.382L254.382 199.706L254.22 200.03H253.896L253.734 200.516V200.84L254.22 201.325L254.058 201.973L254.382 202.945L254.868 203.269L255.192 204.079L255.516 204.403L255.678 204.726L255.354 204.888V205.86L255.678 206.67L256.326 207.318L256.812 207.48V207.642L257.136 207.965V208.127V208.289L257.459 208.613V208.937L257.621 209.261L257.783 209.909L258.431 210.233V210.557L259.241 210.719L259.565 211.042L259.403 211.528L259.565 211.852L259.889 212.338H260.537L260.861 212.5V212.176H261.023L261.347 212.338L261.509 212.662L262.48 213.31V213.634L262.642 213.796L262.48 214.12L262.804 214.281L262.966 214.605V215.415V215.901L263.614 216.387L263.938 217.035L264.424 217.52V217.844L264.748 218.168L264.91 218.006L265.234 218.33V218.492H264.91V218.654L265.072 218.816V218.978L265.72 219.626V219.788L266.044 219.95L265.882 220.112L265.72 220.436L266.044 220.759V220.921V221.407L266.206 221.731L266.368 222.055V222.379L266.53 222.703L266.692 223.027L266.854 223.513V223.675L267.016 223.836H267.178L267.016 224.322V224.646V224.808L266.854 225.456V226.104L266.206 226.914L265.882 227.885L265.72 228.371V228.857L265.558 229.343L264.748 229.505L264.1 230.314L263.938 231.286L263.776 232.582L263.452 233.392V234.363V235.173L263.614 235.983L263.776 236.469L263.452 236.792L263.614 237.278L263.938 238.412V238.736L264.262 239.384L265.882 241.327V241.975V242.461L265.558 242.947V243.432L265.72 243.918L265.558 244.404L265.882 244.89L266.044 245.214V245.7L266.206 246.024L266.044 246.671L267.34 248.291V248.615L268.149 249.101L267.987 249.425L268.635 250.558L269.121 251.368L269.445 252.178L269.931 252.502L270.741 252.826L270.903 253.635L271.551 253.959L271.713 254.283L272.684 254.769L273.98 255.093L275.276 255.417L276.734 255.741L279.163 256.226L281.593 256.065H282.403L282.726 256.226L282.564 256.55L282.079 256.874L281.431 257.198L280.621 257.522L280.135 257.198L279.001 256.55L277.705 256.226L277.544 256.55L278.029 256.874L277.867 257.684L278.191 258.17L278.353 258.656L278.191 258.98L278.353 259.627H279.487L280.621 259.304L280.945 259.465L281.431 259.304L281.593 258.818V258.332V258.008L281.755 257.846L282.726 257.036L283.536 256.065L283.86 254.121L283.212 253.959L283.374 253.473V252.987L283.05 252.826L282.726 252.664L282.888 252.502V252.016L282.726 251.53H282.564L282.403 252.016H282.079V251.044L282.241 250.72L282.079 250.558L282.241 250.072L282.079 249.748V249.263V248.939H282.726L282.888 248.777L282.403 248.615V248.291L282.726 247.967H283.374L283.698 247.643L284.022 247.157H284.994L286.128 247.481L286.29 247.319L286.938 247.643L287.1 247.967L286.776 248.129V248.777L287.1 249.101L287.585 249.263L287.909 249.748L288.557 249.91L288.881 250.234L289.205 250.882V251.368L289.529 251.854L289.691 252.178L290.987 252.502L291.473 252.987L291.959 253.473L292.283 253.635L293.092 254.121H293.74L293.902 254.283L294.226 254.445L294.388 254.931L294.874 255.093L295.036 255.417L295.684 255.579L296.332 256.065L296.98 256.55L297.466 257.036L297.627 258.17L297.951 258.494L297.789 259.304L298.113 259.465L298.275 261.733L298.437 262.704L298.923 263.19H299.895L301.029 263.676L302.81 263.19L304.592 262.543L305.402 262.057L305.726 261.895L305.888 262.219V262.704L306.05 263.19L306.536 263.514L306.86 264V264.486L306.698 264.648L306.536 264.972L305.888 265.62H305.726L305.564 265.782V266.267L305.402 267.077L305.24 267.563L305.402 268.211L305.726 269.182L305.888 269.668L306.374 269.83L306.698 269.992L306.86 270.316L307.184 270.64L307.346 270.802L307.669 271.126L308.317 271.288L309.775 273.069L310.747 273.879L311.233 274.851L311.881 275.337L311.233 276.47V277.928L311.557 279.061L312.043 280.843L311.881 282.138L312.69 282.948L313.662 283.434L314.472 283.758L314.634 284.082L315.444 284.244L315.93 284.406L317.064 284.892L317.388 285.377L317.873 285.539L319.169 285.863L319.979 286.025L320.303 286.349V286.997L321.113 287.321L322.085 287.483L322.57 287.645V288.131L322.085 288.454V289.264L322.57 290.236L323.704 291.855L324.514 292.665L324.676 293.637L324.352 294.447V295.094L325 295.256V296.066L324.838 296.552L324.352 296.876L324.514 297.362L324.352 298.333L324.514 298.819V299.953V300.763L324.19 301.41L323.866 301.572V302.058L324.028 303.192L323.866 303.678L323.704 304.164L323.218 304.973V305.621L322.732 305.945L322.247 306.755L321.275 308.212L320.789 308.536L320.303 309.508L319.817 309.67L319.493 310.318L318.035 310.965L317.388 311.613L316.092 311.775L315.12 312.261L313.014 312.909L312.043 313.719L311.071 314.204L310.909 315.014L311.233 315.338L310.261 316.472L308.965 316.634L306.86 318.091V319.063L305.888 319.873L305.402 320.359L304.754 320.844L304.268 321.006H303.134L302.325 321.33V321.816L302.648 322.14L300.867 322.302H299.895L299.409 321.978L298.761 321.816L297.789 321.168L296.494 320.035L295.846 319.225L295.036 318.253L294.064 316.796L293.902 316.31L293.578 315.176L293.254 314.852L292.768 313.395V311.937L290.663 304.326L290.339 301.087L290.015 299.629L289.529 299.143L289.205 298.657L288.071 296.714L287.747 295.904L287.1 295.256L286.938 294.285L285.318 291.531L284.832 291.046L283.536 288.454L281.269 286.349L279.001 285.054L273.494 282.462L270.903 281.329L267.663 278.576L262.804 273.231L259.889 269.668L258.107 268.211L257.298 267.563L256.812 267.401L256.65 266.753L256.164 266.267L254.382 264.324L253.41 263.514L251.953 262.219L250.819 261.409L250.495 260.761L249.361 259.789L247.418 258.494L246.284 257.522L244.826 256.712L243.206 255.903L240.777 253.959L238.185 252.664L230.573 248.615L230.411 248.291L230.897 248.453L234.622 250.396L233.812 249.587L232.193 248.453L230.573 247.805L229.925 247.643L229.115 246.995L228.629 246.024L227.01 244.404L226.038 243.918L225.066 243.756L223.608 242.623L222.475 241.003L221.989 239.222L221.017 237.44L220.855 236.954L221.341 237.116H221.827L221.179 236.469L220.207 235.659L219.721 235.173H218.911V235.983L219.397 236.631L218.749 237.764L217.454 237.602L216.968 237.278L216.482 237.44L215.672 237.602L214.7 237.44L213.89 237.278L214.862 238.25L215.834 238.898H215.024L214.538 238.736L214.052 238.898L213.566 239.384L213.242 238.736L213.08 237.926L213.242 237.278L213.404 235.983L212.433 233.392L211.785 231.772L210.975 230.962L210.165 229.991L209.193 228.695L208.059 227.885L207.573 227.075L207.735 226.914L208.707 227.723L208.869 227.561V227.075L207.897 226.59L206.926 225.618L206.278 224.484L205.954 223.836L205.792 222.865L205.468 221.893L204.982 220.921L204.334 220.436L204.82 221.893L204.982 223.351L205.306 224.484L206.278 225.456H206.116L205.306 226.104L205.63 226.266L206.116 226.914L206.278 227.075L205.954 227.237H205.63L205.306 226.914L204.982 226.428L204.172 227.399L203.686 226.59L202.714 223.998L203.2 223.675L203.362 223.189V222.703L203.2 222.217L202.391 222.703L202.229 223.351L202.552 224.97V226.104L202.714 226.59L201.905 226.752L201.095 226.266L200.771 225.618L200.447 224.97L200.285 223.998V222.379V221.893L199.961 221.569L199.637 221.407H199.313L198.989 220.436L199.475 220.274L200.285 219.464L200.609 219.14L200.285 218.006L200.123 217.682L199.961 217.52V217.035L200.123 216.873L200.771 216.387L200.933 216.063V215.739L200.447 215.091L200.285 214.443V213.958L199.961 213.634L199.637 213.958L199.151 214.605V215.577L198.827 216.063L198.341 216.711L198.665 217.682L199.151 218.654L198.503 219.626L198.017 220.436H197.531L197.37 219.464L197.531 218.816L197.693 217.52L197.208 217.197V216.873L197.046 216.387L197.37 216.063H198.017L198.179 215.577L197.855 215.091L198.179 214.443L198.665 213.472L198.989 212.014L198.827 211.69L199.151 210.881V210.233H198.665V209.909L198.179 209.585L198.341 208.937L198.503 208.289L198.341 207.48V206.67L198.665 205.212L199.313 203.755L200.123 202.459L200.933 201.487L201.095 200.678L201.257 199.058V196.305L201.419 194.848L200.771 194.686V193.876L201.095 193.066L201.419 192.58L201.581 191.77V191.285L200.933 191.123L201.257 190.475L202.552 189.989L203.362 189.665L202.876 189.503H201.581L201.095 189.827L200.933 189.341L201.257 189.017L201.905 188.531V187.56L201.743 185.778L201.419 184.645L201.743 183.511L201.905 181.892L201.419 178.814L201.257 177.357L200.933 176.871L200.609 177.195V178.005L200.771 183.511L200.447 185.778L200.285 187.722L199.961 188.046V187.56V186.264L200.123 183.349V176.547L199.799 173.632L198.665 172.013L198.341 169.907L197.37 168.126L196.398 164.887L195.588 162.781L194.616 161.648L193.644 160.352L192.51 159.704L191.215 159.866L190.405 158.895L190.243 157.275L189.919 155.656L188.785 153.226L187.166 151.121L186.032 149.987L184.25 149.016L183.764 148.854L183.116 149.178L182.792 149.664L182.469 150.149L181.659 150.311L178.905 148.368V148.206L179.067 147.396L178.743 146.91L178.095 147.396L177.286 147.558L176.638 147.072L176.314 146.101L176.152 145.939H175.342H173.398L172.75 145.777L170.969 143.348L169.673 142.376L168.215 141.566L167.406 140.918L166.11 139.947L164.652 138.489L162.87 136.87L160.441 135.574L160.279 135.088V134.926V134.764V134.44L160.117 134.278H159.793H158.821L158.173 133.954L157.526 133.307L156.23 132.173L155.42 131.363L155.582 130.715L155.42 129.906L155.744 129.258L155.582 128.772L155.258 128.448L154.772 127.476L154.286 126.667L153.476 125.695L152.99 125.371L152.343 124.561L151.857 123.752L151.695 123.104V122.618V121.97L152.504 121.484L152.828 121.322L152.343 120.998H152.019L151.371 121.322L150.723 121.484L150.561 122.132L150.399 122.78L149.751 122.942L149.265 123.104L149.427 123.59L149.265 123.914L148.779 124.237L148.293 123.914L147.807 123.266L147.645 122.78L147.483 121.97L147.16 121.646L147.483 121.484L148.455 121.322L148.779 120.998L149.427 120.513L149.913 120.189L150.399 119.541L150.885 118.893L151.533 118.569L151.857 117.921L152.181 116.95L152.504 116.464V113.873L152.181 112.901L151.533 112.091L150.723 111.929L149.913 112.253L149.265 113.387L149.103 116.626L148.779 118.245L147.483 119.379L146.836 119.055L146.35 119.703L146.026 120.351V120.836V121.322V121.646V122.294V123.104L145.702 123.428L145.054 123.59L143.11 122.132L141.329 121.16L139.709 120.836L138.737 120.675H137.442H136.47L134.85 121.322L134.202 122.618L133.878 123.428L133.068 124.075V125.209H132.421L131.611 125.857L130.477 125.695L128.695 124.885L127.4 122.618L124.646 120.998L124.16 120.189L123.998 119.541L123.188 117.759L121.569 114.682L120.273 113.225L118.653 112.253L117.519 111.443L116.062 110.958L113.632 110.634L112.984 110.958V111.605L112.499 111.767L112.013 112.091L111.527 111.767L109.421 109.662L108.773 107.881L107.801 106.585L106.506 105.127L104.886 104.156L103.266 103.346L102.133 103.184L100.837 102.536L99.0552 102.86H98.2453L98.0834 103.994L96.9496 103.022L95.4919 101.888L93.3863 101.079L92.2526 101.888L91.6047 101.403L91.9286 100.755L91.7666 100.269V99.6211L91.1188 99.2972L90.3089 98.9733L89.6611 99.1352L89.1752 98.1635V95.8962L89.3371 93.6289L89.0132 91.5236L88.2034 89.2563L87.2315 88.2846L86.7456 87.7988L85.6119 87.1509L84.802 86.989L83.9922 85.5315L82.3725 85.0456L80.105 84.0739L78.4853 83.2642H77.6755L77.0276 81.9686L76.8656 81.6447L76.2177 80.8349L76.0558 80.511L75.4079 79.0535L74.2741 78.0818L73.1404 77.5959L72.8164 77.7579L72.4925 78.2437L72.0066 78.0818L71.6827 77.5959L71.0348 76.7862L71.1968 76.6242L71.8446 77.1101H72.3305L72.4925 75.9764L72.3305 75.4906L72.1686 74.8428L71.6827 74.5189L71.1968 74.195H70.5489L70.3869 74.5189L70.063 75.0047L69.901 75.8145L69.4151 75.4906L68.4433 75.1667L68.1194 73.8711L67.6335 73.0613L66.4997 72.5755H65.8518L65.204 73.0613L64.7181 72.4135L64.2321 71.7657L63.7462 70.794V69.8223L63.0984 68.8507L62.9364 68.2028L62.7745 67.555L62.6125 67.3931L61.4787 65.9356L62.7745 65.4497L63.4223 65.6117L64.2321 66.2594L64.7181 67.0692L66.8236 67.2312L68.9292 66.7453L70.7109 67.0692H71.3587L72.3305 67.3931L72.8164 68.0409L73.7882 68.2028L75.246 67.8789L76.2177 68.0409L77.3515 68.3648H78.1614L78.3233 68.8507L78.8092 69.1745L79.6191 69.3365H80.5909L82.0486 69.6604L83.6683 69.9843L85.2879 69.6604L87.0696 69.3365L88.5273 69.9843L90.3089 69.1745L91.6047 68.6887L92.9004 67.717L93.5483 67.2312L94.0342 66.7453L94.844 65.9356L95.8158 65.2877L96.3017 64.9638L96.6257 64.8019H97.1116H97.5975L97.9214 65.1258V65.4497L98.0834 65.9356L98.2453 66.9072L98.0834 67.717L97.7594 68.5267L97.4355 69.1745L97.2735 69.6604L97.5975 70.4701L98.7313 72.0896L99.703 72.5755L100.675 73.5472L101.323 74.033L102.78 74.3569L103.59 75.0047L104.724 75.4906L105.534 76.1384L105.858 76.9481L106.182 77.272V77.7579L106.668 78.0818H106.992L106.83 78.5676L106.992 79.0535L107.477 78.7296L107.963 78.4057L108.287 77.9198V77.5959L109.097 76.9481L109.583 76.3003L109.745 75.6525L109.421 75.3286L109.097 75.4906L108.935 75.1667V75.0047L108.773 74.8428L108.449 75.0047H108.125V74.6808L108.287 74.3569H108.773L109.259 74.195L109.583 74.3569V74.6808L109.745 75.0047L110.393 74.8428L110.879 75.0047V75.4906L111.203 75.6525L112.013 76.1384L113.308 76.3003H113.956L114.118 75.9764L114.442 75.4906L114.766 75.0047L114.928 74.5189L115.576 74.033L115.738 73.3852L115.576 72.8994L115.09 72.5755L114.604 72.4135L114.442 72.0896L113.632 71.7657H113.308L112.984 71.6038V71.1179L112.66 70.956H112.337L112.013 71.2799H111.689H111.041L110.879 71.4418L110.555 71.2799L110.069 70.3082L109.745 69.4984L109.421 69.0126L109.097 68.5267H108.773L108.611 68.6887L108.773 69.1745L109.097 69.9843V70.4701L109.583 70.794L109.745 71.2799L110.069 71.9277L109.907 72.2516H109.583L109.421 72.5755V72.8994L109.259 72.7374L108.935 72.5755H108.449L108.125 72.8994L107.477 73.2233L106.992 73.5472L106.344 73.3852L106.02 73.2233L105.696 72.7374L105.21 72.2516V71.7657L105.048 70.956L104.724 70.4701L104.238 69.9843L103.752 69.1745V68.5267L103.59 67.8789L103.752 67.2312L104.076 66.9072L104.238 66.2594L105.048 65.2877L105.534 64.6399L105.696 63.9922L105.534 63.8302L105.048 63.6682H104.886L104.724 63.5063L105.21 63.1824L105.372 63.0205L105.534 62.8585L105.372 62.5346L104.886 62.3727L104.562 62.2107L104.4 61.8868L104.562 61.401L104.724 61.0771L104.238 60.7532H103.914L103.59 60.9151V61.401L103.266 61.7248L102.942 61.8868L102.618 62.2107L102.133 62.5346L101.485 62.3727L100.675 62.8585L100.351 63.3443L99.865 63.8302L99.3791 64.1541L98.8932 63.3443L99.0552 62.5346L99.2172 61.8868L99.703 61.0771L100.027 60.5912L100.999 59.7815L101.323 59.1337L101.971 58.3239L102.133 58.162H104.886L105.372 58.8097L105.696 59.6195V60.1054L106.83 61.8868L107.477 60.4292V59.4576L107.316 58.3239L107.154 58.162H108.449L108.611 58.3239L108.935 58.162ZM146.836 124.885L147.645 124.399L148.131 124.561L148.455 124.723L148.941 125.047L148.779 125.371L149.265 125.533L149.427 125.371L149.589 125.047H149.913H150.237L150.723 126.019L151.533 126.991L151.857 127.638V127.962H151.533L151.047 127.638L150.561 127.314L149.427 126.829L147.969 126.343L146.836 126.181L146.35 126.019L146.026 125.695L146.35 125.209L146.836 124.885ZM270.579 222.541L271.065 222.217L271.389 222.055L271.551 222.217L271.389 222.703L271.551 222.865L271.713 223.189V223.513H271.389V223.189H271.065H270.741L270.579 222.865V222.541ZM264.586 198.248H265.072H265.396L265.72 197.925V198.248L265.558 198.41L265.072 199.22L264.91 200.03L264.586 200.516L264.262 200.678H263.938L263.776 200.354L263.614 199.706L263.776 199.22L264.586 198.248ZM199.799 189.179L199.961 188.855L200.285 189.017L200.123 189.827L200.285 190.637L200.123 191.932V192.904L199.799 193.876L199.637 195.333L199.961 196.467L199.799 197.277L199.475 197.925L199.313 198.572V199.382L199.151 199.544L198.665 199.22L198.341 198.734L198.503 197.925L198.989 197.115L199.313 195.495L199.475 193.228L199.961 191.285V190.313L199.799 189.179ZM248.551 178.005V177.519L249.199 177.681V177.357H249.523L249.847 177.843L250.171 178.167L250.333 178.329L250.657 179.138L250.495 179.624L250.333 180.11L250.009 180.434H249.685L249.199 179.786L249.037 179.462L249.199 179.138L248.713 178.329L248.551 178.005ZM239.319 172.175L239.481 172.337V172.822H239.805L239.643 173.146L239.805 173.47H239.967L239.805 173.632V174.118L239.967 174.28V174.604H239.805L239.481 174.28L239.319 173.794V173.308V172.822L239.157 172.337L239.319 172.175ZM238.023 155.98L238.509 155.494H238.833H238.995L239.157 155.98L238.995 156.465L238.833 156.627L239.157 156.789L238.995 157.113H238.509H238.185H238.023L238.185 156.951V156.789L238.347 156.627L238.023 156.303V155.98ZM200.285 98.8113L199.799 98.1635L200.609 97.0299L201.743 98.0016L202.714 99.2972L202.391 100.431L201.743 101.241L200.771 101.079L200.447 99.945L200.285 98.8113ZM209.841 88.1227L209.193 87.6368L209.355 86.989L210.327 86.8271L211.137 87.1509L211.461 87.6368L211.299 88.1227H210.327H209.841ZM55.8098 63.8302H56.1338L56.7816 64.3161L57.2675 64.8019L57.7534 65.1258L57.9154 65.4497L57.5915 65.9356L57.2675 66.0975L56.9436 65.9356L56.7816 65.1258L56.2957 64.3161L55.4859 64.1541L55 63.9922L55.162 63.6682L55.8098 63.8302Z" fill="#6F9C76"/>
</svg>
