<svg width="380" height="380" viewBox="0 0 380 380" fill="none" xmlns="http://www.w3.org/2000/svg">
<path d="M171.295 314.37V310.304V306.238V302.173V300.546H166.416L164.247 300.275H162.078L160.994 300.004L160.181 299.462L159.639 298.92L158.825 298.107L157.47 297.565L155.843 297.294L154.488 297.565H152.861L151.506 297.294L149.88 296.209L148.524 295.125L147.44 294.312L146.084 293.228L144.729 292.686L143.373 292.144H141.747L140.121 291.873L138.765 291.602L137.681 291.059L136.054 290.517L135.241 290.246L134.428 289.975L133.343 289.704H132.53H130.633L128.464 289.433L126.295 289.704L124.669 289.975L124.398 290.517L124.127 291.33L123.856 292.144L123.584 292.686V293.499V294.312L123.856 295.125V295.938L123.584 297.294L122.771 299.462L121.958 301.088L121.145 302.173H117.62H113.825H110.03L106.235 301.902H103.795L101.084 300.817L98.9157 299.462L96.7471 297.836L95.3916 297.294L95.1205 295.938L94.5783 294.583L93.2228 293.77L92.1386 293.499L91.0542 292.957L89.97 292.415L88.8856 291.602L87.2591 290.246L85.3615 288.891L83.7349 287.265L81.8374 286.18L80.482 284.283V281.03L80.753 277.778L81.024 275.338V271.544V267.749V263.954V260.159L77.5 260.43L73.9759 260.701H70.1807L66.6566 260.159H66.1144L65.5724 260.43L65.0302 260.701L64.2169 260.43L63.4036 259.888L62.8615 259.346L62.3193 258.804L61.5061 258.262L60.4217 256.907L59.6085 255.009L59.3373 252.841L58.7952 250.943L57.7108 249.317L56.6264 247.962L55.8132 246.335L55 244.98L61.2349 243.083L69.9096 242.541L78.3132 241.728L88.0723 240.643L94.3072 240.914L96.7471 241.456L98.9157 243.896L102.982 246.606L103.524 247.149V247.962L102.982 249.046L102.44 249.588L101.355 249.859L101.898 249.317V248.775L101.084 249.046L99.9999 249.317H98.1025L97.2891 249.046V248.233L97.5603 247.149L97.2891 246.606H96.4759H96.2049L94.5783 247.962H94.3072L93.765 247.691H93.2228L92.1386 247.962L91.8674 248.233L92.4096 248.775H93.494V249.317L92.4096 249.588L91.3254 249.859L90.512 249.588L89.6988 248.775V249.317L89.97 249.588V249.859L90.241 250.401L89.6988 250.943L89.1566 251.756L88.8856 252.299L88.6145 253.383L88.8856 252.841L90.241 252.028L91.5964 253.383L92.4096 253.654L93.494 253.925L95.1205 253.383L96.2049 253.112L96.7471 253.654L97.2891 254.738L98.3735 255.551L99.9999 256.364L101.355 256.636L99.4579 255.009L97.2891 253.654L95.3916 252.028L95.1205 249.317L96.7471 250.13L97.5603 250.943L98.3735 251.214L100.271 250.401L99.4579 252.028L100.271 252.57L101.355 253.112L102.169 253.925L102.44 255.009L101.355 254.467V254.738V255.009H100.813L102.169 255.822L105.422 256.907L106.235 257.72L105.964 259.075L104.066 261.243L103.524 262.599L104.337 263.683L105.693 265.038L107.048 266.122L108.132 266.393L108.946 265.309L108.675 263.954L107.861 262.87L107.319 261.243L107.861 261.786L108.675 262.328H109.488H110.572L109.759 261.243L108.675 260.159L107.861 259.075L108.404 257.72L110.301 258.804L115.181 260.159L117.349 261.243L118.976 260.701L122.5 261.514L124.398 261.786L128.193 261.243L130.09 260.701L131.446 260.159V261.243L131.988 262.057L132.801 262.328L133.343 261.786L133.614 260.701L133.072 258.262L132.801 257.178H132.259V257.72L131.988 258.262L131.717 258.804L130.904 259.075L129.006 259.888L128.735 259.617L129.006 258.804L130.633 256.636L131.446 256.093L133.072 255.009L137.681 253.383L139.849 252.028L140.934 252.57L142.289 252.299L143.645 251.756L144.729 250.943L145.271 250.13L146.626 247.691L147.169 247.149L149.609 247.42L150.964 247.149L151.506 246.878L152.048 246.064L155.301 244.98L156.386 244.167L155.03 243.625L153.946 243.896L152.048 244.98L148.253 245.793L147.44 246.606L149.88 240.372V237.662L148.253 235.222L146.898 234.138L146.355 233.867L145.542 233.596L144.729 233.867L144.458 234.409L144.187 234.951L143.645 235.222L142.018 234.951L139.849 231.97L138.223 231.427L139.307 229.53L140.934 227.633L142.831 226.277L146.355 224.922L148.795 223.296L150.964 221.127L152.048 219.501L150.151 220.043L145.271 224.109L140.121 226.548L138.223 228.446V230.343L137.41 230.614L137.139 230.343L135.241 231.427L134.428 231.698L132.801 231.97L131.446 231.698L131.175 231.156L133.072 228.988L136.868 226.006L142.018 223.025L148.524 218.959L158.012 214.622L164.247 208.93L165.874 208.117L169.398 206.762L175.633 202.696L181.596 194.835L183.223 193.48L185.934 192.667L188.374 190.498L190.542 187.788L191.627 185.077L192.711 169.085L193.524 165.561L193.795 163.935L193.524 162.038L193.253 160.682V159.327L193.795 157.43L195.151 153.906L196.777 151.466L201.115 148.214L208.163 143.335L211.145 139.811L211.958 136.558L212.229 135.203L212.5 133.848L211.958 132.493L209.789 127.885L209.518 126.8V126.258L209.789 124.632V118.127L210.331 114.061V109.453V107.556L211.416 102.948V99.695L210.331 92.9187V89.1238L211.958 82.0765L212.5 74.2158L213.313 71.7764L217.651 66.6263L218.735 65V67.4395L217.922 88.0396L219.277 90.4791L223.072 90.7502H226.868L229.849 91.2923L232.018 93.4607L233.102 96.4423L235.271 98.3397L236.627 97.5265L238.253 96.9845L239.608 98.3397L240.964 99.695L243.404 99.1529L244.759 96.1713L246.928 94.816L249.91 99.1529L251.265 101.321V103.49L252.621 106.742L253.976 107.827L258.584 111.079L261.295 116.229L263.193 122.193L267.259 126.258L272.41 128.427L277.289 131.95L282.711 142.522L287.048 146.858L290.843 152.008L291.657 157.701L293.825 162.309L297.078 167.188L301.416 170.711L306.295 174.235L315.783 182.638L323.374 192.125L325 198.088L324.458 203.238L324.729 209.201L324.458 210.556V213.267L323.374 215.435L319.849 219.23L320.121 225.193L317.681 241.456L318.223 246.335L320.934 249.859L321.476 253.925L320.663 255.28L320.392 256.636L321.476 257.178L322.831 257.72L322.56 259.617L321.747 261.514L321.476 263.141L322.831 270.459L323.374 276.422V281.572L321.747 286.18L314.97 294.312L314.157 295.396L314.699 302.173L314.157 302.986L313.615 306.238V313.286H296.536H279.458H262.38H245.301H228.223L211.145 313.015H194.066H176.717H173.464L171.837 313.557L171.295 314.37ZM123.856 234.68L127.38 233.054H128.735L129.006 233.596L129.548 234.409L129.819 235.222V236.306L129.277 236.035L129.006 235.764L127.38 237.12L126.566 237.391H125.482L125.753 236.848L126.295 236.306L126.837 236.035L127.651 235.764L126.024 236.035L123.313 237.12H122.229L119.247 241.185L116.807 243.083L114.368 243.625L115.723 240.914L111.657 243.354L109.488 244.438L107.048 244.98H105.422L104.88 244.709L105.422 244.167L106.506 242.812L107.319 242.27L110.843 240.914L113.012 240.372L117.078 238.204L120.331 236.035L123.856 234.68Z" fill="#6F9C76"/>
</svg>
