<svg width="380" height="380" viewBox="0 0 380 380" fill="none" xmlns="http://www.w3.org/2000/svg">
<path d="M61.3458 120.672L63.0266 120.882H64.9176L66.5985 121.092L68.2793 121.303L69.3298 121.513L70.8006 121.933H72.0613H73.3219L74.3724 121.092L75.633 120.042L76.6836 118.782L77.7341 117.731L78.9948 116.891L80.0453 115.84L81.0958 114.79L82.3565 113.74L82.5666 113.529L82.7767 113.319L83.1969 113.109L83.407 112.899L84.2475 112.059L85.0879 111.429L85.5081 110.588L85.7182 109.328L85.9283 107.437V105.756L86.1384 103.866V101.975V99.4538L86.3485 97.1429L86.9788 95.042L88.8698 93.9916H90.1304L91.181 94.2017L92.2315 93.9916L93.072 93.1513L93.9124 91.8908L94.3326 90.6303L94.7528 89.1597L95.1731 87.6891L95.3831 85.3782L94.9629 82.8571L93.9124 80.5462L93.072 78.4454L92.2315 76.3445L91.6012 74.2437L91.8113 72.3529L93.7023 70.8823L96.2236 70.2521L98.955 69.4118L101.476 68.5714L104.208 67.7311L105.468 67.3109L106.099 66.6807L106.309 65.8403L106.099 64.3698L105.678 63.1092L105.258 61.6387L104.838 60.3781L104.418 58.9076L104.628 57.8571L105.468 57.0168L106.729 55.9664L107.569 55.3361L107.99 54.916V53.8656L108.2 53.0252V52.1849V50.5042V48.6135L108.41 46.7227L109.25 45.2521L110.091 44.8319L110.931 45.2521L111.772 46.3025L112.402 47.1428L113.032 45.8824L113.662 44.6218L114.293 43.3614L114.923 42.1008L115.133 41.4706L115.553 41.0504L115.974 40.6303L116.184 40L117.234 40.8403L118.075 41.4706L118.915 42.1008L119.966 42.9412L122.277 44.6218L124.588 46.7227L126.899 48.4034L129.421 49.8739H131.101L132.572 50.084H134.253L135.724 49.6639L137.195 49.4538L138.245 50.5042L139.085 51.9748L139.926 53.4454L141.187 54.7059L142.237 55.9664L143.288 57.0168L144.758 58.0672L146.439 58.9076L148.12 59.958L149.801 60.7983L151.482 61.8487L153.163 62.8991L155.054 63.7395L156.734 64.7899L158.415 65.6302L159.676 65.4202L161.357 64.5798L163.248 63.5294L164.298 62.8991L166.189 62.0588L167.87 61.2185L169.551 60.3781L171.232 59.3277L172.072 60.1681L173.333 61.8487L174.804 63.9496L175.644 65L176.695 65.6302L177.325 64.7899L178.165 63.5294L179.006 62.6891L180.266 62.479L181.737 62.6891L183.208 62.8991L184.679 63.1092L188.251 63.9496L191.612 65L194.974 66.6807L197.915 68.9916L200.017 70.8823L202.538 72.9832L204.849 73.6134L207.16 71.5126L209.892 67.9412L212.623 64.1597L215.354 60.5882L218.086 56.8067L220.187 53.8656L222.078 50.7143L224.389 47.9832L226.91 45.6723L229.221 44.8319L231.533 44.6218L234.054 44.4118H236.365L237.836 44.2017L239.307 44.4118L240.567 44.8319L242.038 45.4622L246.87 47.3529L251.493 49.2437L256.325 51.3445L260.948 53.2353L261.788 53.8656L262.418 54.4958L263.259 55.126L263.889 55.9664L266.41 58.0672L268.722 60.1681L271.243 62.2689L273.554 64.3698L276.285 66.4706L279.227 69.2017L281.748 72.1429L282.589 75.5042L281.958 78.8656L280.488 82.0168L279.017 84.958L277.966 88.3193L277.756 91.6807L277.966 95.042L278.176 98.6134L278.597 101.975L278.807 103.866L279.017 105.756L279.227 107.857L279.437 109.748V110.168V110.378V110.798V111.218L279.647 112.689V114.79V116.681L278.807 117.731L277.756 118.361L277.126 119.202L276.916 120.042L276.285 121.092L275.655 121.723L275.235 122.353L274.605 122.983L274.184 123.824L273.554 124.244L272.924 124.454L272.293 124.874L271.663 125.294L270.823 125.924L269.982 126.555L269.352 127.395L269.142 128.445V129.916L269.772 130.966L270.402 132.017L271.453 132.857L272.083 133.487L272.714 134.118L273.134 134.958L273.344 135.588L272.924 136.008L272.293 136.218L271.453 136.429L271.033 136.639L269.982 138.319L268.932 140L268.512 141.681L268.091 143.571L268.301 144.622L268.722 145.462L269.562 146.092L270.402 146.933L271.663 147.983L272.504 149.034L273.344 150.294L273.974 151.975L275.445 154.076L277.756 155.546L280.278 157.017L282.169 158.487L283.219 160.588L283.429 163.319V165.84L283.639 168.571L285.11 170.882L287.631 172.563L290.363 173.613L292.884 174.244L295.405 174.664L298.137 175.294L300.658 176.345L302.969 177.395L304.23 178.235L305.7 179.286L306.961 180.336L308.222 181.387L308.432 178.655V175.714V172.983L308.642 170.042L309.903 169.832L311.373 168.361L312.634 166.471L313.474 165.21L314.735 163.319L316.206 161.639L317.467 159.958L318.937 158.067L319.988 160.168L321.038 162.059L322.299 163.95L323.56 165.84L325.241 167.941L327.342 170.252L328.812 172.563L329.443 175.084V179.286V183.697L329.653 187.899V192.101V193.151V194.412V195.462V196.513V198.403L329.443 199.244L328.812 199.664H327.131L324.4 200.084L321.669 200.504L318.937 201.345L316.206 202.185L313.474 202.605H310.953L308.222 202.185L305.49 201.765L300.028 200.504L294.775 199.454L289.312 198.403L284.059 197.143L281.748 197.773L279.017 198.613L276.496 199.874L274.815 201.555L274.605 202.605V203.866L274.395 204.916L273.974 205.756L272.924 206.387L271.663 206.597L270.402 206.387H269.352L268.512 206.597L267.671 207.227L267.251 208.067L267.461 209.118L267.041 209.958L266.2 210.378H264.94L264.099 210.588L263.259 211.219L262.839 212.059L262.418 212.899L261.998 213.74L260.738 215.84L259.687 217.521L258.426 218.992L256.535 220.252L256.115 220.462L255.485 220.672L255.065 220.882H254.644L253.174 221.723L250.652 222.773L248.341 224.034L247.711 225.084L248.341 226.345L248.131 227.815L247.921 229.496L248.341 231.176L248.131 233.277L246.24 234.118L244.349 234.538L244.769 236.218L245.82 237.269L246.87 238.319L247.501 239.58L247.711 241.05L247.291 242.101L246.87 242.941L246.24 243.782L245.82 244.622L246.45 246.303L247.921 247.353L249.392 248.403L250.232 250.084L250.022 251.345L249.392 253.025L248.551 254.076L247.501 253.656L246.03 252.185L244.769 251.765L243.509 252.605L242.668 254.496L242.458 255.756V257.017L242.038 258.277L241.408 259.328L239.727 260.588L237.836 261.849L236.155 263.109L234.264 264.37L233.003 265.21L232.373 265.84L231.953 266.891L231.743 268.571L231.533 271.092L231.323 273.613L231.112 276.134L230.902 278.656V279.916L230.692 281.597L230.482 283.277L229.852 284.118L228.591 284.748L227.751 285.168L227.331 286.219L227.12 287.689L226.91 294.832L226.7 301.975L226.49 309.118L226.28 316.05L225.86 318.782L225.229 321.513L224.389 324.034L223.549 326.555L222.498 329.916L221.658 333.277L220.607 336.639L219.767 340L219.346 337.479L219.136 334.958L218.716 332.227L218.296 329.706L216.195 330.756L214.094 331.597L211.993 332.647L209.682 333.487L208.211 333.697L206.32 332.857L204.639 331.807L203.168 330.756L201.487 329.286L200.647 327.395L200.017 325.294L199.596 322.983L199.386 322.143L199.176 321.303L198.756 320.462L198.336 319.832L197.075 318.992L194.974 317.731L193.083 316.681H191.822L189.931 317.941L188.251 319.412L186.36 320.672L184.679 321.933L183.418 323.193L181.737 324.454L180.056 325.504L178.375 325.294L178.165 324.034V321.933L178.375 320.042V318.361L178.586 316.681L179.006 315.63L179.636 314.79L180.687 313.529L181.527 312.689L182.998 311.429L184.469 309.958L184.889 309.118L184.259 307.437L183.628 305.756L182.788 304.076L182.157 302.185L181.527 300.924L180.897 300.084L180.056 299.454L178.796 298.824L176.064 297.353L173.123 295.672L170.391 294.412L167.45 293.361L164.298 292.941H161.147L157.995 293.151H154.844L154.633 291.261V289.37V287.479V285.588L152.112 285.798L149.591 286.008L147.07 285.798L144.968 284.748L144.128 283.908L143.077 282.647L142.027 281.597L141.187 280.966L140.766 280.546L140.346 279.916V279.286L139.926 278.866L139.085 278.025L138.245 277.605L137.405 276.975L136.774 275.924L136.564 275.294L136.774 274.454V273.613L136.564 272.983L135.934 272.143L135.514 271.303L135.303 270.672L135.514 269.622L135.724 268.992V268.361L135.514 267.731L135.093 267.101L134.673 266.681V266.05L134.883 265.63L135.093 265L134.463 263.529L133.413 262.059L132.362 260.798L132.152 259.328L131.101 259.118L130.261 258.908L129.21 258.698L128.37 258.277L127.319 257.227L126.689 255.966L126.479 254.496L126.059 253.025L125.639 251.765L125.008 250.714L124.378 249.664L124.168 248.613L123.958 247.353L123.748 246.303V245.252L123.538 243.992L123.117 241.471L122.697 238.74V236.218L122.907 233.698L123.748 231.597L124.798 229.706L125.639 227.605L126.269 225.504L124.798 225.924L123.327 226.345L122.067 225.924L121.016 224.874L120.176 223.193L119.335 221.513L118.705 219.832L118.075 218.151L117.444 216.471L116.604 214.37L115.764 212.479L114.713 211.008L113.242 209.538L111.772 208.277L110.301 206.807L108.62 205.546L108.2 205.126L107.569 204.496L106.729 204.286L106.099 203.866L103.577 203.445L101.476 203.866L99.1651 204.916L97.2741 206.597L96.4337 207.437L95.8034 208.487L95.1731 209.328L94.5427 210.168L93.4922 210.588H92.4416H91.6012H90.5507L89.29 210.798L88.2395 210.588L87.3991 210.168L86.1384 209.328L85.0879 208.487L84.0373 207.437L82.9868 206.387L81.9363 205.336L81.306 204.496L81.0958 203.445V202.395V201.345V199.874L80.8857 198.824L80.4656 197.773L79.8352 196.513L79.415 195.882L78.9948 195.042L78.5745 194.202L78.3645 193.361L77.7341 192.311L77.3139 191.471L76.4735 190.84L75.633 190L74.3724 187.689L73.532 185.168L72.2713 183.067L70.1702 181.807L69.1197 181.177L68.2793 180.336L67.8591 179.286L67.2288 178.025L66.3883 177.395L65.5479 177.185H64.7075H63.657L62.6064 176.975L61.766 176.765L60.9255 176.134L60.5054 174.874V174.034V173.193L60.2952 172.353L59.875 171.513L59.0346 170.882L57.9841 170.672L56.9335 170.252L56.0931 169.622L55.4627 168.782L54.8324 167.521L54.6223 166.05L54.2021 165L53.1516 162.269L52.3111 159.328L51.4707 156.597L50.6303 153.866L50 150.714V147.563L50.4202 144.412L50.8404 141.261L51.2606 138.529L51.891 135.378L52.5212 132.437L53.7819 129.916L55.0426 128.655L56.0931 127.605L57.1436 126.555L57.7739 125.084L58.4043 123.824L59.4548 122.773L60.5054 121.723L61.3458 120.672Z" fill="#6F9C76"/>
</svg>
