<svg width="380" height="380" viewBox="0 0 380 380" fill="none" xmlns="http://www.w3.org/2000/svg">
<path d="M55.6755 167.847V167.622L55.9007 167.397L56.3511 166.496L56.5763 165.82L56.8015 165.145L56.5763 164.244L56.1259 163.344L55.4503 162.218L55 161.092V159.066V157.039L55.2251 155.013L55.6755 153.211L55.9007 152.536V151.86L56.3511 151.41L56.8015 150.735L57.477 150.059L57.9274 149.834L58.6029 149.609H59.7289H61.0801L61.9808 149.384L63.1067 149.158L64.2326 148.933H65.1334L66.0341 149.158L66.9349 148.933L67.8357 148.258H68.5113H69.1868L69.6372 148.483H70.3127L70.9883 148.258L71.4387 147.807V147.357L71.6638 146.682L72.7897 145.331L73.9157 143.754L74.5914 142.403V140.602L73.9157 135.874L73.4654 131.145L74.3661 126.867L77.0684 123.265L79.3202 122.364H82.0225L84.9499 122.589H87.427L88.5529 122.814L89.4537 123.039L90.5796 123.265L91.2552 124.165L91.9307 125.291L92.3811 126.192L92.8315 127.092L93.9574 127.993L95.3085 128.669L96.4345 129.344L98.0108 129.794L99.362 130.02L102.965 129.344L106.343 128.443L109.721 127.543L113.098 126.642L114.675 125.741L125.033 126.417L128.186 125.741H129.762L131.113 126.417L131.339 126.867V127.768L131.564 128.443L131.789 128.218L132.239 127.993H133.14L133.59 128.218L133.816 129.119L134.266 130.695L136.293 130.02L136.968 129.344L136.068 128.443H143.048L143.724 128.894L145.976 131.371L146.877 132.046L148.003 132.722L148.903 132.947V132.722L149.354 131.821V131.596L149.579 131.821L150.254 132.046H150.48L150.705 132.496L150.93 133.172L151.155 134.072L150.93 134.748L150.48 135.423L149.804 135.874L149.354 136.774V137.9L150.029 138.801L151.38 140.152L153.632 138.125H153.857L154.533 138.351L154.983 139.476L155.884 138.125L156.785 136.549L157.01 135.198L156.56 134.072L154.983 132.722L153.182 131.371L151.605 130.02L149.804 128.894L148.678 127.768L148.003 126.642L147.777 125.291V123.49L147.552 121.914L147.327 120.338L146.877 118.987L146.201 117.41L145.976 115.834L146.651 114.934L147.327 113.808L147.777 112.457L147.102 111.331L145.976 110.205L144.85 109.079V107.728L145.751 106.828L146.426 105.702L147.327 104.576L148.453 103.901L149.804 104.126L150.705 105.252L151.38 106.828L151.605 108.404L152.281 107.728L152.957 107.053L153.632 106.377V105.702L153.857 105.026L154.308 104.351L154.983 103.675L155.659 103L158.136 103.901L160.388 104.576L162.865 104.801H165.567L166.468 105.026L166.918 105.252L167.143 105.927V107.053L167.369 107.728L167.819 108.179L168.269 108.854V109.53L167.594 111.106L166.918 112.232V113.583L167.594 114.934L168.044 115.834V116.735V117.41L167.819 118.311L168.044 118.987L168.495 119.662L168.945 120.338L169.62 121.013L170.746 122.139L171.872 123.265L172.773 124.616L173.224 126.192V127.993L172.548 129.794L172.098 131.371L172.773 132.722L173.449 133.172L173.899 133.847L174.349 134.523L174.8 134.973L175.475 135.649L176.376 135.874H177.277L178.178 135.649L178.853 135.198L179.304 134.523L179.754 133.847L180.655 133.622L182.006 132.496L183.357 131.371L184.933 130.245L186.284 128.894L187.861 127.318L188.761 125.741L189.887 123.94L190.788 121.914V121.688L191.013 121.463L191.239 121.013L192.59 120.788L193.941 120.563L195.067 120.112L196.418 119.887L197.769 119.212L199.12 118.761L200.471 118.536L201.822 118.086L202.048 117.861H202.498L202.723 117.636H203.173L204.525 117.41L205.651 117.185L206.551 117.41L207.677 118.311L208.353 119.212L209.028 119.887L209.704 120.112L210.83 118.987L211.505 118.311L211.731 117.636V116.96V116.059L212.181 115.384L212.631 114.708L213.307 114.483L213.982 113.808L214.433 113.358L215.108 112.682L215.784 112.232L216.234 111.781L217.811 110.43L219.162 110.881L220.288 112.232L221.414 113.583L222.314 113.808L222.765 114.258L222.99 114.934L223.44 115.609L224.341 116.285L225.917 116.735H227.494L228.395 116.51L227.944 117.636L227.494 118.987L227.719 119.887L229.07 120.338L230.196 120.563L230.646 121.688L230.872 122.814L232.223 123.265L232.673 123.94L233.123 124.841L233.574 125.741L234.024 126.417L234.7 127.318L235.375 127.993L236.051 128.443H236.952H238.303L238.528 129.569L238.753 130.92L239.204 131.596H240.555H241.906H243.257H244.608L245.058 130.92V130.02L245.284 129.119V128.218L245.734 126.642L246.635 125.291L247.761 124.39L249.562 124.616L250.013 124.841L250.463 125.066L250.913 125.516V126.192L251.138 127.092V127.768L251.364 128.669L251.814 129.344L252.264 129.794L252.715 130.245L252.94 130.695L253.165 131.371L253.841 133.172L255.417 134.748L256.768 136.324L257.219 138.576L257.444 139.702V140.602V141.728V142.854L257.894 143.754L258.119 144.43L258.57 145.331V146.231H259.02L259.47 146.006H259.921L260.371 145.781V146.907V147.582L260.822 148.483L261.497 149.158L262.623 149.834L263.524 149.384L264.199 148.708L265.1 149.158V150.509L265.325 151.86L265.776 152.986L266.676 153.436L267.802 153.662L269.379 153.887L270.955 154.112L271.631 154.562L272.531 157.715L274.108 160.191L276.585 161.768L279.512 163.119L280.863 163.344L282.214 163.794L283.566 164.019L284.917 164.244L285.367 164.469L286.043 164.92L286.718 165.145H287.168L289.195 165.595L291.447 165.82L293.699 165.595L295.726 165.145L296.852 164.92H297.527L298.203 165.145L299.103 165.82L300.004 166.721L300.905 167.847L301.806 168.748L302.707 169.648L303.832 170.999L304.058 172.125L303.607 173.251L302.932 174.827L302.481 175.953L302.031 177.304L301.806 178.655L301.581 179.781L301.355 180.681L301.13 181.582L300.905 182.482L300.68 183.383L300.229 185.184L300.004 186.761L300.229 188.337L301.13 189.688L301.581 189.913L301.806 190.363V190.588L301.355 191.039L300.68 191.714V192.615V193.515L300.905 194.416L301.13 194.641L301.355 194.866L301.581 195.092L301.806 195.317L302.031 195.542H302.256V195.767L302.707 196.217L303.157 196.668L303.607 197.343L304.058 197.794L304.283 198.694L304.058 199.595L303.832 200.721L303.607 201.396L303.832 201.621V201.847L304.058 202.072L304.733 203.423L304.508 204.548L304.058 205.899L303.832 207.476L304.283 208.601L304.958 209.502L306.309 209.727L307.661 210.177L308.561 211.754L309.462 213.555L310.363 215.131L311.939 215.356H312.84H313.741H314.641L315.542 215.581L315.767 215.807L315.992 216.032L316.218 216.482L316.443 216.707L318.47 219.184L320.496 221.661L322.523 224.363L324.324 227.065L324.775 227.74L325 228.416V229.091V229.992L324.775 230.667L324.55 231.343L324.324 232.018L323.874 232.694L323.424 233.594L322.973 234.495L322.298 235.396L321.622 236.296L321.397 236.972V237.647V238.323V238.998L321.172 240.349L320.947 241.475L320.722 242.826V243.952L320.496 245.078L320.046 245.978L319.37 246.654L318.47 247.329V247.555L318.244 247.78V248.005L318.019 248.23L317.569 248.68L317.344 248.905L316.893 249.131H316.443L315.542 249.806L314.867 250.031L313.966 250.257L312.84 250.031L312.164 249.806H311.264L310.363 250.031L309.687 250.257L310.138 252.283L310.588 254.084L311.038 255.886L310.363 257.912V258.137L310.138 258.362V258.587H309.913L308.561 259.038H307.661L306.535 258.813H305.409L303.607 259.488L302.707 260.839L302.932 262.19L303.832 263.766L304.733 266.243L304.283 268.27L302.932 270.071L301.355 271.647L299.779 272.548L298.203 272.773H296.401L294.6 272.998L292.798 273.448L291.672 273.899L290.546 274.799L289.42 275.925V276.15L288.52 275.7H288.294L288.52 275.475L288.745 275.25L288.52 274.574L287.619 273.223L285.142 271.197L279.962 266.468L277.711 263.091L275.684 261.064L275.459 260.614L275.008 260.164L274.108 260.389L272.982 259.939L272.531 260.389H272.081L271.405 260.614L270.505 260.839L270.054 261.289L269.829 261.74V261.965L267.577 261.515H266.451L263.974 260.614L251.138 256.561L240.78 253.634L236.276 252.508L228.62 251.382H224.566L221.414 251.607L219.387 251.157L217.586 250.482L216.009 250.031L214.208 249.131L212.631 248.455L209.028 245.528L207.452 244.402H207.002L206.776 244.853L205.876 244.627L205.651 244.177L204.975 243.952L205.651 243.727L206.326 243.952L206.551 243.502L206.101 243.051H205.876L205.425 243.276L204.75 243.051H204.299L203.849 242.601H204.299V241.925L204.75 241.25L204.975 241.475L205.425 241.25V240.8L204.975 240.124L204.525 239.899L203.624 239.674L202.498 240.124L201.822 240.574L202.048 241.025L202.498 240.8L202.948 241.25L202.273 241.7L201.372 241.925L201.147 241.475L200.696 239.899L200.246 239.674L198.67 238.098L198.445 237.422L196.418 236.296L191.689 234.495L188.536 233.594L185.158 232.469L180.655 230.892L175.25 228.641L159.487 223.012L153.632 221.21L149.804 219.86L145.525 218.058L141.922 216.707L137.644 215.581L134.041 214.23L130.663 213.105L128.411 211.979L127.51 212.204L127.06 211.529L127.736 211.078V209.727L126.61 208.376L124.358 206.575L120.079 203.873L119.404 202.297L114.224 199.37L108.82 197.343L105.892 195.992L101.839 194.641L101.614 193.741H102.515L102.74 192.39L102.289 191.489L101.614 190.588L99.1367 188.562L97.3353 188.337L95.5338 188.787L95.3085 187.886H94.4079L93.7323 187.211H92.8315L92.6064 185.86L91.4804 185.41L89.6788 184.959L89.4537 182.482L87.8774 180.006L86.0759 178.88L83.1485 176.628L82.2477 174.827L81.347 173.926V172.8L78.8698 169.873L75.9424 168.522L75.0416 168.072L70.9883 165.82L67.1601 164.019L64.2326 163.119L60.1793 163.569L59.5038 164.695L58.1526 165.82L57.2519 166.946L56.1259 167.397L55.6755 167.847Z" fill="#6F9C76"/>
</svg>
