<svg width="380" height="380" viewBox="0 0 380 380" fill="none" xmlns="http://www.w3.org/2000/svg">
<path d="M55 250.587L55.3929 248.622L56.9651 244.693L59.323 240.763L62.0742 237.226L65.6114 233.689L68.3625 230.546L69.9344 226.616L68.7555 221.507V221.114L68.3625 220.721V220.328H67.9694L65.2182 217.185L62.4673 214.827L59.323 212.469L56.5721 209.325L55.3929 205.789L56.179 201.859L57.7511 198.322L59.7162 194.785L60.1091 194.392L60.5023 193.606L60.8952 192.821V192.035L62.0742 190.07L63.2532 188.105L64.4324 186.14L65.6114 184.175L68.7555 179.067L71.8995 174.351L75.4367 169.242L79.3669 164.92L80.1529 163.741L80.5458 162.955L80.9388 161.776L81.3319 160.597L82.5109 158.632L84.0831 157.846L85.655 156.667L87.2271 155.488L88.0132 154.309L88.799 152.738L89.5851 151.166L90.3712 149.987L91.9433 148.808H94.3013H96.2664H98.2314H99.8036L101.375 148.022L102.948 147.236L104.127 146.45L107.271 143.699L110.022 141.342L112.38 138.198L114.345 134.661L114.738 132.303L115.131 129.945L114.738 127.588L114.345 125.23L111.987 121.693L109.236 118.156L107.271 114.227L106.878 109.904L109.629 105.974L114.345 102.831L118.275 99.6867L118.668 95.757L117.096 93.3992L115.524 90.6485L113.559 88.2906L112.773 85.1469L113.559 82.3961L115.524 79.6453L118.275 76.8945L120.24 74.9297L124.956 76.8945L128.493 77.2875L131.638 75.7156L135.568 72.9648H135.961L136.354 72.5719H136.747L139.498 71.393L142.249 71L144.607 71.7859L146.572 74.1437L146.965 75.7156L146.572 77.6804L146.965 79.2524L147.358 80.8242L148.537 82.0031L149.716 83.1821L150.895 84.3609L152.467 84.7539L156.397 85.5398L160.327 84.7539L164.651 83.575L168.581 83.1821H172.511L176.048 83.575L179.978 84.3609L183.515 85.9328L185.087 87.5047L187.052 89.0766L188.624 91.0415L190.589 92.6133L195.699 96.936L201.201 101.259L206.31 105.188L211.812 109.511L213.777 111.476L216.135 113.441L218.493 115.406L221.244 117.37L224.782 116.977L229.105 117.37L233.035 116.585L235.393 114.62L236.179 112.262L236.965 109.511L237.358 106.76L237.751 104.402L238.537 102.831L238.93 101.259L239.716 99.6867L240.502 98.1149L241.288 97.3289L242.467 96.15L243.646 95.364L244.825 94.5782H246.397L247.183 94.9712L247.576 95.757L248.755 96.543L249.934 96.936L251.114 97.3289L252.293 97.7219L253.472 98.5079L255.437 99.2937L257.795 100.473L259.76 101.259L261.725 102.045L263.297 102.831L264.476 103.616L265.655 104.009L267.227 104.402L271.157 105.581L274.694 106.76L278.625 107.939L282.161 109.118H282.555V109.511H282.948H283.34L287.664 113.048L291.987 117.763L296.703 121.3L301.419 121.693H305.742L308.886 122.872L312.031 124.444L315.568 126.016V127.588L314.782 129.159V130.731L315.175 132.303L315.568 134.268V135.054L315.175 136.233L314.782 137.805L315.175 141.342L317.14 143.306L320.284 143.699L323.428 144.092L324.607 145.271L325 146.843L324.214 148.415L322.642 149.594L321.463 150.38L319.891 150.773L318.712 151.559L317.533 152.345L316.747 153.524L316.354 154.702L315.961 155.881L314.389 156.667L311.245 157.453L308.1 158.239L304.956 157.453L302.991 155.488L301.419 153.917L299.847 153.131L298.275 152.738L296.31 152.345H293.559L290.415 153.524L287.664 155.095L286.092 157.453L284.52 161.776L283.734 166.099L283.34 170.421L282.948 174.744V177.495L282.555 180.639L282.161 183.389L280.982 185.747L279.803 186.926L279.017 187.319H277.838L276.659 187.712L275.873 188.498L275.48 189.677L274.694 190.856L273.515 191.249H271.157L269.585 190.07L268.013 187.712L266.441 185.747L266.048 185.354H265.655L265.262 184.961H263.297L261.332 185.747L259.367 187.319L257.795 188.498L255.437 189.284H253.079L251.114 188.891L248.755 188.498L245.218 187.319L244.432 184.961L244.039 182.603L242.467 180.246L240.109 180.639L238.537 182.603L236.965 185.354L235.786 187.712L234.214 189.284L233.821 191.249L233.428 193.214V195.571L233.035 197.536L232.249 199.501L231.463 201.073L230.284 203.038L227.926 208.146L227.533 213.255L228.712 217.971L231.07 223.079L232.642 225.044L233.821 227.402L235.393 229.76L236.572 231.725L236.965 236.44V240.763L237.358 244.693L238.93 249.015L239.323 249.408L239.716 249.801L240.109 250.587L240.502 250.98L242.86 253.731L245.218 256.089L247.183 258.446L248.362 261.59L249.541 264.341L251.899 265.52L253.864 266.699L255.044 269.45L256.223 269.843L257.402 270.236L258.974 270.629L259.76 271.415L257.795 273.379L256.616 274.558L255.83 276.13L255.044 278.095L254.651 279.274L253.472 280.846L252.293 282.418L251.507 283.204L250.72 282.811H249.934H248.755H248.362L247.576 283.597L247.969 284.382L248.362 284.775V285.168L247.969 285.954L247.183 287.133L246.79 288.312V289.491L247.969 292.242L249.149 296.565V300.101L247.183 301.673H244.432H241.681L238.93 302.066L236.572 302.852L235 304.031L234.214 306.389L233.428 307.961L231.856 308.747L230.677 307.961V306.782V305.603L230.284 304.031L228.712 303.638H225.961L223.21 304.031H221.244H219.279H217.314L215.349 304.424H213.384H211.026L209.847 304.817L209.454 305.996L209.061 308.354L206.31 307.961H204.345L203.166 306.782L201.987 304.817L201.201 303.245L200.415 302.459L199.236 301.673L198.057 300.101L196.485 302.459L194.913 304.031L192.947 304.817L190.589 305.603L188.624 305.996L186.659 306.389L185.087 305.996L183.122 305.21L180.371 304.424L177.227 302.852L174.476 300.887L174.083 298.136L175.655 296.565L178.406 295.386L180.371 294.207L180.764 291.849L180.371 291.456L179.978 291.063L179.585 290.67L179.192 290.277L179.585 289.098V288.312V287.133L179.192 286.347L176.834 285.561L174.083 285.168L170.939 285.561L168.581 286.347L167.009 286.74L165.83 286.347L164.258 285.561L163.079 284.382L160.721 285.168L159.541 287.526L158.756 290.67L157.183 293.028L154.825 293.814L152.467 293.421L150.109 293.028L148.144 291.849L146.572 291.456L145.393 291.849L143.821 292.242H142.249L141.463 291.849L140.677 291.456L139.891 291.063L139.105 290.67L137.926 291.063L137.14 291.456L135.961 292.242L134.782 292.635L131.638 290.67V287.919L132.424 284.382L132.817 280.846V280.06L132.424 279.274L132.03 278.488L131.638 278.095L131.245 277.309V276.916L131.638 276.523L132.03 276.13V275.344L132.424 274.558V274.165V272.986L132.03 272.2L130.851 271.808L130.459 271.415L130.065 270.236L131.245 268.664L133.21 267.485L135.568 266.306L136.354 264.734L135.961 262.769L133.603 261.197L131.245 260.804L129.28 260.411H127.707L126.921 259.625L126.528 258.446L126.921 256.875L124.956 257.268L120.633 256.875H118.668L117.489 257.268L115.131 258.446H114.345L110.415 258.839H109.629L109.236 260.018V261.197V262.376V263.555L108.843 264.734L107.664 266.306V267.092L106.878 269.057L104.127 272.593L102.948 274.165L101.375 272.986L99.0175 272.593H95.0874L91.9433 271.808H91.1572H89.9783L88.799 272.986L88.0132 273.379L87.2271 272.986L85.655 271.808H84.476H83.297L82.118 272.986L80.9388 273.379H78.1879L77.0086 272.593L76.2228 271.415L75.0436 268.271L74.6507 267.878L74.2577 267.485L73.8646 267.092L72.6856 256.089L71.8995 253.338L70.3276 252.159L68.3625 252.945L67.1833 256.089L65.6114 256.875L64.4324 255.696L64.8253 253.338L66.7904 248.622L55 250.587Z" fill="#6F9C76"/>
</svg>
