<svg width="380" height="380" viewBox="0 0 380 380" fill="none" xmlns="http://www.w3.org/2000/svg">
<path d="M198.445 321.215L198.219 319.414L197.544 317.613L196.868 316.037L195.742 314.46L195.517 312.659L195.967 310.182L196.868 307.706L197.319 305.679L197.093 304.553L196.868 303.202L196.643 301.851V300.725L196.868 299.825L197.319 299.149L197.544 298.474V297.798L197.319 297.348L196.643 296.898L195.742 296.673L195.292 296.222L194.616 295.772L194.166 295.096L193.941 294.421L193.716 293.52L192.815 292.394L191.689 291.719L190.563 291.044L189.887 289.918L189.437 288.567L188.987 286.991L188.311 285.64L187.41 284.739L185.834 285.64L184.483 287.216L183.132 288.792L181.33 289.693L180.43 289.918H179.304H178.403L177.502 290.143L176.601 291.494L175.475 291.719L174.349 291.269L172.998 290.818L171.872 290.368L170.521 289.693L169.17 289.242L168.269 288.567L166.468 287.441L164.892 286.54L163.09 285.64L161.514 284.514L161.739 284.289V284.063L161.514 283.838V283.388V282.938L161.289 282.712V282.487L161.063 282.262L160.388 282.938L159.487 283.838L158.811 284.739L158.136 285.414L156.785 286.54L155.884 287.666L155.434 288.792L155.209 290.368L154.983 291.719L154.083 292.394L153.182 292.845L152.506 293.745L152.056 295.096L151.606 296.222L150.93 297.123H149.804H148.228L147.102 297.348L145.976 298.249L144.85 299.149L144.399 299.374L143.724 299.6H143.048L142.373 299.825H141.697L140.796 300.275L139.896 300.5H139.22L138.545 299.825L138.094 299.374H137.644L136.743 299.825L136.293 300.05L135.617 300.275L135.167 300.725L134.942 301.176L134.716 301.626V302.076V302.527V302.977L134.041 303.202L133.591 302.977L132.915 302.302L132.465 301.851L130.663 301.626L129.987 302.076L129.762 302.977L129.087 304.553L128.186 305.454L127.285 306.355L126.384 307.255V308.831L123.682 308.156L121.205 307.03L120.53 306.355L120.304 305.679L120.079 304.778L119.404 304.553L118.728 304.778L118.053 304.553L117.602 304.103L117.377 303.653V303.427L116.701 303.202H116.251L114.45 303.653H113.098L112.648 303.427V301.401L113.098 299.6L112.873 298.924L111.972 298.474L111.297 298.699L110.396 299.149L109.721 299.374H109.27L108.82 299.149L108.369 299.374L107.919 299.825L102.74 297.123L100.488 295.547L98.9116 293.745L98.236 290.593L97.5605 289.242L95.5338 288.342V287.666L95.7589 286.54V285.865L95.3086 285.189L94.8582 284.739L94.633 284.289L94.4079 280.686L92.6063 278.885H91.7056L90.8048 279.11L90.3544 278.885L89.0033 277.759L87.8774 276.858L83.824 273.481L80.8966 269.878L77.2936 263.799L75.492 261.772L75.0417 260.647L74.3661 259.746L72.3394 257.945L71.6639 256.819L69.8623 253.892L66.0342 248.263L65.809 246.912L65.5838 246.236L64.9082 244.885V244.21V241.057L64.2326 236.554L64.0075 235.428L63.5571 234.753L62.4312 234.077L61.7556 233.627L60.8548 231.6L59.5038 229.799L57.7022 228.899L56.3511 226.197L55.4503 223.945L55 222.369L55.9007 221.243L62.8816 216.74L65.809 216.515H70.3127L71.2135 216.289L72.3394 215.614L76.8432 215.164L78.8698 214.938L80.6714 213.813L81.5721 212.462L82.9233 212.011L83.5988 211.111L84.2744 210.21L84.7247 208.859L84.9499 206.607L83.5988 205.256L81.7973 204.131L81.3469 203.23L82.2477 202.78L82.9233 202.329L84.0492 200.078L85.6255 197.826L87.427 195.8L88.7782 193.773L90.1292 191.296L91.9308 189.045L93.9574 187.018L96.4345 185.892L97.3353 185.667L97.5605 186.118L97.7857 186.793L98.0108 187.243H98.236L98.6864 187.018L98.9116 186.793L99.3619 186.568H99.8123H100.488H101.163L101.839 186.793L104.992 186.118L107.694 184.316L110.396 182.065L113.098 180.263L113.774 180.038H114.45H115.125H115.801L116.927 180.489L117.602 180.714L118.278 181.164L119.179 182.065L119.629 182.515L120.304 182.965L120.755 183.416L121.43 183.866L122.331 184.992L123.457 186.118L124.583 186.793L126.159 187.018H127.961H129.537L130.888 187.919L132.239 189.72L132.915 191.071L133.816 192.197L134.942 193.098L136.068 193.998L137.644 194.899L138.995 195.574L140.346 196.7L141.022 198.051L141.922 199.177L143.274 200.078L144.85 200.753L146.201 201.654L146.426 201.203V200.753L146.651 200.303V199.627L146.426 198.502V197.601V196.475V195.349L146.651 192.873L147.327 191.071L148.003 189.045L148.903 187.243L149.354 186.568L149.579 185.892L150.029 185.217L150.254 184.541L150.93 183.416L151.38 181.84V180.489L151.606 178.912V178.687V178.462V178.012V177.787L151.38 176.436V175.085L151.155 173.734L150.93 172.608L150.48 171.032L150.254 169.681L150.93 168.78L151.606 167.654H152.056L154.308 167.204H159.487L160.838 166.979L162.189 166.078L165.792 162.701L166.693 161.575L167.143 160.224V157.297L167.594 156.171L168.269 155.495L167.819 155.27L163.991 153.019L159.712 150.542L155.434 148.065L151.155 145.363L152.506 143.562L153.632 141.986L154.533 139.959L154.983 137.708L155.209 136.582L155.434 135.456L155.659 134.33L156.109 133.204L156.56 131.853L157.46 129.827L158.136 128.026L158.361 126.9L156.56 124.648L154.758 122.171L152.731 119.92L150.705 117.668L148.228 115.417L145.751 112.94L143.274 110.688L140.796 108.436L139.445 107.085L138.995 105.96L139.22 104.609L140.121 102.807L141.022 100.331L141.697 98.079L142.598 95.8273L143.499 93.5757L145.751 92.2247L148.228 91.0989L150.705 90.1983L153.182 89.0724L156.334 87.9466L159.487 87.7215L162.865 87.4963L166.018 86.8208L166.918 86.5956H167.369L167.819 86.1454L168.044 85.4698L168.269 84.1188L168.72 82.5427L168.945 81.1917L169.17 79.6156L169.621 77.8143L169.395 76.4633L168.72 75.5627L167.143 74.4369L165.792 73.0859L165.342 71.7349V70.1588V68.1323L165.567 65.4303V62.9535L165.792 60.4767V58L169.17 58.6755L172.548 59.3509L175.701 60.0265L179.078 60.7019L178.853 62.9535L178.628 65.6555L177.952 68.3574L177.052 70.1588L175.926 70.8342L175.025 71.5098L174.349 72.1852V73.5362L174.575 74.4369V75.5627V76.6885L174.124 77.5891L173.674 78.2647L172.773 78.7149L172.098 79.3905V80.2911L172.548 81.4169L172.998 82.3176L173.449 83.4434V84.5692L172.998 85.9202L172.323 86.8208L171.872 87.9466L171.647 89.2976V90.6486L171.872 91.9995L172.098 93.3505L172.323 94.4763L172.548 95.8273L172.998 97.4035L173.674 98.7544L174.349 99.4299V99.2048V98.7544L174.575 98.5293V98.079L175.475 94.4763L176.376 90.6486L177.277 86.8208L178.178 82.993L178.628 79.8408L179.304 76.2381L180.204 72.8607L181.555 70.1588L182.231 69.4832L182.681 69.7084L182.907 70.1588L183.357 70.6091H184.258H185.609H186.96L187.636 70.8342L188.086 71.5098L187.861 72.4104L187.636 73.311V73.9865L188.086 74.2117L188.761 74.4369H189.437L189.887 74.662L190.113 75.3375V76.013V76.6885V77.3639L188.536 78.4898L187.41 81.6421L186.284 85.2446L185.834 87.4963L185.384 88.6221L185.158 89.5228V90.1983L185.609 91.3241L186.059 92.4499L186.284 93.8009L186.51 95.1519V96.5028L185.834 99.2048L185.609 100.556V102.357L186.735 103.708L187.861 104.158L189.437 103.708L190.338 103.258L191.013 102.807L191.914 101.682L192.59 101.456L194.842 101.907L195.742 101.682L196.418 102.132L196.868 102.582L197.093 103.258L197.769 102.582L198.219 100.556L198.895 98.9796L199.57 96.9531L200.471 95.1519L201.822 94.4763L203.173 93.8009L203.399 92.4499V90.6486L204.074 89.0724L204.525 88.6221L205.2 88.1718L205.651 87.9466L206.101 87.4963L206.326 86.8208L206.101 86.3705L205.425 85.9202H204.75L204.074 85.695L203.849 85.0195L203.624 84.344L203.173 83.8937L202.273 83.6685L201.822 83.2182V82.7679L202.048 81.8672L202.723 80.5163L203.399 79.3905L203.849 78.0395L204.75 76.9137V76.6885L204.975 76.4633L205.2 76.013V75.7878L207.227 77.5891L209.254 79.3905L211.505 81.1917L213.532 82.7679L214.433 83.4434L215.334 84.1188L216.46 84.7944L217.36 85.4698L217.586 86.1454V87.2712L217.36 88.6221L217.135 89.5228L218.261 89.0724L219.612 88.6221L220.963 88.397H221.864L222.765 88.8473L222.99 89.5228L223.215 90.1983L223.44 91.0989H224.341L225.017 90.6486H225.917L226.593 90.8737L227.043 91.9995L226.818 93.1253L226.368 94.4763L225.917 95.377L225.467 96.2777L225.017 97.4035L224.341 98.5293L223.44 99.2048L222.765 99.4299L221.864 99.6551L221.189 99.8802L220.963 100.556V102.132L221.639 102.582H222.765L223.891 103.258L224.116 104.158V105.059L223.891 105.96L223.666 106.635L221.864 107.311L220.963 107.986L220.513 109.112L219.837 110.913L219.387 112.039L218.486 112.94L217.36 113.39L216.234 113.615L214.208 113.39L212.406 112.715L210.605 112.94L209.479 114.741L208.803 115.417L208.128 115.867L207.452 116.092L206.551 116.317H205.876H204.975L204.299 116.542L203.399 116.993L202.273 118.118L200.922 119.244L199.796 120.37L198.445 121.496L197.093 122.847L195.292 124.648L194.391 126.675L194.842 128.476L195.742 130.277L195.967 132.979V135.906V137.933L195.742 139.734L194.391 140.635L192.59 141.535L191.239 142.661L190.563 144.012L189.887 145.588L188.987 146.939L187.861 147.615H186.284L184.708 146.714L183.357 145.813L182.006 144.913L182.681 147.39L183.132 149.866L183.582 152.343L183.807 154.82V155.946L183.582 157.297L183.132 158.648L182.681 159.548L181.555 160.224L181.105 160.899V161.575V163.151L180.88 164.727L181.105 165.628H181.781L183.357 164.952L184.483 164.277L185.834 163.376L187.185 163.151L188.311 163.827L188.536 164.952L188.761 166.078L188.987 166.979L189.887 167.654L191.239 168.105H192.59L193.941 167.879L195.292 167.654L196.643 167.879L197.544 168.555L198.445 169.456L199.345 170.131L200.471 170.356H201.372L202.498 170.131H203.399L204.75 170.581L205.876 171.032L207.002 171.707L208.128 172.383L208.578 172.608L209.028 172.833L209.479 173.058L209.929 173.283L211.956 174.634L214.433 175.985L216.91 176.661L218.937 176.21H220.513L222.314 177.561L224.116 178.462L225.467 178.237L226.368 176.21V173.058L226.143 169.906L225.917 167.654V166.528V165.177V164.052L225.692 162.926L226.593 161.35L227.944 161.125L229.52 161.8L230.872 162.25H232.898L234.925 161.8L236.726 160.899L238.303 159.548L239.204 158.873L240.329 157.972L241.455 157.747L242.131 158.648L241.906 159.323L241.681 160.449V161.125L243.257 160.899L243.932 160.224L244.158 159.098L244.383 157.972L245.058 157.072L245.509 156.621L245.959 156.171L246.184 155.721L246.635 155.27L247.31 155.045L248.211 154.82L248.887 154.595L249.337 153.919H249.562L249.787 153.694V153.469L250.013 153.244L250.913 150.767L252.264 147.615L252.94 144.463L252.715 141.986L251.589 141.535H250.463H249.337L247.986 141.31L247.085 140.635L246.184 140.184L245.058 139.734L243.932 139.284L243.257 137.933L243.482 136.131L243.932 134.105L244.158 132.754L244.383 131.853L244.608 130.953V130.277L244.833 129.377L246.86 128.701L249.112 127.8L251.364 127.35L253.39 127.8L255.867 129.151L258.344 130.953L260.822 132.304L263.749 133.204L265.776 133.43L267.802 133.88L269.829 134.105L271.856 134.555L273.657 134.78L275.459 135.006L277.26 134.78L279.062 134.33L280.638 133.43L281.989 132.304L283.115 130.953L284.691 129.827L286.268 129.151L287.619 128.701L288.97 128.026L289.646 126.675L290.096 124.648L290.321 122.847L290.772 121.271L292.348 120.37L294.149 119.695L295.275 118.569L296.176 117.443L297.527 116.767L299.554 116.092L301.13 114.966L302.256 113.615L303.382 111.589L303.607 111.364V111.138L303.832 110.913L304.058 110.688L304.283 110.913H304.508L304.733 111.138H304.958L306.535 112.264L307.886 113.615L309.237 114.516L311.038 114.966L311.939 114.741H312.84L313.741 114.516H314.867L315.767 114.966L316.668 115.642L317.569 116.092L318.47 116.767L319.37 117.893L320.271 119.244L321.397 120.145L322.523 120.37L323.874 120.145L324.55 120.595L324.775 121.496L325 123.072L323.874 124.198L322.298 125.774L321.172 127.35L320.722 128.926L321.172 130.728L322.298 132.079L323.199 133.655L324.099 135.006L323.874 137.257L321.622 139.059L318.92 140.86L317.344 143.112L317.569 145.588L318.695 147.84L320.271 149.866L321.622 151.893L321.847 153.244L322.073 154.595L321.847 155.946L321.622 157.297L320.496 159.323L319.145 161.125L317.569 162.476L315.767 164.052L315.092 164.502L314.191 164.952L313.29 165.403H312.39H311.264H310.138H308.787L307.886 166.078L307.435 166.754L306.985 167.654L306.535 168.555L306.084 169.23L305.184 169.906L304.283 170.581L303.382 171.032L302.707 172.158L302.481 172.833L302.256 173.508L302.031 173.959L301.581 174.634L299.329 177.111L297.302 180.038L295.5 182.74L293.699 185.667L293.023 186.793L292.348 187.919L291.672 189.045L290.997 190.171V190.621L290.772 191.071L290.546 191.522L290.321 191.747L289.195 193.773L288.294 195.8L287.844 198.051L288.52 200.078L290.096 201.879L291.898 203.23L293.474 204.581L295.05 206.382H295.275V206.607L295.5 206.833V207.058L296.176 209.985L295.275 212.237L293.699 214.038L291.672 216.064L290.096 218.091L288.745 220.342L287.844 222.594L287.619 223.72L286.268 223.945L282.214 225.971L281.088 226.197L279.963 226.422L279.062 226.872L278.386 227.097L277.26 226.197L275.459 225.521H274.783H273.657L271.18 226.197L268.028 226.422L266.902 226.872L261.722 228.673L261.047 229.349L260.596 230.475L259.921 230.925L255.867 232.051L253.39 234.302L252.039 234.978L250.238 235.428H246.86L245.284 235.879L244.383 236.779L243.482 237.455L242.807 237.68L241.906 237.905H241.681L241.455 238.13H241.005H240.78L238.303 238.806L235.826 239.481L233.349 240.157L230.872 240.832H230.646H230.421L230.196 241.057L228.62 241.508L226.368 242.183L224.341 243.309L223.891 244.885V246.461L224.116 248.713L224.566 250.514L225.692 251.415L226.368 251.64L226.593 251.865L226.818 252.315L227.043 252.541H227.944L228.845 252.315L229.746 252.09L230.646 251.865H230.872L231.322 251.64L231.772 251.415H232.223L233.574 251.19L234.7 251.64L235.601 252.315L236.726 252.991L237.402 253.216H238.303H239.204L239.879 252.991H240.78L241.906 253.216L243.032 253.441H244.158H244.383L244.608 253.666L244.833 254.117L245.058 254.342V255.243L244.833 256.368V257.269L245.058 257.945L245.959 258.395L246.86 258.845L247.536 259.296L248.436 259.971L247.986 260.421L247.761 260.872L247.31 261.097L246.86 261.547L245.058 262.223H243.257L241.681 262.673L241.23 264.925V266.276L241.455 267.627L241.681 268.978L241.906 270.103L242.356 271.004L242.581 271.905L242.807 272.58L243.482 273.256L243.707 273.481L244.158 273.706L244.383 273.931L244.833 274.156L245.058 274.832V275.732L245.284 276.408L245.734 277.083L246.184 277.984L246.41 279.11L246.184 280.236L245.959 281.361V281.812L245.734 282.487V282.938V283.388V286.54L248.211 286.991L251.589 286.315L254.291 285.414H254.741L255.192 285.64L255.417 286.09V286.54L255.642 287.441L256.093 288.792L256.318 289.918L256.768 290.818L257.669 291.044L258.344 291.269L258.795 291.719L258.57 292.62L257.669 293.295L256.768 293.971L256.093 294.871L255.417 295.772V296.222V296.673L255.642 297.123L255.417 297.573L255.192 298.024L254.741 298.474L254.291 299.149L254.066 299.6L253.39 300.5L252.49 301.851L251.589 303.202L250.688 303.653H250.238L250.013 303.202V302.977L249.562 302.527L248.436 301.851L246.86 301.401L245.509 301.176L244.158 301.626L243.707 302.076L243.482 302.752L243.257 303.202L242.807 303.427H242.131L241.23 303.653L240.329 303.878L239.654 304.103L238.303 304.553L236.952 305.229L235.601 305.904L234.475 306.805L233.574 308.606L232.898 310.407L232.448 312.434L231.547 314.01L230.196 314.911L228.395 315.811L226.593 316.262L224.792 316.712L224.116 317.162L223.215 317.613L222.314 318.063L221.414 318.513L221.189 318.964V319.864L220.963 320.54V321.215L219.837 322.116L218.711 321.44L217.586 320.09L216.685 318.739L215.784 318.063H214.658H213.757L212.857 316.937L211.956 315.811L211.28 315.361L210.154 315.811L209.254 316.937L208.803 317.613L208.128 318.739L207.452 319.864L206.777 320.54L205.876 320.765H204.75H203.399H202.048H201.147H200.246H199.345L198.445 321.215Z" fill="#6F9C76"/>
</svg>
