<svg width="380" height="380" viewBox="0 0 380 380" fill="none" xmlns="http://www.w3.org/2000/svg">
<path d="M55 258.174L55.9276 257.71V256.318L56.3917 255.39L56.8555 254.463H57.7834H58.7113H59.1751L60.103 253.071L61.0309 251.679L62.4226 250.288L64.2784 248.896L66.1339 248.432L67.5256 247.505L67.9896 245.649V243.33L68.4534 241.474L68.9175 239.619L70.3092 237.763L72.1647 236.372L74.0205 234.98L75.4122 233.589L76.8039 231.733L77.7318 230.342L79.1235 228.486L80.5155 226.631L81.9072 224.775L83.7627 222.92L85.1547 221.064L86.0823 219.673L87.0102 218.281L87.9381 216.889L89.3298 215.034L90.7215 213.178L92.5772 210.859L93.9689 208.54L95.8247 206.22L97.2164 204.829L98.1443 203.901L98.6081 202.51L97.6802 200.654L97.2164 200.19V199.726L96.2885 198.335L95.3606 197.407L94.8968 196.015L93.9689 194.624L94.8968 194.16L95.8247 193.696L96.7526 192.768L97.6802 192.304L100.928 190.449L104.175 188.13L107.886 186.274L111.134 183.955L113.454 183.027L116.701 181.172L118.557 178.852L116.237 176.533L114.381 174.678L113.454 172.358L112.526 169.575L111.598 167.256V166.792L111.134 166.328V165.864V165.4L110.67 164.009L110.206 163.081L109.742 161.689L109.278 160.298L110.206 157.978L110.67 155.659L111.134 153.34L112.062 150.556L112.526 149.629L112.99 148.701V147.309L113.454 146.382L113.917 144.526L114.845 143.135L115.309 141.279L115.773 139.888V138.496L115.309 136.64L114.845 135.249V133.393L115.773 131.074L116.237 128.755L117.165 126.435L117.629 124.116L118.093 121.797L119.021 119.477L119.484 117.158L120.412 114.839V112.983L120.876 111.128L121.34 109.272V107.881L122.732 105.561L124.124 103.242L125.051 100.923L126.443 99.0673L126.907 98.6034V98.1395L127.371 97.6756H127.835L130.154 94.8924L132.01 91.6454L133.866 88.3983L136.186 85.1513L137.577 83.2958L138.969 81.4403L140.361 79.5849L141.752 77.7294L144.536 74.4823L146.392 73.0908L149.175 72.163L152.887 71.6991L151.031 69.3798L149.639 67.5243L147.784 65.205L146.392 62.8856L149.175 61.0302L152.423 59.1748L155.67 56.8554L158.454 55L160.773 55.9276L163.093 57.3193L165.412 58.7109L166.804 60.5663L167.268 61.4941L167.732 62.8856L168.196 63.8134L168.66 65.205L171.907 68.916L175.619 72.6269L179.794 76.3378L183.505 79.5849L185.825 80.5127L186.289 79.5849L186.753 77.7294L187.68 76.3378L190 75.4101H193.247H196.031L197.887 76.3378L198.815 78.1933L199.278 79.5849L200.206 80.9764L201.134 82.3681L202.526 84.2235L203.454 86.079L204.845 87.9344L205.773 89.3261V89.79H206.237V90.2538L205.773 93.5009L204.845 96.2841L203.454 98.6034L202.99 101.387L202.062 105.561L202.99 107.881L204.845 109.736L208.557 110.664L211.34 111.592L213.66 113.447L214.588 116.23L214.124 119.941L214.588 120.869L215.052 121.797L215.979 122.724L216.907 123.188L217.835 124.116L218.299 125.508V127.363V128.755L219.691 133.393L222.01 131.074L224.794 126.435L228.041 123.652L232.681 124.116L234.072 120.405L235 115.766L237.32 113.911H238.711H240.103L241.495 113.447L242.423 112.519L242.887 109.736V106.953V104.17L244.278 101.85L246.134 100.459L248.454 99.995H250.309H252.629L255.876 98.6034L258.66 97.2118L261.443 95.3563L264.227 93.9648L266.546 93.037H268.866H270.722L273.041 93.9648L273.969 94.4287L274.433 94.8924H274.897L275.825 95.8202L276.753 97.2118L278.144 98.6034L278.608 100.459L279.072 102.314V103.706V105.098L278.608 106.953L278.144 108.345H278.608H279.072L280 108.808H280.464L279.072 111.128L278.144 113.911L277.217 116.23L276.289 119.014V120.405L275.825 121.797V122.724L275.361 124.116L275.825 124.58V125.044L276.289 125.508V125.972L282.32 126.435L287.887 120.869L292.99 114.839L297.629 116.694L299.949 119.941L302.268 121.333H305.052L308.763 120.405L310.155 119.941H311.082L312.474 120.869L313.402 122.261L313.866 122.724L314.33 123.188L314.794 123.652L315.258 124.116L316.186 125.044L316.65 125.508L317.577 126.435L318.041 126.899L318.505 127.827L319.433 128.755L319.897 129.682L320.361 130.61L320.825 131.538L321.753 132.466L322.217 133.857L323.608 135.713L324.536 137.104L325 138.496L324.536 139.888L324.072 141.743L323.145 143.598L322.217 145.454L321.753 146.846L320.825 149.629L319.433 151.948L318.041 154.267L316.65 156.587V157.051V157.514H316.186H314.794H312.938L311.547 157.978H309.691L310.619 162.617L312.01 164.936L313.866 166.792L318.041 167.72L318.505 169.575V171.43V173.286L318.969 175.141L317.577 176.533L316.65 177.925L316.186 179.78L315.722 181.636L314.794 185.346L315.258 189.521L316.65 193.696L317.577 197.407V197.871V198.335V198.799L318.041 200.654L318.505 202.51L318.969 204.365V206.22L319.433 208.076V209.931L319.897 211.787V213.642L318.969 214.106L318.041 215.034L317.577 216.426V217.817V218.745V220.136L317.114 221.528V222.92V224.311V226.631V228.486L317.577 230.342L318.505 231.269L318.969 232.197V233.589L318.505 234.98V235.444V235.908L318.041 236.372V236.836L317.577 237.3H317.114L316.65 237.763L316.186 238.227L314.33 238.691L312.474 239.619L311.082 241.01L310.619 242.866L309.691 244.258L308.299 245.185H306.443L304.588 245.649H302.732L301.34 245.185H299.949L298.093 244.721H297.165H296.237L295.773 243.794L295.309 242.402V241.938L294.845 241.474L294.382 240.547V239.155L293.918 237.763L293.454 236.836V236.372V235.908L292.99 235.444V234.98L292.526 234.052H291.598H290.67H289.742L288.351 233.125L287.423 232.197L286.495 230.805L285.103 229.878H284.639V229.414H284.175L282.32 228.95L280 228.486L277.681 228.022L275.825 227.558L276.753 226.167L278.144 224.775L278.608 222.92L279.072 221.064V220.6L278.608 218.281L277.217 215.962L276.289 214.106L275.361 211.787L275.825 209.931V208.54L276.289 206.684V205.293L276.753 203.437L276.289 201.582V199.726L275.361 197.871V197.407V196.943L274.897 196.479L274.433 195.552L273.969 194.624L273.041 193.696L272.577 192.768L270.258 191.377L267.474 189.985L265.155 189.057L263.299 186.738L263.763 186.274L264.227 185.81H264.691L265.155 185.346L264.691 184.883L264.227 184.419L263.763 183.491L263.299 183.027L264.691 182.099L265.619 181.172L266.083 179.78L265.155 178.388H264.691V177.925V177.461L264.227 176.533L263.763 176.069V175.605L262.835 174.678L262.371 173.286L261.907 172.358L261.443 171.43L260.051 170.503L259.124 169.111L258.196 167.72V165.864V165.4V164.936V163.545L257.732 162.617L256.804 161.689L255.876 160.762L255.412 160.298H254.949V159.834L254.485 159.37L254.021 160.298L253.093 161.225L252.165 162.153L251.701 162.617L250.309 164.009V165.4V166.792L248.918 167.72L250.773 168.647L251.237 169.575L250.773 170.967L249.381 171.894H248.454L247.526 172.358L247.062 172.822L246.598 173.286L246.134 174.214L245.206 175.141L244.742 175.605L244.278 176.533L242.887 178.852L241.031 180.708L239.639 183.027L238.248 185.346L237.783 185.81V186.274L237.32 186.738L236.392 189.057L234.536 189.985L232.216 189.521L229.897 189.057L228.969 191.841L227.577 195.088L226.65 198.335L227.113 201.118L227.577 201.582L228.041 202.046V202.51V202.973L227.113 203.901L226.65 205.293V206.684L228.041 207.148L228.505 207.612H228.969L229.433 208.076V208.54V209.004V211.323V214.106L230.361 216.426L231.289 218.281L231.753 219.209H232.216L232.681 219.673L233.144 220.136L232.216 221.528L230.825 222.92L229.433 224.311L228.041 225.239L226.65 227.558L227.113 229.878L228.505 231.733L230.361 233.589L228.041 234.98L226.65 235.908L226.186 237.763L227.113 240.083L228.041 241.01L228.505 241.938L229.433 242.402L230.361 243.33L230.825 247.041L229.897 249.36L228.041 251.216L224.794 252.607L223.402 253.071L222.01 253.535L220.618 253.999L219.227 254.926L217.371 256.318L215.979 258.637L215.052 260.957L214.124 263.276L212.732 265.132L210.876 266.059L209.485 266.987L208.093 268.379V268.842V269.306V273.017L207.165 277.192L206.237 281.367L205.309 285.542L204.845 286.006L202.99 286.469H199.742L196.495 285.542L194.639 284.15L193.711 282.758L193.247 281.367L192.32 280.439L190.464 279.975L188.144 277.192L185.825 274.409L183.041 273.481L179.794 276.264L178.866 277.192L177.474 278.12L176.082 279.511L175.155 280.439L173.763 281.831L172.371 282.295L171.443 283.686L170.515 285.078V286.933V288.325L170.052 289.716L168.66 291.108L166.34 293.427L164.948 292.964L163.557 291.572L162.165 289.716L159.845 287.861L157.99 287.397L155.67 287.861L152.887 288.325H151.959L151.495 288.789H150.567L150.103 289.253L147.319 290.18L144.536 290.644L141.752 291.572L138.969 292.964L136.186 293.427L133.866 294.355L131.082 294.819L128.299 295.283L127.835 296.211L127.371 296.674V297.138L125.515 301.313L123.196 305.024L121.34 308.271L118.093 311.518L115.309 314.301L112.062 316.621L109.278 318.94L106.495 321.259L104.639 321.723L103.711 323.115L102.783 324.506L101.392 325.434L99.536 325.898H97.6802L95.8247 325.434L94.433 324.043L93.5051 323.115L92.5772 321.723L91.6493 320.332L90.2576 319.404L88.866 316.621L89.7938 313.374L91.1855 309.663V305.952L90.2576 302.705L88.4019 299.922L86.0823 297.602L83.7627 295.283L82.371 293.891L81.4431 292.5L80.5155 291.108L80.0514 289.716L80.5155 287.861V286.469V284.614L79.5876 282.758L78.1959 279.975V277.192L79.5876 274.873L80.9793 271.626V270.234L80.0514 268.842L79.1235 267.915L78.6597 266.523V264.204L78.1959 262.812L77.268 262.348L75.4122 261.884H69.8451L64.7422 261.421L60.103 260.029L55 258.174Z" fill="#6F9C76"/>
</svg>
