<svg width="380" height="380" viewBox="0 0 380 380" fill="none" xmlns="http://www.w3.org/2000/svg">
<path d="M198.71 320.262L196.532 309.376L190 301.756L182.379 294.135L179.113 285.427L178.024 282.161L176.936 279.984L174.758 277.807L172.581 275.63L170.404 272.364L169.315 268.009V264.744L168.226 260.389V257.124L166.049 254.946L163.871 253.858L161.693 252.769L152.984 251.681L147.54 256.035L143.186 262.566L141.008 270.187V274.541L139.919 278.895V283.25L137.742 286.516H131.21H124.678H118.145H111.613L109.436 283.25L108.347 276.718L107.258 271.275H100.726H96.3709L93.1049 269.098L89.8389 265.832L86.5729 261.478L84.3953 258.212L82.2178 253.858L80.0402 249.503L77.8633 246.238L71.3307 244.06L70.2422 238.617L68.0647 233.174L62.6211 232.086L56.0891 229.909L55 225.554L57.1776 219.023L59.3551 213.58L60.4436 212.491L62.6211 202.694L64.7987 192.897L66.9762 183.1V174.391V173.302V172.214L70.2422 168.948L73.5082 166.771L77.8633 164.593L81.1293 160.239L83.3069 154.796L85.4838 149.353L88.7504 143.91L93.1049 140.644L96.3709 138.467L99.6375 137.379L102.904 136.29L106.17 135.201L113.791 131.936L118.145 127.581L120.323 122.138L119.234 113.429L117.057 111.253L114.879 110.164L113.791 107.987L111.613 105.81L109.436 100.367L110.525 96.0123L113.791 93.835L119.234 90.5694L114.879 86.2147L111.613 81.8605L110.525 76.4175L113.791 70.9746L117.057 68.7976L120.323 65.5316L123.589 62.266L125.766 59L133.387 66.6203L143.186 69.8859L154.073 72.0632L163.871 73.1519H167.137L169.315 74.2405H171.492H173.67L180.202 75.3288L186.734 78.5948L192.178 81.8605L197.621 85.1264L200.887 87.3034L204.153 84.0378L206.331 80.7718L209.597 77.5062L212.863 76.4175H217.218H221.573H225.928L230.283 77.5062L235.726 78.5948L241.17 79.6835L245.524 80.7718H246.613V81.8605H247.702L250.968 84.0378L253.145 87.3034L255.323 89.4807L258.589 91.6577H260.766H262.944H265.121L266.21 93.835V94.9237L267.298 96.0123V97.1006V98.1893L268.388 100.367L269.476 103.632V106.898L270.564 109.075L271.654 110.164V111.253L272.742 114.518L273.831 116.695H276.008H278.186L282.541 117.784H285.807L289.073 118.872H293.428L297.782 117.784H302.137L305.403 115.607L307.581 112.341L308.669 107.987L311.936 104.721L316.29 102.544L320.646 101.455L321.734 100.367L322.823 99.278H323.912L325 98.1893V103.632L323.912 109.075V113.429V118.872L322.823 124.315H320.646L318.468 123.227L315.202 125.404L316.29 131.936L319.556 137.379L321.734 141.733L316.29 146.087L310.847 151.53L306.492 156.973L302.137 162.416L297.782 167.859L299.96 168.948L301.049 170.036L303.226 171.125L305.403 172.214V173.302V174.391V175.479L304.315 177.657V179.834L305.403 182.011L306.492 183.1L307.581 184.188L308.669 185.277V186.365H309.758L313.024 190.719L315.202 195.074L317.38 199.428L319.556 203.783V205.96V207.048L318.468 209.226L317.38 210.314H310.847H305.403L298.871 209.226L292.339 208.137L293.428 211.403V214.669L294.516 217.934V221.2L296.694 225.554L297.782 230.997V235.352L298.871 240.795L299.96 241.883V242.972L301.049 244.06L304.315 249.503L307.581 257.124L309.758 265.832L311.936 272.364L313.024 277.807L315.202 284.338L316.29 290.87L315.202 295.224L309.758 296.313L303.226 293.047L296.694 286.516L291.25 281.073L285.807 277.807L280.363 274.541L274.92 272.364L269.476 273.452L265.121 274.541H260.766L256.411 275.63L253.145 277.807L249.879 279.984L248.79 283.25L246.613 286.516L242.258 287.604H241.17L236.815 291.959L235.726 297.401L233.549 302.844L228.105 306.11L219.396 308.287L212.863 311.553L206.331 314.819L198.71 320.262Z" fill="#6F9C76"/>
</svg>
