<svg width="380" height="380" viewBox="0 0 380 380" fill="none" xmlns="http://www.w3.org/2000/svg">
<path d="M100.914 261.405L100.571 263.99V266.576L99.5432 265.714L98.5152 266.576L96.4593 264.852L95.4314 263.129L97.4873 260.543L99.2005 260.974L100.228 260.543L100.571 260.974L100.914 261.405ZM83.0964 240.719H84.8096L86.1801 241.15V242.443L87.2081 243.305V244.598L85.4949 245.46L85.1522 247.614L84.8096 249.338L83.439 248.907L80.698 247.183H79.3273L77.6141 245.46L75.9009 245.029L74.5304 242.874L76.5863 240.719L77.6141 239.426H78.6421L80.0127 238.995L81.0405 240.288L83.0964 240.719ZM72.4745 225.636L72.132 226.929L72.4745 228.221V229.083L71.7893 229.514V230.376L71.104 231.238L70.4188 232.1V232.962L70.0761 232.531L69.7335 232.962V232.1L70.0761 231.238L69.3908 230.376L68.7056 229.945L64.5939 228.221L60.8248 225.205V224.774L61.1675 223.912V223.05L60.4822 221.757L59.7969 220.033L58.769 218.31L58.4264 217.448L59.1116 217.017V215.724L58.769 214L58.0837 213.138L59.7969 212.276L61.8528 213.138H63.9085L65.2792 214L69.0481 216.155L70.4188 217.448L70.0761 218.74L69.7335 220.464L71.104 222.188L71.7893 223.05L72.4745 224.343L72.8172 224.774H73.1599L72.4745 225.636ZM57.7411 201.933V202.795L58.0837 203.226L58.4264 204.95L57.7411 205.812L58.0837 206.674L56.0279 208.398L55 205.812L55.6852 204.088L56.3705 201.933L56.7132 202.364L57.7411 201.933ZM192.741 346.733L190.685 341.131L187.601 337.683L185.546 336.39L184.86 337.252L183.147 339.407L180.749 340.269L177.665 338.114L174.239 337.683L170.812 335.529L168.756 337.252L167.728 335.529L168.756 334.236L169.784 332.943H170.812L171.497 333.374L173.553 332.081L174.581 328.633L175.266 326.91L175.952 323.893L176.637 322.6L176.98 321.738L178.008 322.169L179.378 319.583L181.434 314.412L184.86 310.964L185.888 310.533L186.574 308.81L188.287 307.086L189.315 304.5L190 302.776L190.685 301.052L192.056 300.621L192.741 301.483H193.769H194.797L196.853 299.329L198.223 296.743L198.566 292.864V289.417L197.881 287.693L198.566 284.245L198.223 280.798L199.937 277.781L199.251 267.438L197.195 259.681L198.566 253.217L199.594 251.062L201.307 247.183L203.02 246.321V245.029L201.992 242.443L201.65 239.426L200.964 237.702L199.937 236.41L198.566 235.117H197.195L196.853 236.841H195.482L193.769 234.686L190 232.531L182.805 226.929L180.406 225.205L177.322 221.326L175.609 215.724L167.386 194.607L159.162 177.8L157.449 173.06L156.764 165.733L157.449 146.771L156.764 137.722L154.023 125.655L151.967 115.743L150.596 108.848L149.226 104.538L149.911 104.107L151.282 106.262L152.652 109.71L154.365 111.864L156.079 110.14V107.986L155.736 105.4L155.051 102.814L154.708 100.66L156.764 99.7976L158.82 99.3666L160.876 98.5048L163.274 99.3666L164.645 100.66L166.015 101.952L167.386 103.676L168.756 105.4L172.183 106.693L175.609 105.831L177.665 103.245V98.5048L177.322 95.0571L176.637 91.6095L175.609 88.5928L174.924 85.1453H174.239L173.896 84.7143L173.211 84.2833L172.868 83.8525V83.4215L173.211 82.1285L173.553 81.2667V80.4048L172.525 79.5429L171.497 79.112L170.469 78.681L169.784 77.3882L169.099 75.6643L168.756 74.3715L168.071 73.5095L167.043 72.6477L166.015 71.7857L165.33 71.3547L164.645 70.0619V68.7691L164.987 66.1834L166.7 63.1667L168.414 60.5809L170.127 58.4262L171.84 56.7024L173.553 54.9786L175.609 53.2548L176.637 51.531L177.665 49.8071L177.322 48.5143L176.98 47.2215L175.952 45.4976L175.266 43.3428L174.924 41.619V39.8953L175.609 37.3095L176.98 35.1548L178.35 33.862L180.749 33.431H183.147H188.287L193.426 33H198.566L203.706 33.862L208.503 36.0167L212.957 38.6025L217.754 42.05L222.208 45.0667L224.264 46.3595L225.634 47.6524L226.662 49.3763L227.69 51.9619L228.718 55.8406L230.089 59.2881L231.117 62.7357L232.145 66.1834L231.459 67.9072L229.061 70.9239L226.662 73.5095L225.292 75.2334L223.579 77.819L222.551 79.5429L221.865 81.6977L221.523 85.1453V88.5928L221.18 92.4715V96.781L221.523 99.3666L224.264 99.7976L227.005 97.6429L229.746 95.0571L231.802 92.4715L234.543 89.8858L237.627 87.3L240.368 84.2833L243.452 81.6977H245.508L248.591 83.8525L252.018 86.4381L254.074 88.162L254.759 89.4548L255.444 91.1786L255.787 92.9024L256.129 94.6263L256.815 99.3666L257.843 103.676L259.213 107.555L261.954 110.571L264.353 112.726L267.094 114.881L270.178 116.605L272.576 116.174L276.345 114.45L279.772 112.295L283.198 110.571L286.624 108.417L287.31 113.588L287.995 119.19L288.338 124.362L289.023 129.533L288.68 131.257L288.338 132.981L287.652 134.705L287.31 136.86L285.939 141.169L284.569 145.479L283.541 149.788L282.17 154.529L280.799 157.976L280.457 160.562L281.142 162.717L283.198 165.302L286.967 169.612L290.736 173.921L294.505 178.662L298.274 182.971L301.358 187.281L304.442 191.591L307.183 196.331L309.924 200.64L309.581 202.795L308.553 206.243L307.183 210.121L306.497 212.707L305.812 214.862L305.469 217.017L305.127 219.171L304.784 221.326L304.099 225.636L302.728 229.514L301.015 232.531L298.959 235.979L305.469 241.15L311.98 245.89L318.49 250.631L324.315 254.94L325 255.371L323.972 256.664L323.287 258.819V264.421L322.601 267.007L321.231 269.162L315.749 275.626L313.693 277.35L311.637 277.781H303.756L300.33 278.643H299.645L298.617 280.798L297.589 282.521L297.931 285.107L298.617 288.124L298.959 290.279L299.302 292.864V295.45L299.645 298.036V298.467V299.329V299.759V300.19L299.302 303.207V305.793L298.617 308.81L297.589 310.964L297.246 312.257L296.561 313.55L296.218 314.843L295.533 316.136L294.162 319.583L293.135 323.462L292.107 326.91L291.764 331.65V333.805V335.96V337.683L292.107 339.838V341.131L291.764 341.993V342.855L291.421 343.717L289.365 341.993L286.967 340.7L284.911 338.976L283.541 336.821L282.513 334.236L280.457 332.081L278.401 330.788L276.003 329.064L274.289 327.341L272.576 325.617L271.206 323.462L270.178 320.876L268.122 317.429L266.066 315.705H263.668H260.926L258.528 315.274L256.815 313.981L255.102 311.826L253.731 309.671L252.703 308.81L252.018 307.948L250.99 307.086L250.305 306.224L248.934 304.5L247.906 303.638L246.878 303.207L245.165 302.345H244.137H243.109H242.081L241.053 302.776L236.942 306.224L232.83 310.533L228.718 313.981L223.921 315.274L222.893 314.843H221.865H220.838H220.152L219.467 315.274L219.124 315.705L218.439 316.136H218.096L217.754 315.274L217.411 313.981L217.069 313.119L215.698 313.55L211.929 315.705L208.845 319.583L206.104 323.893L204.048 328.633L201.992 332.512L199.251 336.39L196.853 340.7L195.14 345.009L194.112 345.871L192.741 346.733Z" fill="#6F9C76"/>
</svg>
