<svg width="380" height="380" viewBox="0 0 380 380" fill="none" xmlns="http://www.w3.org/2000/svg">
<path d="M191.739 41.4334L192.354 42.0478L192.968 43.0717L193.583 43.8908L194.197 44.0956L195.221 44.5051L195.631 44.7099L195.835 45.3242L196.04 46.1433L196.245 46.7577L196.655 46.9625L197.474 48.1911H197.269L194.197 49.6246L191.33 51.058L188.463 52.901L185.595 54.744L185.391 55.5632V57.2014L185.595 58.8396L186.005 59.4539L187.848 59.8635L189.691 60.0683L191.535 60.2731L193.378 60.6826L194.811 62.7304L195.631 67.2355L196.245 71.9454L196.655 75.2218L196.859 76.2457L197.064 77.884L197.269 79.3174L197.883 80.3413L199.112 81.3652L199.522 82.3891L199.112 83.6178L198.703 85.4607L197.679 88.7372L196.45 93.0376L196.245 96.9283L198.088 99.3857H198.703H199.112L199.522 99.5905L199.931 99.7952H200.136L200.955 100L201.775 100.205H202.184L202.799 100.819L203.413 101.229L204.232 101.433L204.847 101.843L205.051 102.253L205.256 102.867L205.461 103.276L206.075 103.481L205.256 104.505L204.437 105.734L203.618 106.962L203.413 108.396V110.239L202.799 111.263L201.979 112.082L200.751 113.311H201.979H203.208H204.437L205.666 113.106L206.28 113.311L207.304 113.72L208.123 114.13L208.943 114.539L210.786 115.358L213.039 116.177L214.882 117.201L216.111 119.044L216.725 120.887L216.52 122.73L216.111 124.573L215.292 126.212L214.882 126.826L214.472 127.236L214.268 127.85V128.669V130.102V131.126L214.472 132.15L215.087 133.174L216.111 134.198L217.544 133.584L218.773 132.355H219.592L220.002 133.174L220.616 133.993L221.026 134.812L221.64 135.631L222.255 136.451L222.869 137.27L223.688 138.089L224.303 138.908L225.122 139.317H225.941H226.965L227.784 139.113L228.604 139.317L229.013 139.932L229.218 140.751L229.423 141.775L229.628 144.846L229.832 148.942L230.242 152.628L231.266 154.471L231.676 154.061L232.085 153.652L232.29 153.242L232.7 153.038L233.109 152.833L233.519 153.038L234.133 153.242H234.543L234.748 152.833L234.952 152.423L235.362 152.014L235.772 151.809L237 151.604L238.024 152.218L238.844 153.038L239.868 154.061L241.301 155.7L242.735 157.133L244.168 158.567L245.807 160.205L246.421 158.771L247.241 156.928L248.265 155.29L249.084 154.266H250.313L251.951 154.676L253.589 155.29L254.818 155.7L255.842 155.904L256.661 156.109L257.685 156.314L258.505 156.724L260.143 157.133L261.577 157.543L263.01 157.952L264.444 158.362L265.263 160L265.468 163.481L265.263 167.167V169.625V172.901V176.177V179.659L265.468 182.935L265.263 184.983L265.058 187.85V190.717L265.468 192.355L266.287 192.56L267.721 192.764L269.154 192.56H270.178H270.997L271.612 192.969L271.817 193.379V194.608V195.836L270.997 196.655L269.973 197.474L269.154 198.294L267.106 199.932L265.058 201.775L263.01 203.413L260.962 205.051L257.685 207.918L254.613 210.58L251.337 213.242L248.06 215.904L246.831 216.928L245.807 217.747L244.578 218.362L243.144 218.567L241.711 218.771H240.277L239.048 218.157L238.024 216.928L237.205 215.495L236.386 215.7L235.772 216.928L234.952 218.157L233.928 218.567L233.519 219.386L232.904 220.205H231.88L230.652 220L230.242 220.41L230.447 221.433L230.856 222.457H230.037H228.808L228.194 222.867L228.399 223.686L229.013 224.3L229.832 225.119L230.447 226.143L230.856 226.758L230.447 227.577L229.832 228.396L229.218 229.215L228.604 229.829L227.784 231.263L227.989 232.696L228.399 234.13L229.013 235.563L229.218 236.177L229.423 236.792V237.201L229.628 237.816L228.194 237.406L226.556 236.997L224.917 236.382L223.688 235.768L222.664 234.949L221.845 234.539L221.436 234.949L220.616 235.973L220.002 236.587L219.388 236.997L218.773 237.201L218.159 237.406L216.725 237.611L215.701 237.406L214.882 237.611L213.858 238.43L213.653 238.84L213.448 239.249L213.244 239.454L212.629 239.863H212.22H211.81L211.4 240.068L210.991 240.273L210.376 240.887L209.967 241.707V242.526V243.754L209.762 244.369L209.352 244.778H208.943L208.328 245.188L207.919 245.597L207.509 246.007L207.099 246.212L206.485 246.416L206.075 246.212L205.666 245.802L205.051 245.597L204.642 245.392L203.618 245.802L202.184 246.212L200.955 246.826L199.931 247.44L198.907 248.464L197.883 249.283L196.859 250.307L195.835 251.126V252.56L196.245 254.198L196.859 256.041L197.474 257.474L198.907 256.86L200.546 256.246L201.979 255.631L203.618 254.812V255.631L203.823 256.45L204.027 257.27L204.232 258.089V258.293V258.498V258.703L204.437 259.522L204.642 260.341L204.847 261.16L205.051 261.98L205.256 263.413L205.461 264.642V265.666L205.051 267.099L204.437 268.737L204.027 270.375L203.618 272.014L203.208 273.652L203.003 275.904V279.181L203.413 282.048L204.437 283.686L204.642 283.891L204.847 284.096L205.051 284.3L205.256 284.505L206.075 285.529L207.099 286.348L208.123 287.372L209.147 288.191L210.171 289.01L211.195 289.625L212.015 290.648L212.22 292.082L212.424 292.696L212.629 293.515L212.834 294.334L212.629 294.949L212.015 295.154L211.195 294.949L210.376 294.744L209.762 294.949L208.533 296.792L207.304 298.43L206.075 300.273L205.051 301.911L204.027 302.935L202.389 303.345H200.546L198.907 303.549L197.269 303.754L195.631 303.959H193.992H192.149H191.535L190.92 304.164L190.306 304.369L189.896 304.573L189.077 305.597L188.258 306.826L187.643 308.055L187.234 309.079L186.415 310.717L185.595 312.355L184.981 313.993L184.367 315.631L183.957 316.246L183.547 316.86L183.343 317.679L183.138 318.294L183.957 320.751L184.571 323.208L185.186 325.666L186.005 328.123L184.367 327.713L182.728 327.099L181.295 326.485L179.861 325.87L177.813 325.461L176.175 326.28L174.536 327.713L173.103 329.352L174.127 329.966L175.765 330.99L177.199 332.014L177.608 333.038V333.857L177.403 334.881L177.199 335.7L176.994 336.724L173.103 336.109L169.211 335.904H165.115H161.224V336.724V337.543V338.362V339.181L161.019 339.795L160.405 340L159.586 339.795L158.767 339.59L156.923 339.181L155.49 338.567L154.671 337.338L153.851 335.495V335.29V334.881L153.647 334.471V334.061V333.652V333.447V333.038V332.628V331.399V330.375V329.352V328.123L153.442 327.099L153.032 326.28L152.623 325.256V324.437L152.827 323.208L153.237 322.184L153.647 321.16L153.851 320.137L153.647 319.113L153.442 318.294L153.237 317.474L152.827 316.655L152.213 314.403L151.599 311.945L151.394 309.693L151.599 307.44L152.213 305.392V303.549V301.502L151.803 299.454L149.96 297.201L147.912 294.949L146.274 292.491L145.25 289.625L144.84 286.348V282.867V279.386V275.904L144.635 274.061V271.809L144.431 269.761L144.021 267.918L143.202 266.689L142.178 265.461L141.154 264.232L140.13 263.003L138.082 260.137L136.034 257.27L133.986 254.198L131.733 251.536L132.347 248.464L133.166 245.597L134.19 242.526L135.01 239.454L135.214 237.816V236.382L135.01 234.949L134.395 233.311L133.986 231.468L133.576 230.239L133.781 229.215L135.01 228.191L136.238 227.577L137.262 226.758L137.467 225.734L136.648 224.505L135.624 223.686L134.805 222.662L133.781 221.843L132.552 221.638L131.323 220.614L131.938 218.157L133.781 215.495L135.01 213.857L138.286 211.604L141.768 209.556L145.455 208.532H149.346L150.779 208.737L152.418 209.352L153.851 209.966L155.285 210.375L156.719 210.785H157.947L159.381 210.58L160.815 209.966H161.839L163.067 210.171H164.296L165.115 209.761V209.352V208.532L164.911 207.713V207.099L165.115 206.689L165.73 206.28L166.344 206.075L166.754 205.87L168.597 205.461L167.983 204.437L166.139 203.208L164.501 202.389L163.682 201.57L163.272 201.16L162.658 200.956L161.429 200.751H160.405H159.381L158.357 200.546L157.333 200.341L156.104 200.546L155.08 200.751L153.851 201.16H152.827L152.213 200.546L152.418 199.932L152.623 199.522V198.908L150.984 197.474L148.936 197.065L146.683 196.451L145.25 194.812L145.045 194.608V194.198L144.84 193.993V193.584L143.407 192.355L141.154 191.536L139.515 190.512L139.72 189.283L141.358 188.874L143.202 189.488L145.25 190.512L146.888 190.921V190.102V189.283L146.683 188.464L146.274 187.85L145.455 187.44H144.431H143.611L142.997 187.236L142.792 186.621L142.997 185.802V185.188L142.792 184.573L142.178 183.959L141.768 183.754L141.358 183.549L140.744 183.345H139.106L138.082 183.14L137.058 182.526L136.034 181.297L134.395 179.249L132.962 176.997L131.733 174.744L130.709 172.287L130.299 170.034V167.577L130.504 165.119L130.914 162.662L130.504 161.024L129.07 160L127.432 159.386L126.203 158.157L125.589 156.519V154.676L125.384 152.833L124.77 151.195L124.155 150.171L123.131 149.147L122.107 148.328L121.083 148.123H120.059L119.24 147.918L118.626 147.304L117.806 146.28L117.397 145.256L116.987 144.232L116.782 143.208L116.578 141.98L115.144 139.727L113.096 137.474L110.843 135.427L109 133.788L111.048 131.945L113.301 129.898L115.554 128.055L117.806 126.007L121.902 122.526L125.794 119.044L129.89 115.563L133.986 112.082L134.6 111.672L135.01 111.058L135.624 110.648L136.238 110.239L136.853 112.082L137.262 113.925L137.877 115.768L138.491 117.816L139.72 116.792L140.744 115.973L141.563 114.949L142.587 113.925L144.635 111.263L145.864 107.986L146.888 104.71L147.707 101.229L147.912 100V98.5666V97.3379V96.1092V94.471V92.4232V90.3754L147.503 88.942L146.274 88.3277L144.635 88.1229L143.202 87.9181L141.973 87.099L141.358 85.8703L140.949 86.0751L140.744 86.8942L140.334 87.7133L139.925 87.9181H139.31H138.901L138.491 88.3277V88.7372L138.901 89.1468L139.106 89.3515L139.31 89.7611L138.901 90.785L138.286 91.1945L137.467 91.3993L136.034 91.6041L136.238 89.9659L135.419 89.3515L134.395 88.942L133.371 88.5324L133.166 86.6894L132.962 84.6416L132.757 82.5939L132.552 80.5461V79.3174L133.166 78.4983L134.19 77.884L135.419 77.2696L136.648 76.4505L137.877 75.6314L139.31 74.8123L140.539 73.9932L141.358 73.1741L141.973 72.355L142.587 71.3311L143.407 70.9215L145.25 70.3072L146.888 69.6928L148.527 69.0785L150.37 68.2594L150.779 68.4642L150.984 68.8737V69.4881L151.394 69.6928H151.803L152.418 69.4881L153.032 69.2833L153.647 69.0785L154.875 67.4403L155.695 64.1638L156.309 60.4778L156.719 57.8157L157.333 55.3584L157.743 52.6962L158.357 50.0341L159.381 47.9864L161.019 46.1433L163.067 44.5051L165.32 43.0717L167.368 41.843L167.778 41.4334L168.597 40.8191L169.211 40.2048L169.621 40L170.44 40.6143L171.259 41.2287L172.079 42.0478L172.898 42.6621L174.741 44.3004L176.584 45.9386L178.427 47.5768L180.475 49.0103L180.885 49.6246L181.295 50.0341L181.909 50.4437L182.319 50.2389L183.138 49.4198L183.957 48.6007L184.776 47.7816L185.595 47.1672L187.234 45.7338L188.667 44.3004L190.101 42.8669L191.739 41.4334Z" fill="#6F9C76"/>
</svg>
