<svg width="380" height="380" viewBox="0 0 380 380" fill="none" xmlns="http://www.w3.org/2000/svg">
<path d="M208.198 162.949L207.722 165.09L207.247 167.231L206.533 169.609L206.057 171.75L207.247 170.799L208.912 169.134L210.577 168.182L211.766 168.42L212.004 169.847V171.275L212.242 172.464L212.956 173.891L214.621 175.794L216.524 177.459L217.952 179.362L218.427 181.978L218.189 182.93L217.952 183.881L217.476 184.832L216.762 185.546L215.335 186.735L213.67 187.211L212.004 187.687L210.577 188.638L209.626 189.59L209.388 190.541L209.863 191.255L210.577 192.444L211.053 193.395L211.291 194.109L211.529 195.06L211.766 196.25L212.242 196.725L212.956 197.201L214.145 197.677L215.097 197.915L216.524 198.628L218.189 199.342L219.617 200.055L221.282 200.531L224.85 201.958L228.418 203.385L231.987 205.05L235.555 206.478L236.982 206.953L238.172 207.429L239.599 207.667L240.788 208.143L242.692 208.856L243.881 209.094L244.357 208.618V206.478L244.119 205.526L243.881 204.337L243.643 203.385L243.405 202.196L243.167 201.483L242.93 201.245V201.007L243.643 200.769L244.357 201.007L245.07 201.483L245.784 202.196L246.498 202.672L247.449 203.861L248.639 205.526L249.828 206.953L251.018 207.667L251.969 207.429L252.921 206.478L253.872 205.288L254.586 204.099L254.824 204.575L255.062 205.05L255.3 205.288L255.537 205.764L256.489 207.905L257.678 209.808L258.868 211.948L260.057 214.089L260.771 215.754L261.485 217.657L262.436 219.322L263.388 220.749L264.815 221.938L266.242 222.414L267.907 222.652L269.573 222.89L271.476 223.128L273.617 223.604L275.52 224.079L277.423 224.793H277.661L277.899 225.031H278.137L280.278 225.982L282.418 226.696L284.559 227.171L286.938 227.647L288.366 227.885L290.031 228.123H291.934L293.361 227.885L294.075 227.171L294.789 226.22L295.502 225.268L296.454 224.793L298.595 224.555L300.736 224.317L302.639 223.604L303.828 221.938L304.542 222.652L305.256 223.128L305.969 223.366L306.683 223.841L307.159 224.079L307.396 224.317L307.872 224.555L308.348 225.031L309.775 225.744L310.965 226.934L312.392 227.885L313.582 228.836L315.722 230.264L317.625 231.453L319.529 232.642L321.67 233.831L323.097 235.021L324.286 236.686L325 238.351V240.492L324.048 243.346L322.621 246.2L321.194 249.054L319.529 251.671L319.053 252.622L318.577 253.812L318.339 255.001L317.863 256.19H317.388L316.912 255.715L316.198 256.428L315.485 256.666L314.771 256.19H314.057H313.106L312.392 256.666H311.916L309.299 256.428L308.586 256.19H308.348L308.586 258.093L309.775 258.331L311.44 257.855L312.63 257.617L312.868 258.093L311.916 258.807L311.203 259.758L311.678 261.185L310.013 261.661L310.489 263.326L311.44 264.991L312.392 265.705L315.247 265.467L315.485 266.18V267.132L315.722 267.845L316.198 268.321L317.388 268.559L317.625 269.51L317.15 270.7L316.912 271.175L316.198 272.127L315.247 272.84L313.582 273.792L313.344 274.03V274.267L313.106 274.743H312.868H312.392L311.678 274.267H311.203L310.489 274.743L310.013 275.219L310.251 275.695L310.727 276.408L309.775 277.36L307.159 276.884L306.207 277.835L305.731 279.738L305.969 280.928V282.117L305.256 282.83L304.78 283.544L305.493 284.971L306.445 286.16L307.634 286.874L309.299 287.588L311.203 288.539L312.63 289.49L313.106 291.156L313.344 293.296V294.723L313.582 296.151V297.578V298.767L312.63 299.005L311.44 299.481L310.489 299.718L309.537 300.194L308.824 300.432L308.586 300.908L308.348 301.383L308.586 302.335V304.951L308.824 307.568L308.586 310.184L308.348 312.563L307.634 312.325L306.921 312.087L306.207 312.325L305.731 312.801L305.256 313.276H304.78H304.304H303.59L303.114 313.039L302.639 312.801H302.163L301.687 312.563L299.784 312.801L298.119 313.514L296.454 314.228L295.026 314.941L293.599 315.417L292.41 315.179L291.458 314.704L290.031 313.99L289.317 313.514L288.366 313.276L287.652 312.801L286.938 312.325L286.463 311.374L286.225 310.422V309.471L285.749 308.757L285.511 308.044L285.273 307.568L285.035 307.092L284.559 306.854L282.894 306.141L280.753 306.378L278.612 307.092L277.423 308.519L276.471 307.568L275.282 306.854L274.092 306.616L272.665 306.854L273.141 305.427L273.379 304L273.617 302.573L273.855 301.146L273.617 300.194L273.141 299.005L272.665 297.578L272.189 296.626L271.238 294.961L270.524 293.058L270.048 291.156L269.335 289.253L268.859 287.588L268.383 285.685L267.907 284.02L267.432 282.117L267.194 281.879V281.403L266.956 281.165V280.69V282.355L265.766 283.544L264.101 284.495L262.912 285.685V286.398V287.112V287.826L262.198 288.539L261.485 289.015L261.009 289.253H260.533L259.581 288.777L259.344 288.539H258.868L258.63 288.777L258.154 289.015L257.678 289.728V290.68L257.44 291.631L257.203 292.345L256.727 292.821L256.251 293.296L256.013 294.01L255.775 294.486L255.537 294.961L255.062 295.437L254.824 295.913L254.348 296.388H253.634H252.683L251.731 296.151L251.018 296.388L250.304 296.626H249.828L249.352 296.864H248.877L247.925 298.291L246.26 298.529H244.357H242.93L242.216 298.767L241.978 299.005L241.502 299.243H240.788L240.075 298.767L239.599 298.291L238.885 297.578L238.41 297.34L237.696 296.864L237.22 295.913L236.982 294.961L236.507 294.248L236.031 293.772L235.555 293.534L235.079 293.296L234.604 292.583L234.128 291.869L233.176 291.393L232.225 290.918L231.273 290.442L229.37 291.156L228.181 293.058L227.229 295.199L226.515 297.34L224.374 296.388L222.471 295.437L220.568 294.723H217.952L215.097 294.486L212.242 292.345L209.626 289.49L207.009 287.35H206.771H206.533V287.112H206.295L204.154 286.398L201.775 285.685L199.634 284.971L197.255 284.258L196.304 284.02L195.59 283.782L194.877 283.306L193.925 282.83L192.736 282.355L191.546 281.879L190.119 281.165L188.929 280.69L188.216 280.214L187.502 279.976L186.788 279.738L186.075 279.5L185.361 279.025L185.123 278.549L184.648 278.311H183.696L182.982 278.787L182.269 279.263L181.555 279.976L181.079 280.452L180.603 281.403L180.128 282.355L179.89 283.306L179.414 284.258L179.176 285.685L178.938 287.35L178.462 289.015L177.987 290.442L176.559 291.631L174.181 292.107L171.564 291.869L169.423 292.107L167.758 290.918L166.33 289.728L164.903 288.539L163.714 287.35L160.383 284.733L157.291 282.355L153.96 279.738L150.868 277.122L149.678 276.17L148.727 274.981L147.537 274.03L146.586 273.078L144.445 272.127L142.066 271.651L139.925 271.413H137.546L135.167 271.651L132.551 272.365L130.172 272.84L127.793 272.365L126.841 272.127L126.128 271.413L125.414 270.7L124.7 269.986L124.463 269.035L124.225 268.083L124.463 266.894L124.225 265.942L123.035 264.515L121.608 264.04L119.943 264.277L118.277 264.991H118.04L117.802 265.229H117.564L115.185 266.894L113.282 267.845L111.141 267.607L108.286 266.418L111.141 262.612L113.996 258.807L116.85 255.001L119.705 251.195L120.181 250.244L121.132 249.292L121.608 248.103L121.846 247.152L121.608 245.011L121.37 242.632L121.132 240.254L120.894 238.113L120.181 235.496L119.467 233.118L118.515 230.501L118.04 228.123V226.458L118.277 225.031L119.229 224.079L120.181 223.128L121.608 222.414L122.797 221.701L123.511 220.749L123.273 219.084L122.559 217.181L121.608 215.041L120.894 213.138L119.943 211.235L118.753 210.046L117.326 209.808H115.899H114.233H111.855H109L105.907 210.046L104.004 211.473L103.053 213.613L102.101 215.992L100.912 217.895L98.533 218.371H98.0572H97.5814L97.1058 218.608H96.63L94.9647 219.56L93.2995 220.749L91.8722 221.463L89.9692 221.225L88.304 220.274L87.1145 219.084L85.9251 217.657L84.7357 215.992H84.4977V215.754L84.2599 215.516L82.8326 212.9L80.9294 209.57L78.7885 206.953L76.1717 205.526L75.4581 205.288L74.7445 205.05L74.0308 204.575L73.3172 204.099L70.4626 201.483L67.6079 198.866L64.9911 195.774L63.0881 192.444L62.3744 190.541L61.6608 188.876L60.9471 187.211L59.9955 185.546L59.2819 183.643L58.3304 181.978L58.0925 180.313L58.8061 178.41L59.7577 176.507L60.2334 174.842L59.9955 173.177L59.2819 171.275L59.044 169.847L58.8061 168.182L58.3304 166.755L57.6167 165.566L56.6652 164.852L55.7136 164.377L55 163.663L55.2378 162.236L55.9515 160.809H56.6652L57.8546 161.047H59.044L59.7577 160.095L60.2334 158.668L60.7092 157.003L60.9471 155.576L61.185 154.624L61.6608 152.959L62.1366 151.532L62.6123 150.819L63.8017 150.581L64.9911 150.343L66.1806 150.581L66.8943 151.294V152.484L66.6564 153.673V154.624L67.8457 155.1H69.2731L70.7004 154.386L72.1278 153.673L73.3172 152.959L75.6961 151.056L77.8369 149.154L79.74 147.013L81.4052 144.634L83.0705 142.018L85.2115 139.639L87.3524 137.498L89.7312 135.834L90.9206 135.596L92.1101 135.358H93.0617L94.2511 134.882L94.9647 133.931L95.4405 132.741L95.9163 131.552L96.392 130.363L98.533 128.222L101.15 126.319L104.242 124.892L106.859 123.465L110.189 121.086L113.044 118.708L115.899 116.091L118.515 112.999L119.705 111.572L120.894 109.907L122.322 108.48L123.749 107.766L125.652 107.29L127.079 106.815L128.269 106.101L129.458 104.436L132.551 98.4896L135.881 92.5431L139.449 86.8345L142.78 80.888L144.207 78.5094L145.872 76.1308L147.775 74.2279L150.154 72.8008L152.771 71.3736L153.96 69.4707L154.674 67.0921L155.626 64L158.242 67.0921L160.621 70.66L163 73.9901L165.379 77.3201L166.568 78.7473L167.758 80.1744L168.947 81.6016L169.899 83.0287L170.374 85.1695L170.612 87.548V90.1645L170.85 92.3052V96.3489V100.392V104.436L171.326 108.242L172.515 111.572L174.419 114.426L176.797 117.043L178.938 119.659L179.414 122.038V124.416V126.557L178.7 128.936L178.462 131.552L178.7 134.168L179.414 137.023L180.128 139.639L180.603 140.591L180.841 141.542L181.079 142.494L181.317 143.683L181.079 144.872L180.603 146.061L180.128 147.251L179.89 148.678V149.629L180.366 150.819L180.841 151.77L181.079 152.959V154.386V155.576V156.765V158.192V158.668V159.144V159.382V159.857V160.333L181.317 160.809V161.284V161.522L182.269 163.663L183.22 165.09L184.885 165.804L187.026 166.279L187.978 166.517L188.929 166.755L189.643 166.517L189.881 165.804V164.852V163.901V162.949V161.998H194.401H199.159L203.678 162.236L208.198 162.949Z" fill="#6F9C76"/>
</svg>
