<svg width="380" height="380" viewBox="0 0 380 380" fill="none" xmlns="http://www.w3.org/2000/svg">
<path d="M325 203.536V228.052V252.867L287.326 252.567H287.027L286.727 252.269L286.429 251.073V249.578L286.727 248.382L287.326 247.485L288.522 247.186H289.717L290.615 246.887L290.914 245.691L290.615 245.392L288.522 241.805L287.924 240.908L287.027 240.609H285.232H284.335L282.84 240.011L281.943 239.413L281.345 238.516L281.943 235.825V234.33L281.345 234.031L280.448 233.433L279.85 232.835L278.056 232.238L276.262 231.64L274.767 231.042H274.468L274.169 230.743H273.87H273.571L272.076 230.145L270.282 229.248L268.787 228.351L268.189 226.856V225.959L268.488 225.062V224.165L268.189 223.268L267.591 220.279L266.993 216.99L265.797 214L264.302 211.31L262.508 210.712H260.714H258.92H257.126L255.93 210.114L256.229 208.32L257.126 206.825L257.724 205.928L257.425 203.237L257.126 202.639L256.827 202.341V201.743V199.949V199.351L255.631 197.258L253.837 195.763L252.043 195.464L250.249 196.959L248.156 195.763L246.96 195.464L245.764 195.763L244.568 196.062L244.269 196.959L243.97 197.856L243.372 198.753L242.176 197.557L242.475 194.268L241.279 193.67H240.681L238.588 194.268L236.196 195.763L233.804 198.155L231.711 200.547L233.206 203.237L231.412 204.732L228.422 205.031L225.731 204.732L223.937 205.928L221.844 207.124L219.751 208.32L217.658 209.217L214.967 209.815L211.678 210.413L208.987 211.31L206.894 212.804L205.997 215.794V217.887L205.399 219.382L202.409 220.578L200.615 220.877L198.821 222.372L197.326 223.866L196.13 225.361L194.036 226.856L192.243 228.65L190.449 230.145L188.654 231.939L187.757 232.536L186.861 233.433L185.964 234.33L185.365 235.227L183.87 236.423L182.674 237.619L181.179 238.815L179.983 240.011L179.684 240.31L179.385 240.609L179.086 240.908L178.787 241.207L176.395 242.701H173.405L170.714 241.805L168.322 240.609L167.126 239.413L165.93 238.217L165.033 236.722L164.136 235.227L162.641 232.536L161.744 230.145L160.249 228.351L157.259 227.753H155.166L153.97 226.856L153.372 225.062L153.073 222.969V219.083L152.475 215.495L151.578 211.908V208.32L151.877 206.825L152.475 205.33L153.073 204.134L153.372 202.639V201.145V199.351L153.073 197.856V196.361V196.062V195.763V195.464V193.67L152.774 193.072V191.578L151.578 193.371L149.784 193.072L147.691 195.165L145 194.567L142.309 192.475L140.216 190.083L138.123 189.186L136.628 187.99L135.731 187.392L132.741 187.093L130.349 186.196H129.153L128.256 186.495L127.06 187.99L126.761 188.588L125.565 188.887L125.266 190.681L123.472 196.062L121.678 201.444L120.183 206.825L118.688 211.908L118.389 213.402L118.09 215.196L117.492 216.99L116.894 218.186L115.698 219.083L114.502 219.98L113.306 220.877L112.409 222.073L112.11 222.372L111.811 224.165H111.512L110.914 224.464L110.615 224.763L109.12 225.959L108.522 226.557L108.223 227.454L107.625 228.052L107.326 229.248L106.429 231.64L105.532 234.031L104.336 236.722L103.14 239.114L101.944 241.805L100.449 241.207L98.9535 240.609L97.7576 239.413L97.1596 237.619L97.4585 237.021L97.7576 236.124L98.0565 234.928L98.3555 234.031V233.134V232.238L98.6546 231.341L98.9535 230.444L99.2526 228.351L99.8505 226.557L98.9535 225.062L96.5615 223.866L95.3654 222.969L93.5715 220.877L91.7775 218.784L90.8804 217.289L89.3854 215.196L87.2925 213.701L84.9003 212.505L82.5083 211.908H81.6114H80.7144L79.8174 211.609L79.5183 211.011L79.2194 209.217L78.6213 208.619L77.1263 208.32H75.3324L72.0432 207.423L71.1462 205.031L70.8473 202.639L69.3523 200.547L68.1562 200.248L66.9601 199.949H65.7642L64.5681 199.351V199.052L64.2692 198.454V198.155L63.9701 197.557H63.3722H62.7742H61.8772L61.2792 197.258L60.0831 196.062L59.7842 193.969L60.0831 191.877L60.3822 190.083L60.6811 188.588L61.5781 187.392L62.1761 186.196L61.5781 185L60.9801 184.103L60.6811 183.206V182.309L60.3822 181.413L60.0831 180.516L59.485 179.918L59.1861 179.619L58.8872 179.021L59.1861 178.423L59.7842 178.124L60.0831 177.526L59.1861 176.928L58.5881 176.031V174.835V173.639V172.443L58.2891 171.248L57.6911 170.949H56.7941L55.8972 170.351L55.598 169.753L55.2991 168.557V167.66L55 166.763L57.0931 165.567L59.485 164.67L66.0632 163.175L67.2592 161.98L69.0532 161.083L78.6213 157.794L78.0233 158.99L77.1263 159.588L76.5283 160.485L76.2293 161.98L77.1263 162.279L84.0033 161.382L85.4984 160.784L86.6944 160.186L87.2925 159.289V158.392L86.9934 157.794L86.6944 157.196L86.9934 156.299L87.5914 155.701L88.7875 155.103L89.0864 154.804L90.2825 155.103L91.4784 154.804L92.6745 154.206L93.8704 153.608L94.4685 155.103L95.9635 155.402L101.645 154.505L102.542 153.309L103.738 150.32L103.14 148.227L102.841 147.928H101.944L100.748 148.526L99.5515 148.825L99.2526 149.423L98.0565 150.32L92.0765 152.114L91.4784 152.711L90.8804 153.907L90.2825 154.206L86.3953 154.804L83.4053 156.897L82.5083 157.495H81.6114H80.7144L79.8174 158.392L80.4153 156.897L81.9103 156L83.7044 155.402L84.3025 154.505L85.4984 153.608L101.345 147.629L105.233 146.732L114.203 145.536L126.163 146.134L139.02 145.536V146.134L138.422 147.33L137.525 148.227L136.927 148.526L137.226 149.423V151.516L137.824 152.114H138.721L139.917 151.815L141.412 150.918L142.01 150.32V151.815L141.113 153.608L140.814 154.804H141.412L142.608 153.01L143.206 152.114L142.608 151.815L144.402 151.516L145 150.021L144.402 148.526L142.309 147.928L140.515 147.629L140.814 146.732L142.01 146.134L143.804 145.536L157.558 145.237L165.033 143.443L169.219 141.052L173.106 137.165L174.9 134.474L175.498 133.278L176.096 132.382L176.694 132.083H177.591L177.89 132.681L179.086 135.67L179.684 144.34L180.88 146.732L181.478 144.34L180.88 142.845V140.753L181.478 137.165L180.88 135.371L178.787 131.186L178.488 129.99L179.983 129.392L182.076 129.093L185.964 129.392L187.757 129.093L196.728 127L197.625 128.495L198.522 130.289L199.718 131.784L200.914 133.577L201.512 135.67L201.811 138.062L202.708 140.155L203.904 141.65L204.801 142.247L205.399 142.845L205.997 143.443L206.894 144.041L207.791 144.34L208.389 144.041L208.987 143.742H209.585L213.472 144.34H217.658L221.545 144.041L225.432 143.742V147.928V152.114V156.299V160.485L225.133 163.175L224.834 166.763V170.351L226.329 172.443L228.422 173.639L230.216 175.433L232.309 176.928L234.103 178.423L235.299 179.32L236.495 179.918L237.691 180.516L238.887 180.815L240.382 181.712L240.98 183.206L241.279 184.701L242.774 185.299L245.166 187.093L247.558 188.588L250.548 189.784H253.239L257.425 190.083H261.611H265.797H269.684L270.581 188.887L271.478 187.093L272.375 184.701L272.674 183.206V182.309L272.375 181.413V180.516V179.619L272.674 179.021L272.973 178.124L273.272 177.227L273.571 176.629L275.365 176.33L277.757 176.031L280.15 176.33H282.242H283.14L284.335 176.629L285.232 176.928L286.13 177.227L287.924 177.825L289.12 178.423L290.615 178.722L292.409 179.021H294.203L295.698 179.619L297.193 180.217L298.688 181.413L299.884 182.309L301.379 183.505L303.173 184.701L304.668 185H306.462L307.957 184.701L309.751 185L311.246 185.598L312.143 186.495L312.741 187.093L313.638 187.691L314.834 187.99H317.226L319.618 188.289H325V190.083V194.567V199.052V203.536Z" fill="#6F9C76"/>
</svg>
