<svg width="380" height="380" viewBox="0 0 380 380" fill="none" xmlns="http://www.w3.org/2000/svg">
<path d="M57.4752 43.5034L59.3193 43.319L61.1634 42.7658L62.8231 42.5815H64.4828H64.8516H65.036H65.4048L65.7736 42.7658L66.1425 43.1346L66.3268 42.9502L66.5113 42.7658L66.8801 42.5815L67.6177 43.1346L68.1709 43.6878L68.7241 43.8722L69.4618 43.1346L70.015 42.9502L70.3839 43.8722L70.7527 44.4254L71.6747 44.0566L72.228 44.4254L72.9656 44.6097H73.7032L74.2564 44.241L74.4409 43.1346V41.8439L74.8097 40.7376H75.5473L76.285 41.1063H76.4693H76.8382L77.3914 40.9219L77.9446 40.7376L78.3134 40.3688L78.8666 40.1844L79.6043 40L80.7107 40.3688L81.0796 41.4751L81.4484 42.9502L82.5548 43.8722L83.2925 44.6097L84.2145 45.3473L85.1366 46.0849L86.0586 46.2693H87.165L88.4559 46.638L89.9312 47.1912H91.222L91.9597 47.3755L93.0661 47.9287L93.9882 48.6663L94.9102 49.2194L95.6479 49.7726L95.2791 50.5102L94.7259 51.2477V52.1696L95.2791 52.7228L95.8323 53.0916L96.2011 53.6448L96.7543 54.1979L97.3075 54.7511H97.8608L98.414 54.1979L98.7829 53.6448L99.3361 53.276L99.7049 53.0916L101.18 52.1696L101.549 51.8009L102.102 52.9072V59.914L102.655 61.9423L110.769 76.6933L116.117 83.1469L117.039 83.7001L119.99 86.4659L120.543 86.6503L121.096 87.5722L124.969 89.9693L126.26 92.3664L126.075 94.7634L125.338 97.1604L124.969 99.5575L124.6 100.479L123.125 103.061L122.572 103.983L122.018 104.905L121.649 106.195L121.281 108.777H120.912L120.174 104.905L118.883 101.955L118.515 100.295L117.961 99.7419V99.3731L118.883 98.4512L119.805 97.7136L120.727 97.1604L121.834 96.9761L122.387 97.5292L122.94 96.4229L123.125 95.6853L123.309 94.7634L123.494 93.8414L122.94 92.7351L121.834 91.8132L119.805 90.5225L117.224 88.1254L116.486 86.8347L113.536 83.7001L111.138 80.1967L109.847 79.0904L109.663 78.5372V77.7996L108.741 73.9275L108.188 72.6368L106.712 71.7148L102.287 63.7862L101.733 61.9423L101.918 63.233L102.84 65.2612L103.209 65.9988L103.577 67.1051L104.868 70.2397L105.237 72.4524L105.422 77.2465L106.528 81.1187L107.45 85.9128L108.188 88.1254L112.429 95.8697L113.167 96.7917L114.089 97.1604H114.826L115.748 96.9761L116.486 96.2385L117.039 96.9761V98.0824L116.486 100.295L116.67 101.586L120.359 108.961V109.514L121.096 109.883L121.649 110.621L122.018 112.649L125.153 121.131L128.841 128.322L132.53 134.96L133.083 136.988L133.636 137.91L133.267 138.095L133.083 138.279L132.53 139.017L135.111 144.364L141.197 151.739L143.041 153.399L145.069 154.505L146.176 155.427L146.914 157.64L147.651 158.562L149.126 160.037L152.815 164.462L156.134 167.228L157.056 168.334L157.794 169.994L158.347 170.547L158.9 170.916L159.084 171.285L159.638 171.469L160.191 171.838L162.035 175.157L165.539 179.398L169.043 184.745L171.809 188.248L172.731 189.908L174.575 195.255L175.128 200.234L176.972 206.872L177.525 207.793L179.185 210.006L179.554 210.928L179.001 212.403V213.141L179.738 214.985L180.107 217.197L180.66 218.304L181.214 219.41L182.504 220.148L186.93 223.835L187.668 224.388L188.959 223.651L189.512 224.573L189.696 225.864L190.065 226.786L190.434 227.707L191.172 230.473L191.909 231.58L192.647 232.502L193.753 233.239L195.044 233.608H196.335H197.073L197.442 234.345L198.179 238.218L199.101 240.43L200.023 242.09L201.13 243.565L202.974 245.409L204.265 246.331L205.187 246.699H206.109L207.215 247.068L208.322 247.621L209.059 248.175V248.543V250.018L207.768 249.281L205.187 247.437L202.236 246.515L200.392 244.671L199.286 244.302L198.179 245.04L199.286 245.962L201.13 246.884L202.236 247.253L202.605 248.175L203.896 249.281L206.109 250.756V251.309L205.187 251.125L203.896 250.572L202.974 250.387L202.421 250.756L202.605 251.678L203.343 252.415L203.711 252.784H204.633L205.187 252.6L206.478 252.047L206.662 251.862V251.494L206.846 251.309H207.4H207.953L213.485 252.969L214.592 253.153L215.698 253.706L216.805 254.813L217.911 255.366L218.833 254.628L216.62 253.337L213.116 252.047L210.35 250.572L210.166 248.175L213.67 250.94L217.911 252.6L222.706 253.337L229.529 253.522L234.323 253.153L237.827 253.337L238.749 253.522L239.671 253.891L241.515 255.55L246.125 258.685L246.863 259.422L247.047 260.529L247.601 261.266L248.707 261.819L255.715 262.926L256.637 263.294L259.034 263.663L260.141 264.216L261.063 265.876L262.722 270.117L263.829 271.961L267.332 275.28L268.623 276.939L271.021 282.286H271.389L273.049 283.577L273.787 283.762L275.262 283.946L277.106 284.683L278.581 284.499L280.057 284.315L281.348 284.13L283.007 283.393L290.937 282.286L294.625 281.18L294.809 281.733V282.286L294.994 283.024L295.178 283.393L295.731 283.762H296.285L296.654 283.946L296.838 284.683V285.421V286.159V286.896L297.207 287.449L297.76 287.818L297.576 288.187L297.207 288.371L297.022 288.74L297.207 289.109L297.391 289.293L297.76 289.662L297.944 290.215L298.129 290.768V291.321L298.313 291.875L298.682 292.428L299.051 293.165L298.682 293.903L298.129 294.64L297.944 295.562L297.76 296.669L297.576 297.959L297.76 299.25L298.498 299.988L298.866 300.172H299.42H299.788H300.157L300.342 300.541V300.725L300.526 301.094V301.278L301.264 301.647H302.001L302.739 301.832L303.477 302.016L304.399 303.307L304.583 304.782L305.136 306.257L307.165 306.81H308.271L309.193 306.994L309.562 307.363L309.746 308.47L309.931 308.838L310.484 309.023H311.037H311.591L313.066 309.392L314.541 310.129L315.832 311.051L316.754 312.342L317.307 313.264L318.414 314.554L319.52 315.845L320.258 316.398L321.733 317.136L322.286 318.058L321.918 319.164L321.733 320.455L321.549 321.008L321.364 321.561V322.114V322.667L321.18 323.221L320.995 323.958L320.811 324.511L320.627 324.88L320.995 325.987L321.733 326.724L322.655 327.093L323.577 327.462L323.393 328.015L323.024 328.568L322.84 329.121L322.655 329.674L322.102 330.781L320.995 331.703L319.889 332.44L318.967 333.178L316.938 334.468L315.094 335.759L313.066 337.05L311.037 338.34L310.484 338.894L309.931 339.262L309.193 339.631L308.456 340L300.342 339.447L292.043 338.894L283.745 338.525L275.446 337.972L273.971 337.787H272.312L270.652 337.603L269.177 337.419L267.332 337.234H265.488L263.829 337.05L261.985 336.865H259.219L255.53 336.681L252.211 336.312L250.367 335.206L250.182 334.284L249.814 333.362L249.629 332.44L249.26 331.703L249.445 331.334H249.629L249.814 331.149L249.998 330.965V330.596L249.814 330.043V329.674L249.629 329.305L248.892 328.384L247.601 327.462L246.125 326.908L244.835 326.54L244.281 325.618L243.544 324.88L242.806 324.143L241.884 323.405L240.224 321.561L238.565 319.717L237.089 317.873L235.43 316.03V315.292L235.614 314.739L235.799 314.001L235.983 313.448L236.536 313.079L237.089 312.895L237.643 312.711L238.012 312.342V311.973L238.196 311.42V310.682L238.38 310.313V309.576L238.565 308.838L238.38 308.101L237.827 307.732H237.643H237.089H236.536H236.167L235.799 308.101L236.167 308.654L236.352 309.023L235.983 309.207L235.43 309.023L234.877 308.838L234.323 308.654L233.77 308.838L233.217 310.129L232.664 311.051L231.557 311.42L230.082 311.604L229.897 311.973L229.713 312.157L229.529 312.342V312.711H228.422H227.131L226.025 313.079L224.918 313.632L224.55 314.186L224.181 314.923L223.628 315.476L222.89 315.661L222.337 315.845L221.415 316.398L220.493 316.951L219.755 317.32H219.571L219.386 317.689V317.873V318.242L219.202 318.611L218.833 318.795H218.28H217.727L217.173 319.533L216.436 319.717L215.882 319.533L214.96 319.164H213.854L212.932 319.533L212.01 320.086L210.719 320.27L210.535 320.455H210.35L210.166 320.27H209.981L209.059 319.902L208.137 319.717L207.4 319.348L206.662 318.427L205.556 316.214L204.449 314.001L203.343 311.789L202.236 309.576L201.314 307.916L200.761 306.257V304.782L201.314 303.122L201.498 302.754V302.569L201.683 302.385L201.867 302.016L203.711 299.988L205.371 297.959L206.846 295.747L207.768 292.981L206.846 291.321L206.293 289.478L205.556 287.634L204.449 286.159L204.08 285.79L203.711 285.605L203.343 285.421L202.974 285.237H202.605L202.052 285.052L201.683 284.868H201.13L200.576 284.683L199.839 284.499L199.286 284.13L198.732 283.762L198.179 283.577H197.81H197.257L196.704 283.762H196.52H196.335H196.151H195.597H194.675H193.938L193.385 283.393L192.278 283.208H191.54L191.172 283.577L190.434 284.499L190.25 284.868L189.512 285.052L188.774 284.868L188.037 284.683L187.483 284.499L186.93 283.762V283.393L187.115 282.84L186.93 282.471L186.377 282.286L185.824 282.471H185.086L184.902 282.286L184.533 282.102L184.348 281.918L183.795 281.549L183.426 280.074L183.058 278.414L182.689 276.939L182.136 276.017L181.582 275.28L180.845 274.542L180.107 273.989L179.738 273.805L179.185 273.62L178.816 273.251L178.447 272.883L176.972 271.223L176.05 269.01L175.128 266.429L174.759 264.216L174.206 262.741L173.284 261.819L172.178 261.266L170.518 260.897L168.121 260.529L166.092 259.791L164.432 258.685L162.404 257.025L162.035 256.656L161.666 256.288L161.113 255.919L160.744 255.55L161.113 257.21L161.666 259.053L162.219 261.082L162.404 262.926L161.851 264.585L160.744 266.245L159.453 267.72L158.162 269.01L157.978 269.195L157.794 269.379L157.609 269.748L157.425 269.932L156.872 269.01L155.95 268.089L155.028 267.167L154.29 266.06L154.106 264.77V263.11L153.552 262.004L152.261 262.188H152.077H151.893L150.417 262.557L149.126 262.741L147.836 263.11L146.545 263.479L145.807 263.663L145.069 263.848H144.332L143.594 264.216L143.041 264.585L142.303 265.323L141.566 265.876L140.828 266.06L140.09 265.691L139.168 265.876H138.431L137.693 265.691L137.14 264.954L137.324 263.848L137.877 262.926L138.246 262.004L137.877 261.082L137.324 260.529L136.587 259.607L136.402 258.5V258.132V257.578L136.218 257.21L136.033 256.841L135.849 256.656V256.472L135.296 256.288L134.743 256.103H134.189L133.636 255.919H133.083L132.53 255.55L131.976 255.181H131.239L130.501 255.55L129.579 255.919L128.841 256.103L127.735 255.734L127.366 255.55L126.997 254.997L126.629 254.628L126.26 254.075L125.707 252.6L125.153 250.756L124.969 249.097L125.522 247.621V247.437H125.707L126.075 247.068L126.444 246.884L126.813 246.515L127.182 246.146L127.551 245.593L127.735 244.856L128.104 244.302L128.657 243.934L129.764 243.565L130.686 243.38L131.054 243.012V241.721L130.87 241.168L130.686 240.43L130.317 239.877L130.132 239.14V238.955V238.771V238.586V238.218H129.948V238.033V237.849V237.664V237.48V237.296V236.927V236.742V236.005L129.764 235.452L129.579 234.714L129.395 234.161L129.026 232.87L128.657 231.026V229.367L129.026 227.892L129.579 227.707H130.132L130.87 227.523H131.423L132.161 227.154L132.899 226.786L133.452 226.417L134.189 226.048L135.111 226.232L136.218 226.786L137.324 226.97L137.877 226.417L138.062 225.864L138.246 225.495L138.615 225.31L139.168 225.126L139.353 225.31H139.537H139.722H139.906H140.275L140.644 225.126L141.012 224.757L141.381 224.388L141.566 224.204L141.75 223.835L141.934 223.651L142.303 223.282L142.488 222.913L142.672 222.729L143.041 222.36L143.41 222.176L143.594 221.807L143.963 221.623V221.254V220.885L143.41 220.516L142.672 219.963L141.934 219.779L141.197 219.41L140.459 219.226L139.906 219.041L139.168 219.226L138.431 219.594H138.246V219.779L137.14 219.963L135.665 219.594L134.189 218.857L132.899 218.672L132.714 218.488H132.345H132.161H131.976L131.054 217.935L130.317 216.829L129.579 215.538L128.657 214.616L128.104 214.431L127.551 214.8L126.813 214.985L126.26 215.169L125.891 214.8L125.522 214.431L125.338 213.878L124.969 213.51L124.231 213.325H123.309H122.572L121.834 212.956L121.465 212.034L121.834 211.666L122.756 211.481L123.494 211.666L124.6 211.481L125.522 210.928L126.075 210.006L125.522 208.9L125.153 208.715L124.969 208.347L124.6 208.162L124.231 207.978L124.047 207.609V207.056L124.231 206.503V206.134L123.494 205.581L122.756 205.212L122.203 204.659L122.387 203.737V203.553V203.368V203.184V202.077L122.756 200.602L123.309 199.68H124.231L125.891 198.021L126.813 194.886L126.997 191.567L126.813 189.17L126.629 188.801V188.248V187.88V187.326V186.958V186.589L126.813 186.22L126.997 185.851L127.182 185.667L127.366 185.483V185.298L127.551 185.114L128.104 184.007L128.841 182.901L129.579 181.979L130.501 181.242L130.87 180.688L131.239 180.135L131.608 179.766L132.161 179.213L132.714 178.476L133.452 177.738L134.189 177.001L134.927 176.263L135.849 173.866L134.927 172.575L132.899 171.838L130.87 171.1L130.317 170.916L129.948 170.731L129.395 170.547L129.026 170.178L127.919 169.81L126.997 169.256L126.075 168.519L125.338 167.966L123.862 166.859L122.756 166.306L121.649 166.122L120.174 166.675H119.99H119.805H119.621H119.252L118.146 167.412L117.592 168.334L117.039 169.625L116.302 170.547L115.933 171.285L115.38 171.838L114.826 172.575L114.273 173.128L113.904 173.313L113.536 173.682L113.167 173.866L112.798 174.05H112.614H112.429H112.245L111.876 173.866L111.691 173.497L111.507 173.313V172.76L111.323 171.285L110.954 170.178L110.032 169.994L108.557 170.547H108.372L108.188 170.731H108.003H107.081L106.528 170.178L106.159 169.256L105.79 168.334V168.15V167.966H105.606V167.781L105.422 167.597L105.237 167.412L105.053 167.044H104.684L103.946 166.49L102.84 166.122L102.102 165.384L101.733 164.462L102.102 163.725L102.471 163.172L102.655 162.434L102.84 161.881L102.655 161.512L102.471 161.143L102.287 160.774V160.221L102.471 159.299V158.377L102.102 157.455L101.733 156.534L102.287 155.98H103.024L103.762 156.165L104.499 155.98L105.237 155.243L105.79 154.69L106.344 154.505L107.266 155.243L107.819 156.165L108.372 156.902L109.11 157.271L110.032 157.087L110.769 156.349L111.507 155.243L112.06 154.136L112.614 153.215L112.982 153.03L113.167 152.846L113.351 152.661V152.293V151.002L112.798 149.342L111.876 147.867L110.769 147.314L110.032 147.13L109.294 146.945L108.557 146.761L108.003 146.577H107.45L106.712 146.761H106.159H105.606L104.684 146.392L104.868 145.839L105.422 145.101L105.975 144.364L105.422 143.442L104.684 142.52L104.131 141.598L103.762 140.492V139.201V138.095V136.804L103.024 135.882L101.733 134.776L100.811 134.591L99.8893 134.776H98.414L97.8608 134.407L97.3075 134.223H96.5699L96.0167 134.407L95.4634 135.329V136.251L95.6479 137.173V137.91L95.0947 138.463L94.5414 138.648L93.8038 139.017L93.435 139.57V140.307V141.229L93.0661 141.782L92.5129 142.151L91.7752 142.336L91.9597 142.889L92.3286 143.442L92.6973 143.811L92.8818 144.364V144.917L93.0661 145.655V146.208V147.498L92.8818 148.605L92.6973 149.711L92.3286 150.817L91.9597 151.739L91.4065 152.477L90.8532 153.03L90.1156 153.399L89.5624 152.846L89.0091 152.108L88.8247 151.186V150.264L89.0091 149.527L89.5624 148.789L89.9312 148.052V147.13L89.5624 146.761L89.378 146.577L89.1936 146.208L88.8247 145.839V145.286V144.733L89.0091 144.179V143.442L88.4559 142.889H87.5339L86.7963 142.704L86.4275 141.967L86.243 141.782V141.598H86.0586L85.8743 141.414L84.2145 141.967L82.3704 143.811L80.5264 146.208L79.4199 148.052L78.4979 148.974L77.5759 149.896L76.6538 151.002L75.9161 152.108L75.3629 152.846L74.6252 153.583L73.8877 154.321L73.15 155.243L72.228 156.349L71.6747 156.165L70.9371 155.243L70.015 154.505L69.4618 155.058L69.093 155.98L68.7241 156.902L68.5398 157.824L67.0645 159.852L65.2204 160.774L63.5607 160.406L62.4543 158.009L61.7166 156.718L60.7946 155.427L60.057 154.136L59.8725 152.846L60.2414 152.293L60.7946 151.924L61.3478 151.371L61.7166 150.817L62.0855 149.896L62.2698 148.789L62.4543 147.683V146.761L63.1919 145.47L64.4828 144.548L65.7736 143.626L66.8801 142.52L67.4334 141.782L67.9866 140.676L68.1709 139.754L67.9866 138.832L67.4334 138.463L66.8801 138.832L66.1425 139.385L65.4048 139.57L64.4828 139.385L63.9296 138.832V138.095L64.4828 137.173L65.2204 136.988H65.7736L66.5113 136.804L67.2489 136.62L67.8021 136.251L68.1709 135.882V135.329V134.776V134.038L67.8021 133.485L67.4334 133.116L67.2489 132.379L67.6177 131.641L68.3554 131.272H69.2775H70.015L70.7527 131.457L71.4903 131.641L72.0436 131.825L72.7812 132.194L73.8877 132.932L74.9941 133.669L76.285 134.038H77.5759L77.9446 133.854L78.1291 133.669V133.485L77.9446 133.116L77.5759 131.641L77.3914 129.613L77.7602 127.769L78.4979 126.478L78.8666 126.109L79.2355 125.556L79.6043 125.187L79.9731 124.634L80.342 124.081L80.7107 123.712L80.8952 123.344L81.264 122.975H81.4484L81.6328 123.159H81.8172L82.1861 122.975L82.3704 122.422L82.7393 121.684L83.1081 120.762V120.209L82.9236 119.656L82.3704 119.471L82.0016 119.287L81.6328 118.918L81.264 118.365L80.8952 117.812L80.5264 117.628L79.9731 117.443L78.8666 115.784L77.9446 116.337L76.8382 117.259H75.3629L74.8097 116.152L75.3629 114.677L75.9161 113.202V111.727L75.5473 110.805L74.9941 110.252L74.2564 110.436L74.4409 111.358V112.465L73.5188 113.571L72.228 114.677L71.1215 115.415H70.3839L69.6462 115.231L68.9086 114.677L68.3554 114.309L67.4334 113.202L66.6957 111.911L65.7736 110.99L64.6672 110.621L64.2984 110.436L64.1139 110.068L63.9296 109.699V109.33L64.1139 107.671L64.8516 106.564L65.7736 105.458L66.6957 104.167L65.7736 103.614L64.8516 102.876L63.9296 102.323L63.1919 101.77H63.0075H62.8231V101.586V100.664V99.5575L62.6387 98.4512V97.3448L62.4543 95.6853L62.0855 94.3946L60.9791 93.657L59.5037 92.9195L58.2129 92.3664L57.2909 91.8132L56.5532 90.8912L56 89.7849L56.3688 89.2317L56.922 88.6786V87.7566L56.7376 86.8347L57.1064 85.3596L57.8441 84.622L59.8725 84.9908L60.6102 84.2532L60.2414 83.7001L60.057 83.3313L60.4257 82.9625L60.9791 82.5937H61.3478L61.9011 82.9625H62.2698H62.4543L62.6387 82.5937V82.4093L62.8231 82.225L64.1139 81.4874L64.8516 80.9343L65.4048 80.1967L65.5893 79.8279L65.958 78.906L65.7736 78.1684L64.8516 77.984L64.4828 77.6153L64.2984 77.0621V76.3245L64.1139 75.7714L61.9011 75.9557L61.1634 75.4026L60.4257 74.1119L60.057 72.8212L61.3478 72.4524L60.9791 71.346L61.5323 70.6085L62.2698 70.0553L62.0855 69.6865L61.1634 69.8709L59.8725 70.2397L58.9505 70.0553L58.7661 68.5802H58.9505L59.5037 68.7646L61.5323 68.949H61.9011L62.4543 68.5802H63.1919H63.7452L64.2984 68.949L64.8516 68.7646L65.4048 68.2115L65.7736 68.5802H66.1425L66.5113 67.6583L66.6957 66.7363L67.0645 65.8144L67.4334 65.0768L68.7241 63.0486L69.8307 60.8359L70.9371 58.6232L71.6747 56.4106V54.7511L71.1215 53.4604L70.1995 52.1696L69.093 51.2477L67.4334 50.3258L65.958 49.4038L64.4828 48.4819L62.8231 47.3755L61.9011 46.638L60.7946 45.9005L59.8725 44.9785L58.7661 44.4254L58.3973 44.0566L58.0285 43.8722L57.8441 43.6878L57.4752 43.5034ZM108.557 79.4592L110.401 80.7499L111.138 81.4874L110.769 82.225L109.11 81.8562L107.819 80.0123L107.081 77.4309L106.712 75.2182L107.45 75.9557L107.819 77.0621L108.003 78.3528L108.557 79.4592Z" fill="#6F9C76"/>
</svg>
