<svg width="380" height="380" viewBox="0 0 380 380" fill="none" xmlns="http://www.w3.org/2000/svg">
<path d="M323.711 104.598V105.886L325 124.572L324.678 127.793L320.811 133.27L319.523 139.391V143.257L323.711 152.6L324.033 158.721L318.234 169.996L317.912 173.218L317.267 176.439L315.334 179.661L314.045 183.205L311.145 189.004L305.346 192.547L300.513 196.413L297.613 198.346L289.881 205.112L282.148 209.3L279.57 210.266L274.093 209.944L271.193 210.911L268.616 209.622L266.038 207.689L263.138 208.333L260.883 210.266L259.272 213.166L257.339 216.065L255.728 219.287L257.017 223.475V227.019H254.761L253.795 224.119L251.862 221.864L248.962 221.542L246.384 223.475L244.129 229.918L239.94 234.75L234.463 236.361L229.308 239.583L224.153 240.549L221.253 241.838L218.353 243.771L215.454 245.06L209.976 248.603L208.043 251.181L208.687 253.114L207.721 254.724L205.788 252.791L203.21 251.503L197.733 256.979L196.766 257.946L195.155 258.912L193.544 259.235L183.234 259.557L180.334 261.49L174.535 263.423L172.279 266L169.702 268.577L159.714 269.866L156.814 269.544L154.236 270.832L154.558 274.054L154.236 276.953L153.27 280.175L151.981 283.719L150.048 287.262L147.47 281.786L146.504 275.02L141.993 268.899L136.838 263.745L130.394 251.181L124.594 246.992L118.473 244.415L113.64 239.583L111.384 232.495L108.162 226.374L102.685 222.508L101.074 221.22L99.4631 217.354V214.776L97.8522 212.199L94.3079 207.045L91.7304 208.655L90.1194 212.199L87.2196 212.844L85.6086 211.233L83.9976 209.622L82.0645 210.266L80.4535 211.233L77.876 208.978L76.5871 205.434L74.0096 202.857L70.4655 202.212H65.9547L61.4439 201.89L59.8329 198.991L60.7997 174.506V171.607V171.285L62.0883 166.13L64.3437 160.331L64.6659 157.11H64.0216L62.7328 162.264L61.1218 166.13L60.7997 166.775L60.4774 169.352L59.1887 171.929L57.2554 174.184L55 175.151V174.506L56.9333 172.251L62.7328 154.21L63.6993 152.6L65.3103 150.989L75.6206 144.546L77.5537 142.935L83.6755 140.68L86.8974 138.102L88.8305 137.136L89.7973 136.814L92.6969 136.492L97.5298 134.559L103.329 130.371L104.94 129.726L106.551 129.404L115.895 126.182L125.883 124.25H133.294L146.181 121.994L163.58 120.384L171.313 118.128L174.857 117.484L177.112 118.128H178.079H179.045L180.979 117.162L181.623 116.84L189.678 115.551L195.477 113.618L199.666 113.296L201.599 112.652L204.821 111.363L216.098 108.786L219.32 106.531L225.119 101.376L226.73 100.41L232.53 99.7654L234.463 99.121L237.685 97.5102L239.618 97.188H246.706L248.317 97.5102L251.539 98.7988L253.15 99.121H254.761L257.983 98.1546L262.816 97.5102L264.749 96.866L265.716 96.2216L267.327 95.5772L273.126 95.8994L271.193 94.933L269.26 94.6108H267.005L263.783 96.2216L259.916 97.188H259.272L259.594 96.5438L261.527 95.2552L263.461 94.6108L266.038 94.2886L268.293 93.3222L268.938 93L270.227 93.3222L274.415 94.2886H282.47L284.403 94.6108L290.203 97.188L294.069 98.1546L302.446 99.4432L307.923 101.054L308.246 101.376L307.279 102.02L306.312 102.343H305.346H304.057L303.413 101.698L301.802 101.054L295.358 99.7654L293.425 99.121L295.68 101.054L298.58 102.665L301.48 103.631L304.379 103.953H310.823L313.723 104.598H315.334L316.945 103.953L313.079 103.631L311.145 103.309L309.534 102.343L310.179 101.698L316.301 102.665L321.456 104.598H323.711Z" fill="#6F9C76"/>
</svg>
