<svg width="380" height="380" viewBox="0 0 380 380" fill="none" xmlns="http://www.w3.org/2000/svg">
<path d="M184.201 46.2937L185.367 44.4289L186.299 43.4965L187.698 43.2634L189.796 43.0303L194.925 42.5641L199.821 41.8648L204.716 41.3986L209.612 40.9324L211.477 40.6993L213.575 40.2331L215.44 40L217.305 40.2331L220.103 40.9324L222.9 41.8648L225.698 42.7972L228.495 43.4965L230.826 44.4289L233.391 45.1282L235.722 45.8275L238.053 46.5268L239.452 47.9254L240.618 50.2564L241.783 52.8205L242.716 54.6853L244.348 56.7832L246.679 58.1818L249.476 58.8811H252.041H252.973L254.139 59.3473L255.305 60.2797L256.237 60.979L256.703 61.9114L257.17 63.5431V65.1748L257.403 66.3403L256.004 66.1073L254.605 65.8741L253.206 65.4079L252.041 64.9417L252.274 66.3403L252.973 67.972L253.673 69.3706L254.372 70.0699L256.237 70.303H258.102L259.967 70.5361H262.065H263.464L264.863 70.7693L266.261 70.5361L267.427 69.8368L268.593 68.4383L269.991 66.8065L271.39 65.4079L272.789 64.2424V64.7086V65.1748V65.641L273.022 66.1073L275.587 65.641L278.151 65.1748L280.249 65.641L282.58 67.2728L283.513 68.2051L284.445 69.3706L285.145 70.5361L285.844 71.7016L286.31 72.8671L286.777 74.2658L287.01 75.4313L287.709 76.5968L289.341 78.6946L291.905 80.3263L294.703 81.4918L297.034 81.7249L298.433 81.2588L299.598 81.0256L300.764 80.7925L302.163 81.2588L303.328 81.958L304.727 82.6573L305.893 83.3567L307.292 84.289L306.359 87.3193L305.66 89.6503L304.494 91.5152L301.93 92.9138L299.598 94.3123L297.733 96.1772L296.102 98.5082L294.703 100.839L291.439 106.667L287.942 112.261L284.678 118.089L281.648 123.916L280.482 125.548L279.316 126.247L277.918 126.713L276.053 127.179L274.654 127.879L273.255 129.277L272.09 130.909L270.924 132.308L268.36 135.338L265.562 137.902L262.765 140.233L259.501 142.564L256.936 143.963L253.906 145.361L251.341 147.226L249.243 149.324L248.777 150.489L248.311 151.655L247.844 152.82L247.145 153.753L245.98 154.219H245.047L243.881 154.452L242.716 154.685L240.384 156.317L238.286 158.415L236.188 160.746L234.556 163.31L232.924 165.641L231.059 167.739L228.961 169.604L226.63 171.468L225.464 172.168L224.066 172.867L222.667 173.566H221.268L220.103 173.1V172.168L220.336 171.002V169.837L219.636 169.137L218.471 168.904L217.305 169.137L216.139 169.371L215.673 170.07L215.207 171.468L214.741 173.1L214.507 174.033L214.274 175.431L213.808 177.063L213.342 178.462L212.642 179.394H211.477L210.311 179.161H209.612L208.912 180.559L208.679 181.958L209.379 182.657L210.311 183.124L211.244 183.823L211.943 184.988L212.409 186.387L212.642 188.019L212.876 189.417L213.575 191.282L213.808 192.914L213.342 194.545L212.409 196.41L211.71 198.275L211.943 199.907L212.876 201.538L213.575 203.403L214.507 205.035L215.207 206.667L215.906 208.298L216.606 210.163L218.471 213.427L221.035 216.457L223.833 219.021L226.63 221.585L227.329 222.051L228.029 222.517L228.728 222.751L229.427 222.984L231.992 224.382L234.09 226.946L235.955 230.21L237.354 232.774L237.587 233.007V233.24H237.82L238.986 234.872L240.151 236.27L241.317 237.436L242.949 238.368L244.814 238.601L246.213 237.902L247.844 236.737L249.476 235.804H249.943L250.409 235.571H250.875H251.341L253.673 235.105L254.838 233.24L255.771 230.909L256.703 228.811L258.568 227.413L261.599 227.179H264.396H266.728H268.36H269.758L271.157 227.413L272.323 228.578L273.255 230.443L273.955 232.308L274.887 234.406L275.587 236.27L275.82 237.902L275.12 238.834L273.955 239.534L272.556 240.233L271.623 241.165L270.691 242.098L270.458 243.496V245.128L270.924 247.459L271.856 250.023L272.556 252.354L273.255 254.918L273.488 257.016L273.721 259.347L273.955 261.678L274.188 263.776L273.955 264.709L273.488 265.874L272.556 266.806L272.09 267.739L269.292 271.468L266.495 275.198L263.697 278.928L260.899 282.657L260.666 281.026L260.433 280.093L259.734 279.627L258.335 279.86L257.17 279.627L256.004 278.695L255.071 277.296L254.139 276.13L253.206 275.431L252.274 274.965L251.341 274.266L250.409 273.799H249.243L248.311 274.033H247.378L246.446 274.266L244.581 273.799L243.182 272.867L241.783 271.468L240.151 270.303H239.918L239.685 270.07H239.452L239.219 269.837L238.286 268.671L237.354 267.273L236.421 266.107L235.256 264.942L233.624 264.009L231.759 263.31L230.127 262.144L229.427 260.513V258.182L229.661 255.618V253.054L228.961 251.189L227.796 250.723H226.397L224.998 250.489L223.599 250.023L222.667 249.091L221.968 248.392L221.268 247.692L220.103 247.925L219.17 246.993L218.937 246.061L218.471 244.895L217.771 244.196H217.305L216.839 244.429L216.372 244.662L216.139 245.128L214.741 245.594L213.575 244.429L212.642 242.797L211.943 241.399L211.244 239.767L210.544 238.135L209.379 237.436L208.213 238.834L207.514 240.233L206.814 241.632L205.649 242.564L204.483 242.331L203.551 242.797L203.084 243.496L202.618 244.196L201.686 244.895L201.219 245.128L200.52 244.895H199.821H199.121H198.888H198.655L198.422 245.128L197.722 245.827L197.489 246.76L197.256 247.692L196.79 248.392L195.857 248.858L194.692 249.091H193.293L192.361 248.858H189.796L187.232 249.091L185.134 250.023L183.502 252.354L183.735 253.52L184.667 254.452L185.6 255.851L185.134 257.716L184.201 259.347L183.035 260.979L181.637 262.611L180.238 264.009L179.072 265.408L177.907 267.273L176.974 269.137L176.042 270.769L175.109 272.168L174.177 273.333L173.244 274.732L172.545 275.897L172.079 277.529L171.612 278.928V280.326V281.958L172.079 284.755L173.71 286.387L175.575 287.785L177.907 289.184L177.674 290.116V290.816L177.44 291.748L177.207 292.681L176.974 294.079L176.508 296.177L176.275 298.042L176.974 299.44L178.14 299.907L179.305 300.373L180.238 300.839L181.17 301.538L182.569 301.771H183.735H184.9L186.066 302.238L186.299 304.802L185.6 308.065L184.201 311.329L183.269 313.893L183.035 314.126V314.359L182.802 314.592H182.569L182.103 315.291L181.404 315.524L180.471 315.758L179.772 315.991L179.305 316.457L179.072 316.923L178.606 317.389L178.14 317.855L177.44 318.788L177.207 319.953L176.974 321.119L176.275 321.818L174.643 322.051V321.352L174.876 320.186L175.109 319.487L174.41 318.555L173.244 318.788L172.079 319.72L171.146 320.42L169.514 321.818L167.649 322.751L165.551 323.217H163.453L162.054 322.751L160.422 322.051L159.023 322.284L158.091 323.916L158.324 325.082V326.247V327.646V328.811L158.557 331.142L158.79 334.406V337.669L157.858 339.767L156.459 340L154.594 339.068L152.729 337.669H151.097L148.999 338.135L146.435 337.436L143.87 336.037L141.772 334.639L141.306 334.406L140.84 334.172L140.373 333.939L139.907 333.706L138.742 333.007L137.576 332.308L136.41 331.841L135.012 331.375H134.079L132.913 331.608H131.981L130.815 331.375L129.883 330.676L128.95 329.744L128.018 329.044L126.619 328.811L125.22 329.044L123.821 329.277H122.423L121.024 328.811L120.091 328.112L119.858 327.179L119.625 326.014L119.392 324.848L118.226 324.149L116.828 324.382L115.429 325.315L114.263 326.014L112.631 326.713H111.932L111.699 325.781L111.932 324.149V322.517V321.818L112.398 321.119L113.564 320.42L114.03 319.487L114.496 318.089L114.73 316.69V315.524L114.496 312.96L114.03 310.396L113.564 307.832L112.865 305.268L114.263 306.2L115.662 307.133L117.294 308.065H118.926L120.091 307.366L121.024 305.967L121.723 304.336L122.423 302.937L123.821 301.771L125.686 300.839L127.085 299.907L127.318 298.042V295.944V292.914L127.085 290.116L126.153 288.252L125.686 286.387L126.619 284.289L128.484 282.424L129.883 281.026L131.281 279.86L132.447 278.695L133.846 277.529L135.012 276.364L135.944 275.897L136.643 275.664H137.576H138.275L139.208 275.431L139.907 275.198L140.607 274.732L141.306 274.033L142.472 272.168L144.337 271.935L146.202 272.634L148.3 272.867L149.465 272.634L150.631 272.168L151.563 271.235L152.03 270.07L152.729 268.205L153.195 267.04L154.128 266.34L155.993 265.641L156.226 264.942L156.459 264.009V263.077L156.226 262.144L155.06 261.445H153.895L153.195 260.979V259.347L153.428 258.648L154.128 258.415L155.06 258.182L155.76 257.949L156.692 257.249L157.392 256.084L157.858 254.918L158.324 253.986L158.79 253.054L159.257 251.655L159.49 250.489L159.023 249.324L158.324 249.091H157.392L156.692 249.557H155.76L155.527 248.625L155.293 247.925L155.06 247.226L154.128 246.76H153.195L151.797 246.993L150.398 247.459L149.232 247.925L149.465 246.993L149.698 245.594V244.429L149.465 243.73L148.533 243.03L147.367 242.331L146.435 241.632L145.502 240.932L143.404 239.301L141.073 237.436L138.975 235.571L136.877 233.706V233.939L136.643 234.406L136.41 234.639V234.872L135.478 236.037L135.012 237.436L134.312 238.601L133.613 240L133.38 240.932V241.399L133.846 241.865L134.778 242.098L135.245 242.564L135.478 243.263L135.711 243.963L136.41 244.196H137.11L137.809 244.662L138.042 245.128L137.809 245.827L137.343 246.294L136.877 246.527L136.177 246.993L135.711 247.459L135.012 249.091V250.956L134.778 252.354L133.38 253.054L131.981 253.753L131.048 255.618L130.349 257.716L129.65 259.347L129.183 261.445L128.484 262.144L128.251 261.445L127.785 260.979L127.085 260.513L126.153 260.746L123.821 260.28L123.122 260.513L122.19 261.678L121.49 262.144L120.558 262.611L118.926 263.077L117.76 262.611L116.595 261.212V259.347L116.828 257.949L117.527 255.151V253.753L117.294 252.354L117.061 250.956L116.595 249.79L116.128 248.625V247.925L116.361 246.993L116.828 245.827L117.294 243.496L118.46 239.767L119.625 236.503L121.257 235.338V234.639V233.939V233.24L121.024 232.541L120.558 232.308H119.858L119.159 232.075L118.693 231.841V231.142L118.926 230.21L119.159 229.277L118.693 228.578L117.993 228.345H116.595H115.196H114.263L113.797 227.879L113.564 227.413L113.098 227.179L112.398 227.879L111 230.676L110.067 234.172L109.368 237.902L108.901 241.165L107.969 245.128L107.036 249.091L106.104 253.054L105.171 256.783V257.249L104.938 257.482V257.949V258.182L104.239 257.482L103.54 256.084L103.073 254.452L102.84 253.054L102.607 251.888L102.374 250.489L102.141 249.091V247.692L102.374 246.294L102.84 245.128L103.54 244.196L104.006 242.797V241.632L103.54 240.466L103.073 239.534L102.607 238.368V237.436L103.306 236.737L104.239 236.27L104.705 235.571L105.171 234.639V233.473V232.308L104.938 231.375V229.977L105.638 229.277L106.57 228.578L107.736 227.879L108.668 226.014L109.368 223.217L109.601 220.42L109.834 218.089L106.337 217.389L103.073 216.69L99.5763 215.991L96.0795 215.291V217.855L95.8463 220.42V222.984L95.6132 225.781V227.879V229.51L96.0795 230.909L97.4782 232.308L99.1101 233.473L99.8095 234.406L100.043 235.804L99.5763 237.669L99.3432 239.301L99.1101 240.699L98.6439 242.331L98.4107 243.73L98.1776 244.429L97.7114 244.895H97.2451L96.3126 245.128L93.0488 245.827L89.552 246.061L86.2882 246.294L83.0244 247.459L80.4601 248.625L77.8957 249.557L75.3313 250.723L73 252.121L73.2331 250.956L73.6993 250.023L73.9325 249.091L74.1656 248.158L75.0981 244.429L76.2637 240.699L77.1962 236.97L78.3619 233.24L79.2944 230.443L80.2269 227.646L80.9263 224.615L81.3925 221.585L81.6257 213.893L81.8588 205.967L82.0919 198.042L82.325 190.117L82.5582 188.485L83.0244 187.319L83.9569 186.853L85.3556 186.154L86.0551 185.221L86.2882 183.357L86.5213 181.492V180.093L86.7544 177.296L86.9876 174.499L87.2207 171.702L87.4538 168.904L87.6869 167.04L88.1532 165.874L88.8525 165.175L90.2513 164.242L92.3494 162.844L94.2145 161.445L96.3126 160.047L98.1776 158.648L98.877 157.482L99.3432 156.084V154.685L99.5763 153.287L100.509 151.189L101.908 150.256L103.306 150.723L104.938 152.354L106.104 152.82L107.036 151.655L107.736 149.79L107.969 148.392L107.036 146.527L105.404 145.361L103.773 144.196L103.073 142.331L103.54 141.399L104.239 140.466L104.705 139.534L105.171 138.368L104.938 136.737L104.239 135.338L103.073 134.172L101.908 133.007L101.441 131.142L103.54 130.676L105.638 129.744L105.871 127.413L105.404 125.548L105.638 123.683L105.871 122.051L105.171 120.653L105.871 119.487L108.435 118.089L111.233 116.923L112.865 115.991H113.331L113.797 115.758L114.496 115.524L114.963 115.291L117.061 113.893L118.46 112.261L119.625 110.396L121.024 108.065L121.49 107.133L121.956 106.2L122.423 105.268L123.355 104.569L124.288 104.336H125.686L126.619 103.869L127.085 102.937L126.852 101.772L127.318 100.839L128.251 100.14L129.183 99.9068H130.349L131.748 100.14L133.146 99.9068L134.312 99.2074L134.778 98.275L135.012 97.1095V95.7109L135.245 94.5454L137.11 92.6807L139.907 91.282L142.938 90.3497L145.502 89.6503L151.33 91.0489L157.392 92.2144L163.22 93.3799L169.281 94.7785L172.312 95.2448L175.342 95.7109H178.14L181.17 95.2448L184.201 94.3123L187.232 93.3799L190.262 92.9138L193.293 92.4475H195.158L195.857 91.9813L196.09 91.0489V88.951V87.7855V86.62V85.2214V84.0559V79.3939L195.857 74.7319V69.8368V65.1748L195.158 62.3776L193.526 59.8135L191.195 57.2494L189.33 54.9184L187.931 52.8205L186.532 50.7226L185.367 48.6247L184.201 46.2937Z" fill="#6F9C76"/>
</svg>
