<?xml version="1.0" encoding="utf-8"?>
<!-- Generator: Adobe Illustrator 24.0.3, SVG Export Plug-In . SVG Version: 6.00 Build 0)  -->
<svg version="1.1" id="Capa_1" xmlns="http://www.w3.org/2000/svg" xmlns:xlink="http://www.w3.org/1999/xlink" x="0px" y="0px"
	 viewBox="0 0 1024 1024" style="enable-background:new 0 0 1024 1024;" xml:space="preserve">
<style type="text/css">
	.st0{fill:#EAEAEA;}
	.st1{fill:#3088DF;}
	.st2{fill:#FFFFFF;}
</style>
<path d="M512.52,858.89l-5.45-4.3c-92.5-72.97-173.55-158.98-240.91-255.67l-45.44-76.35l-42.62-90.11l45.11,15.05
	C187.66,345.9,165,214.3,164.77,212.91l-2.27-13.29l159.78,40l13.96,27.95l83.51,9.66l21.56-24.29l-11.56-23.15l82.76-53.88
	l82.76,53.88l-11.56,23.15l21.56,24.29l83.49-9.65l13.97-27.95l159.77-40l-2.27,13.29c-0.23,1.4-22.89,132.99-58.42,234.61
	l45.11-15.05l-42.62,90.11l-45.44,76.35c-67.35,96.67-148.4,182.69-240.9,255.67L512.52,858.89z"/>
<path class="st0" d="M278.68,604.02h41.89l-3.49-10.48h-48.87l-27.92-48.93l55.84,6.99l-3.49-10.49l-59.33-13.98l-31.41-66.41
	l41.89,13.98c-38.4-101.36-62.83-244.66-62.83-244.66l139.6,34.95l13.96,27.96l90.74,10.49l27.92-31.45L442.71,251l69.8-45.44
	l69.8,45.44l-10.47,20.97l27.92,31.45l90.72-10.48l13.96-27.96l139.6-34.95c0,0-24.43,143.3-62.82,244.66l41.89-13.98l-31.41,66.41
	l-59.34,13.97l-3.49,10.49l55.84-6.99l-27.92,48.93h-48.85l-3.49,10.48h41.89c-65.32,93.76-144.11,177.38-233.83,248.16
	C422.8,781.4,344,697.78,278.68,604.02z"/>
<path d="M561.36,740.33c129.1-69.9,198.93-370.51,198.93-370.51L589.3,380.3l-76.81-62.89l-76.79,62.92l-170.99-10.51
	c0,0,69.8,300.59,198.93,370.49l48.86-31.46L561.36,740.33z"/>
<path id="Trazado_1129_1_" class="st1" d="M557.04,727.73l-44.56-28.73l-44.56,28.73c-117.76-63.84-181.38-338.35-181.38-338.35
	l155.95,9.58l69.99-57.47l70.02,57.46l155.95-9.58C738.45,389.37,674.8,663.89,557.04,727.73z"/>
<g>
	<path d="M514.23,611.02c-44.21,0-70.83-27.52-82.11-42.66h-45.91c-10.31,0-19.19-8.21-20.64-19.09l-0.07-1.06l0-39.19l0.07-0.52
		c1.44-10.9,10.32-19.12,20.65-19.12h44.98c10.43-15.31,35.29-42.66,79.57-42.66c44.22,0,70.83,27.53,82.12,42.66h45.9
		c10.32,0,19.2,8.22,20.65,19.12l0.07,1.05l-0.08,39.72c-1.45,10.89-10.32,19.09-20.64,19.09h-44.98
		C583.38,583.67,558.51,611.02,514.23,611.02z"/>
</g>
<g>
	<path class="st2" d="M512.5,486.4c-21.28,0-38.54,19.02-38.54,42.47c0,23.46,17.25,42.47,38.54,42.47
		c21.28,0,38.54-19.02,38.54-42.47C551.04,505.41,533.78,486.4,512.5,486.4z M512.5,545.92c-8.54,0-15.47-7.63-15.47-17.05
		s6.93-17.05,15.47-17.05c8.54,0,15.47,7.63,15.47,17.05S521.04,545.92,512.5,545.92z"/>
	<path class="st2" d="M638.79,525.82h-56.83c-4.65,0-8.94-2.76-11.23-7.22c-0.73-1.38-19.19-35.45-59.97-35.45
		c-40.92,0-56.13,34.2-56.28,34.54c-2.14,4.96-6.67,8.12-11.66,8.12h-56.61c-7.13,0-12.9-6.37-12.9-14.22s5.78-14.22,12.9-14.22
		h49.32c8.84-14.38,31.76-42.66,75.23-42.66c43.58,0,68.52,28.8,78,42.66h50.02c7.13,0,12.9,6.37,12.9,14.22
		S645.92,525.82,638.79,525.82z"/>
	<path class="st2" d="M514.24,603.03c-43.58,0-68.52-28.8-78.01-42.66h-50.02c-7.13,0-12.9-6.37-12.9-14.22
		c0-7.85,5.78-14.22,12.9-14.22h56.83c4.65,0,8.94,2.76,11.23,7.22c0.73,1.38,19.19,35.45,59.97,35.45
		c40.92,0,56.13-34.2,56.28-34.54c2.14-4.96,6.67-8.12,11.66-8.12h56.61c7.13,0,12.9,6.37,12.9,14.22c0,7.85-5.78,14.22-12.9,14.22
		h-49.32C580.63,574.74,557.71,603.03,514.24,603.03z"/>
</g>
</svg>
