<?xml version="1.0" encoding="utf-8"?>
<!-- Generator: Adobe Illustrator 24.3.0, SVG Export Plug-In . SVG Version: 6.00 Build 0)  -->
<svg version="1.1" xmlns="http://www.w3.org/2000/svg" xmlns:xlink="http://www.w3.org/1999/xlink" x="0px" y="0px"
	 viewBox="0 0 600 600" style="enable-background:new 0 0 600 600;" xml:space="preserve">
<style type="text/css">
	.st0{fill:#34469A;}
	.st1{fill:#538FCB;stroke:#34469A;stroke-miterlimit:10;}
	.st2{fill:#31489A;}
	.st3{fill:#548FCB;stroke:#34469A;stroke-miterlimit:10;}
	.st4{fill:none;stroke:#34469A;stroke-width:2;stroke-miterlimit:10;}
	.st5{fill-rule:evenodd;clip-rule:evenodd;fill:#34469A;}
	.st6{display:none;}
	.st7{display:inline;fill:#34469A;}
	.st8{font-family:'Roboto-Bold';}
	.st9{font-size:36px;}
	.st10{font-family:'Roboto-Regular';}
	.st11{font-size:32px;}
</style>
<g id="Capa_1">
	<g>
		<path class="st0" d="M256.4,181.4C139.3,222.3,61.9,305.7,83.5,367.6c21.6,61.9,134.1,79,251.2,38
			c117.1-40.9,194.5-124.3,172.9-186.2C486,157.5,373.5,140.5,256.4,181.4z M331.9,397.6c-104.5,36.5-205.6,19.5-225.6-37.9
			C86.2,302.2,154.6,226,259.2,189.5c104.5-36.5,205.6-19.5,225.6,37.9C504.9,284.9,436.4,361.1,331.9,397.6z"/>
	</g>
	
		<ellipse transform="matrix(0.9441 -0.3298 0.3298 0.9441 -80.2597 113.8755)" class="st1" cx="295.5" cy="293.5" rx="200.5" ry="110.2"/>
</g>
<g id="Capa_4">
	<path class="st0" d="M463.2,361.9H85.9c-2.7,0-4.9-2.2-4.9-4.9V187.7c0-2.7,2.2-4.9,4.9-4.9h377.3c2.7,0,4.9,2.2,4.9,4.9v169.4
		C468.1,359.8,465.9,361.9,463.2,361.9z"/>
	<rect x="93.2" y="191.9" class="st1" width="362.9" height="160.7"/>
</g>
<g id="Capa_2">
	<g>
		<g>
			<path class="st2" d="M226.7,345.7c-42.6-16.8-58.2-51.1-40.3-96.3c18.9-47.9,60.8-71.4,108.9-52.3c42.6,16.8,54,54.7,38,95.2
				c-20.1,50.8-58.2,72.7-106.3,53.6L226.7,345.7z M233.4,343c22.1,8.8,42.4-17.2,60.1-61.9c13.9-35.1,16.2-73.4-5.2-81.9
				c-20.4-8.1-44.5,15.5-63.1,62.4c-13.9,35.1-13.8,72.7,7.9,81.3L233.4,343z"/>
		</g>
		<g>
			<path class="st3" d="M254.7,347.5c-37.4-1.2-58.8-26.4-57.4-72.1c1.5-48.4,27.4-82.6,69.7-81.2c37.4,1.2,56.6,31,55.3,71.8
				c-1.6,51.3-25.1,82.9-67.4,81.5L254.7,347.5z M260,343.1c29.1,0.9,41.4-28.4,42.9-73.5c1.1-35.5-12.3-70.2-40.5-71.1
				c-26.9-0.9-44.6,27.5-46.1,74.9c-1.1,35.5,14.9,68.8,43.4,69.7L260,343.1z"/>
		</g>
		<g>
			<path class="st0" d="M257.6,303.6c-16-0.5-25.1-11.3-24.5-30.8c0.7-20.6,11.7-35.2,29.7-34.6c16,0.5,24.1,13.2,23.6,30.6
				C285.8,290.7,275.8,304.1,257.6,303.6L257.6,303.6z M259.9,301.7c12.4,0.4,17.7-12.1,18.3-31.4c0.5-15.1-5.3-29.9-17.3-30.3
				c-11.5-0.4-19,11.7-19.7,31.9c-0.5,15.1,6.4,29.4,18.5,29.7L259.9,301.7z"/>
		</g>
		<rect x="218.2" y="267.2" class="st0" width="19.6" height="9.3"/>
		<rect x="281.4" y="267.2" class="st0" width="19.6" height="9.3"/>
	</g>
	<g>
		<g>
			<path class="st2" d="M81,354.1V191.9h51.9c13,0,22.5,1.4,28.4,4.3c5.9,2.9,10.6,8,14.2,15.4c3.6,7.4,5.3,15.9,5.3,25.4
				c0,12.1-2.7,22.1-8.1,30c-5.4,7.9-13.4,12.8-24.1,14.9c5.3,4.1,9.7,8.6,13.2,13.5c3.5,4.9,8.1,13.6,14,26.2l14.9,31.4h-29.5
				L143.5,318c-6.3-12.5-10.7-20.4-13-23.7c-2.3-3.3-4.8-5.5-7.4-6.7c-2.6-1.2-6.7-1.8-12.4-1.8h-5v68.4H81z M105.7,260h18.2
				c11.8,0,19.2-0.7,22.2-2c2.9-1.3,5.2-3.6,6.9-6.8c1.7-3.2,2.5-7.3,2.5-12.1c0-5.4-1.1-9.8-3.3-13.1c-2.2-3.3-5.3-5.4-9.3-6.3
				c-2-0.4-8-0.6-18-0.6h-19.2V260z"/>
		</g>
		<g>
			<path class="st1" d="M93.2,354.1V191.9h51.9c13,0,22.5,1.4,28.4,4.3c5.9,2.9,10.6,8,14.2,15.4c3.6,7.4,5.3,15.9,5.3,25.4
				c0,12.1-2.7,22.1-8.1,30c-5.4,7.9-13.4,12.8-24.1,14.9c5.3,4.1,9.7,8.6,13.2,13.5c3.5,4.9,8.1,13.6,14,26.2L203,353h-29.5
				L155.7,318c-6.3-12.5-10.7-20.4-13-23.7c-2.3-3.3-4.8-5.5-7.4-6.7c-2.6-1.2-6.7-1.8-12.4-1.8h-5v68.4H93.2z M117.9,260h18.2
				c11.8,0,19.2-0.7,22.2-2c2.9-1.3,5.2-3.6,6.9-6.8c1.7-3.2,2.5-7.3,2.5-12.1c0-5.4-1.1-9.8-3.3-13.1c-2.2-3.3-5.3-5.4-9.3-6.3
				c-2-0.4-8-0.6-18-0.6h-19.2V260z"/>
		</g>
	</g>
	<line class="st4" x1="260.9" y1="238.9" x2="260.9" y2="261.5"/>
	<line class="st4" x1="241.2" y1="261.5" x2="278.8" y2="261.5"/>
	<g>
		<path class="st5" d="M338.4,371.6c0.1-53.8,0.2-107.6,0.3-161.7c43.2,33.2,86.2,66.3,129.4,99.6c-20.3,1.2-40.3,2.4-60.4,3.6
			c13.2,27.2,17.4,34.3,30.6,61.5c-9.5,4.7-19,9.3-28.6,14.1c-13.2-27.2-17.5-34.4-30.7-61.7c-13.5,14.9-26.9,29.8-40.4,44.7
			C338.5,371.6,338.5,371.6,338.4,371.6z"/>
	</g>
	<path class="st3" d="M471.7,300.9c-43.2-33.3-86.2-66.4-129.4-99.6c-0.1,54.1-0.2,107.9-0.3,161.7c0.1,0,0.1,0.1,0.2,0.1
		c13.4-14.9,26.9-29.8,40.4-44.7c13.3,27.3,17.5,34.5,30.7,61.7c9.6-4.7,19.1-9.4,28.6-14.1c-13.2-27.2-17.4-34.4-30.6-61.5
		C431.4,303.2,451.4,302.1,471.7,300.9z M398.1,255.5l-11.7,6.4c-8.1-6.3-16.2-12.5-24.4-18.8c0,10.7,0,21.4-0.1,32.1l-11.9,6.5
		c0-21,0.1-42,0.1-63.1C366.2,230.9,382.2,243.2,398.1,255.5z M350.2,344.3c-0.1,0-0.1-0.1-0.2-0.1c0-16.8,0.1-33.6,0.1-50.5
		l11.9-6.5c0,0.8,0,1.7,0,2.5c0,6.4,0,12.7,0,19.1c0,0.3,0,0.5,0,0.8c0.1,0,0.1,0.1,0.2,0.1c0.1-0.1,0.2-0.3,0.3-0.4
		c5.1-6.1,10.2-12.1,15.3-18.2c0.2-0.2,0.3-0.4,0.5-0.5c3.6-1.9,7.2-3.7,10.7-5.6c0.2-0.1,0.4-0.2,0.6-0.2c2.1-0.2,4.2-0.3,6.3-0.4
		c5.4-0.4,10.8-0.7,16.3-1.1c0.3,0,0.6-0.1,1-0.1c-0.2-0.2-0.2-0.2-0.3-0.3c-5.7-4.7-11.4-9.4-17.2-14.1l11.6-6.3
		c14.5,11.1,28.9,22.3,43.4,33.5c-15.8,0.9-61,4-61,4S360.6,332.7,350.2,344.3z"/>
</g>
<g id="Capa_3" class="st6">
	<text transform="matrix(1 0 0 1 111.9218 452.3867)" class="st7 st8 st9">Full Stack Designer</text>
	<text transform="matrix(1 0 0 1 112.6901 410.89)" class="st7 st10 st11">alejandro torres roa</text>
	<rect x="114.4" y="417.7" class="st7" width="382.7" height="1"/>
</g>
</svg>
