<svg width="453" height="341" viewBox="0 0 453 341" fill="none" xmlns="http://www.w3.org/2000/svg">
<path d="M187.399 58.3999C70.2994 99.2999 -7.10064 182.7 14.4994 244.6C36.0994 306.5 148.599 323.6 265.699 282.6C382.799 241.7 460.199 158.3 438.599 96.3999C416.999 34.4999 304.499 17.4999 187.399 58.3999ZM262.899 274.6C158.399 311.1 57.2994 294.1 37.2994 236.7C17.1994 179.2 85.5994 103 190.199 66.4999C294.699 29.9999 395.799 46.9999 415.799 104.4C435.899 161.9 367.399 238.1 262.899 274.6Z" fill="#34469A"/>
<path d="M262.862 274.553C367.405 238.033 435.882 161.848 415.81 104.388C395.738 46.9283 294.717 29.9532 190.174 66.473C85.6308 102.993 17.1536 179.178 37.2258 236.638C57.298 294.097 158.319 311.072 262.862 274.553Z" fill="#538FCB" stroke="#34469A" stroke-miterlimit="10"/>
<path d="M394.2 238.9H16.9C14.2 238.9 12 236.7 12 234V64.7C12 62 14.2 59.8 16.9 59.8H394.2C396.9 59.8 399.1 62 399.1 64.7V234.1C399.1 236.8 396.9 238.9 394.2 238.9Z" fill="#34469A"/>
<path d="M387.1 68.9001H24.2002V229.6H387.1V68.9001Z" fill="#538FCB" stroke="#34469A" stroke-miterlimit="10"/>
<path d="M157.7 222.7C115.1 205.9 99.5 171.6 117.4 126.4C136.3 78.5001 178.2 55.0001 226.3 74.1001C268.9 90.9001 280.3 128.8 264.3 169.3C244.2 220.1 206.1 242 158 222.9L157.7 222.7ZM164.4 220C186.5 228.8 206.8 202.8 224.5 158.1C238.4 123 240.7 84.7001 219.3 76.2001C198.9 68.1001 174.8 91.7001 156.2 138.6C142.3 173.7 142.4 211.3 164.1 219.9L164.4 220Z" fill="#31489A"/>
<path d="M185.7 224.5C148.3 223.3 126.9 198.1 128.3 152.4C129.8 104 155.7 69.8001 198 71.2001C235.4 72.4001 254.6 102.2 253.3 143C251.7 194.3 228.2 225.9 185.9 224.5H185.7ZM191 220.1C220.1 221 232.4 191.7 233.9 146.6C235 111.1 221.6 76.4002 193.4 75.5002C166.5 74.6002 148.8 103 147.3 150.4C146.2 185.9 162.2 219.2 190.7 220.1H191Z" fill="#548FCB" stroke="#34469A" stroke-miterlimit="10"/>
<path d="M188.6 180.6C172.6 180.1 163.5 169.3 164.1 149.8C164.8 129.2 175.8 114.6 193.8 115.2C209.8 115.7 217.9 128.4 217.4 145.8C216.8 167.7 206.8 181.1 188.6 180.6ZM190.9 178.7C203.3 179.1 208.6 166.6 209.2 147.3C209.7 132.2 203.9 117.4 191.9 117C180.4 116.6 172.9 128.7 172.2 148.9C171.7 164 178.6 178.3 190.7 178.6L190.9 178.7Z" fill="#34469A"/>
<path d="M168.8 144.2H149.2V153.5H168.8V144.2Z" fill="#34469A"/>
<path d="M232 144.2H212.4V153.5H232V144.2Z" fill="#34469A"/>
<path d="M12 231.1V68.9001H63.9C76.9 68.9001 86.4 70.3001 92.3 73.2001C98.2 76.1001 102.9 81.2002 106.5 88.6002C110.1 96.0002 111.8 104.5 111.8 114C111.8 126.1 109.1 136.1 103.7 144C98.3 151.9 90.3 156.8 79.6 158.9C84.9 163 89.3 167.5 92.8 172.4C96.3 177.3 100.9 186 106.8 198.6L121.7 230H92.2L74.5 195C68.2 182.5 63.8 174.6 61.5 171.3C59.2 168 56.7 165.8 54.1 164.6C51.5 163.4 47.4 162.8 41.7 162.8H36.7V231.2H12V231.1ZM36.7 137H54.9C66.7 137 74.1 136.3 77.1 135C80 133.7 82.3 131.4 84 128.2C85.7 125 86.5 120.9 86.5 116.1C86.5 110.7 85.4 106.3 83.2 103C81 99.7002 77.9 97.6001 73.9 96.7001C71.9 96.3001 65.9 96.1002 55.9 96.1002H36.7V137Z" fill="#31489A"/>
<path d="M24.2002 231.1V68.9001H76.1002C89.1002 68.9001 98.6002 70.3001 104.5 73.2001C110.4 76.1001 115.1 81.2002 118.7 88.6002C122.3 96.0002 124 104.5 124 114C124 126.1 121.3 136.1 115.9 144C110.5 151.9 102.5 156.8 91.8002 158.9C97.1002 163 101.5 167.5 105 172.4C108.5 177.3 113.1 186 119 198.6L134 230H104.5L86.7002 195C80.4002 182.5 76.0002 174.6 73.7002 171.3C71.4002 168 68.9002 165.8 66.3002 164.6C63.7002 163.4 59.6002 162.8 53.9002 162.8H48.9002V231.2H24.2002V231.1ZM48.9002 137H67.1002C78.9002 137 86.3002 136.3 89.3002 135C92.2002 133.7 94.5002 131.4 96.2002 128.2C97.9002 125 98.7002 120.9 98.7002 116.1C98.7002 110.7 97.6002 106.3 95.4002 103C93.2002 99.7002 90.1002 97.6001 86.1002 96.7001C84.1002 96.3001 78.1002 96.1002 68.1002 96.1002H48.9002V137Z" fill="#538FCB" stroke="#34469A" stroke-miterlimit="10"/>
<path d="M191.9 115.9V138.5" stroke="#34469A" stroke-width="2" stroke-miterlimit="10"/>
<path d="M172.2 138.5H209.8" stroke="#34469A" stroke-width="2" stroke-miterlimit="10"/>
<path fill-rule="evenodd" clip-rule="evenodd" d="M269.4 248.6C269.5 194.8 269.6 141 269.7 86.9001C312.9 120.1 355.9 153.2 399.1 186.5C378.8 187.7 358.8 188.9 338.7 190.1C351.9 217.3 356.1 224.4 369.3 251.6C359.8 256.3 350.3 260.9 340.7 265.7C327.5 238.5 323.2 231.3 310 204C296.5 218.9 283.1 233.8 269.6 248.7C269.5 248.6 269.5 248.6 269.4 248.6Z" fill="#34469A"/>
<path d="M402.7 177.9C359.5 144.6 316.5 111.5 273.3 78.3C273.2 132.4 273.1 186.2 273 240C273.1 240 273.1 240.1 273.2 240.1C286.6 225.2 300.1 210.3 313.6 195.4C326.9 222.7 331.1 229.9 344.3 257.1C353.9 252.4 363.4 247.7 372.9 243C359.7 215.8 355.5 208.6 342.3 181.5C362.4 180.2 382.4 179.1 402.7 177.9ZM329.1 132.5L317.4 138.9C309.3 132.6 301.2 126.4 293 120.1C293 130.8 293 141.5 292.9 152.2L281 158.7C281 137.7 281.1 116.7 281.1 95.6001C297.2 107.9 313.2 120.2 329.1 132.5ZM281.2 221.3C281.1 221.3 281.1 221.2 281 221.2C281 204.4 281.1 187.6 281.1 170.7L293 164.2C293 165 293 165.9 293 166.7C293 173.1 293 179.4 293 185.8C293 186.1 293 186.3 293 186.6C293.1 186.6 293.1 186.7 293.2 186.7C293.3 186.6 293.4 186.4 293.5 186.3C298.6 180.2 303.7 174.2 308.8 168.1C309 167.9 309.1 167.7 309.3 167.6C312.9 165.7 316.5 163.9 320 162C320.2 161.9 320.4 161.8 320.6 161.8C322.7 161.6 324.8 161.5 326.9 161.4C332.3 161 337.7 160.7 343.2 160.3C343.5 160.3 343.8 160.2 344.2 160.2C344 160 344 160 343.9 159.9C338.2 155.2 332.5 150.5 326.7 145.8L338.3 139.5C352.8 150.6 367.2 161.8 381.7 173C365.9 173.9 320.7 177 320.7 177C320.7 177 291.6 209.7 281.2 221.3Z" fill="#548FCB" stroke="#34469A" stroke-miterlimit="10"/>
</svg>
