<svg width="380" height="380" viewBox="0 0 380 380" fill="none" xmlns="http://www.w3.org/2000/svg">
<path d="M325 204.399L324.069 205.33L323.138 206.261V207.192L322.207 208.123L317.552 216.501L312.897 222.087L306.379 226.742L298 229.534L292.414 232.327L288.69 236.982L284.035 241.637L276.586 244.429L270.069 248.153L268.207 254.67L267.276 262.117L265.414 270.496L262.621 276.081L257.035 278.874L251.448 280.736L244.931 283.529L238.414 288.183L233.759 293.769L228.172 298.424L221.655 302.147L214.207 304.009L206.759 304.94L199.31 304.009L191.862 303.078L183.483 301.216L175.104 300.285L166.724 298.424L158.345 297.493L146.242 293.769L136 288.183L125.759 280.736L115.517 275.15L107.138 273.288L97.8276 275.15L88.5173 278.874L80.138 281.667L70.8277 276.081L63.3795 270.496L56.8622 263.979L55 252.808V246.291V240.706L56.8622 235.12L58.7244 228.604L61.5174 223.949L65.2414 218.363L68.9655 213.709L72.6899 208.123L76.414 201.606L80.138 194.159L84.7932 186.712L89.4484 181.126L95.0347 175.541L100.621 169.024L105.276 162.508L109 155.991L110.862 148.544L107.138 142.958L103.414 139.234L102.483 134.58L109 125.27L117.379 121.547L127.621 120.616H137.862L141.586 121.547H147.173L151.828 120.616L155.552 118.754L157.414 115.961L158.345 112.237L159.276 108.513L162.069 105.721L163 104.79H163.931H164.862H167.655H170.449L173.241 105.721L175.104 104.79L178.828 101.997L180.69 99.204L182.552 96.4113L186.276 94.5493L190.931 95.4803L195.586 91.7567L198.38 86.171L201.173 80.5854L205.828 75L210.483 77.7927L213.276 84.3093L216.069 90.8257L218.862 96.4113L222.586 102.928L227.241 107.583L232.828 105.721L233.759 103.859L235.621 102.928L237.483 101.997H239.345L242.138 104.79L244 109.444L244.931 113.168L248.655 116.892L253.31 115.961L256.104 118.754L258.897 121.547L262.621 125.27L268.207 127.132L273.793 128.063H279.38L284.035 129.925L286.828 137.372V147.613L285.896 157.853V167.162L288.69 173.679L295.207 178.333L302.656 181.126L309.172 184.85L313.827 189.504L317.552 194.159L321.276 199.745L325 204.399Z" fill="#6F9C76"/>
</svg>
