<svg width="380" height="380" viewBox="0 0 380 380" fill="none" xmlns="http://www.w3.org/2000/svg">
<path d="M193.715 74.7799L193.231 75.264L192.262 75.4254L189.84 75.264L188.871 75.7481L187.902 76.7163L187.256 78.1686L186.933 79.2982L186.772 80.2664V81.2346V82.2028L186.287 83.4938L185.48 84.462L184.511 85.1075L183.703 86.237L183.542 87.0439L183.865 87.3666L185.157 88.9803L186.126 90.594L186.933 92.2077L187.417 94.4668L187.256 95.5964L186.772 96.4032L186.287 97.2101L186.449 98.0169L186.61 98.3397L186.933 98.501L187.417 98.8238L187.74 99.1465L188.063 99.792L188.386 100.437L188.548 101.083V101.89L188.386 103.342V104.633V105.924L188.548 107.054L187.417 106.569L186.933 106.408H186.287L185.803 106.247L185.157 105.763L184.834 105.601L184.672 105.278V104.633L184.511 103.988L184.026 103.665L183.865 103.988V104.633L184.026 105.278L184.672 106.569L184.834 106.731L185.318 107.054L185.641 107.215L186.933 107.538L187.74 107.86L188.386 108.506L189.032 108.99L189.355 109.797L190.486 109.958L191.455 110.926L192.1 111.895L192.423 112.701L193.069 113.024L193.392 113.67L193.877 117.381L194.361 118.511L195.007 119.64L195.653 120.931L195.169 121.899L193.554 123.836L192.746 125.772L192.262 127.87V135.454L191.132 138.682L191.293 141.748L190.809 146.589L190.647 147.718L190.809 149.978L191.778 151.591L192.908 152.882L194.038 153.689V154.173L193.231 154.98V156.11L193.715 157.078L194.523 157.723L197.591 159.175L198.398 159.66L198.56 159.982V160.305L198.883 160.951V162.726V163.21L199.044 164.178L198.883 164.823L199.206 165.307L199.529 166.114L199.367 168.696L199.529 169.342L199.852 170.31L199.69 170.633L199.044 172.085L199.529 173.376L199.69 174.183L199.367 175.958L200.013 177.733L201.144 179.347L201.628 180.476L201.789 181.122V181.606V182.09L202.112 182.735L202.597 183.703V184.51L202.274 185.317V186.608L202.597 187.415L202.435 189.029L202.112 190.158L202.274 190.642L201.951 193.386L201.628 194.354L201.467 194.838L201.628 195.322L202.112 196.129L201.951 196.774L201.628 198.065L201.467 198.872L200.982 199.518L201.144 200.486L201.467 200.809L201.951 201.938L202.597 202.422V203.068L202.758 203.875L203.727 204.359L204.05 205.488L204.858 206.295V207.425L205.827 209.361L206.472 210.652L207.118 211.943L209.541 213.072L209.864 214.525L210.51 215.009L211.963 215.17L212.447 215.977L212.77 216.623L212.609 217.914L213.093 219.204L213.416 219.527H213.093L212.77 219.85V220.173L213.255 220.334L213.416 220.657V221.141L213.578 221.786L214.062 222.27L214.547 222.432H214.87L215.354 222.593L215.677 223.077V223.561L216 223.884L216.807 224.046H217.615H217.938L218.422 223.723V223.4L218.584 223.239H218.261L218.099 222.916L218.261 222.755H218.584V222.593L218.745 222.432H218.907H219.068H219.23L219.391 222.593L219.553 222.755H219.714L219.876 223.077L220.037 222.916H220.522L220.845 223.077L221.167 223.561H221.49V223.723L222.136 223.884L222.298 224.207L222.459 224.852L222.621 225.014L222.944 225.175L223.105 225.498H223.267L223.428 225.821L223.59 225.982L223.913 226.143L224.074 226.305L224.397 226.627V226.789L224.72 226.627H224.882L225.205 226.789V227.112L225.689 227.434V227.757H225.85L226.335 228.241L226.496 228.564L226.658 228.725L227.304 229.048L227.627 229.371H227.95L228.919 230.016L229.08 230.662V230.984L229.403 231.307L229.565 231.791L230.211 231.953H230.372L230.534 232.275L230.695 232.437V232.598L231.018 232.759H231.502H231.987L232.633 233.244L232.956 233.889L233.44 234.373L233.763 234.696L233.925 234.857L234.409 235.664L235.055 235.825L235.378 236.31L235.862 236.955L236.508 237.6L237.316 238.085L237.962 238.891L238.769 239.053L239.254 239.214L239.577 239.537V240.344L239.9 240.666H240.384L240.868 240.989L241.191 241.312L241.676 241.473L242.322 241.796L246.52 246.637L248.135 247.928L248.62 248.412L248.781 249.38L249.104 249.703L249.266 250.026L248.458 250.671L248.135 251.317L247.651 251.801L247.812 252.446L248.135 252.769L248.62 252.93L248.458 253.737L248.781 254.221H248.943L249.104 254.383L249.266 254.867H249.75H249.911V255.351L250.234 255.996L250.719 256.642L251.203 256.803L251.688 257.287L252.011 258.578L252.818 260.031L253.303 260.676L253.141 261.322L252.657 261.483L252.334 261.967L252.172 262.128L252.011 262.774V263.419L252.657 263.742L252.818 264.71V265.679L252.334 265.84V266.163L252.818 266.969L253.141 267.615L253.303 268.422L253.787 268.745V269.229L254.756 269.39L255.886 269.067L256.048 268.906L255.886 268.583L256.209 267.938L255.725 267.615L255.563 267.131L255.886 266.969L255.725 266.647L255.886 266.324L256.209 266.163L256.694 266.324L257.34 266.485L257.663 266.001L257.986 265.517L258.309 266.163V266.969L258.955 267.615L259.278 267.292V266.969L260.085 266.647L260.408 266.808L260.246 267.131L260.085 267.292L259.923 268.099L261.054 268.422V268.583L260.569 268.745V269.067L260.892 269.551L261.054 269.874L261.538 270.197L261.215 270.358L261.054 271.004V271.649L260.892 272.133L261.215 272.779L261.861 273.101L261.7 274.07H262.669L263.799 273.908L264.122 273.586L264.606 273.101L264.929 272.617L265.737 272.295L266.06 271.972L267.352 272.133L267.998 272.779L268.159 273.101L268.321 273.908L268.805 274.07L268.967 274.392L268.805 275.038L269.289 275.522V276.167L269.128 276.974L269.774 278.427L269.935 278.588L270.258 279.718L270.904 281.493L272.035 282.461L272.196 283.106L272.035 284.397L272.519 285.688L272.681 286.495L273.004 287.463L272.842 288.431L273.327 289.561L274.295 290.207L274.457 290.529L275.264 291.013L276.233 291.175L276.395 291.659L278.01 292.143H279.463L281.401 291.659L282.693 291.175L283.5 291.82L283.339 292.143L283.823 292.466V292.788L283.661 293.111V293.273L284.307 293.434L284.469 293.273L284.792 292.95H285.276V293.595V293.918L284.953 294.241L284.63 294.886L284.953 295.209L285.115 296.016L284.953 296.823L284.146 298.759L283.984 300.05L284.146 300.373L283.984 301.341L284.469 301.825L284.953 302.471L285.599 302.955V303.439L287.214 305.052L287.376 305.536H287.86L288.022 305.859L287.699 306.182L287.537 306.505L287.376 307.312L287.214 307.634L287.053 308.28L286.891 309.893L287.376 311.669L287.537 311.83L287.86 311.991V312.637L287.537 313.121L287.214 313.766V314.412L287.376 315.219L288.022 316.025H288.829L289.152 316.187H281.078H272.842H264.445H256.048L247.812 316.025H239.415L231.018 316.187H228.919L229.242 315.703L229.888 314.735L230.049 314.25L229.565 314.089L229.08 313.928L228.596 313.282L227.788 313.121L227.142 313.282V312.475V311.023L226.819 310.378L226.496 309.893L226.658 309.571L226.819 309.087L227.627 307.957L228.111 306.989L228.596 306.021L229.08 305.375L228.919 305.052L228.757 304.407L228.596 303.6L228.111 303.277H227.627L227.142 303.6L226.658 303.439L226.335 302.955L226.012 302.793L226.335 301.986L226.658 301.18L227.142 300.05L227.95 298.114L228.919 294.886L229.565 293.434L229.726 292.143L229.403 291.175L228.757 291.013L228.434 290.529L228.596 289.722V288.916L228.111 288.593L227.95 288.109L227.788 287.625L227.304 287.141L226.658 286.656L225.85 286.495L224.882 286.656L224.397 286.334V285.527L224.559 284.559V283.268L224.074 282.138L223.59 281.493L223.267 281.331H222.136L220.845 281.493L220.36 281.815L219.23 281.493L219.068 280.686H219.23V280.202L219.068 279.556L217.938 279.072L217.292 277.943L215.677 277.62V276.813V276.006L215.031 275.199V274.231L214.547 273.263L213.578 273.747L212.932 271.972L213.093 270.842L212.286 269.874H211.478L211.317 269.067L210.51 268.26L209.702 267.131L208.572 266.969L207.926 267.131L207.603 267.454H207.28L206.634 266.969L206.311 266.001L205.988 265.033L205.827 264.549H205.181L204.373 265.356L203.727 263.581L203.889 261.806L203.566 260.999L203.081 260.192L202.92 259.224L202.435 258.417L201.144 257.933L199.852 257.449L199.044 258.417L198.237 257.287L198.075 255.996L197.752 255.351L197.429 254.221L197.268 253.576L196.945 253.253L195.33 253.092L193.392 251.155L192.262 249.703L190.97 248.251L188.871 245.83L186.772 243.41L180.635 241.151L176.76 240.666L174.66 237.439L172.238 235.341L168.201 233.889L165.779 231.791L164.487 230.5L163.356 230.178L162.226 230.984L161.419 230.178L160.611 229.693L159.965 228.725L158.835 227.918L157.866 226.627L156.574 226.466L153.022 223.239L153.183 222.109L153.506 220.818L153.667 219.204L153.344 218.075L153.183 217.268L153.022 215.654L152.053 214.525L151.568 213.718L150.922 213.072L150.115 212.75L148.016 212.588L147.854 211.943L148.823 208.231L149.146 205.327L148.823 203.552L148.661 203.229L148.177 202.584V202.099V201.454L148.5 199.679L148.339 197.42L148.016 194.999L147.208 193.224L146.562 191.611L145.27 190.481L143.817 189.513L142.202 188.706H140.264L141.556 187.576L142.041 186.931L142.202 186.124L141.879 185.317L141.233 184.51L140.264 183.865L139.618 183.542L139.941 184.349L140.426 184.994L140.749 185.64L140.91 186.447L140.426 186.931L139.78 187.092L139.618 186.608L138.972 186.124L138.65 186.447L138.327 186.931V187.415L138.811 187.576L139.295 188.222L139.457 189.351L139.941 190.965H138.811L138.488 189.19L137.681 186.608L136.712 184.51L137.681 176.603L137.358 170.955L136.55 168.212L136.389 167.083L135.904 166.598L134.128 166.276L132.029 164.178L130.898 164.017L129.768 162.403L128.961 161.112L128.638 160.466L127.507 158.853L126.7 158.369L124.762 159.014L123.47 158.853L123.309 157.078L123.955 154.98L124.278 151.591L124.762 148.364L123.309 144.652L117.98 138.198L116.042 134.486L115.557 133.679L115.234 133.518L114.427 132.55L114.104 132.227L113.458 131.904L112.489 131.097L111.843 130.936L111.359 130.613L111.197 130.291V129.806L110.874 129.322L109.098 127.87L108.775 127.386L107.806 126.579L107.483 125.772L107.645 125.127H107.483L108.129 124.965L109.26 125.127L108.291 123.836L108.452 123.029L108.614 122.222L109.098 120.77L108.614 119.64L108.129 118.672L107.806 118.349L106.999 118.027L105.868 117.865L104.738 116.413L104.254 115.606L106.191 116.09L107.645 117.058L108.452 117.22L109.26 116.574L109.906 115.606L110.39 114.638L110.713 113.024V111.895V110.765L110.39 109.958L108.614 109.635L107.645 109.313L106.837 108.183L105.707 107.538L104.9 107.376L104.092 107.054V105.763L103.931 103.988L103.446 103.342H101.831L100.055 102.858L98.9246 101.406L98.4402 100.276L98.2787 98.3397L97.9557 94.9509L97.1483 92.369L96.3409 90.1099L95.8565 89.303L95.049 88.6576L94.2416 88.1735L92.3038 87.6893L91.4964 87.0439L89.2356 81.8801L88.5897 79.9437L87.7823 78.1686L87.1364 77.2004V76.2322L86.9749 75.264V73.973V73.4889V73.0048L90.689 72.6821L94.0801 72.3594L97.4713 72.0366L100.862 71.7139L104.254 71.3911L107.645 71.2298L111.036 70.907L114.589 70.5843L117.98 70.2616L121.371 69.9388L124.762 69.6161L128.153 69.2934L131.544 68.9706L134.935 68.6479L138.327 68.4865L141.718 68.1638L145.27 67.841L148.661 67.5183L152.053 67.1956L155.444 66.8728L158.835 66.5501L162.226 66.2274L165.617 65.9046L169.008 65.5819L172.4 65.4205L175.952 65.0978L179.343 64.7751L182.734 64.4523L186.126 64.1296L189.517 63.8068L192.908 63.4841L196.299 63.1614L198.237 63V63.1614L197.914 64.4523L197.429 65.4205L196.945 66.3887L196.622 66.7115L195.492 67.6797L195.33 68.1638L194.523 69.6161L195.007 70.7457L194.846 71.8753L194.2 74.1344L193.715 74.7799ZM283.016 280.524L284.63 280.847L287.214 282.622L287.86 283.429L288.183 283.752L288.344 284.075L289.152 284.397L289.313 284.881L289.636 285.043L289.152 285.527L288.667 285.85L288.344 285.527L288.183 285.365H287.86L287.537 284.075L286.891 283.59L286.084 283.268L285.438 282.461L284.307 282.299V281.977L284.146 281.654L283.823 281.331L283.5 280.847L283.016 280.524ZM296.096 277.943L296.58 277.781L296.903 277.62L298.033 277.781L298.679 277.458L299.164 277.781V278.427L299.325 278.749L299.164 279.233V280.04L298.841 280.847L298.033 281.009L296.903 280.686L296.419 281.009L296.58 280.524L296.096 279.072V277.943ZM271.712 260.031L272.358 260.192L272.681 260.515L273.327 260.676L272.681 262.128L272.842 262.774V264.226H272.358L271.873 263.419L271.389 263.258L270.743 262.451L269.289 261.967L268.967 260.999L268.159 260.515L267.513 260.353L266.867 259.708L266.544 259.062L266.221 258.74L265.898 257.933L265.414 257.287L264.606 256.319L264.122 255.835L263.638 255.674L263.315 255.19L262.669 254.867L261.7 254.383L261.377 253.576L260.246 252.93L259.278 252.285L258.147 250.51L258.309 250.026L257.986 249.38L257.34 248.574L256.532 248.735H255.725L255.079 248.251L254.756 247.605V246.637L254.433 246.153L253.787 245.669L253.464 244.862L253.141 244.701L252.98 244.055L252.172 243.41V242.926L251.688 242.28L250.88 241.796L250.557 240.505L250.88 239.214L251.526 238.085L252.011 236.471L251.688 235.664V234.857L252.172 234.534V234.857L252.657 235.18L253.303 234.857L253.787 234.534V234.212H254.433V234.857L254.917 235.019L256.048 235.18L256.694 235.825L258.147 237.278L258.632 238.73L259.762 239.053L259.923 239.537L260.246 240.021V240.344L260.892 241.151L261.377 242.119L261.215 242.603L261.861 243.087L261.377 243.571L260.892 244.217L260.731 245.185L260.892 245.669V246.96L262.184 247.767L263.961 248.089L264.283 248.574H264.929L265.252 248.089H265.898L266.221 248.251L267.029 248.089H267.836L268.644 248.251L269.612 248.089L270.258 248.735L269.774 249.703L269.935 250.833L270.258 251.478L270.097 252.446V253.092L270.42 253.415L270.258 254.06L270.097 255.19V256.642L270.258 257.126L270.743 258.094L270.904 258.578V259.062L271.227 259.869L271.712 260.031ZM227.142 316.187L226.819 315.38L226.335 315.541L226.012 315.38L226.173 314.896L226.819 314.573L227.465 314.896L228.111 315.703L228.434 316.187H227.142ZM222.136 316.187L223.105 315.057L224.559 312.959L225.528 311.83L226.173 311.669L226.496 312.959L226.335 313.928L225.528 314.573L225.043 315.057L224.882 315.541L224.72 315.864L224.882 316.187H222.136ZM254.11 258.417H254.433L254.756 258.578V258.74L254.594 259.062V259.224L254.756 259.385V259.708V260.192L254.917 260.515V260.838H255.079V261.16L255.402 261.322V261.483H254.917L254.594 261.322L254.756 261.16L254.594 260.838L254.272 260.676L254.433 260.353L254.594 260.192L254.272 260.031V259.708V259.385L253.949 259.224V258.901L253.626 258.578L254.11 258.417ZM212.447 210.975H213.093L213.255 211.943L213.416 212.427H212.932L212.286 212.104L212.447 211.459V210.975ZM133.805 183.542L133.967 183.703L134.289 184.026V184.349H133.805L133.321 184.188V183.865L133.805 183.542ZM81 79.1368H81.1615L81.323 79.4596L81.4845 79.9437L81.6459 80.4278V80.9119H81.4845L81.323 80.2664L81.1615 79.7823L81 79.6209V79.1368Z" fill="#6F9C76"/>
</svg>
