<svg width="380" height="380" viewBox="0 0 380 380" fill="none" xmlns="http://www.w3.org/2000/svg">
<path d="M94.3187 275.268L94.0211 274.821L93.8722 274.226L93.5746 273.78L93.4258 273.185L93.1281 272.887H92.8305L92.5328 273.036H92.0863L91.3422 273.185H90.7469L90.3004 272.887L89.7051 272.292L88.8122 270.952L87.7704 269.464L86.8774 267.976L85.9845 266.488L85.3892 265.446L84.9427 264.554L84.7938 263.363L85.0915 262.173L85.8356 261.131L86.5798 260.238L87.0262 259.196L86.8774 257.857L86.5798 257.113L86.1333 256.22L85.8356 255.476V254.583L85.9845 253.69L86.2821 252.649L86.4309 251.756V250.714L86.2821 249.821L86.1333 249.077L85.6868 248.482L84.9427 248.036L83.7521 247.292L82.8591 246.399L81.9662 245.506L81.0732 244.464L80.9244 243.72L81.0732 242.976L81.222 242.381L81.6685 241.786L80.4779 240.893L79.4361 239.851L78.2455 238.81L77.0549 237.917L76.4596 237.024L76.3108 235.982L76.0131 234.94L75.5667 234.048L74.8225 233.601L74.0784 233.304L73.3343 232.857L72.5901 232.411L71.9948 232.113L71.5483 231.667L70.953 231.22L70.6554 230.625L69.3159 227.351L67.9765 224.077L66.6371 220.804L65.2977 217.53L65 216.488L65.4465 215.595L66.1906 214.851L67.0836 214.107L67.8277 213.363L68.5718 212.768L69.3159 212.47L70.3577 212.173L72.5901 212.024H74.6737L76.6084 212.173L78.8408 212.619L80.3291 212.917L81.8173 213.363L83.3056 213.661L84.7938 214.107L85.3892 214.256L86.1333 214.554H86.8774L87.4727 214.256L88.5145 213.363L89.4074 212.47L90.3004 211.577L91.1934 210.685V209.94L90.8957 208.75L90.3004 207.411L90.0027 206.518L89.7051 205.476L89.2586 204.435L88.961 203.393L88.5145 202.5L88.068 201.012L87.6216 199.524L87.1751 198.036L86.7286 196.696V195.357L87.1751 193.72L87.7704 191.935L88.068 190.595L88.2169 190.149L88.068 189.554L87.7704 189.107L87.6216 188.661L87.4727 188.214V187.619V187.024L87.3239 186.429L87.1751 184.494L86.8774 182.56L86.5798 180.476L86.4309 178.542L86.1333 175.714L85.8356 173.036L85.3892 170.357L85.0915 167.679L84.7938 165.149L84.645 162.768L84.3474 160.387L84.0497 157.857H84.7938H85.538H86.2821H87.0262H87.7704L88.068 157.56L88.2169 156.964V156.071L88.3657 154.881V153.839L88.5145 152.649L88.6633 151.458L88.961 147.44L89.2586 143.571L89.5563 139.554L89.854 135.536L90.0027 134.643V133.601L90.1516 132.56L90.3004 131.518V131.369V131.22V130.179V129.286L90.5981 128.542L90.8957 127.798L91.1934 127.202L91.3422 126.607V125.863L91.1934 125.119L90.8957 121.994L90.7469 118.869L90.4492 115.744L90.1516 112.619V112.173V111.726L90.0027 111.28V110.685L89.854 109.196L89.7051 107.708L89.5563 106.071V104.583L89.4074 103.393L89.1098 102.5L88.6633 101.905L87.7704 101.161L86.7286 100.119L85.6868 99.375L84.645 98.7798L83.3056 98.3333L82.4127 98.1845L81.6685 97.8869L80.7756 97.4405L80.1803 96.994L77.6502 94.9107L75.269 92.8274L72.8878 90.8929L70.3577 88.8095L69.7624 88.0655V87.4702V86.5774L70.0601 85.5357L70.2089 83.8988L70.3577 82.4107L70.6554 80.7738L70.8042 79.2857L71.3995 74.9702L71.846 70.8036L72.4413 66.4881L72.8878 62.4702H74.0784H75.8643H77.6502H79.5849H81.3709H83.1568H85.0915H86.8774H88.6633H90.4492H92.384H94.1699H95.9558H97.7417H99.6764H101.462H103.248H105.034V62.1726V61.875V61.4286V61.1309V60.8333V60.3869V60.0893V59.6429V59.3452V59.0476V58.6012V58.3036V58.0059V57.5595V57.2619V56.8155V56.5179V56.2202V55.7738V55.4762V55.1786V54.7321V54.4345V54.1369V53.6905V53.3929V52.9464V52.6488V52.3512V51.9048V51.6071V51.3095V50.8631V50.5655V50.119V49.8214V49.5238V49.0774V48.7798V48.4821V48.0357V47.7381V47.4405V46.994V46.6964V46.25V45.9524V45.6548V45.2083V44.9107V44.6131V44.1667V43.869V43.4226V43.125V42.8274V42.3809V42.0833V41.7857V41.3393V41.0417V40.5952V40.2976V40H106.225H107.267H108.457H109.499H110.541H111.731H112.773H113.964H115.006H116.196H117.238H118.28H119.47H120.512H121.703H122.744H123.935H124.977H126.019H127.209H128.251H129.442H130.483H131.674H132.716H133.758H134.948H135.99H137.181H138.222H139.413H140.455H141.497H142.687H143.729H144.92H145.961H147.152H148.194H149.236L150.426 40.1488H151.468H152.658H153.7H154.891H155.933H156.974H158.165H159.207H160.397H161.439H162.63H163.672H164.713H165.904H166.946H168.136H169.178H170.369H171.411H172.452H173.643H174.685H175.875H177.661L178.108 40.2976L178.257 40.5952L178.703 40.8929L179.447 41.0417L181.382 40.8929L183.019 41.4881L184.358 42.9762L185.549 44.7619L186.442 46.3988L187.484 49.8214L187.93 50.7143L189.716 52.9464L190.163 53.6905L190.311 54.1369L190.46 54.4345V54.7321L190.758 55.0298L192.246 55.9226L192.693 56.5179L193.734 56.9643L195.52 57.4107L196.86 58.3036L197.753 58.6012L198.795 58.75L199.539 59.0476L201.325 60.3869L201.92 60.8333L202.218 61.2798L202.515 62.1726L202.813 62.619L203.557 63.0655L204.152 63.3631V63.6607L204.896 63.8095L205.641 64.4048L208.915 68.2738L209.212 69.3155L209.659 69.9107L212.933 71.994L213.528 72.2917L213.975 72.4405L214.868 73.6309L215.761 74.375L216.505 74.8214L217.249 75.2679L217.695 76.3095L218.291 78.0952L218.737 78.6905L219.779 79.2857L221.267 81.0714L224.69 83.75L226.327 85.8333L226.923 86.2798L228.113 86.5774L230.643 87.9167L230.941 88.0655L231.09 88.3631L231.387 88.6607L231.834 88.9583L231.983 88.8095H232.132L232.429 88.3631H232.578L233.173 88.5119H233.322L233.62 88.6607L234.066 89.4048L234.513 89.5536H234.959L235.257 89.7024L235.555 90.1488V90.5952H235.703H235.852L236.448 91.3393L236.745 90.8929L238.68 93.2738L239.573 93.7202L240.317 93.869L241.21 94.3155L242.103 94.9107L242.698 95.6548V96.25L242.847 96.6964V97.2917L243.145 97.7381L243.591 97.8869L244.931 98.0357L245.228 98.1845L245.526 98.7798L246.865 100.268L247.312 101.161L247.461 101.607V102.649L247.609 103.244L248.354 103.542L248.502 103.839V104.137L248.205 104.732V105.03V105.625L248.651 106.22L248.8 106.815L248.651 107.56V107.857V108.006L249.098 108.601L249.395 109.048L249.991 109.345L250.139 109.643L250.288 110.089V110.685L250.437 111.131L250.586 111.28L251.479 111.875L252.074 113.065L252.67 114.405L253.116 115.446L253.414 115.595L254.158 116.042L254.604 116.339L255.497 118.125L256.093 118.869L256.241 120.06L256.093 121.845L255.944 123.036L255.348 124.673L255.2 125.714L255.348 126.905L256.093 129.583V130.03L255.944 130.774L256.093 131.369L256.241 131.518L256.837 132.262L256.985 132.411L257.134 133.006L257.878 133.899L258.474 136.28L258.623 136.726L259.516 137.619L260.26 138.214L260.855 138.958L261.153 141.042L261.897 142.381L262.194 143.125L262.343 143.869V144.315L262.492 144.762L263.087 145.506L265.171 146.845L265.766 147.44L265.915 147.738L266.064 148.185L266.213 148.631L266.51 148.929H266.808L270.231 151.161L270.678 151.905L271.422 151.458H272.612L273.803 151.756L274.398 152.649L275.44 153.393L275.886 153.542L276.035 153.839L276.928 155.625L278.268 157.113L279.161 157.857L280.649 158.601L282.732 160.982L284.369 161.875L288.239 163.214L290.918 163.81L293.894 163.958L294.341 164.107L294.787 164.405L295.085 165L294.638 166.042L294.936 166.339L295.531 166.488L295.829 166.637L297.913 168.423L299.103 169.018L302.824 169.911H304.015H304.312L304.759 170.208L304.907 170.506L305.056 170.952L305.205 171.399L307.437 173.482L309.223 174.524L309.819 174.673L310.116 174.97L311.307 176.161L312.051 176.31L312.498 176.012L312.795 175.565H313.242L313.837 176.31L313.986 176.161L314.581 176.012V176.31L311.158 183.155L307.586 190L304.015 196.845L300.591 203.542L299.252 206.22L297.913 208.75L296.722 211.28L295.383 213.81L293.597 217.381L291.811 220.804L290.025 224.226L288.09 227.649L286.751 230.03L287.048 231.667L287.346 232.708L287.495 233.75L287.792 234.792L288.239 237.024L288.834 239.107L289.281 241.339L289.727 243.571L291.96 252.798L294.192 262.024L296.424 271.399L298.657 280.625L299.252 283.304L299.847 285.982L300.443 288.661L301.038 291.339L297.764 290L294.341 288.512L291.067 287.173L287.644 285.833L286.602 285.387L285.709 285.089L284.667 284.94L283.625 285.089H281.988L280.202 285.238L278.565 285.387L276.928 285.982L275.142 287.619L273.505 289.554L272.166 291.786L270.678 293.869L268.743 296.548L266.808 299.077L264.873 301.756L262.939 304.286L261.301 305.774L259.664 305.327L257.878 303.839L256.39 302.5L254.307 300.863L251.925 299.673L249.544 298.929L247.014 298.333L245.972 298.185L244.931 298.036L243.889 297.887L242.996 298.036L242.401 298.631L241.805 299.524L241.359 300.119L240.615 299.673L240.019 298.929L238.978 297.44L238.085 296.25L237.489 295.655L236.299 296.399L235.108 296.994L233.917 297.589L232.578 298.185L231.834 298.631L230.494 299.375L229.304 299.97L228.411 300.119L227.22 299.524L226.03 298.78L224.69 298.185L223.5 297.44L222.309 296.696L221.118 296.101L219.928 295.357L218.737 294.762L217.695 294.018L216.951 293.274L216.207 292.381L215.314 291.488L214.719 290.446L214.124 289.405L213.38 288.661L212.338 288.81L211.296 289.107H210.105L209.064 288.958H207.873L206.087 287.917L204.45 286.726L202.813 285.238L201.176 284.048L200.432 283.452L199.836 283.006L199.241 282.56L198.497 281.964L198.348 282.411L198.05 282.708L197.753 283.006L197.604 283.452L197.157 284.345L196.711 285.238L196.265 286.131L195.818 287.024L195.372 286.429L194.776 285.685L194.181 285.387L193.586 285.685L192.99 286.726L192.841 288.065V289.405V290.595V291.19L192.693 291.786V292.53L192.395 292.827L191.8 293.274L190.907 294.018L190.311 294.613L190.163 295.357L190.46 296.399L190.758 297.292L191.056 298.333L191.353 299.226L191.502 300.268L191.353 300.863L190.907 301.31L190.014 301.607L188.079 302.202L186.293 302.798L184.358 303.393L182.573 303.839L181.233 304.881L181.084 306.22L181.531 307.708L182.126 309.196L182.721 310.685L183.465 312.321L183.763 314.107L183.614 315.744L183.317 316.786L183.019 317.827L182.721 318.72L182.126 319.613L181.531 320.208L180.787 320.357L180.042 320.208H179.15L177.81 320.952L177.364 322.44L177.215 324.077V325.863V327.202L177.066 328.542V329.732L176.917 331.071L176.768 331.964L176.471 332.56L175.875 333.006L175.28 333.601L175.131 333.75L174.834 333.899L174.685 334.048L174.536 334.196L173.643 334.94L172.899 335.685L172.155 336.429L171.262 337.024L170.518 337.768L169.773 338.661L168.881 339.405L168.136 340H167.243H166.35L165.309 339.702L164.565 339.554L163.374 339.405L162.183 339.256H160.844L159.653 339.107L158.463 338.065L157.272 337.173L155.933 336.429L154.593 335.685L153.7 334.94L152.956 333.899L152.361 332.857L151.617 331.815L150.575 330.923L149.533 330.179L148.343 329.435L147.152 328.839L146.557 328.69L146.11 328.542L145.961 328.244L145.812 327.5V326.905L145.664 326.31L145.515 325.565L145.366 324.97L145.068 324.375L144.622 324.226L144.027 324.077L143.58 323.631V323.482L143.431 323.184V322.738L143.282 322.44L143.134 321.696L142.985 320.952L142.836 320.208L142.687 319.464L142.241 318.125L141.497 316.935L140.604 316.19L139.264 315.893L136.436 315.298L133.46 314.702L130.632 313.958L127.656 313.363H127.209L126.763 313.214L126.316 313.065H125.87L124.53 312.768L123.786 312.47L123.489 311.726L123.191 310.387L122.893 308.304L122.596 306.071L122.447 303.988L122.149 301.756L121.852 299.226L121.703 296.25L121.256 293.423L120.512 291.19L119.768 290.298L118.875 289.405L117.982 288.363L117.089 287.321L116.196 285.982L115.303 284.643L114.261 283.155L113.666 281.667V280.476V279.137L113.368 278.095L112.327 277.649L110.243 277.202L107.862 276.756L105.778 275.714L104.439 273.929L103.992 273.036L103.397 272.292L102.802 271.845L101.909 271.696L100.867 271.845H99.8253L98.7835 271.548L98.337 270.655L97.444 271.845L96.4023 273.036L95.5093 274.226L94.3187 275.268Z" fill="#6F9C76"/>
</svg>
