<svg width="380" height="380" viewBox="0 0 380 380" fill="none" xmlns="http://www.w3.org/2000/svg">
<path d="M249.149 116.752L248.646 117.003L248.395 118.008L250.153 118.761L252.414 119.263L253.419 120.017L253.921 121.775L255.428 122.026L257.437 121.775H259.446L260.2 122.528L260.702 123.784L261.205 125.039L261.456 126.295L261.707 126.797L263.214 127.049L263.716 127.551L264.219 128.053L264.47 129.309L264.721 130.062L265.474 131.067L267.986 133.829L268.739 134.331L270.498 134.08H271.251L271.502 134.583L272.005 136.089L272.256 136.843L274.767 139.856L275.27 140.61L275.521 142.117L276.274 142.87L279.037 143.874L279.539 144.377L280.544 145.381L280.795 145.632L281.549 145.13V144.628L281.298 143.874V143.623H282.553H283.558L283.809 144.377L282.553 145.632L284.06 146.135L286.07 148.395L287.577 149.148L292.6 150.655H293.353L294.107 150.153L295.112 150.655V151.157L294.86 152.162L295.865 152.915L298.377 154.422L299.381 155.176L304.405 162.207L305.409 164.97L304.405 166.728V167.23L304.907 166.979H305.409L305.66 166.728V166.226L306.665 166.728L306.414 167.732L306.163 168.988L306.414 170.244L305.66 171.499L306.414 171.751H307.419L308.172 172.253L308.423 173.006L307.921 173.76L307.167 174.262L306.916 175.015L307.67 174.764H308.926L309.93 175.015L310.181 175.266L310.684 175.015L312.442 174.513H313.195L313.698 176.02L313.949 176.773L315.707 175.769L316.46 176.02L317.214 176.522L317.716 177.024L317.967 177.778V178.531L318.219 179.033L320.479 179.285L321.233 179.536L321.735 179.787L322.237 180.038H322.991L323.493 179.787H323.995L324.246 180.791V181.796V182.298L325 183.554L323.995 183.303H322.991L322.237 183.805V184.81H322.488V184.307H322.991L323.744 185.061L323.242 186.316L322.237 187.321L320.981 187.823L320.479 188.074L321.233 188.577L322.237 189.079L322.488 188.828V189.581L322.237 189.832L321.484 189.581L321.233 189.33L320.981 189.581V189.832H320.73L320.981 190.334L321.233 191.088L321.735 191.339H320.73H320.479L320.228 190.837L319.223 191.841L319.474 192.595L320.228 193.097L321.233 193.599L320.228 193.85L319.474 194.604L318.972 195.608L319.223 197.115L321.233 198.371L321.735 199.124L320.228 199.626V200.129L320.981 201.133L319.223 202.389L319.725 203.645H320.228L320.479 203.394H320.73L321.233 203.142L320.981 203.896L320.479 204.9L320.228 205.151V205.403L318.721 205.654L317.465 205.905H310.935H301.14H291.093H281.047H280.795H271.251L261.205 206.156H251.409H241.363H231.316H228.051L227.047 206.658L226.042 207.663L224.535 210.676L223.279 212.937L219.763 218.964L214.739 227.754L208.963 237.548L203.186 247.342L200.674 252.114L198.414 256.132L194.898 262.159L193.391 264.419L193.14 265.675V267.182L193.642 268.438L202.935 280.492L201.428 283.757L200.674 284.761L199.921 285.012L198.916 285.264L197.912 285.515L197.158 286.268L196.907 288.779L197.158 293.551L196.405 295.811L194.898 297.569L194.395 298.323V299.829L194.646 300.583L195.4 302.341V302.843L195.149 304.099L195.4 304.601L196.656 308.368V309.624L196.405 310.879L194.898 313.642L193.14 318.162L191.884 319.669L190.377 319.92L190.126 319.669L186.107 314.646L180.581 309.624L171.539 300.332L157.725 286.017L148.684 275.972L147.679 273.963V272.456L148.935 273.209L151.949 274.214L152.702 274.716V276.223L153.205 277.73L153.958 278.734L154.963 279.236L154.209 277.73L153.707 274.465L152.953 273.209L151.949 272.707L150.442 271.953L148.935 271.702L147.679 271.953L147.428 270.698L146.674 270.447L146.172 270.949L147.177 271.953L145.921 271.702L141.651 268.438L138.637 267.182L137.381 266.177L136.377 264.168L130.6 259.899L123.819 252.616L122.563 250.356L121.809 249.351L119.549 248.598L102.219 233.781L100.963 233.027L88.907 223.233L81.3721 218.211L68.0603 210.425L69.0651 209.923L70.8232 210.174L71.5767 209.923L72.079 210.676L72.8325 210.928L73.8372 210.425L74.5907 209.421L73.0836 207.663L72.3301 205.905L71.3256 204.649L69.5674 203.645L61.0278 201.887L58.7674 200.631L58.0138 200.129L58.5162 199.375L59.0185 198.371L59.772 197.366L60.2744 196.362L60.7767 195.106L61.0278 193.599L61.2791 192.092V190.837V188.577L60.2744 186.065L59.2696 183.554L58.2651 181.545L57.7627 180.038L57.0093 178.782L56.5069 177.276L55.7535 176.02L55 173.006L56.5069 169.993L58.7674 166.979L60.5255 164.468L61.2791 162.961L61.5302 161.454V159.947V158.44L61.2791 156.682L61.0278 154.673L60.7767 152.664L61.0278 151.157L62.0325 150.153L63.5394 149.148L65.0465 148.395L66.3023 147.642L67.3069 147.139L68.3116 146.386L69.3162 145.632L70.3209 145.13L70.8232 144.126V142.619V141.112V140.107V138.098V136.089L71.5767 134.834L73.586 135.085V134.583V134.08V133.578V133.076V131.067L73.8372 128.806V126.546L73.0836 124.788L74.0883 124.286L75.093 123.784L75.8465 123.282L76.5999 122.528L79.3627 120.77L82.1256 119.012L84.6372 117.254L87.3999 115.496L88.6557 114.492L90.1628 113.487L91.6697 112.232L92.4232 110.725L92.6744 109.971L92.9255 109.218L93.4279 108.465L93.679 107.711L94.6837 105.451L95.6882 103.442L96.693 101.182L97.4464 99.1725L98.1999 97.1634L98.4511 96.1588L98.9535 95.6566L99.2046 94.9032L99.7069 94.4009L100.963 93.3964L101.214 93.1453L101.716 92.8941H101.967L102.219 91.3874L102.47 91.1362L103.223 90.1317L104.228 89.3782L105.233 88.6249L106.237 87.8714L106.739 86.8669L107.242 85.3601L107.493 83.8533L107.744 82.5976L109 78.3283L110.256 73.8079L111.763 69.2874L113.27 64.767L113.521 63.2602L114.525 63.009L114.777 62.5068L115.781 61.2512L116.535 61H117.539L119.549 61.7534L122.06 62.0045L122.814 62.5068L124.07 63.5114L125.828 64.2647L127.586 66.2739L129.846 68.0317L132.107 68.5341L133.865 66.7761L135.372 67.0272L136.377 65.5204V66.7761L136.628 67.2784V68.7852V69.0363V69.2874V69.5386V70.7943L136.879 72.0499V73.5568V74.8124L136.628 76.0681L136.126 77.0726L135.623 78.3283L135.372 79.584V82.5976L136.126 85.6112L136.628 88.6249V91.8896L136.879 93.6476L137.381 95.1544L138.386 95.9078H140.144L142.656 96.4101L143.912 97.9168L144.665 99.9259L145.921 102.186L146.674 103.442L147.428 104.697L148.432 105.702L149.437 106.707L151.446 107.711L153.707 108.465H156.219L158.228 107.209L158.479 106.958L158.73 106.707L158.981 106.455L159.233 106.204L160.237 105.2L161.493 104.195L162.498 103.191L163.753 102.186L164.256 101.433L165.009 100.679L165.763 99.9259L166.516 99.4237L168.023 97.9168L169.53 96.6611L171.037 95.1544L172.795 93.8987L173.8 92.643L175.056 91.3874L176.563 90.1317L178.07 89.8805L180.581 88.876L181.084 87.6203V85.8624L181.837 83.351L183.595 82.0953L185.856 81.342L188.618 80.8397L190.879 80.3374L192.637 79.584L194.395 78.5795L196.153 77.5749L197.66 76.5703L199.921 76.8215L202.432 76.5703L203.94 75.3146L202.684 73.0545L204.442 71.0454L206.451 69.0363L208.46 67.7806L210.219 67.2784H210.721L211.725 67.7806L211.474 70.5431L212.479 71.5476L212.981 70.7943L213.233 70.0409L213.484 69.2874L214.488 69.0363L215.493 68.7852L216.498 69.0363L218.256 70.0409L219.763 68.7852L221.27 69.0363L222.777 70.2919L223.781 72.0499V72.5522V74.059V74.5613L224.033 74.8124L224.284 75.3146L224.535 77.5749L224.033 78.3283L223.279 79.584L223.028 81.0908L224.033 81.593H225.539H227.047H228.553L230.06 82.0953L231.316 84.3555L232.321 86.8669L232.823 89.6294L233.326 92.1407L233.577 92.8941V93.6476L233.326 94.4009V95.1544L233.828 96.4101L235.084 97.1634L236.591 97.9168L237.846 98.4191H238.098H238.349L238.6 98.6702H238.851L240.107 99.1725L241.614 99.6748L243.121 100.177L243.623 100.679L244.377 101.182L244.879 101.433V102.688L244.377 104.949L244.879 105.702L245.632 106.204L246.888 106.707H247.642H249.149L249.902 106.958L250.405 107.711L252.163 110.725L252.414 110.976L252.163 111.98L251.409 112.232H250.405L249.4 112.483L248.898 113.236L248.646 114.241V115.496L248.898 116.501L249.149 116.752ZM57.2604 203.896L58.0138 204.147L60.0233 205.654L61.7813 208.165L62.786 208.919L65.0465 209.923L66.0511 210.425L66.5534 211.43L55.7535 206.909L57.2604 203.896Z" fill="#6F9C76"/>
</svg>
