<svg width="380" height="380" viewBox="0 0 380 380" fill="none" xmlns="http://www.w3.org/2000/svg">
<path d="M102.736 224.602L102.039 221.464L101.342 218.327L100.644 215.189L99.9469 212.051L97.3319 201.243L94.7168 190.261L92.1018 179.454L89.4867 168.646L88.9637 166.031L88.4407 163.417L87.7434 160.976L87.2204 158.361L86.8717 157.141L86.6973 155.921L86.3487 154.701L86 152.783L87.569 149.994L89.8354 145.985L91.9274 141.976L94.0195 137.966L96.1115 133.783L97.6806 130.819L99.0752 127.856L100.644 124.893L102.213 121.755L106.223 113.911L110.407 105.892L114.591 97.8733L118.601 89.8547L118.427 90.7263L119.124 91.0749H122.088L124.877 91.7722L126.795 92.1209L128.015 91.4236L128.712 90.0291L128.887 87.9372L129.41 87.7629L129.584 87.9372L129.933 86.8913L130.107 86.3684L130.63 86.0198L132.548 84.9738L132.897 84.6252L133.42 84.1023L134.814 81.1389L135.686 80.2673L136.732 80.7902L137.081 80.4416L139.347 78.6984L140.742 78.3498L141.265 78.1755L140.742 77.4782L139.521 76.7809L139.173 76.0837V75.3864L139.87 73.2946V72.2487L140.044 71.5514L140.393 71.2028L140.916 70.6798L141.265 70.5055L141.439 70.6798L141.788 70.5055L142.311 70.3312V69.9826L141.962 69.2853V68.9367L142.485 68.0651V67.5421L142.311 66.8449L142.136 66.1476L142.311 65.4503L142.485 64.7531L142.834 64.2301L144.403 60.0465L144.926 59.6978L145.1 59.1749L144.926 58.4776L145.449 58.3033V57.9547L145.274 57.2574L145.797 57.0831L146.146 56.7345L146.669 55.6885V55.5142L147.366 53.9454H147.715L147.889 53.0738L149.284 50.6333L149.458 49.9361V49.4131L149.633 49.0645L149.982 48.5415H150.33H152.248L153.12 48.3672L154.863 47.3213L155.909 46.9727L156.083 47.147L156.258 47.67L156.606 47.8443H156.955L157.129 47.67V47.4956L157.652 47.147L158.001 46.2754H158.524L163.928 46.624V46.4497L165.149 44.7066L165.323 44.1836L165.497 42.6148L165.672 42.0918L166.02 41.5689H166.718L167.241 41.2202L167.764 40.1743L168.113 40L169.159 40.1743L169.856 40.8716L170.379 41.3945L171.251 41.0459L171.599 42.0918L172.297 42.4404L174.04 42.6148L176.306 44.0093L177.004 44.3579L178.747 45.2295L183.454 44.7066L184.849 45.0552L185.546 44.3579L186.418 44.5322L187.115 45.0552L187.813 45.4038H188.161H188.684L189.207 45.2295L189.556 44.8809L189.905 44.7066H190.428L191.299 45.0552H193.043L193.566 44.7066H193.914L194.089 45.2295L194.437 45.5781L202.631 46.7984L205.246 46.4497L205.943 46.1011L206.641 45.5781L206.815 44.3579L206.99 44.1836L207.338 44.3579L207.687 44.7066L207.861 45.2295L207.687 45.5781L207.338 46.624L207.164 46.9727L208.21 47.3213L208.907 46.7984L209.779 46.1011L210.651 45.7525L211.174 45.9268L211.522 46.7984L212.045 46.9727L212.568 47.147L213.091 46.9727L213.614 46.7984L213.963 46.624L213.789 47.3213L213.963 48.0186L214.312 48.7158L215.183 50.1104L215.358 50.982L216.055 52.3765L216.404 52.8995L216.752 53.4224L217.45 53.7711H218.844L219.193 53.9454V54.9913L218.67 56.2115V56.9088L219.193 57.2574L220.065 56.3858L221.285 55.6885L222.505 55.5142L223.377 56.2115V57.7804L223.028 59.5235L223.203 60.2208L223.552 60.7438L224.249 60.9181H224.772L225.121 61.2667L226.167 62.4869L227.561 63.3585L230.874 64.4044L232.443 64.9274L232.791 65.9733L232.966 67.5421L233.14 68.4137L233.489 68.9367L233.837 69.4596L234.36 69.9826L234.883 70.3312L238.544 71.9L239.765 73.1203L240.637 74.3405L241.159 74.6891L243.426 75.735L244.472 76.6066L245.169 77.3039L246.215 79.3957L245.867 80.6159L246.215 81.3132L248.83 83.5793L249.005 83.7536L249.179 84.2766H249.702L250.399 84.4509L250.922 84.6252L251.271 85.4968L251.62 88.8088L252.666 91.0749L252.84 92.1209L252.491 93.3411L252.84 93.6897L253.014 94.2127V94.9099V95.6072L253.363 95.9558L253.886 96.4788L254.583 97.0017L254.758 97.8733L254.932 98.222L255.629 98.5706L255.978 98.7449L256.152 99.0936L255.804 99.9651L255.978 100.314L256.327 100.488H257.024L257.373 100.662L257.547 101.011L257.896 101.534L258.07 101.883L258.419 102.406L259.639 107.984L260.162 109.204L262.08 111.644V112.69L262.603 113.039L263.823 113.562L264.172 114.085L264.521 114.608L264.346 116.002V116.525L265.044 117.745L266.09 118.443L268.182 119.314L266.787 120.012L266.438 120.36L266.613 121.058L266.961 121.58L267.31 121.929L267.484 122.103L267.659 124.195L268.182 126.287L269.576 128.205L270.448 129.425V130.296L270.099 131.342L270.622 132.562L271.494 133.434L272.366 134.131L273.76 134.306L274.109 134.48V135.003L274.283 135.7L274.458 136.397L274.806 136.746L275.678 136.92L280.559 139.535L281.431 140.407L281.954 141.627V142.499L282.129 142.847L282.826 143.544L283.523 144.242H283.872V144.59L283.698 144.939V145.288L283.872 146.334L284.221 147.031L284.744 147.728L285.441 148.6L286.313 148.948L287.359 149.123L287.882 149.646L287.359 150.517L287.882 151.214L288.579 152.26L289.451 153.132L290.322 153.481V153.829L290.148 154.352L289.799 155.224L289.974 155.921L290.322 156.27L290.845 156.444L291.194 156.967V157.49L291.02 158.71L291.194 159.233L291.368 159.407L292.066 159.93L292.763 160.628V160.802L293.983 161.15L292.589 162.371L291.368 163.591L290.148 164.811L288.753 166.031L288.056 166.554L287.359 167.252L286.661 167.949L285.964 168.646L285.615 168.82L285.092 168.472L284.744 168.123L284.395 167.6L282.652 166.38L281.083 164.985L279.514 163.591L277.944 162.196L277.247 161.673L276.55 160.976L275.852 160.453L275.155 159.93L274.806 160.105L274.283 160.628L273.586 161.15L273.237 161.499L271.494 162.545L269.576 163.765L267.833 165.16L266.438 166.729L265.567 168.472L265.044 170.738L264.695 173.004L264.172 175.096L263.823 177.362L263.3 180.5L262.603 183.289L261.557 184.683L261.034 184.858L260.511 185.032L259.988 185.206H259.639L259.291 185.032V184.509L259.116 184.16L258.767 183.986L257.198 184.683L255.804 185.206L254.409 185.729L252.84 186.252L252.143 186.601L251.62 187.472L251.097 188.17L250.399 188.867L249.353 189.564L248.133 190.261L247.087 190.959L246.041 191.656L244.995 192.179L244.123 192.702L243.6 193.399V194.445L243.775 196.188L243.949 197.931L244.123 199.675L244.298 201.243L245.169 201.592L246.041 201.941L246.738 202.464L246.564 203.858L247.784 203.684L248.482 203.51L249.005 203.161L249.353 202.289L249.179 201.941L249.005 201.766L248.656 201.418V201.069L249.005 200.721H249.353H249.876L250.225 200.546L250.574 199.849L250.748 199.152L251.097 198.977L251.62 200.023L252.666 200.721L253.886 200.895L255.281 201.069L256.327 201.592L256.675 202.812V204.555V206.299V207.693V208.739V209.785V211.005L256.501 212.051L255.804 215.015L254.932 217.804L253.886 220.593L252.143 222.859L251.271 223.73L250.574 224.602L249.702 225.299L248.656 226.171L248.133 224.428L247.61 222.859L247.261 221.29L246.738 219.721L246.215 220.07L245.692 220.418L245.344 220.941L244.821 221.29L241.334 224.253L237.847 227.217L234.535 230.18L231.048 233.144L229.13 234.887L227.213 236.456L225.295 238.199L223.552 239.768L225.121 241.162L227.038 242.905L228.782 244.823L230.002 246.74L230.176 247.786L230.351 248.658L230.699 249.529L231.048 250.401L231.745 251.273L232.268 251.795L232.966 251.97H233.837L234.709 252.144L235.581 252.841L236.452 253.713L236.975 254.585L237.498 255.979L237.673 257.548V259.117L238.196 260.511L239.242 261.557L240.637 262.08L241.857 262.952L242.205 264.346L241.857 266.438L241.682 268.53V270.622L242.031 272.539L242.903 274.631L243.949 276.549L245.169 278.466L246.564 280.209L247.436 281.255L248.307 281.778L249.179 281.952H250.574L251.097 282.127L251.445 282.301L251.794 282.475L252.317 282.998L252.491 283.521V284.044L252.317 284.741L252.491 285.264L253.014 285.439H253.712H254.583L255.281 285.787L255.629 286.31L255.804 287.008V287.705V288.402L254.409 288.053L252.666 287.182L251.097 286.659L249.702 287.008L249.528 288.053L250.922 288.925L252.84 289.622L254.06 290.668V291.017L254.235 291.191V291.54L254.409 291.714L255.629 293.109L257.547 293.632L259.291 293.98L260.685 295.2V295.723L260.511 296.072L260.337 296.595L260.859 297.118H261.731L262.777 296.769L263.649 296.595L264.695 296.421L265.567 296.595L266.438 296.769H267.31H268.182L269.228 296.944L269.751 297.118L270.099 297.467L270.797 298.164L272.191 298.861L273.76 299.907L274.283 300.779L272.714 301.127L272.366 301.302L271.843 301.476L271.32 301.825L271.145 302.173V302.696L271.32 303.393V304.091V304.439L270.622 304.788H269.576L268.53 304.614H267.659L266.438 305.137L265.218 305.311H264.172L262.952 304.962L261.731 304.614L260.511 304.091L259.116 303.568L257.896 303.393H254.583L251.445 304.265L248.482 306.008L245.692 307.926L244.646 309.32L243.077 311.586L242.554 313.678L243.6 314.55L244.646 314.724L245.518 315.421L246.215 316.293L247.087 316.99L247.784 318.036L247.61 318.908L246.738 319.605L245.692 320.128L244.646 320.999L244.472 321.871L244.821 322.917L245.169 324.486L245.692 325.88L245.867 327.101V328.321L245.692 329.715L244.995 332.33L244.123 334.945L243.426 337.385L242.903 340L241.857 339.303L240.985 338.78L239.939 338.257L239.067 337.734L238.021 337.385L237.15 337.56L236.278 337.734L235.232 338.083L233.489 337.908L231.397 337.037L229.479 335.816L228.259 334.248L227.736 333.376L227.561 332.504L227.213 331.458L226.864 330.587L226.341 329.715L225.818 328.844L225.121 327.972L224.423 327.275L222.68 326.055L221.111 325.706L219.193 326.055L217.275 326.403L217.101 326.055V325.706V325.357V325.009L216.055 325.88L215.009 326.926L213.963 328.146L213.091 329.192L212.22 329.715L211.174 329.89L210.128 329.715H209.082H207.513L206.118 329.541H204.723L203.328 329.367L202.805 328.844L202.282 327.798L201.759 326.578L201.585 325.532L202.457 325.88L203.503 326.229L204.549 326.403L205.595 326.578L205.421 325.706V324.486L205.072 323.266L204.723 322.568L204.026 322.045L203.154 321.348L202.282 320.999H201.585H199.667L197.575 320.476L195.832 319.431L194.612 317.862L193.914 316.467L193.043 314.55L192.171 312.807L191.125 311.761L189.382 311.238L187.638 310.715L185.721 310.192L183.977 309.494L181.885 308.972L179.793 308.274L177.701 307.577L175.609 307.054L174.214 306.88L172.82 307.054L171.251 307.403L169.856 307.577L166.195 307.926L162.534 308.274L158.873 308.797L155.037 309.146L153.468 309.32L152.422 309.494L151.725 310.192L150.853 311.586L149.633 313.155L148.587 314.55L147.366 315.944L146.32 317.513L145.623 318.559L144.577 320.128L143.357 321.348L142.311 321.522L142.136 323.963V326.229V328.669L141.962 330.935L140.916 330.064L139.87 329.192L138.65 328.321L137.604 327.623L135.686 326.752L133.594 325.88L131.327 325.357L129.235 325.009L127.143 324.486L124.877 323.614L122.785 322.22L121.565 320.302L121.39 318.036V315.944L121.216 313.678L120.344 311.935L118.775 310.715L116.683 309.494L114.766 308.274L113.545 306.531L113.022 305.137L112.325 304.091L111.627 303.219L110.581 302.347L109.884 301.65L109.187 301.127L108.838 300.43L108.664 299.558L109.012 297.99L109.361 296.595L110.233 295.2L111.104 293.806L111.453 293.632L112.15 293.457L112.673 293.283L113.022 292.934L112.848 292.411L112.499 291.714L111.976 291.191L111.453 290.668L110.581 289.971L110.058 289.099L109.535 288.228V287.008L109.71 286.136L110.233 285.439L110.93 284.916L111.627 284.393L112.15 284.044L112.673 283.696L113.197 283.521L113.719 283.173L114.068 282.475L114.591 281.952L114.94 281.429L115.463 280.906L115.986 280.035L116.16 279.338L116.683 278.64L117.555 278.117L118.252 277.246V275.677V273.934L118.078 272.714V272.365V272.016V271.842V271.493L117.904 269.924L117.729 268.181L117.555 266.612L117.381 265.044L117.032 262.254L116.858 259.291L116.683 256.502L116.858 253.713L117.729 250.924L118.95 248.483L120.17 245.869L120.693 243.08L119.996 240.291L117.904 237.85L115.463 235.584L113.197 233.841L111.279 232.098L109.187 230.354L107.269 228.611L105.177 226.868L104.654 226.171L103.957 225.648L103.434 225.125L102.736 224.602Z" fill="#6F9C76"/>
</svg>
