<svg width="380" height="380" viewBox="0 0 380 380" fill="none" xmlns="http://www.w3.org/2000/svg">
<path d="M260.875 298.82L248.219 286.165L210.25 258.324L203.5 251.575L176.5 238.076L155.406 227.109L140.219 222.047L132.625 219.516L127.563 216.985L122.5 215.298L118.281 213.61L119.125 206.018L124.188 205.174L125.875 202.643L125.031 198.425L119.125 194.206L116.594 193.363L114.063 196.737L112.375 195.05L113.219 190.832L109.844 189.144L105.625 189.988L103.094 191.675L103.938 195.894H102.25L100.563 194.206L98.0314 192.519L95.5002 195.894L92.125 198.425L89.5938 192.519L81.1564 189.144L76.9376 186.614L55 181.552V175.646L58.375 172.271L61.7502 168.897L65.1252 165.522L67.6564 159.617L68.5 156.242L71.0312 154.555L77.7814 155.398L79.4688 157.086L82.0002 159.617L83.6876 160.46L86.2188 159.617V157.929V156.242V154.555L87.0626 152.867L87.9062 151.18L89.5938 149.493L92.125 148.649L93.8126 147.805L97.1876 146.118H98.8752L100.563 147.805L103.094 150.336H105.625L109 149.493L112.375 147.805H114.906L117.438 146.962H119.969L122.5 146.118L124.188 145.274L128.406 141.9L132.625 138.525L136.844 137.681H142.75H146.969L149.5 134.307L151.188 130.089L152.875 125.027L155.406 121.652L158.781 119.965L162.156 117.434L163 112.372L163.844 106.466L165.531 102.248L168.906 98.0297L173.969 93.8114L176.5 91.2803L179.031 87.9057L182.406 84.5311L184.938 82L185.781 82.8437V83.6874L186.625 84.5311V86.2183V87.9057L187.469 88.7494V89.5931L186.625 90.4366L192.531 94.6548L199.281 98.0297L205.188 101.404L211.937 105.623L215.312 108.153L220.375 109.841L225.438 112.372L229.656 114.059L234.719 115.746L238.938 117.434L243.157 116.59L246.531 111.528L249.906 110.685H253.281H257.5L260.875 109.841L267.625 106.466L272.688 100.561L277.75 94.6548L283.656 91.2803L287.031 94.6548L289.563 99.7168L291.25 105.623L292.938 110.685L295.469 114.903L299.687 117.434L303.906 119.965L307.281 124.183L308.125 127.558L308.969 130.089L310.656 132.619L313.188 134.307L314.875 135.994L318.25 136.838L320.781 138.525L321.625 140.213V142.743L320.781 145.274L319.094 147.805L318.25 151.18V155.398L319.094 160.46L319.937 165.522L320.781 169.74L319.094 177.333L315.719 186.614L314.031 195.894L314.875 202.643L319.094 208.548L321.625 214.454L324.156 221.203L325 227.953H322.469L320.781 229.64L319.937 233.015L319.094 235.546L318.25 236.389H316.562H314.875L314.031 237.233L313.188 238.076V238.92L314.031 240.608V241.451L312.344 242.295L308.969 243.982L305.594 245.67L303.906 247.357L301.375 249.044L298.844 249.888L297.156 249.044L293.781 247.357L292.938 248.2L292.094 249.044L291.25 250.731L292.094 252.419V253.262V254.95V255.793V256.637L290.406 260.012V263.386V266.761L288.719 270.136L286.187 273.51L283.656 274.354H280.281L276.063 276.041L274.375 278.572L272.688 281.947L271.844 284.478L271 287.852L269.312 292.071L266.781 294.602L263.406 297.132L260.875 298.82Z" fill="#6F9C76"/>
</svg>
