<svg width="380" height="380" viewBox="0 0 380 380" fill="none" xmlns="http://www.w3.org/2000/svg">
<path d="M108.754 290.318L106.843 288.408L104.932 286.497H103.021L101.11 282.675L97.2881 275.032L93.4658 265.478V254.013V244.458V242.548V240.637L91.5552 238.726H89.6435L87.7329 236.815L82 234.904V229.172L83.9106 223.439L87.7329 219.618V217.707V215.796L85.8211 213.885L83.9106 211.975L82 200.51L85.8211 187.134L91.5552 173.758L95.3764 162.293L104.932 164.204L114.487 166.114L122.131 162.293L125.954 152.739L127.864 150.828V148.917L129.776 147.006L135.509 137.452L141.242 127.898L148.886 120.255L154.619 110.7L156.53 106.879L158.442 104.968L162.263 101.146L164.175 97.3249L166.085 95.414L167.997 93.503L171.818 91.5921H175.64L181.373 87.7708L183.285 82.0379L181.373 78.2166L173.73 74.3947L179.463 70.5728V64.8406V59.1083L185.196 53.3755L187.107 51.4645L190.928 47.6432L194.751 43.8213L196.662 40L198.573 41.9104V43.8213H200.484L202.395 45.7323L206.218 49.5542L210.039 53.3755L211.951 57.1974V62.9296V64.8406V66.7515V74.3947L215.773 80.127L219.594 85.8598L225.328 89.6811L227.239 93.503L229.149 97.3249L231.061 103.057L234.883 106.879V108.789L236.794 110.7L238.704 114.522V116.433V118.344H240.616L244.439 124.076L242.527 129.809L238.704 133.631L232.972 137.452L234.883 139.363L236.794 143.185L238.704 145.096L240.616 147.006L238.704 148.917H236.794L234.883 150.828L232.972 152.739L240.616 162.293L250.171 166.114L261.637 171.847L271.192 177.579L273.104 181.401L276.925 185.223L278.837 189.045L280.748 192.866L282.659 194.777V196.688V198.599L286.48 206.242V213.885L288.392 221.529L286.48 229.172V234.904L284.57 242.548V248.28L282.659 255.924L286.48 265.478L290.303 273.121L296.036 282.675L297.947 292.229V294.14L296.036 301.783L294.125 309.427L288.392 315.159L284.57 320.892H276.925H269.282H261.637L255.904 322.803L250.171 328.535L246.349 334.268L240.616 340L234.883 336.179L225.328 330.446L215.773 324.714L204.306 318.981L192.84 317.07H189.018H185.196L181.373 315.159H175.64L158.442 313.249L139.331 309.427L122.131 303.694L108.754 290.318Z" fill="#6F9C76"/>
</svg>
