<svg width="380" height="380" viewBox="0 0 380 380" fill="none" xmlns="http://www.w3.org/2000/svg">
<path d="M249.604 48V48.5093H250.113H250.622L252.66 50.0375L255.207 51.5656L257.755 53.603L260.302 55.1313L257.755 58.6968L255.207 61.7531L253.17 64.8094L252.66 69.3938V70.4126L253.17 71.4312L253.679 72.4501L254.698 72.9595L257.755 73.9781L260.302 76.525L262.34 80.0907L264.887 83.147L266.415 84.1657L268.453 85.6939L270.491 86.2033H272.528L275.585 84.1657L279.151 81.1095L281.698 78.0533V74.997L281.189 72.4501L283.226 71.9407L284.755 73.4689L285.774 76.0158V80.0907L284.245 84.1657L282.717 88.2408L284.245 91.2971H288.321L291.377 88.7502L293.924 87.222L296.981 91.8064L298.509 92.3158L299.528 92.8252L300.547 94.3532L301.566 95.8815L302.585 96.9001L303.604 97.4095L305.132 97.9189L305.642 99.447V100.975L304.623 103.522L303.604 105.56L303.094 107.088L302.075 107.597H301.566L301.057 107.088H300.547L299.528 108.107L299.019 109.125L298 110.144L296.981 111.672L295.962 113.2L294.943 114.219L293.924 115.747L292.906 116.766L290.868 120.332L289.849 125.425L290.359 131.028L291.377 135.103L291.887 136.122V136.632L291.377 137.141L290.359 137.65H286.792L283.226 136.632L280.17 134.594L277.113 132.557L275.076 131.538L273.547 131.028L271.509 130.519L269.472 130.01H267.434H264.887L262.849 131.028L261.83 133.066L262.34 135.103L263.358 136.122L264.377 137.65V139.688V141.216V142.744L263.358 143.763L261.83 144.782L259.793 145.291L257.755 145.8H256.226L254.189 146.31L252.66 148.857V150.894L254.189 152.422L256.736 152.932L258.774 152.422L260.811 150.894L262.34 149.876L263.868 150.894L264.377 153.441L263.868 155.988L262.34 159.044L260.811 161.082L257.755 164.138L254.189 166.685L250.622 169.232L248.585 172.798V175.344L248.075 178.401L247.566 181.457L246.547 184.004L245.528 185.532L244 187.06L242.472 188.079L241.453 189.607L241.962 193.173L244 196.738L246.547 200.304L248.585 203.869L251.641 210.491L256.226 211.51L261.321 208.963L265.396 203.36L265.905 200.813L266.924 198.266L267.943 195.72L269.472 194.191L272.019 196.229L274.057 198.776L275.585 199.285L278.132 196.229L280.17 193.682L282.207 191.644L284.245 189.607L285.774 187.569L287.811 184.513L290.359 181.457L292.906 178.91L295.453 176.363L298.509 171.269L303.604 164.647L308.698 159.554L313.283 158.025L313.792 158.535H314.302V159.044L314.811 159.554L315.83 161.591L317.868 162.101H320.415L321.943 163.629V165.666L321.434 167.194V168.722V170.251L322.453 171.269L322.962 172.288L323.472 172.798L324.49 173.816V176.363L323.472 178.401L321.943 180.438L321.434 182.476V185.023L321.943 187.569L323.472 189.607L325 191.135L324.49 191.644L323.472 193.173L322.453 194.191L321.434 195.21L320.415 196.229L319.906 197.248L318.887 198.266L317.868 199.285L317.359 200.304L314.302 201.832L310.736 203.36L307.679 205.398L306.151 207.945L305.132 209.982L304.113 211.51L302.585 213.548L301.566 215.585L300.038 216.604H297.49L294.943 217.113H292.906L291.887 217.623H291.377H290.868H290.359L288.321 219.66L287.302 222.207L286.792 225.263L285.774 227.81L284.755 229.338V230.867L285.774 232.395L287.302 233.413L287.811 234.432L288.83 235.451H289.849H291.377L296.472 232.904L301.566 232.395L305.132 233.923L307.17 240.035V241.564V242.582V244.11V245.638L308.698 248.185L310.226 250.732V253.279L307.679 256.335L304.113 258.882L302.075 262.448L300.547 266.523L299.528 271.107L298.509 272.635L296.981 274.673L295.962 276.201L294.943 277.729L294.434 278.239L293.924 278.748V279.257L293.415 279.767L290.868 283.332L288.83 286.898L288.321 290.464L289.34 294.029L292.906 299.633L296.472 306.254L300.038 312.367L304.113 317.461L300.038 317.97L296.472 316.442L293.415 314.914L290.359 312.876L289.849 312.367L289.34 311.348L288.83 310.33H287.811L285.774 311.348L285.264 311.858V312.876L284.755 313.895L283.226 315.423L282.207 316.951L280.679 318.479L279.66 320.517L278.132 324.083L276.604 328.158L274.057 329.686L271 328.158H270.491V327.648L269.981 327.139H269.472L266.415 326.629L263.358 326.12H260.302L257.245 325.611L256.736 325.101L256.226 324.592L255.717 324.083L253.679 322.045L251.641 323.064L249.604 325.101L247.566 326.629H245.019L242.981 325.101L240.943 323.573L238.906 324.083L237.377 325.611L235.849 327.139L234.321 327.648L232.283 327.139L231.774 328.667L231.264 330.195L230.245 331.214H228.208H228.717V330.705V330.195L230.245 327.648L231.774 325.101L233.302 322.555L234.321 319.498L234.83 317.97L235.849 315.933L236.868 313.895L237.377 311.858L237.887 310.33L237.377 308.801L236.358 307.273L234.83 305.236L234.321 303.707L233.302 302.689L232.792 301.67L232.283 300.651L231.774 299.633L230.755 298.614L230.245 297.595L229.736 297.086L228.717 296.067L228.208 295.557L227.189 294.539L226.679 294.029L226.17 293.52L225.66 293.011L225.151 292.501L224.132 290.973L222.604 289.954H221.585L220.056 290.464L215.981 291.482H212.925L210.377 289.954L207.83 286.389L202.736 284.351L197.132 290.973L191.019 297.086L184.396 296.576V296.067L183.887 295.557V295.048L183.377 294.539L183.887 293.011V291.992L184.396 290.464V288.936L185.415 285.879L186.434 283.332L187.453 280.276L188.981 277.729H188.472L187.453 277.22H186.943H186.434L186.943 275.692L187.453 273.654V272.126V270.598L186.943 268.56L186.434 266.523L184.906 264.995L183.887 263.467L182.868 262.448H182.358L181.849 261.939L180.83 261.429L178.283 260.41H176.245H173.698L171.151 261.429L168.094 262.957L165.038 264.995L161.981 266.523L158.415 268.051H155.868H153.83L151.283 268.56L149.245 270.089L147.717 272.635V275.692V278.748L147.207 281.804L146.188 282.823L144.66 283.332H143.132H141.604L139.057 285.37L138.038 290.464L136.509 294.539L131.415 294.029L127.849 297.086L124.793 302.179L122.245 304.726L120.717 299.633V298.104V296.067L120.207 294.539L119.189 293.52L118.17 293.011L117.151 291.992L116.641 290.973L116.132 289.954L116.641 285.879L115.622 282.823L113.075 280.786L110.019 279.767L105.943 278.748L103.906 276.711L102.887 274.164L103.906 269.579L104.415 266.523L105.943 263.976L106.962 260.92L107.472 257.354V256.845H106.962V256.335L105.943 254.807L104.415 252.77L103.396 250.732L101.868 248.695L100.849 247.167L99.8301 245.638L99.3208 244.11L98.3019 242.073L96.264 241.054H93.2075H89.6414L87.0943 242.073L86.0753 243.601L85.566 245.638L85.0564 246.657L82.5092 245.638L78.4338 242.073L73.8491 237.998L69.7734 233.923L66.2076 229.848L65.698 228.32L65.1887 227.301L64.6791 225.773L64.1697 224.754L62.6415 222.716L60.0943 221.188L57.5472 219.66L55 218.642L55.5093 215.076L56.0189 211.51L56.5282 207.945L57.0375 204.379L57.5472 200.813L58.0565 197.248L58.5661 193.682L59.0754 190.116V189.607V188.588L58.5661 187.569V187.06L63.6604 185.023L68.7548 182.476L74.3584 180.438L79.4528 179.929V179.419L79.9621 178.91L81.9999 179.419H84.5471L86.585 177.891L87.6036 176.363L88.6225 174.835L89.1321 173.307L90.1508 172.288L91.1697 171.269L92.1886 171.779H92.6979L93.2075 172.288L94.2265 172.798L94.7358 171.779L95.2451 170.76L95.7547 169.741L96.264 168.722L97.283 168.213L98.3019 167.704H99.3208L100.339 167.194L101.868 166.176L102.887 165.157L104.924 164.138L106.962 163.629L106.453 162.61L105.434 162.101L103.906 159.554L102.887 157.007L102.377 153.441V151.913L104.924 141.725L106.453 136.632L109.509 132.047L117.66 126.954L119.189 125.935L120.207 124.407L121.226 121.35L121.736 115.747L122.755 113.2L125.811 108.616L126.83 106.578V104.032L123.264 97.9189V95.8815L125.302 93.3346L126.321 92.8252L129.377 92.3158L130.905 91.2971L132.943 88.2408L134.472 87.7314H137.528L142.623 90.7877L145.17 92.3158L149.755 91.2971L156.377 85.6939L160.962 83.6564L164.528 84.1657H165.547L166.566 83.6564L167.585 82.6376H169.113L171.151 83.147H172.679L172.17 79.5813V76.0158V72.9595V71.9407V70.922V69.3938V68.8844L174.717 65.8282L179.302 64.3L183.887 63.7906L187.453 65.3188L188.472 65.8282L188.981 66.8469L189.49 67.8657L190 69.3938L191.019 70.922V72.9595L191.528 74.997L192.547 77.0344L194.075 78.0533L195.604 79.0719L197.642 79.5813L199.17 80.6001L202.226 82.1282L204.264 83.147L206.811 83.6564L209.868 82.6376L212.925 81.1095L216.491 79.5813L220.056 78.0533L224.132 77.5438L225.151 78.0533H226.17L227.189 78.5627L228.208 79.0719H229.736H230.755H231.774L232.792 78.0533L233.811 77.0344L235.339 76.525L236.868 77.0344L238.396 77.5438L238.906 72.4501L239.415 66.8469L238.906 61.2437V55.6407L238.396 53.603L238.906 52.5844L239.415 51.5656L240.943 51.0561L242.981 50.0375L245.019 49.5281L247.566 48.5093L249.604 48Z" fill="#6F9C76"/>
</svg>
