<svg width="380" height="380" viewBox="0 0 380 380" fill="none" xmlns="http://www.w3.org/2000/svg">
<path d="M55 227.635L55.7796 227.115L56.8191 226.335L57.5987 225.556L58.1184 224.257L58.3783 223.217L58.6382 222.438L59.1579 221.399L59.6776 220.619L60.9769 220.099H62.0164L62.796 219.84L63.5756 218.8L64.0953 217.761V216.722V215.682L64.615 214.643V214.383V214.123V213.604V213.344L64.3552 212.824L64.615 212.304L64.8749 212.044L65.1348 211.785L66.1743 212.304L66.6939 212.564L67.4736 212.304L68.2531 211.785L68.7729 211.265L69.8123 210.745L70.8518 210.226L71.3716 209.966V209.706L71.1117 209.186V208.926L71.3716 208.667L71.6314 208.407H72.1511H72.6709L72.9308 208.147L73.1906 207.367L73.4504 206.328L73.9702 205.808H74.7498L75.7892 205.289H76.8287H77.8682H78.9076H80.4668H82.026H83.3254L84.3648 205.029L85.1444 204.249L85.924 202.95L86.7036 201.651L87.2233 200.872L88.2628 199.572L89.5621 199.053L90.3417 199.572L91.3811 200.872L92.4207 202.171H93.4601H94.7594L95.7989 202.95L96.8383 204.509L98.1376 206.068L99.437 206.848L100.736 205.808V205.029L100.996 204.249V203.21L101.256 202.69L102.295 202.171L103.335 201.651L104.374 201.131L105.154 200.612L107.233 200.092L109.312 199.572L111.391 198.533L112.95 197.494L113.989 195.675L114.509 193.336L115.289 191.258L116.328 189.179L117.628 188.139L119.187 187.36L120.746 186.581L122.305 186.061L123.085 185.801L124.124 185.541L125.164 185.281H125.943L126.463 185.021L126.723 184.502L126.983 183.722L127.502 183.203L129.062 182.683L130.621 182.943L132.44 183.462L133.739 184.242L134.259 184.762V185.021L134.519 185.541H135.039L136.078 185.021L137.117 183.462L138.157 181.903L138.937 180.864L139.196 180.344L139.716 179.565L140.236 179.045L140.496 178.526L140.756 178.006L140.496 177.486V176.967V176.447L141.275 175.408L142.055 174.368L143.094 173.589L144.134 172.809L144.394 171.77L143.874 171.25L143.094 170.99L142.055 170.73L141.535 169.691L141.275 168.392L140.756 166.833L140.496 165.794V165.274L140.236 164.754L139.716 164.494H139.196L136.078 165.534L132.18 166.313L129.321 165.794V162.156V161.636V161.117L129.581 160.337V159.817L129.841 158.518L130.101 157.219L129.841 155.92L129.321 154.88L128.802 154.101L128.542 153.321V152.282L128.282 151.503L127.762 151.243L127.502 150.983L126.983 150.723L126.723 150.463L125.943 149.684L125.683 148.904L125.423 147.865L124.904 146.826L124.644 145.526L124.384 143.967L124.124 142.408V140.849L124.644 138.251L126.463 137.731H128.542L130.621 136.952L131.141 136.432L131.66 136.172L131.92 135.653L132.44 135.133L131.4 134.353L130.621 133.834L129.581 133.314L128.542 132.794L128.282 132.015V130.975L128.542 129.676V128.637L128.282 128.377L128.022 127.857L127.762 127.598H127.502H126.203L124.904 127.338L123.604 127.078H122.565L121.785 127.338H120.746H119.706L118.927 127.078L117.628 126.298L116.588 125.519L115.289 124.999L113.73 125.259H113.21L112.69 125.519L112.17 125.779H111.911L110.871 126.039L109.832 126.298L108.792 126.558H107.753L107.493 126.298L107.233 125.779L106.973 125.519L106.193 125.259L104.894 124.22L104.374 122.141L104.115 119.543V117.724L104.634 115.905L106.973 114.606L109.572 113.826L111.391 113.307L111.651 113.047H111.911H112.17L115.029 112.267L117.887 111.488L120.746 110.708L123.604 109.929H123.864H124.384L124.644 109.669H124.904L125.943 109.409L126.723 109.149L127.762 108.37L128.802 107.33L130.621 106.811H134.519L136.598 106.291L138.157 105.512L141.015 102.913L145.693 101.614L146.473 101.094L146.992 99.7951L147.772 99.0156L153.749 96.937L155.048 96.4173L158.686 96.1574L161.545 95.3779H162.844H163.624L165.703 96.1574L167.002 97.1967L167.782 96.937L168.821 96.4173L170.12 96.1574L171.42 95.8975L176.097 93.559L177.656 93.2992L185.452 92L184.153 95.1181L183.893 96.6771L184.673 97.4566L185.712 96.937L186.492 94.8582L187.791 94.3386L188.831 95.1181L189.35 96.937L190.13 104.212L190.39 104.472L190.65 104.732L190.909 104.992L191.689 107.071L192.209 107.85L192.989 108.37H194.807L195.587 108.11L196.367 107.33H197.146H197.926L198.965 108.11L199.485 108.37L200.005 108.11L200.784 107.33H201.564H202.084L204.163 107.85H206.761L208.32 108.11L209.36 108.889L210.14 107.85L211.959 105.512L212.478 104.212V103.693L213.258 102.653L213.518 101.874V101.094V100.315V99.5353L213.778 98.7558H214.297L216.896 98.4959H217.416L218.975 97.7164L219.755 97.4566H221.054L223.912 97.7164L225.212 97.4566L224.952 98.4959L225.212 99.2755L225.731 99.7951H226.771L228.07 100.055L229.629 100.315L231.189 101.354L231.449 102.653L230.929 103.693L229.37 104.472L228.07 105.252L227.291 106.291L227.551 107.071L227.81 107.33L228.59 107.59L228.85 108.11V108.889V109.149L228.59 109.669V110.189L228.33 110.448L228.07 110.708V110.968L228.33 111.488L228.59 111.748L228.85 112.267L229.11 112.787V113.307L228.85 115.645L228.33 117.984V119.803L230.409 121.102L231.189 120.842L231.968 120.322L232.488 120.062L233.268 119.803L233.787 120.062L234.307 120.322L234.827 120.582L235.347 120.842H236.386L237.425 120.582L238.205 120.322L239.244 120.582L240.544 121.362L242.103 121.621L243.662 121.881L245.221 121.362L246.261 119.803L246.78 117.724L247.56 116.165L249.119 115.645L249.899 116.425L250.938 116.944L251.718 117.204L252.758 116.944L254.317 116.425L256.396 116.165L258.215 116.425L259.774 116.944L260.034 117.464V118.243V118.763L259.774 119.543L260.034 119.803L260.293 120.062L260.553 120.322L260.813 120.582L260.553 122.141L259.254 122.921L257.435 123.7L256.396 124.739L256.655 126.558L258.474 127.857L260.553 128.897L262.372 129.417L263.672 129.936L264.711 130.196L266.011 129.936L267.31 129.676L268.869 129.157L270.168 128.637L271.208 127.598L272.247 126.039L273.027 127.078L273.807 127.598L274.326 128.117L274.846 129.157L275.626 130.456L276.405 131.235H277.704L279.524 131.495L279.783 129.936L280.043 129.157L280.823 128.897H282.382H283.681L284.981 128.637H286.28H287.579H288.879L290.698 128.377H292.517L293.556 128.637L293.816 129.676V130.456V131.235L294.596 131.755L295.635 131.235L296.155 130.196L296.675 128.637L297.714 127.857L299.273 127.338L301.092 127.078H302.911H304.731L306.03 126.039V123.7L305.25 120.842L304.471 119.023V118.243L304.731 117.464L305.25 116.684L305.51 116.165V115.905L305.25 115.645L304.99 115.126L305.51 114.606H305.77H306.549H307.069L307.589 114.866L308.109 114.346L308.888 113.307L309.668 112.267L309.928 111.488L310.447 110.189L310.967 109.149L311.747 108.37L313.046 107.071L316.684 108.889L319.543 112.787L321.102 117.204V121.621V122.141V122.661V123.18V123.7V125.779L321.882 127.338L323.181 128.377L325 129.157V129.936L324.74 130.975L324.48 132.015V133.054L323.96 134.353L323.701 135.653L323.181 136.952L322.921 138.251L322.661 139.55L322.141 140.849L321.882 142.148L321.362 143.448V144.487L321.622 145.266L321.882 146.306V147.085L321.622 147.865L321.362 148.904L320.842 149.684L320.582 150.723L320.322 151.243V152.022L320.062 152.542L319.803 153.062L319.283 154.621L319.023 155.92L318.763 157.219L318.243 158.518L318.503 159.298L318.763 160.077L319.023 160.597L319.283 161.376V161.636V161.896L319.543 162.156V162.416L320.062 163.715L320.582 165.274L321.102 166.573L322.141 167.612L323.441 168.912L322.401 170.211L320.582 171.25L319.283 171.77L317.464 173.069L315.385 174.108L313.566 175.408L311.747 176.447L311.227 176.707L310.707 177.226L310.188 177.486L309.668 177.746L310.188 178.526L310.447 179.305L310.967 179.825L311.487 180.604V180.864L311.747 181.124L312.267 182.163L312.007 182.943L311.487 183.462L310.707 184.242L309.668 185.541L308.888 186.84L307.849 188.139L307.069 189.179L306.29 190.218L305.77 190.998L305.25 191.777L304.731 192.557L303.951 193.596L302.911 194.635L302.132 195.675L301.352 196.714L300.573 197.753L300.053 198.533L299.273 199.572L298.494 200.352L297.454 201.131L296.415 201.911L295.635 202.95L295.375 203.99L295.115 205.029V206.328L294.856 207.367L294.076 207.887L293.037 208.147L291.997 208.926L291.218 209.706L290.698 210.485L290.178 211.265H289.918H289.398H288.879L288.619 211.785L288.359 212.304V213.084L287.839 213.344L287.06 214.123L286.28 214.903L285.76 215.682L285.5 216.462V217.241L284.721 218.021L283.941 218.8L283.162 219.58L282.902 217.761L282.122 215.942L281.083 214.643L279.524 214.383L278.224 215.163L277.185 216.462L276.405 217.761L275.366 218.8V220.359L276.665 221.658L277.964 222.958L278.744 224.257L278.224 225.816L277.445 227.115L276.665 228.154L276.925 229.973L277.704 231.792L278.224 233.351L278.484 235.17L278.744 236.989V239.067L279.004 240.626L279.783 241.926L281.083 243.225L283.162 244.524L284.981 246.083L287.06 247.642L288.879 249.201L289.398 250.5L289.139 252.059L288.099 253.878L287.06 255.437L286.54 254.138L285.76 253.878H285.5L282.902 256.217L281.343 254.658L280.563 253.618V252.319L281.083 251.28L281.862 250.76L282.382 249.981L282.642 249.201L282.382 248.162L282.122 247.382L281.862 246.863H281.602L280.823 246.603L280.563 246.343V246.603L280.043 247.642V247.902L279.004 247.642L277.704 246.863L276.665 246.083L274.066 243.225L273.287 242.705H265.231L266.27 243.745L265.491 244.524L263.152 245.304L262.632 243.485L262.372 242.445L261.853 242.186H260.813L260.293 242.445L260.034 242.705L259.774 241.926V240.886L259.514 240.367L257.955 239.587H256.136L252.498 240.367L240.544 239.587L238.725 240.626L234.827 241.666L230.929 242.705L227.031 243.745L222.873 244.524L221.314 244.264L219.495 243.745L218.195 242.965L216.636 242.186L215.337 241.146L214.817 240.107L214.297 239.067L213.518 237.768L212.738 236.729L211.439 236.469L210.399 236.209L209.1 235.949H206.242L202.863 235.69H199.745L197.146 236.729L194.028 240.886L192.989 245.823L193.508 251.28L194.288 256.736V258.815L193.508 260.374L192.209 262.193L190.909 263.752L190.65 264.531V265.051L190.13 265.571L189.35 265.831H188.571L188.051 265.571H187.271H186.492L185.452 266.35L184.413 266.61L183.373 266.35H182.334L181.035 266.61L179.735 266.87L178.696 267.13H177.137H175.837L175.058 267.39L174.538 267.649L173.758 268.429L173.239 269.208L172.719 269.728V270.508L172.459 271.287L171.939 273.366L171.68 275.704V278.043V280.381L172.199 281.681L172.979 282.98L173.499 284.019L173.758 285.059L173.499 285.838L173.239 286.618L172.719 287.657L172.459 287.917V288.177L171.939 288.436H170.9L168.041 287.137L163.624 284.799L153.749 281.94L149.591 280.641L146.732 280.381L140.496 278.043L133.479 277.523L129.581 276.744L119.447 272.327L112.43 268.949L108.532 267.39L105.934 267.13L102.036 266.87L100.996 265.831L99.9567 266.09L93.9798 263.492L92.6805 263.752L88.7825 262.453L87.4831 261.673L84.8845 260.634L83.5852 260.894L82.026 260.114L78.9076 258.036L73.1906 255.697L71.3716 252.319L67.4736 243.225L64.8749 240.107L64.3552 239.847L63.5756 238.808L62.5362 238.028L60.9769 236.989L58.6382 235.69L57.8585 235.43L57.5987 234.65L59.1579 232.572L58.1184 230.493L55.7796 228.154L55 227.635Z" fill="#6F9C76"/>
</svg>
