<svg width="380" height="380" viewBox="0 0 380 380" fill="none" xmlns="http://www.w3.org/2000/svg">
<path d="M324.398 190.862L325 192.266V194.071L324.799 195.876V197.481V197.882V198.283V198.684V199.085L323.195 198.885L322.593 199.888V201.492V203.097V203.899V205.103V206.306L322.192 207.108L321.389 207.509L320.587 208.111L319.784 208.713L318.982 209.114L317.979 209.716L316.776 210.318L315.572 211.12L314.77 211.922L314.569 213.125L314.77 214.73L314.97 216.335L315.171 217.739V218.942V220.145L314.97 221.349L314.368 222.552L312.964 224.558L311.159 226.965L309.955 229.372L310.557 231.779L311.159 232.782L311.56 233.985L312.162 234.988L312.563 236.191L313.365 237.796L314.168 239.802L314.97 241.807V243.612V244.615L314.77 245.819L314.569 247.022L314.168 248.025L313.767 248.827L313.165 249.63L312.764 250.432L312.362 251.034L311.359 250.031L310.557 249.228L310.156 248.426L309.755 246.621L308.952 246.421L307.749 246.822L306.545 247.423L304.339 247.624L301.731 247.022L299.525 245.618L297.519 244.014L296.315 242.61L295.513 242.208L294.108 242.008L293.105 242.409V243.211L293.306 244.415V245.217H292.905L292.303 245.016L292.102 245.217V245.618L292.704 245.819H293.306V246.22L292.905 246.421L292.102 246.621L297.318 250.231L300.327 251.435L301.932 251.034L297.519 249.429V249.028H299.123L301.33 250.031L302.533 250.231L303.938 250.031L304.539 250.231L305.342 250.632L307.348 251.836V252.237H306.545V252.638L310.758 253.641L311.761 254.042L310.557 256.449L297.318 251.034L296.516 250.432L294.51 249.228L291.902 248.627H286.486H286.887H283.878L282.273 248.226L281.27 247.825L280.267 248.226H279.264H276.857L275.654 248.025L275.253 247.423L275.453 246.621L276.255 246.019L281.27 244.615L283.276 243.011L283.678 240.403L283.076 239.601L280.869 238.999L280.067 238.598L279.465 238.197L279.064 237.996L278.663 238.197H278.261L278.061 239.2L277.86 239.601H277.459L276.857 239.802L276.657 240.002L276.055 240.604L275.654 241.005V241.206L274.049 242.008L273.247 242.409L272.244 243.813L271.441 244.415L270.84 243.412L270.639 242.81V242.008L271.241 241.406L272.244 241.005L272.645 240.203L272.043 239.4L271.241 238.398L271.04 237.796V237.194L270.639 236.191L270.238 235.79L269.636 234.988L268.834 234.386L268.031 234.186L266.627 234.386L265.223 235.188L264.22 236.191L261.612 240.002L261.01 240.403H257.6L258.001 241.406L257.6 241.807H256.798L256.597 242.208L255.795 243.211L255.996 243.813L256.998 244.214L259.606 244.816L261.612 245.016H263.618L265.223 244.816H266.025L267.229 244.415L267.63 244.014L268.633 242.81H269.235L269.435 243.612L267.831 244.615L265.223 245.217H263.618L265.624 245.819L270.84 245.618L272.444 246.421L273.247 247.624L273.046 248.025L270.037 247.022L265.624 247.223L262.615 247.825L260.007 248.226L258.603 248.426L255.795 248.827H253.588L252.585 248.627H251.783H250.981L250.579 249.028L250.78 249.429L250.981 249.83L250.379 250.231L248.774 249.83L248.172 250.432H247.169H246.166L245.364 251.034V251.836L244.16 252.237L243.358 252.839V253.441L243.157 253.641L242.556 253.842L241.954 254.243L240.149 254.644L239.346 255.246L237.741 257.051L238.143 258.254L237.541 258.655L236.538 259.458L235.134 259.859L234.933 260.862L234.532 261.463H231.322L230.921 262.065L226.709 262.466L226.107 263.268L224.502 263.469L224.302 264.071L221.493 265.274H218.886L217.481 265.675L216.077 265.876L215.275 266.478L214.673 266.879V267.481L213.47 267.681L212.266 268.082L210.862 268.483L209.056 268.885L208.455 269.286L204.242 270.289L203.841 270.89L201.835 271.291L200.23 272.294L199.027 272.695L197.422 273.698H196.82L196.419 274.099L195.817 274.501L195.215 274.099L194.614 274.701L194.814 275.503L190.201 277.71L188.395 278.913L185.386 278.713L181.174 278.913L178.967 278.311L177.162 278.111L176.36 278.913L174.955 279.515L173.952 280.117L172.949 280.317H171.746L170.342 279.916L169.941 280.317L166.731 279.114L162.719 277.309L155.698 275.905H153.291L148.477 272.896L144.866 271.893L143.061 271.492L141.657 270.088L141.857 269.887L140.854 268.283L140.052 268.483L138.447 267.681L135.238 265.675L132.63 264.673L129.019 263.67L128.016 263.87L124.606 263.068L123.202 263.87L117.987 263.268L113.975 261.865L112.37 262.266L108.96 261.463L106.352 261.263L105.75 261.664L105.149 262.266L103.143 261.865L99.9332 261.062L98.9302 260.661L97.7266 259.658L96.3225 259.257L95.7206 258.856L95.3195 258.455L94.9183 258.254L93.9153 257.452L90.104 254.644L87.8975 253.441L81.8797 250.031L79.8737 249.429L78.0683 248.426L76.8648 247.423L80.275 248.426L82.0802 248.627L82.8827 247.825H82.0802L81.2779 247.223L80.4755 246.822L79.6731 247.423L78.4696 246.822L77.266 246.621V246.421L77.0654 246.22L76.8648 245.819H76.6642L76.2631 246.22L75.8619 246.421L75.4606 246.621L74.4577 246.421L68.6404 244.615L61.2185 243.211L57.6077 241.807L56.2036 241.406L55.4012 241.206L55 241.005V240.805V240.604L56.003 239.601L57.0059 238.799L58.0089 238.398L59.6136 237.996L61.2185 237.796H62.8232L64.2274 237.595L65.6315 236.793L67.0357 235.389L68.2393 233.784L68.6404 231.979L67.8381 229.773L67.0357 228.369L66.8351 227.166L67.6374 225.962L69.2423 225.36H70.2452L71.2482 225.561H72.0505L73.2542 225.16H73.4547V224.959L73.6552 224.759V224.558L74.2571 222.753L73.8559 221.148L73.4547 219.544L73.0535 217.739L73.6552 217.538L74.4577 217.338H75.2601L75.8619 217.538L76.8648 217.739L77.6671 217.538L78.269 217.338L79.0713 216.736H79.4725L79.8737 216.535L80.0743 216.335L80.4755 215.934L80.676 215.733V215.532L80.8767 215.332V215.131L81.679 214.529L82.2809 213.928L82.682 213.125L82.8827 212.123V211.12L83.0832 209.916L83.2839 208.913L83.4844 207.71V207.108V206.507V205.905L83.685 205.303L84.2868 204.501L84.8886 203.699L85.2898 202.896L85.6909 202.094L86.0921 201.492L86.2928 200.891L86.4933 200.289L86.6939 199.687V198.885V198.283L86.4933 197.682L86.0921 197.08L84.4874 194.673L82.682 192.266L80.8767 190.06L79.0713 187.853L78.8708 187.653L78.6701 187.252L78.4696 187.051L78.269 186.851L77.4666 186.65H76.6642H75.8619H75.0594L73.6552 186.449L72.8529 185.045L72.0505 183.441L71.2482 182.037L70.0446 181.636L68.8411 181.435L68.2393 180.633L67.8381 179.63L68.0386 178.226L68.4398 177.022L68.6404 176.02L68.0386 174.816L67.8381 174.616V174.415L67.6374 174.215L67.8381 173.613L68.0386 172.61L68.2393 171.808L68.0386 171.005L67.6374 170.604L67.2363 170.002L66.8351 169.601L66.4339 169.2V169H66.2334L66.0327 168.799L65.8321 168.599L65.6315 168.398L65.4309 168.197L65.2304 167.997L65.0297 167.195V166.392V165.59L65.6315 164.988L66.0327 164.587V164.386L65.8321 163.985L65.4309 163.785L64.6285 162.581L64.428 161.177L64.6285 159.773L65.0297 158.169L65.2304 157.366L65.4309 156.564L65.6315 155.762L65.8321 154.96L66.0327 153.957L66.2334 152.753L66.6344 151.55L67.0357 150.547L67.6374 149.143L68.0386 148.14L67.8381 147.137L66.8351 145.934L67.0357 145.733L67.4369 145.533L67.6374 145.332L68.0386 145.132L68.2393 144.73L68.4398 144.53L68.8411 144.329L69.0416 144.129L69.4428 144.329L69.844 144.53L70.4458 144.73L70.847 144.931L72.8529 144.73L74.4577 143.126L75.6612 141.12L76.4636 139.114L76.8648 138.513L77.4666 138.112L78.269 137.911H79.0713H79.6731H80.0743H80.676H81.0773H82.0802L83.0832 138.112H83.8856H84.8886H85.4904H86.0921H86.4933H87.0951L87.6968 137.911H88.0981L88.6998 137.71H89.101L89.7028 137.51L90.5052 137.309H91.107L91.7087 137.51L92.1099 138.112L92.3106 138.914L92.5112 139.917V140.719V141.12L92.7117 141.521V141.922L92.9124 142.324L93.1129 143.326L93.5141 144.129L94.1159 144.53H95.1189L95.7206 144.329L96.523 143.928L97.1248 143.728L97.9272 143.326L98.529 142.925L99.1307 142.524L99.7325 141.922L100.334 141.321L100.936 140.92L101.538 140.318L101.939 139.917L102.34 139.114L102.14 138.513V138.112L101.939 137.51V136.908L101.337 136.106L100.936 135.504L100.334 134.702L99.7325 134.1H99.532L99.3314 133.9L99.1307 133.699L98.1278 133.097L97.526 132.295L97.3255 131.092L97.7266 130.089L98.1278 129.487L98.529 128.685L98.9302 128.083L99.3314 127.281L99.9332 126.278L100.334 125.275L100.936 124.272L101.538 123.269L102.14 122.266L102.741 121.263L103.343 120.461L104.146 120.662L105.75 120.261L107.756 118.455L109.562 117.653V120.06L108.96 122.066L107.957 124.673L107.355 127.281L107.556 129.086L108.157 130.089L109.16 130.69L110.163 131.092L110.966 131.693L111.568 132.094L111.969 132.496L112.571 132.696L112.972 133.097L113.574 133.699V134.501V135.504L113.774 136.507L114.175 137.109L114.577 137.71L115.178 138.513L115.58 139.114L115.981 139.917L116.783 140.318L117.585 140.719H118.388L119.19 140.518L119.792 140.117L120.394 139.315L120.594 138.513L121.999 135.304L124.004 132.696L126.412 130.69L129.421 129.487L129.621 129.286H129.822H130.022L131.226 128.885L132.429 128.685L133.633 128.885L134.837 129.286L135.839 129.888L136.642 130.289L137.645 130.69L138.648 130.891H138.848H139.049L141.055 131.493L142.86 132.094H144.666L146.27 130.69L146.672 130.289L146.872 129.888L147.073 129.487L147.273 128.885H147.474V128.685H147.675L147.875 128.283L148.076 127.882L148.477 127.481L148.678 127.281L148.878 126.88L149.279 126.679L149.48 126.478L149.681 126.077L149.881 125.877L150.082 125.676L150.282 125.475L150.483 125.275L151.285 124.673L152.088 124.272L153.091 124.072L153.893 123.871L154.294 123.67L154.695 123.47L155.097 123.269L155.498 123.069L156.501 122.266L157.303 121.263L157.704 120.261L158.306 118.857L158.908 117.854L159.51 116.851L159.911 115.848L160.111 114.645L160.312 114.444L160.513 114.043L160.713 113.842L160.914 113.642L162.318 112.238L163.722 110.633L164.926 108.828L165.528 107.023L165.327 105.017L164.725 102.811L164.123 100.805L163.722 99L164.123 99.4011L164.725 99.8023L165.126 100.203L165.528 100.605L167.734 102.41L169.539 103.613L171.746 104.415L174.354 104.817L176.159 105.218L177.363 105.819L178.365 106.822L178.967 108.427L179.368 110.834L180.371 113.642L181.374 116.049L182.979 117.854L183.38 118.255L183.782 118.656L184.383 118.857L184.785 119.057L185.587 119.659L186.389 120.461L186.991 121.263L187.593 122.266L187.994 123.871L188.395 125.676L188.796 127.281L189.398 127.682L189.599 127.882L190 128.083L190.201 128.283H191.003L191.605 128.083L192.207 128.283L192.407 128.685L192.207 129.286V129.688L192.808 130.49L193.41 130.69L194.212 130.891L195.015 131.092L195.817 130.891L196.018 130.49L196.82 129.487L197.221 129.086H198.024L199.227 129.286L199.829 129.688H200.632H201.635H202.236H202.437H202.637H202.838L203.44 129.487H204.042H204.443L205.045 129.688L205.646 130.089L206.248 130.49L207.05 130.69L207.652 130.891H208.254L208.655 131.092L209.257 131.292H209.658L210.059 131.493L210.461 131.693L210.862 131.894L211.263 132.295L212.467 133.9L213.269 135.905L213.871 137.911L214.874 139.716L213.871 142.725L212.266 145.132L210.461 147.338L208.455 149.544L208.254 149.945L208.053 150.146V150.346L207.853 150.748L207.251 152.553V154.157L207.853 155.962L208.856 157.768L210.059 160.174L211.263 162.581L212.467 164.988L213.67 167.395L214.472 168.398L215.275 168.799L216.278 169L217.281 169.401H217.481L217.682 169.601H217.883L218.083 169.401L219.487 169.2L220.49 168.599L221.493 168.197H222.697L223.7 168.599L224.302 168.799L225.104 168.599L225.706 167.796H226.308H226.909L227.311 167.596L227.511 167.195V166.793V166.593L227.712 166.192H227.912L228.715 165.79L229.718 165.189L230.721 164.587L231.322 164.386L232.125 164.186L232.727 163.584L233.128 162.782L233.529 162.18L234.733 161.578L235.936 161.177H237.34H238.544V160.776L238.744 160.576L238.945 160.375L239.146 159.974L240.75 159.773L241.954 159.372L242.556 158.369L243.157 156.965L243.759 156.765L244.361 156.965L244.963 157.166L245.565 157.366L245.966 157.166L245.765 156.765L245.364 156.163L245.765 155.762H246.166H246.768H247.37H247.571L248.172 156.163L248.373 156.965L248.172 157.768V158.57L247.972 158.971V159.773L247.771 160.375V160.776L247.37 161.177L246.768 161.378L246.166 161.578L245.565 161.98L245.364 162.581L245.163 163.384L244.963 163.985V164.788L246.768 166.793L248.373 168.799L250.178 170.805L251.984 172.811L252.987 173.613L253.789 174.415L254.591 175.217L255.193 176.22L256.597 176.621L258.202 177.223L259.606 178.226L260.409 179.229L260.609 179.63V180.031L260.81 180.633V181.034L260.609 181.235L260.409 181.435H260.208L260.007 181.836L260.409 182.639L260.609 183.641L261.01 184.644L261.211 185.647L263.217 186.851L266.828 187.252L270.84 187.452H273.848L275.854 187.653L277.66 187.853H279.666L281.672 188.054L283.276 188.255L285.082 188.455H286.887L288.492 188.656L297.519 189.257L306.545 189.659L315.572 190.26L324.398 190.862Z" fill="#6F9C76"/>
</svg>
