<svg width="380" height="380" viewBox="0 0 380 380" fill="none" xmlns="http://www.w3.org/2000/svg">
<path d="M179.581 74.9776L180.926 74.305L181.935 73.2959L182.944 71.9507L183.617 70.2691L184.29 68.2511L184.626 66.2332L184.962 64.2153V61.861V60.8521L184.626 59.5068V58.4978L184.29 57.4888L183.617 56.8161L182.944 55.8072L182.608 54.7982L183.953 54.4619L184.962 53.7893L185.635 52.7803V51.0987V49.7533L186.308 48.7444L187.653 48.0717L188.663 47.7355L189.672 46.7265V45.3812L189.335 43.6996V42.018L190.344 40.3363L191.353 40H192.699L193.708 40.3363L194.717 41.009H197.408L199.09 40.6727L200.771 41.009L203.126 43.0269L204.471 44.7085V47.0628V49.0808V51.435L205.144 53.4529L206.153 55.1345L207.499 56.8161L208.508 58.4978L207.499 59.843L206.49 61.1884L206.153 62.1973L207.835 62.87H208.844H209.853L211.198 62.5337H212.208L213.217 62.87L214.562 63.2063L215.908 63.5426L217.253 63.8789L219.271 64.8879L220.953 67.5785L221.962 70.6054V72.9597V73.6323L221.626 73.9686L221.289 74.305L220.617 74.6413L219.607 76.3229L218.598 78.3408L217.253 80.3587L215.908 81.704L214.226 82.0404L212.88 81.3678L211.871 80.0224L210.862 78.3408L209.18 76.9955L208.171 77.3319L207.162 78.3408L205.817 79.6862L204.471 80.0224L203.126 79.6862H201.78L200.771 80.6951L201.444 82.3767L202.117 84.0583V85.7399L201.78 87.4215V88.4305L202.117 89.1032L202.453 89.7758L202.789 90.4484L202.453 91.4575L202.117 92.8027L201.444 93.8117L200.771 95.1569L201.444 96.8385L202.789 98.1839L204.808 98.8565L206.153 99.8655H206.826L207.162 100.538L207.499 100.874L207.835 101.211V101.547H208.171V101.883V102.22L208.844 103.901L209.517 105.583L210.526 106.592H212.208H212.544L212.88 106.256H213.217L215.908 105.247L217.589 105.583L218.262 107.601L218.598 110.291V111.3L218.935 111.637L219.271 112.309L219.944 112.646H220.28H220.617H220.953L221.626 112.309L222.299 111.973L222.971 111.3L223.644 110.964L224.653 109.955L225.662 108.61L226.671 107.601L227.344 106.256L228.689 104.574L229.698 102.22L230.708 100.538L232.726 99.1928H233.398H233.735H234.071H234.407L237.098 98.1839L239.117 98.5202L241.135 99.5292L243.825 101.547L245.171 102.556L246.853 103.901L248.535 104.91L250.553 105.583L251.225 106.256L252.234 106.592L252.907 106.928L253.916 107.265L257.616 108.61L261.316 109.955L262.998 112.309L261.316 116.682L259.971 118.027L258.625 119.372L257.28 120.717L256.271 122.063L255.262 123.072L254.589 123.744L253.916 124.753L253.243 125.762L251.562 127.108L250.216 128.789L248.871 130.807L247.862 132.825L247.526 133.161V133.498L247.189 133.834L246.853 134.17L246.516 134.843L246.18 135.516V136.188V136.861V137.87V138.543V139.552L246.516 140.224L246.853 144.596L246.516 150.65L244.834 156.368L241.807 159.395H240.126L239.117 161.076L238.444 163.767V165.785V166.121V166.457V166.794L238.107 168.475L239.117 169.484L240.462 170.157L241.807 171.166V171.839L241.471 172.848V173.857L241.807 174.529L242.48 174.865L243.153 175.202L243.489 175.874L244.162 176.211L245.171 178.229L244.162 179.91L242.48 180.919L240.462 181.256L239.117 180.919L237.435 181.256L236.762 181.928L237.435 183.61L238.78 184.282H240.126H241.807L243.153 184.619L243.825 185.292L244.162 186.3L244.834 186.973L245.507 187.646L246.516 187.309L247.862 186.973L248.871 186.3L249.88 186.637L251.562 188.318L252.907 190.673L254.253 192.691L255.935 193.7H256.271H256.607H257.28L257.616 194.036L259.971 194.372L262.662 195.718L265.353 196.39L267.371 196.054V195.718H267.707L269.052 195.045L270.398 194.709L271.407 195.045L272.753 195.381L274.098 196.054L275.443 196.39L276.789 197.399L277.798 198.072V198.744V199.417L277.125 199.753L276.789 200.426L276.116 200.762L275.443 201.435L275.107 201.771L274.771 202.444L274.098 203.117L273.762 203.453L273.425 204.126L273.089 204.462L272.416 205.135L271.743 205.807L271.071 206.143H270.398H270.061H269.725H269.389L269.052 205.807L268.043 206.143L267.371 206.48L267.034 207.152L266.698 208.161L265.689 209.17L263.671 208.834L261.652 207.825L259.971 207.489L258.625 208.161L257.616 208.834L256.271 209.507L254.925 210.179H253.916L252.571 210.516H251.562L250.553 210.852L249.88 213.543V216.569L250.553 219.933L251.225 222.287L251.562 223.296L251.898 224.641L252.234 225.65V226.996V227.332V228.004V228.341V228.677V229.013V229.35V229.686H252.571V230.359V230.695V231.031V231.368L252.907 232.713L253.58 233.722L253.916 235.067L254.253 236.076V238.43L253.58 239.103L251.898 239.44L249.88 240.112L248.871 240.785L248.198 241.794L247.862 243.139L247.189 244.148L246.516 244.821L245.844 245.493L245.171 245.83L244.498 246.502H244.162V246.839L243.153 249.529L243.489 252.556L244.498 255.919L245.507 258.61L246.18 259.619L246.853 260.291L247.526 261.3L248.198 261.637L250.216 262.309L251.562 261.973L253.243 261.3L254.589 260.628H255.935L256.944 261.3L257.953 261.973H258.962L259.971 262.309H260.98L261.989 262.646L262.998 262.982V263.318L263.334 263.655L263.671 264.327L264.007 265V266.009V266.682L264.344 268.7L265.689 270.381L266.698 271.39L267.371 273.072L266.698 274.753L265.689 276.435L265.353 278.453L266.362 279.798L267.707 280.134H269.052L270.734 279.798L272.08 280.471L273.425 280.134L274.771 279.126L276.116 277.78L277.125 277.108L278.47 276.435H279.816L281.162 276.099L282.507 275.762L284.861 275.09L287.216 274.417L289.571 274.081L292.261 273.408H292.598H292.934L295.288 273.072L296.298 275.09V278.117L296.634 280.471L297.98 282.489L299.661 284.17L301.343 285.852L302.352 287.534L302.016 289.552L301.343 291.233L300.334 292.915L299.325 294.596L298.316 296.951L297.643 298.632L296.298 300.314L294.616 301.659L293.943 301.995L293.27 302.332L292.598 302.668L291.925 303.004L290.58 303.341L288.898 303.677L287.552 304.35L286.207 305.359L285.87 305.695L285.534 306.031L285.198 306.368L284.861 306.704L284.525 307.377L284.189 307.713L283.516 308.049L283.18 308.722L282.843 309.058L282.171 309.731L281.834 310.404L281.498 311.076H281.162V311.413H280.825L280.489 312.421L280.152 313.094L279.816 313.767L279.143 314.439L276.452 316.794H273.425L270.398 315.785L267.034 314.776H266.698H266.362L264.68 314.439L262.998 313.767L261.652 313.094L259.971 312.085L257.953 311.413L255.935 311.076L253.916 311.413L251.898 312.085H251.562H251.225L250.889 312.421L245.844 314.439L241.807 317.803L238.444 322.175L236.089 327.556L235.753 328.901L234.744 330.247L233.735 330.919L232.389 331.256H231.044L229.698 330.583L228.353 329.91L227.68 328.565L227.007 327.556L225.998 326.211L225.326 325.202L224.653 324.193L224.317 322.511V320.83V319.484L223.308 318.475L222.635 317.803L221.626 317.466L220.953 316.794L219.944 316.121L218.598 315.112L216.917 314.439L215.235 313.431L214.226 311.749L213.89 308.722L214.899 304.35L216.58 299.978L217.589 296.614V292.578L214.562 293.924L211.198 296.951L208.508 297.623L207.162 297.287L206.153 298.632L205.144 300.314L204.135 301.995L203.126 303.677L202.117 305.359L201.444 307.04L200.435 308.722L199.762 310.067L199.09 311.076L198.417 312.421L197.744 313.431L197.072 315.112L197.408 317.13L198.417 318.475L200.099 319.484L200.435 319.821L200.771 320.157H201.108L202.117 321.166L203.126 322.511L203.799 323.52L204.808 324.865V325.874L205.144 326.883V327.556L205.481 328.565L204.808 329.91L204.135 330.583L203.126 331.592L202.117 332.265L201.108 333.274L200.099 334.282L199.09 334.955L198.081 335.628L196.735 336.3L195.726 336.637L194.38 337.309L193.371 337.646H191.69L190.681 336.973L190.008 335.628L189.672 333.946L189.335 333.274V332.601L188.999 331.928V331.256V329.91L188.663 328.229L188.326 326.883L187.653 325.874L186.644 325.538H185.635L184.29 325.874L183.281 326.211H182.608L181.599 326.547H180.926L179.917 326.883H178.908H178.235H177.226H176.217H174.535H173.19L171.508 326.547H169.826H169.153H168.144H167.472H166.463H165.117L163.772 326.883L162.763 327.556L162.09 328.565L160.744 331.928L158.726 335.292L156.036 337.982L152.672 338.318L151.999 337.982L150.99 337.646L150.317 337.309L149.645 336.973L149.308 337.309L148.636 337.646L148.299 337.982L147.963 338.655L147.29 338.991L146.954 339.327L146.281 339.664L145.945 340L144.599 338.655L143.254 337.309L141.908 335.628L140.563 334.282L139.218 333.274L138.209 332.937H137.199L135.517 333.274L132.49 333.946L129.127 334.282L125.763 333.946L122.736 333.274H122.063L121.054 332.937L120.045 332.265L119.372 331.928L117.354 331.592L115.336 331.256L113.318 330.583L111.3 330.247L106.927 328.229L103.227 325.874L100.872 322.175L99.5271 317.466L98.5179 316.794L96.1635 316.457L93.809 316.121L92.1272 315.785L90.7816 315.112L90.1089 313.431L89.7726 311.413V309.395L88.4271 308.722L87.418 309.731L86.0727 310.404L84.3909 309.395L83.3817 308.386L82.7091 307.04V306.031V304.35L82.0364 304.686H81.3636L80.6908 305.022H80.0181V303.677L79.3455 302.332L79.009 301.323L78.3363 299.978V298.296V296.614V295.269L78 293.587L80.3546 291.906L82.3726 290.897L84.3909 289.888L87.0818 289.215L88.7636 288.206L89.4363 286.525L89.7726 284.843L91.1181 283.498H91.4544L92.7999 283.161L93.4725 282.152L93.809 281.144L94.818 280.471L95.827 279.798L97.1726 279.462H98.5179L99.8634 279.126L101.545 278.789L103.227 279.462L104.909 280.471L106.591 281.48L108.272 283.161L110.29 285.179L112.309 286.188L113.991 285.852L114.327 284.507L113.991 282.489L113.318 280.471L112.982 278.789L112.309 276.771L111.636 274.081L110.627 271.726L109.618 270.045L109.281 269.709V269.372L108.945 269.036L108.609 267.354V266.009L108.272 264.327L107.6 262.982V261.973L107.263 260.964V259.955L106.927 258.946L108.945 259.283L110.963 259.619H112.645H114.663L115 259.283L115.336 258.61V258.273V257.601L114.663 256.256L113.991 254.91L113.318 253.565L112.309 252.22H111.972V251.883L111.636 251.547L111.3 251.211L110.963 250.874L110.627 250.202V249.529L110.963 248.856V248.52V248.184V247.848L110.29 247.511L109.618 247.175L109.281 246.839L108.609 246.502L109.954 244.821L111.3 243.139L112.645 241.457L114.327 239.776L116.009 238.43L115.336 237.085L114.327 235.404L113.991 233.386L115 232.713L115.672 233.049H116.345L116.681 231.368V229.686V228.341L117.018 226.659V224.978V224.641L117.354 224.305V223.969V223.632L117.69 222.623V221.614L117.354 220.942L116.681 220.269L116.345 218.924V217.579V215.897V214.888V213.879L116.681 212.87V211.861V211.188V210.179L117.018 209.17L117.69 208.498L118.363 208.161V206.816L118.027 205.471V204.126L117.69 202.78V201.435L117.354 200.09L117.018 198.744L116.681 197.399V197.063V196.726V196.39L116.009 193.7L115 190.673L114.663 187.646L115.336 184.955L115.672 183.61L116.009 182.265L116.681 181.256L117.69 180.247L120.381 180.919L123.409 181.928L126.436 182.601L129.127 182.265L130.809 181.256L131.818 180.919L132.827 181.256L134.508 182.601L134.845 182.937V183.274V183.61V183.946V185.292L135.517 186.637L135.854 187.646L136.527 188.655L137.199 190L137.536 191.009V192.354L138.545 193.027H138.881L139.218 193.363H139.554L140.899 194.709L142.245 196.054L143.254 197.399L143.926 199.081L144.263 199.753L144.599 200.426L144.936 201.435L145.272 202.108L145.608 202.78L145.945 203.453L146.281 204.126L146.954 204.462L147.627 205.135L148.299 205.807L148.972 206.143L149.981 206.48V206.816H150.317L150.654 207.152L151.326 207.489L151.663 207.825L151.999 208.161H152.335V208.498L152.672 208.834L153.008 209.17L153.345 209.507H153.681L154.017 209.843L154.69 210.179V210.516L155.027 210.852L155.363 211.188L155.699 211.525L156.372 212.534L157.045 213.543L157.717 214.888L158.726 215.897L160.744 216.569L162.763 215.897L164.781 214.888L166.799 214.552L169.153 213.543L171.172 211.188L172.854 208.498L174.535 206.143H175.544L176.217 206.48L177.226 206.816L177.899 207.489H178.235H178.572L178.908 207.825H179.244L179.581 208.161L180.254 208.498H180.926L181.599 208.834L181.935 209.17L184.29 210.179L186.308 211.188L188.663 211.525L190.681 210.516L191.353 209.843L192.362 208.834L193.035 208.161L193.708 207.489L194.38 205.807L193.035 204.126L191.69 202.444L190.681 200.426V200.09L191.353 199.081L192.362 198.408L193.371 197.735L194.38 197.399L194.717 197.063L195.39 196.39L195.726 196.054L196.062 195.718L198.417 196.39L201.108 197.063L203.799 197.399L205.481 196.054L205.817 196.39V196.726H206.153V197.063L208.508 198.408H211.535L214.226 197.063L216.244 194.709L216.917 192.018L215.908 190L214.226 189.327L211.535 189.664L210.189 189.327L209.18 188.318L208.171 187.646L207.162 186.637L206.153 185.292L205.144 183.946L203.799 182.601L202.789 181.592L201.108 180.583H199.426L197.744 181.256L196.062 182.265L194.38 182.937L193.708 181.592L193.371 179.574L192.699 178.229H192.026L191.353 177.892L191.017 177.22V176.211L191.353 175.202L192.026 174.865H193.035L194.044 174.529L194.717 171.839L191.69 170.157L187.99 169.148L185.299 168.139L183.617 166.794L182.608 165.112L181.263 163.767L179.581 163.094L177.562 162.758L176.217 162.421L175.544 161.413L176.553 159.731L176.89 156.704L175.208 153.677L173.526 152.668L172.517 154.013V156.031L172.854 157.04L172.517 158.049L170.835 158.722H169.49H168.144H167.135L165.79 158.386L163.099 155.022L160.744 150.987L158.39 146.614L156.036 142.915L155.363 140.561L155.699 138.206L157.045 135.852L158.726 133.498L159.063 133.161V132.825L159.399 132.489L159.735 132.152L160.408 131.144L161.081 130.135L162.09 128.789L162.763 127.78L163.436 124.753L164.445 122.063L165.79 119.709L168.144 118.027L169.826 116.009V114.327L168.817 112.646L167.808 110.964V109.955V108.946V108.274V107.265L166.463 103.229L164.108 102.22L160.744 102.556L157.381 104.238H156.372H155.699L155.027 103.565L154.69 102.892L153.681 102.22L153.008 101.211V100.202L153.681 99.1928L154.354 97.5112L154.69 95.4933L155.363 93.8117L156.708 92.4664H157.045H157.381H157.717L158.39 92.13H159.735L161.417 91.7937H163.099L164.108 91.1211L164.781 89.7758L165.79 88.4305L166.463 87.4215L167.135 86.0763L168.144 84.3947L170.163 83.0494L172.517 82.0404L174.535 81.0314L174.872 80.3587L175.544 79.6862L176.217 79.0135L176.553 78.3408L177.226 77.6682L177.899 76.9955L178.572 76.3229L179.244 75.3139L179.581 74.9776Z" fill="#6F9C76"/>
</svg>
