<svg width="380" height="380" viewBox="0 0 380 380" fill="none" xmlns="http://www.w3.org/2000/svg">
<path d="M138.151 340L134.15 338.286L131.293 336L129.578 332.571V328V326.857V325.714V324.571V323.429V313.714L126.149 304L119.863 295.428L111.862 291.429L110.719 290.286L108.433 289.714L106.719 289.143L105.004 288.571L103.29 284.571L100.432 282.857L97.0034 281.143L95.289 277.143L93.5746 272.571L90.7171 269.143L87.288 265.714L83.8592 261.714L83.2875 261.143L82.7161 260L82.1448 259.429L81.5731 258.857L79.2873 252.571L78.7156 246.857V240.571L78.1442 233.714L76.4298 230.857L74.1437 227.429L72.4293 224L70.1432 221.143L66.7144 213.714L65 206.857L65.5714 199.429L69.0002 192L70.7149 189.143L71.8576 186.857L73.0007 184L73.5724 181.143V177.714L74.1437 174.857L74.7151 172L77.0012 169.714L78.7156 166.286L81.0017 162.286L83.2875 159.429L86.7166 158.857L89.0024 162.286L89.5741 165.714L90.7171 169.143L95.8603 170.857L99.2895 171.429L102.147 172H105.576L109.005 170.857L111.291 169.143L114.148 166.857L117.006 165.714H119.863L120.434 166.286H121.006L121.577 166.857L123.864 169.714L126.149 173.143L128.435 174.857H131.864L133.579 174.286L134.722 172.571L135.293 170.857L136.436 169.714L138.151 169.143H139.865L141.008 168.571L142.723 166.857L144.437 163.429L145.009 159.429L145.58 154.857V150.857L146.152 144.571L146.723 138.286L147.866 132L150.152 125.714L152.438 122.286L156.439 120L161.011 118.286H165.011L167.869 118.857L170.154 119.429L172.44 120.571L174.726 122.857L177.584 125.714L182.156 126.857L186.728 125.714L191.3 124.571L193.586 123.429L194.157 121.714L194.728 120L195.871 118.286L197.586 117.143L199.301 116L201.586 115.428L203.301 114.286L205.587 112.571L206.73 110.286L206.158 108L204.444 106.286L199.872 105.714L195.3 105.143L192.443 102.286L191.871 97.1429L192.443 94.8572L193.014 93.1428V92L192.443 89.1429L191.871 86.857V84.5714L193.014 82.2857V80L194.728 74.8572L197.014 69.7142L199.872 65.1428L204.444 63.4286L206.73 64.5714L209.016 65.7143L211.302 66.857L212.445 68.5714L213.588 70.2856L214.731 70.8571L215.874 71.4286L217.017 72.5713L218.16 74.2857L218.731 76.5714L219.874 78.8571L221.589 80L222.732 80.5715L224.446 82.2857L225.589 83.4286L227.303 84.5714H229.018L230.161 83.9999L230.733 83.4286L232.447 82.8571H235.876H240.448L244.448 82.2857L246.734 78.8571H247.877L249.02 78.2856H250.163L251.878 77.7143L253.592 77.1429L255.878 77.7143H258.164H259.879L261.022 76.5714L261.593 75.4285L262.736 74.2857L263.307 73.1428L263.879 72L264.45 70.2856L265.593 69.1429L266.737 68L267.308 66.2857L267.88 63.9999V61.7142L269.022 60L270.165 59.4285L270.737 58.8571H271.88L272.451 59.4285L274.737 60.5715H275.88L277.023 60L278.738 58.8571L280.452 57.1429V55.4285V53.7143V52L283.31 49.1429L287.31 46.857L290.168 43.9999V40V41.1428L290.739 41.7142V42.8571L291.311 43.4286L292.454 48L293.597 52L294.739 56.5714L295.882 60.5715L297.597 65.1428L298.74 69.7142L300.454 74.2857L302.74 78.2856L303.883 80.5715L305.027 83.9999L306.169 86.857L306.741 89.1429L306.169 92.5713L305.598 95.9999L305.027 99.4285L303.883 102.857L307.312 102.286L310.17 102.857L313.027 104.571L315.313 106.857V107.429V109.143V110.286V111.429V114.857V118.857L315.885 122.857H314.17L311.884 122.286H310.17L309.027 123.429L307.884 124H306.741L302.74 123.429L297.597 125.714L290.168 132L285.024 133.143L282.167 131.429L276.452 128H273.023L271.308 128.571L269.022 132L267.308 133.143L263.879 133.714L262.736 134.286L260.45 137.143V139.429L264.45 146.286V149.143L263.307 151.429L259.879 156.571L258.735 159.429L258.164 165.714L257.021 169.143L255.878 170.857L254.164 172L245.02 177.714L241.591 182.857L239.876 188.571L237.019 200V201.714L237.59 205.714L238.733 208.571L240.448 211.429L241.591 212L242.162 213.143L239.876 213.714L237.59 214.857L236.448 216L234.733 217.143L233.59 217.714H232.447L231.304 218.286L230.161 218.857L229.59 220L229.018 221.143L228.446 222.286L227.875 223.429L226.732 222.857L226.16 222.286H225.589L224.446 221.714L223.303 222.857L222.16 224L221.589 225.714L220.445 227.429L219.303 229.143L217.017 230.857H214.159L211.873 230.286L211.302 230.857V231.429L205.587 232L199.301 234.286L193.586 237.143L187.871 239.429V240L188.442 241.143V242.286V242.857L187.871 246.857L187.299 250.857L186.728 254.857L186.156 258.857L185.585 262.857L185.013 266.857L184.442 270.857L183.87 274.857L180.441 277.143L176.441 280L172.44 282.286L169.011 284.571L170.726 287.429L173.012 290.286L174.726 292.571L177.012 295.428L172.44 296L169.011 297.143L166.725 298.857L163.296 302.857L161.582 305.143L159.867 307.429L158.153 309.714L156.439 312L153.581 316L151.295 320L149.009 324L146.152 327.429H145.58L145.009 328V328.571L144.437 329.143L142.723 331.429L141.58 334.286L139.865 337.143L138.151 340Z" fill="#6F9C76"/>
</svg>
