<svg width="380" height="380" viewBox="0 0 380 380" fill="none" xmlns="http://www.w3.org/2000/svg">
<path d="M107.265 335L106.739 328.421L107.529 327.368L114.108 319.474L115.687 315V310L115.161 304.211L113.845 297.105L114.108 295.526L114.898 293.684L115.161 291.842L113.845 291.316L112.792 290.79L113.056 289.474L113.845 288.158L113.319 284.211L110.687 280.789L110.161 276.053L112.529 260.263L112.266 254.474L115.687 250.789L116.74 248.684V246.053L117.003 244.737L116.74 238.947L117.267 233.947L115.687 228.158L108.318 218.947L99.1067 210.79L94.3694 207.368L90.1583 203.947L87 199.211L88.5792 196.316L89.6319 193.421L90.4216 190.79L90.6847 188.421L90.4216 185.79L92.527 184.737L94.8956 185L103.055 183.947L105.16 181.842L107.002 179.737L111.74 178.158L114.108 176.579L122.53 176.316L123.846 176.053L125.162 175.263L125.952 174.474L130.426 170L132.531 171.053L134.111 172.632L134.9 171.316L134.374 169.737L135.953 167.632L140.427 164.737L142.796 163.684L145.164 162.105L147.533 161.053L151.744 160.263L155.955 157.632L160.429 156.316L163.851 152.368L165.693 147.105L167.798 145.526L170.167 145.79L171.746 147.632L172.536 150H174.378V147.105L173.325 143.684L174.641 141.053L176.22 138.684L177.536 136.316L179.379 134.737L181.747 134.211L183.853 135.79L185.958 136.842L188.327 136.053L192.801 136.316L194.907 135.526L201.223 132.105L207.54 126.579L209.908 125L213.856 121.842L218.593 118.947L220.962 114.211L222.015 111.316L223.594 108.684L224.121 106.053L224.384 103.421L229.121 94.2105L228.858 89.2106L225.436 81.579V78.4211L226.489 73.4211L229.647 68.9474L229.911 66.3158L228.858 51.0527V50H230.963H231.49L231.753 50.5263L232.279 51.0527L232.806 51.579H233.595L233.069 52.1053H232.806H232.279L232.016 51.579H231.49L232.279 52.6316H233.595L237.017 52.3685H238.596L243.07 53.9474L247.544 53.6842L248.86 54.2106L250.176 54.7369H251.492L257.019 52.3685L257.808 51.579L258.861 50L259.387 49.2105L259.651 48.4211V47.6316L259.124 47.1053V46.3159V45.7895L259.387 45.2632L259.124 45.0001L258.072 44.4737H256.229L254.387 45.0001L252.808 45.7895L251.492 47.1053L250.176 47.6316L248.334 47.8947L246.491 47.3685L244.912 46.8421L244.386 47.3685L244.123 46.0527V45.5263L242.807 46.3159L240.964 47.8947L239.385 48.4211V48.6843H239.648L239.912 48.9474L239.122 49.2105L238.596 48.9474L238.333 48.4211V47.3685L240.701 45.2632L241.491 44.4737L242.017 43.9474H242.544H244.386L246.755 44.4737L247.281 44.7369L248.86 45.0001L250.966 44.4737L259.387 40.2632L261.23 40L266.23 41.8421L267.546 42.6316L269.652 44.7369L273.6 50.5263L274.126 51.3158L274.652 52.1053L274.916 52.8948L275.179 54.4737L275.705 55L276.495 55.2632L277.284 55.5264L277.547 54.4737H278.074L279.653 55H281.758L282.548 55.5264L283.601 59.4737L283.864 60.5264L283.601 61.8422L283.074 63.9474L282.811 64.7369V68.6843L283.601 73.9474L285.443 77.6316L289.128 77.3685L288.864 78.1579L288.601 78.4211L288.338 78.9474L286.759 82.6316L286.233 83.158L285.443 85.2632V85.7895L285.969 86.579V87.1053V87.6316H285.706H285.18L284.917 87.8948L284.39 88.1579L283.338 88.6842L282.811 88.9474L282.548 89.4737L282.285 90.2632V91.8421L282.022 92.8948L280.706 97.1053L278.863 101.579V102.368L273.863 109.737L266.757 117.895L265.178 120.526L264.388 121.316L260.177 123.947L259.124 125.263L255.966 127.105L251.755 131.579L242.807 145L242.017 147.632L240.964 147.895L240.438 148.421V148.947L240.964 149.737L238.596 151.316L237.017 153.421L235.964 155.789L234.385 162.105L233.858 165.79L234.122 172.368L234.648 174.211L236.49 177.632L236.753 179.211V180L235.964 182.895L235.701 183.421H235.174L234.648 183.947L233.595 187.632L233.332 188.421L233.069 185.263V184.211L233.332 183.947H234.122L234.648 183.421L235.438 183.158L235.701 182.368L235.964 181.316V178.158L234.648 176.842L234.385 176.053L234.122 175L233.858 174.211L233.332 173.947L232.806 174.211L232.543 175L232.806 175.526L233.332 176.053L233.595 176.842L233.858 179.211V180.526L233.595 181.316L234.122 180.789L234.385 180.526L235.174 180L232.016 185L231.227 185.526L230.963 185.79L230.437 186.579L229.911 187.105L229.384 186.842L228.595 186.316L228.068 185.79L227.542 186.053L226.752 187.368H225.7L224.121 189.474L222.805 192.368L222.015 194.737L220.699 197.105L219.909 199.737L219.12 200.526H218.067L218.857 200L219.646 198.947L220.173 197.632L219.646 196.579L218.857 196.842H214.909L214.119 196.579L213.593 197.632L213.33 199.211V200.789V202.105L214.383 203.158L216.488 204.737V205.526L217.278 205.789L217.804 206.053H218.857L219.646 205.789L219.12 207.105L218.857 209.474L218.593 210.79H220.173L220.962 210L221.752 208.684L222.805 207.632L223.594 207.105L225.7 206.316L226.752 205.789L228.858 206.579L230.7 207.632H230.963L231.49 207.368L231.753 206.842V206.316L232.016 205.789H232.806L233.332 206.316L233.595 206.579L234.122 205.789L234.385 206.053L234.648 206.316H234.911L235.174 206.579L234.122 207.105V207.632L236.227 207.105L237.28 205.526V203.947L236.227 203.684L236.753 204.474V205.263L235.964 205.526H233.595L231.49 205L230.7 204.737L229.647 204.211H230.963L235.701 205V204.211V203.947L236.227 201.842V200.526L237.806 203.421L238.333 205L238.069 205.789L237.543 206.579L236.753 212.105L235.964 213.421L234.911 215L233.595 216.053L232.279 216.316L231.753 216.579L229.647 218.947L229.121 219.211L226.489 219.737L227.805 219.211L228.331 218.421L228.595 217.368L228.858 216.316L226.226 217.105L222.805 218.947L219.909 221.579L219.12 224.737H219.646L220.173 222.895H220.699L219.909 224.211L218.857 225.526L218.33 226.579L219.646 226.842L218.067 230.263L217.541 232.105L218.33 232.895L219.646 233.158L220.436 233.684H221.225L222.805 232.368L224.647 230L225.436 228.421L225.963 227.105L226.752 226.053L228.595 225.526L232.016 225.263L230.437 228.421L231.49 227.632L232.279 226.579L233.069 225.789H234.648V226.316L233.069 227.105L232.016 228.158L229.911 231.053L229.121 233.158L228.331 237.368L227.542 238.947L228.068 240.79L227.016 243.158L225.436 247.105L223.594 249.737L222.278 260.263L219.383 270L218.067 272.105L216.488 274.474L214.909 276.842L213.856 279.737L213.33 283.158L213.856 286.579L213.593 288.421L212.804 290L212.277 291.316L212.014 296.842L211.224 298.684L207.54 304.211L207.276 305.263L207.013 306.579L205.961 308.947L205.697 310.263V315.263H205.171L204.908 313.158L204.645 311.579L203.329 313.158L202.539 312.632L202.276 311.579L202.802 311.053L203.592 310.263L203.855 308.158L204.118 306.053V305L203.855 305.789L203.592 306.579L203.066 307.368L202.539 307.895L202.276 306.842L202.539 306.053L202.802 305.263L203.066 303.947H202.802L201.75 302.632V302.105V301.579V300.789L201.486 300L199.381 299.737L199.118 299.474L198.854 299.211V298.421L199.381 297.895H199.644L199.118 296.579L198.854 295.79L198.065 295.263H196.749L194.644 294.737L190.696 292.368L188.853 291.842L188.064 291.316L187.801 290L188.064 288.947V288.421L190.696 285.263L190.169 283.684L190.959 281.842L192.012 280.263L192.801 278.947V278.421L193.591 277.105L193.854 276.053H193.591L193.328 275.526L192.801 275.263V274.737V274.211L193.064 273.684L193.328 273.421L193.591 270V268.421L193.064 267.105L192.275 265.79L191.749 264.474L191.222 261.316L189.38 262.895L187.537 264.737L186.222 267.105L185.432 269.211V270.526L184.906 271.842L184.379 272.895L183.59 273.421L183.063 272.895L183.327 271.316L183.853 269.737L183.59 270.263L182.8 271.316L181.484 271.579L179.642 271.842L178.852 272.105L175.694 275L175.168 275.526L174.905 276.316L174.641 277.105L176.22 276.579L177.536 275.263L178.852 273.684L179.905 272.105L180.431 273.684L179.905 274.737L179.379 275.789V277.105L179.642 276.579L180.431 275.789L180.958 275.263L181.747 275L182.537 275.526L182.011 276.053L181.221 276.579H180.958L179.115 280.526L177.273 282.895L175.168 286.842L174.905 287.895L173.325 290.526L172.536 291.842L171.746 292.105L171.22 292.368L170.957 292.632H170.694H165.956L165.43 292.895L164.903 293.158H164.377L163.851 292.895L163.061 292.105H162.798H162.272L161.482 292.632L159.903 293.158H159.113L158.587 292.895L157.797 292.632L157.008 292.368L154.639 294.211L154.113 295L153.586 295.79L153.323 298.158L152.534 300L152.27 302.105L152.007 302.895L151.218 304.474L148.849 307.105L148.059 308.421L147.796 309.737L147.533 311.053V311.316L147.27 312.368L146.48 313.421L145.691 314.211L143.585 315.263L141.217 316.842L141.743 317.105V318.158V319.211L139.637 322.368V323.158L139.374 324.737L139.111 325.789L138.321 326.842L137.532 327.632L136.479 328.158L135.163 329.211L134.9 329.737L133.847 332.895L133.058 333.684L129.373 336.842L128.847 337.368L128.584 338.947L128.057 339.737L127.531 340L124.373 338.158L123.583 337.368L122.53 335H121.741H120.951H119.898L118.582 333.947L117.53 332.895L116.214 331.579L114.635 331.053L108.318 333.421L107.265 335ZM244.386 288.684L244.649 287.895L244.912 287.368L245.439 286.579L245.965 285.79L244.649 288.684L245.175 292.105L244.123 295L241.228 298.947H240.964L241.228 298.421L242.544 296.842L243.07 295.79L243.596 295L244.123 292.895L244.386 288.684ZM249.123 272.105L250.176 273.421L250.702 277.105V279.211L249.65 281.053L249.913 278.684L249.123 272.105ZM288.601 123.421V123.158H289.128L289.391 123.421V123.947V124.211L288.601 125.526L285.706 130.263L284.917 132.895L283.601 134.211L281.232 136.053L280.442 137.368L278.6 141.053L278.074 142.368L277.811 142.632L277.021 143.158L276.495 143.684L276.232 144.474L275.705 145L275.179 146.053L270.968 149.737L269.915 150.263L269.389 149.474L269.125 147.895L268.073 144.474L267.809 142.632L268.073 139.211L268.862 136.053L272.021 130.526L274.389 127.105L274.916 126.842L275.968 125.789L276.758 125.526H277.284L277.811 125.789L278.074 126.053H278.337L279.126 126.316L281.232 127.105H281.758L282.811 126.842L284.39 125.789L285.443 126.053L286.759 125.526L288.075 124.737L288.601 123.421ZM292.023 74.4737L290.707 73.4211L289.128 70.7895L288.338 68.4211L289.128 67.3685L289.391 68.9474L290.18 70.7895L292.023 74.4737Z" fill="#6F9C76"/>
</svg>
