<svg width="380" height="380" viewBox="0 0 380 380" fill="none" xmlns="http://www.w3.org/2000/svg">
<path d="M106.684 148.271L107.504 148.681L108.735 150.321L109.35 150.936L108.325 151.757L106.479 150.731L104.428 149.501L102.788 148.681H102.377L101.762 148.476L101.352 148.271H100.737H97.2504L96.4301 147.861L96.0199 147.04H102.582L103.813 147.245L106.684 148.271ZM88.637 89.0089L89.2522 87.9836L89.6624 87.5735L89.8675 87.3684L90.2776 87.1634L90.6878 86.7532L96.6351 82.242L102.582 77.5256L108.325 72.8093L114.067 67.8879L116.938 65.4272L120.014 62.9665L122.885 60.5058L125.757 58.0451L126.167 57.2249L126.372 55.7895V54.149V52.9187L126.782 51.2782L127.192 49.6378L127.807 47.9973L128.218 46.3568L129.858 44.9214L131.089 43.2809L132.524 41.6405L133.755 40L134.37 41.2304L135.806 41.6405H137.241L138.677 41.4354L139.907 41.6405L140.727 42.2557L141.548 43.2809L142.163 44.5113L144.009 46.972L146.88 48.4074L150.161 49.0226L153.032 49.6378L154.468 50.2529L154.878 51.6883V53.5338V55.1743L155.698 57.2249L157.134 59.2755L158.364 61.121L159.595 62.9665L160.825 64.4019L162.056 65.8373L163.286 67.0677L164.312 68.298L165.337 71.3739L165.952 75.27L166.158 79.3712L166.568 82.8572L166.978 85.933L167.183 88.8038L167.593 91.8797L168.003 94.7505L168.413 96.596L168.824 97.6213L169.849 98.0314L171.695 98.4416H172.31L172.925 98.6466L173.54 98.8517H174.156L178.257 99.6719L182.154 100.697L186.255 101.517L190.152 102.338L191.998 102.748L193.228 103.773L194.254 105.414L194.869 107.259L195.074 108.284L195.279 109.31L195.484 110.335L195.689 111.36L195.894 111.77V112.386L196.099 112.796V113.001L196.715 113.616L197.535 113.821L198.15 114.026L198.56 114.846L198.765 115.666L198.97 116.692L199.175 117.512V118.332L199.381 119.357L199.586 119.768L200.201 119.973L201.021 120.178L202.662 120.998L204.302 122.023L205.738 123.049L207.174 124.279L208.199 125.714L209.019 127.15L210.045 128.585L211.275 129.61L213.121 130.636L214.967 131.661L216.607 132.891L218.248 134.327L217.428 135.352L216.402 136.377L215.377 137.403L214.762 138.633L214.146 140.068L213.121 141.094L212.096 142.119L210.865 143.349L209.635 145.81L209.019 148.681L208.404 151.757L207.994 154.422L207.584 157.498L207.174 160.574V163.65L207.789 166.726L208.609 169.392L209.429 172.057L210.25 174.928L211.275 177.594L211.685 178.619L211.89 180.055L212.506 181.285L213.121 182.105L213.941 182.72L214.967 183.131L215.992 183.336L216.812 183.951L217.223 184.771L217.428 185.591V186.411V187.232L217.838 188.462L218.658 189.077L219.478 189.282L220.504 189.487H221.529H222.35L223.17 189.692L223.99 190.308L224.606 191.538L225.016 192.563L225.836 193.383L226.861 193.999L228.912 195.229L230.143 197.28L230.963 199.74L232.193 201.996L233.014 202.816L233.834 203.431L234.244 204.252L234.86 205.277L235.065 206.097L235.475 206.917L235.885 207.738L236.295 208.353L236.91 209.583L237.32 210.608L237.526 211.634V213.069V214.094V215.12L237.731 216.145L238.346 216.965L239.371 217.99L240.397 219.016L241.422 220.041L242.447 220.861L243.678 221.681L244.498 222.092L245.524 222.297L246.754 222.092H247.78H248.6H249.625L250.651 221.681L251.266 220.861L251.881 220.041L252.496 219.016L253.317 218.195L255.163 216.555L257.418 215.53L259.469 215.12L261.93 215.53L262.545 215.94L263.366 216.145L263.981 216.76L264.391 217.17L266.032 218.401L267.467 219.836L268.903 221.066L270.338 222.502L271.364 223.937L272.184 225.783L273.005 227.833L273.62 229.474L274.235 231.114L274.85 232.755L275.671 234.395L276.491 236.036L277.516 237.061L278.747 237.471L280.182 237.061L281.618 236.651L281.003 238.701L280.182 240.752L279.157 242.597L278.337 244.648L278.132 247.109V249.569L278.542 252.235L278.952 254.696L279.157 255.926V256.951L279.362 257.977L279.567 259.207L279.772 260.232L280.387 261.258L281.003 262.283L281.413 263.513L281.823 264.949L282.028 266.384L282.643 267.614L283.669 268.64L284.489 269.05L285.514 269.255L286.335 269.46L287.36 269.665L287.565 271.1L288.591 272.331L289.616 273.766L290.231 275.202L290.026 275.817L289.821 276.227V276.842L290.231 277.252L290.641 277.867L290.847 278.483V279.098L290.641 279.713L290.436 280.738L290.641 281.353L291.052 282.174L291.667 282.994L291.872 283.609V284.429L291.667 285.249L291.872 285.865L292.487 286.89L293.308 287.505L294.128 287.915L294.948 288.735L295.358 289.146V289.761L295.768 290.376L296.179 290.786L296.999 291.401L298.024 292.427L299.05 293.657L299.87 294.477L301.921 295.502L304.382 295.707L306.843 295.502L309.304 295.297V297.143V298.988V300.834L309.509 302.679H308.073L306.638 302.884L305.817 303.5L304.997 304.525L304.587 305.755V306.575L304.792 307.396L305.202 308.421L305.817 309.241L306.023 309.856L306.228 310.472L305.612 311.292L304.997 312.112L303.767 312.932L302.741 313.753L301.716 314.573L300.69 315.598L299.665 316.828L298.64 318.264L298.435 319.494V320.109L298.845 320.724L299.255 320.93L299.87 321.34L300.485 321.75L300.896 322.16L301.101 322.775L301.511 323.595L301.921 324.211L302.536 324.416L303.151 324.621L303.767 325.031V325.441L303.562 325.851L303.356 326.466V326.671L303.562 326.876L303.972 327.081L304.177 327.286H304.587L304.997 328.927L305.612 330.362L306.023 332.003L306.228 333.643V335.899L304.997 337.129L302.946 337.539L300.896 336.924L300.075 336.104L299.255 335.284L298.435 334.668L297.614 334.053L296.179 333.643L294.948 334.053L293.718 334.258L292.487 334.668L292.692 335.694L293.102 336.924L293.308 338.154V339.18L292.282 340L291.257 338.975L290.436 337.334L289.616 336.309L290.231 335.899L289.821 335.079L289.206 334.258L288.591 333.848L288.181 334.668H287.77L287.155 330.977L285.309 327.902L280.387 323.185L277.927 319.904L276.901 318.879L274.44 317.239L274.03 316.828L273.825 316.623L273.62 316.418L273.415 316.213L273.21 315.803L274.44 314.163H273.62L272.799 314.573L272.184 315.188L271.569 315.803L260.495 301.654L260.084 301.244L258.854 300.834L258.239 300.424L257.213 299.604L251.676 293.042L250.651 292.632L249.83 292.837L249.42 293.247L248.805 293.452L248.19 293.042L247.985 292.632L248.19 290.171L247.78 289.351L245.729 286.07L244.703 285.249V284.839L245.319 284.224V283.814L245.114 283.609L244.908 283.199L242.653 278.893L241.832 278.072L241.012 277.867L239.781 277.047L237.526 274.791L237.115 274.586L236.91 274.176L236.295 272.536L235.68 271.716L234.244 271.1L233.424 269.87L231.988 268.025L230.348 265.974L229.322 265.154L226.861 264.334L226.041 263.103L225.631 260.027L224.811 258.797L223.785 257.772L222.76 256.541L222.145 253.671L220.299 250.595L212.506 241.982L209.635 239.727L208.404 239.316L207.789 238.906L204.508 235.83L196.099 230.089L192.408 227.423L191.793 226.603L191.382 225.167L190.767 224.347L188.511 223.322L186.255 221.887L182.564 218.401L169.029 209.993L168.003 208.763L167.593 207.738V206.917H168.003L168.618 207.327L169.029 207.738V207.943L169.234 208.353V208.968V209.173L173.951 211.634L174.566 211.839L182.769 217.17L183.589 217.58L184.205 217.99L185.23 218.606L184.615 217.99L182.974 216.965L181.949 216.35L182.154 215.735L183.384 216.145L185.23 217.58L185.435 217.375L185.64 216.965V216.76H185.435H185.025H184.82L185.435 216.145L186.05 215.53L186.46 214.915V213.684L186.255 212.864L183.999 207.738L183.384 206.917L182.359 206.507H181.333L180.513 206.712L179.693 207.122L179.078 207.943L179.898 208.148L181.539 207.532L181.949 207.943L181.744 208.558L180.103 209.993L179.693 210.608L177.847 211.223L176.822 210.403L176.001 209.173L174.771 208.353L173.54 209.173H173.13H172.72L172.31 208.968L171.079 207.943L170.669 207.327V206.917L170.464 206.097L170.259 205.687L170.054 205.277L169.029 205.072L168.618 204.867L166.363 202.201L165.542 201.996L164.722 202.611L163.491 201.381L162.261 200.355L160.825 199.74L159.39 199.535L159.595 200.15L160.21 200.561L161.03 201.176L162.876 203.226L163.902 204.046L166.363 205.482L167.183 206.507L165.542 206.097L161.03 203.431L155.903 198.92L155.493 197.895L155.288 196.869L154.878 194.614L154.673 193.588L154.058 192.358L153.442 191.333L152.827 190.923L152.417 190.718L152.212 190.308V189.897L152.417 189.692H153.032L153.648 189.897L154.673 190.513L155.083 191.128L156.109 191.743H156.929L157.339 190.308L157.134 189.282L156.519 188.052L155.698 187.232L154.878 186.617L155.698 186.001V184.976L155.288 182.515L155.493 181.49L155.698 180.67L156.519 179.029L155.903 178.209L153.648 176.159L152.827 175.954V177.184L153.648 180.67V180.875L153.853 181.285V182.105L153.442 184.361L153.237 186.617L153.032 187.232L152.827 187.437H152.417H152.007L151.802 187.232L151.597 186.822L151.187 186.617L150.981 186.822L150.776 187.232L150.571 187.437L148.315 186.206L146.47 183.541L141.958 174.108L140.522 172.468L138.472 170.622L137.241 170.007L136.831 169.597L136.421 168.777H137.651L139.087 169.187L140.112 169.802L140.522 170.827L144.009 175.133L144.829 176.979V177.184H145.239H145.649L145.854 176.979L146.06 176.774L147.29 177.594L147.495 177.799L148.11 177.594V176.979V175.748L147.905 174.723H147.29L146.675 174.928L146.06 174.518V174.108L146.675 173.083L146.88 172.673L147.495 172.262L147.7 172.057L147.905 172.262L148.315 173.083L149.546 174.313L150.571 174.723L153.032 175.133L154.878 175.954L155.493 175.338L155.698 174.723L155.493 173.903L149.341 168.366L148.726 167.956H147.7L148.11 168.366V168.777L147.7 169.187H146.88H146.265L145.444 168.571L144.419 167.546L143.188 165.085L142.983 164.675L142.163 164.88L141.548 165.29L140.933 165.701L140.112 165.29L139.292 165.701L137.651 165.906L136.011 165.496L134.985 165.085L134.78 163.035V162.625H135.19L136.626 163.65L137.241 163.855L137.036 163.035V161.189L136.831 160.369L136.421 159.754L134.985 158.934L134.37 158.524L132.934 165.496L132.114 166.521V165.906L132.319 163.035V162.01L131.909 160.779L131.089 159.754L130.063 159.139L129.243 158.524L123.091 156.063L119.604 153.602L117.143 152.987L114.682 152.782H112.631L114.067 151.757L116.528 151.962L120.835 153.192L119.399 152.577L116.938 150.526L115.297 150.116L112.221 151.142L110.581 151.347L109.76 150.116H112.221L112.837 149.706L112.016 148.476L111.811 148.066V147.45V147.04H111.196H110.991L110.376 147.655L109.76 147.861L110.376 145.81L110.581 144.785V141.709L110.376 140.889L110.17 140.684L109.555 141.094H108.94L106.889 140.273V140.068V139.863L106.684 139.453L106.274 139.248L106.069 139.453L105.454 139.658L105.249 139.863L104.018 139.658L103.403 139.453H102.993V140.684L103.198 141.299L103.403 141.709L103.608 142.119L103.813 142.939L103.608 143.759L103.403 144.17L103.198 144.58L102.788 144.99L101.762 145.605H100.942L100.327 145.195L99.7113 144.375H99.9164L100.327 144.17L100.532 143.759L100.121 143.349L99.7113 143.144L96.6351 143.554L95.8148 143.964V144.58L96.4301 145.605L94.7894 145.81L92.9437 144.375L90.0725 141.094L91.303 140.478L91.7132 140.273L91.9183 139.658L92.3284 138.838L92.7386 138.223L93.3538 138.018L95.4047 138.633H95.8148L96.4301 138.428L97.0453 139.043L97.2504 140.273L97.8656 140.684L98.0707 140.478V140.068L98.4809 139.248V139.043V138.223V138.018L98.6859 137.608H99.3012L102.377 134.327L102.993 133.506V133.096L102.788 132.891V132.686L102.993 132.276L103.198 132.071L103.403 131.866H103.813V131.456V129.405L104.223 127.97L106.684 125.919L106.889 124.484L106.479 123.664L105.659 124.279L104.428 126.945L103.608 128.38L102.582 130.431L101.762 131.251L100.327 131.866L97.4555 132.891L96.225 133.712L94.3793 136.582L93.1488 137.608L91.7132 137.198L90.0725 138.018H89.0471L88.4319 137.403L87.6116 135.762L87.2014 134.327L86.7912 133.712L86.176 133.506L85.5607 133.301L83.715 132.481L82.0744 131.251L81.8693 131.661L82.0744 132.276L82.2794 133.096L82.8947 133.712L86.7912 136.993L87.8166 138.428L87.6116 139.863L86.176 138.428L84.9455 136.787L83.5099 135.147L81.4591 134.327L74.8966 134.532L72.6407 133.917L74.0762 132.891L75.7169 132.481H77.3575L79.2032 133.096L78.9982 132.071L79.2032 130.841L79.4083 130.636L79.8185 130.02L80.0236 129.815L79.8185 129.405V129.2L79.6134 128.995V128.79L78.9982 128.175L77.9728 127.355L76.5372 126.535L75.7169 126.329H74.4864L73.8712 126.74L73.6661 127.56L73.461 131.456L73.2559 131.866L72.6407 130.841L73.0508 129.61V127.97L72.8458 126.535L72.4356 125.919L71.2051 125.509L71 124.279L71.2051 123.049L71.8204 120.383L72.0254 119.973L72.2305 119.768V118.537V117.717L72.0254 117.102L71.4102 116.077L71 114.641V113.411V110.54L71.4102 109.31L73.461 105.824L75.7169 103.363L76.7423 101.928L77.3575 99.2618L79.6134 95.3657V95.1606H79.8185H80.0236L80.2286 94.9556V95.1606L79.8185 95.9809L80.0236 97.4163L79.8185 98.0314L79.6134 98.8517L79.4083 99.4668L79.8185 100.082L80.4337 100.287L80.8439 99.877L81.049 99.0567L81.4591 97.0062L83.3048 93.5202L83.5099 93.3151L84.7404 92.7L85.9709 91.8797L86.9963 91.0595L87.6116 90.6494V91.6747L87.2014 92.7L86.3811 93.1101V93.5202L87.6116 94.1354L90.4827 96.596L91.303 96.8011V95.9809L90.4827 94.5455V93.5202L90.8929 93.1101L91.5081 92.905L91.9183 92.7L91.7132 91.6747L90.0725 91.8797L88.637 89.0089Z" fill="#6F9C76"/>
</svg>
