<svg width="380" height="380" viewBox="0 0 380 380" fill="none" xmlns="http://www.w3.org/2000/svg">
<path d="M64.0143 42H64.1574L65.7313 42.5723L82.4722 48.7242L99.3561 54.8762L116.097 61.0281L132.981 67.18L149.722 73.332L166.606 79.3409L183.347 85.4928L200.231 91.6447L202.234 92.3601L204.38 93.2185L206.526 93.9338L208.672 94.7923L210.676 95.6507L212.822 96.366L214.968 97.2244L217.114 97.9398L218.259 98.369L220.692 98.6551H223.124H224.841H226.558H228.275H230.135H231.852H233.569H235.286H237.146H238.863H240.58H242.297H244.157H245.874H247.591H249.451H251.169H252.886H254.603H256.463H258.18H259.897H261.614H263.474H265.191H266.908H268.625H270.485H272.202H273.919H275.636H277.496H279.213H280.93H282.79H284.507H286.224H287.941H289.801H291.518H293.235H294.952H296.812H298.529H300.246H301.105H301.963H303.824H304.396L303.967 102.518L303.394 106.667L302.965 110.673L302.393 114.822L302.25 116.253L301.963 117.826L301.82 119.257L301.677 120.831L301.391 121.832V122.691V123.263L301.963 123.978L304.396 125.981L306.685 127.841L308.975 129.844L311.407 131.847L311.979 132.276L312.838 132.705L313.553 132.992L314.412 133.135L315.7 133.564L316.701 134.136L317.703 134.851L318.704 135.853L319.563 136.568L319.992 137.141L320.278 137.999L320.421 139.143V140.574L320.564 142.148L320.707 143.579L320.851 145.009V145.582L320.994 146.011V146.44V146.869L321.28 149.874L321.566 152.878L321.709 155.882L321.995 158.887L322.138 159.602V160.318L321.995 160.89L321.709 161.462L321.423 162.177L321.137 162.893V163.751V164.753V164.896V165.039L320.994 166.04L320.851 167.042V168.043L320.707 168.902L320.421 172.765L320.135 176.627L319.849 180.347L319.563 184.21L319.42 185.355L319.277 186.499V187.501L319.134 188.645V189.504L318.99 190.076L318.704 190.362H317.989H317.273H316.558H315.843H315.127L315.413 192.794L315.7 195.083L315.843 197.372L316.129 199.804L316.415 202.38L316.844 204.955L317.13 207.53L317.417 210.248L317.56 212.108L317.846 214.111L318.132 215.971L318.275 217.831L318.418 218.403V218.976V219.548L318.561 219.977L318.704 220.406L318.99 220.836L319.134 221.408L318.99 221.837L318.704 223.125L318.132 224.841L317.703 226.415V227.703L318.132 228.99L318.561 230.421L318.99 231.852L319.42 233.283L319.849 234.141L320.135 235.142L320.564 236.144L320.851 237.145L321.137 238.004L321.709 239.291L321.995 240.436V241.151L321.137 242.01L320.278 242.868L319.42 243.727L318.418 244.585L317.846 244.871H317.13L316.415 244.585L315.843 244.442L314.412 244.013L312.981 243.727L311.55 243.297L310.119 243.011L307.973 242.582L306.113 242.439H304.11L301.963 242.582L300.962 242.868L300.246 243.154L299.531 243.727L298.816 244.442L297.957 245.157L297.242 245.873L296.812 246.731L297.099 247.732L298.386 250.88L299.674 254.027L300.962 257.175L302.25 260.322L302.536 260.895L303.108 261.324L303.537 261.753L304.11 262.039L304.825 262.468L305.541 262.898L306.256 263.184L306.971 263.613L307.401 264.471L307.687 265.473L307.83 266.474L308.402 267.333L309.547 268.191L310.692 269.193L311.693 270.194L312.838 271.053L312.409 271.625L312.265 272.197L312.122 272.912L312.265 273.628L313.124 274.629L313.982 275.488L314.841 276.346L315.986 277.061L316.701 277.491L317.13 278.063L317.273 278.778L317.417 279.637V280.638L317.273 281.497L316.987 282.498L316.844 283.356V284.215L317.13 284.93L317.56 285.789L317.846 286.504L317.989 287.792L317.56 288.793L316.844 289.651L316.129 290.653L315.843 291.798L315.986 292.942L316.415 293.8L316.987 294.802L317.846 296.233L318.704 297.663L319.706 299.094L320.564 300.382L321.137 300.954L321.566 301.24H322.138L322.854 301.097H323.283L323.569 300.954H323.855L324.141 301.24L324.285 301.812L324.571 302.241L324.714 302.814L325 303.243L324.714 304.388L324.285 305.532L323.998 306.677L323.712 307.821V308.68V309.824L323.569 310.826L323.283 311.398L321.28 313.115L319.277 314.832L317.13 316.548L315.127 318.265L311.121 321.699L307.114 324.989L302.965 328.28L298.816 331.427L298.529 331.714L298.243 331.857L298.1 332L297.814 332.286L297.385 333.001L296.669 331.571L295.525 330.855L295.668 330.998L295.811 331.284L295.954 331.427L296.097 331.857L295.238 331.571L294.809 331.427L294.38 331.571L293.235 332.858H292.806L292.663 332.286L293.235 328.995L293.092 327.135L292.663 325.419L291.661 324.274L290.231 322.128L288.37 320.84L287.226 318.981L285.938 317.836L284.793 317.407L283.649 317.264L283.219 316.978L283.792 316.834L284.507 317.121L285.509 317.407L285.223 316.548L284.936 316.405L285.223 315.976L284.936 315.404H284.221L283.649 315.261L283.362 314.832L283.219 314.116L282.79 314.402L282.361 314.832L282.075 313.973L281.359 313.83L280.93 314.402L280.501 314.832L280.358 315.404L280.787 315.547L281.216 315.69H281.645L281.789 315.976L281.645 316.262V316.691L282.361 317.121L282.79 317.264V317.55L281.359 316.834L278.211 316.262L276.494 316.405L275.922 316.834L275.779 317.264L274.634 317.121L273.347 316.548L271.486 315.833L270.914 315.261L268.911 313.115L267.909 311.541L267.623 309.824L267.337 308.25L266.765 307.249L266.192 305.818L266.049 305.246L265.62 304.531L264.332 302.385L264.475 301.955L264.762 302.528L265.906 304.388L266.765 305.103L265.763 302.528V301.526L265.477 299.523L264.046 297.806L263.474 297.234L262.758 296.948L262.043 296.805H261.328L261.041 296.948L260.755 297.091L260.469 297.377L260.183 297.663L259.897 298.093L259.467 298.522L258.323 297.52L255.89 296.805L254.173 296.376L253.172 296.09L252.17 295.946L251.169 295.66L250.167 295.517L248.879 294.659L248.164 294.373L246.733 292.656L245.445 290.939L243.585 289.651L243.013 289.222L241.439 288.936H240.58L240.437 288.507H241.725L242.87 288.65L244.014 288.793L244.587 288.364L243.728 287.649L242.727 286.361L242.297 285.789L242.44 285.503L242.583 285.216V284.93L242.011 284.644L241.868 284.501L241.582 284.215L240.723 284.787L240.294 285.073H239.865L239.436 284.93L239.292 284.501V283.356L239.149 282.212L237.862 281.497V278.635L237.432 277.205L236.288 274.2V272.626L236.717 271.911L237.432 271.625L238.291 271.482L238.72 270.766L238.577 270.051L238.148 269.908L237.576 270.194L237.289 270.766L237.576 269.336L237.862 268.907L238.434 268.62H238.863L239.292 268.477L239.579 267.905H238.148L237.432 267.476L237.289 266.904L237.862 265.759L237.289 265.616L236.86 265.33L236.717 264.758L237.003 264.185L237.289 264.615L237.576 264.758L237.719 264.471L238.005 263.613L238.148 263.47L238.577 263.613L240.58 263.184L241.153 262.755L241.01 261.896L240.151 262.182L237.719 261.181L236.717 261.324L237.289 261.753L237.003 262.039L236.431 261.896L235.143 261.038L234.428 260.752L231.566 260.036L230.135 259.893L228.704 260.036L227.13 260.322V260.036L227.56 259.893L228.847 259.321L228.561 258.749L228.418 258.32L228.275 257.89V257.318L228.132 256.746L227.56 256.46H227.13L226.844 257.032V258.32L226.701 259.035L226.272 259.75L225.413 260.609H226.129L226.415 260.752L226.558 261.181V261.753L226.415 262.325L225.986 263.184L225.699 263.47L225.413 263.041L225.27 262.898L224.269 261.61L224.126 261.467H223.41L223.124 261.324L222.981 261.038L222.838 260.752L222.695 260.609L222.409 260.322L222.838 259.893L223.124 259.75H223.553L222.838 259.035L221.979 258.176L220.978 257.747H220.119L219.261 258.033L218.545 258.892L217.401 259.035H216.685L216.828 258.606L217.114 258.32L216.685 257.747L216.113 257.461H215.684L215.111 256.746L213.967 256.46L213.394 255.744L212.822 255.029L211.963 253.884L210.676 253.598L210.103 252.597L209.388 251.738L208.672 250.022L207.242 248.591L206.955 246.445L206.669 246.016L206.526 245.873L205.954 246.016L205.668 245.873L205.525 245.729V245.443L205.095 244.728L204.952 243.727L204.809 243.297L202.949 241.58L202.377 240.865L202.091 239.864L202.377 239.291L202.806 238.862L202.949 238.004L201.518 238.29L199.801 237.718L196.94 236.716L194.221 235.285L193.219 234.999L192.361 234.713L191.932 234.57L191.216 232.71L190.501 230.85L189.785 228.847L183.203 222.409L182.345 221.122L181.916 220.692L182.202 220.406H182.631L183.06 220.12L183.919 219.548H184.205L184.491 219.977L184.777 220.549L184.921 220.836L185.35 220.979L185.636 220.836L185.779 220.406V219.834V219.405L185.35 218.546H184.634L183.919 218.69L182.917 218.546L181.773 217.545L181.2 216.687L179.769 216.114L178.625 215.828L178.482 214.827L177.909 214.684V214.111L177.337 213.539L176.479 212.824L176.192 212.108L175.763 211.536L175.62 211.25L175.191 211.107L174.618 210.964H173.76L173.045 210.821L172.901 210.535L173.331 210.248L173.617 209.819L173.474 209.39V208.961L172.901 207.101L172.758 205.956L172.186 205.813L172.329 205.384L172.758 204.669L173.045 204.097V203.667L172.615 202.666L171.9 201.807L172.043 201.378L171.328 200.806L170.612 200.377L171.184 198.517V197.372L170.612 196.085L170.04 194.511L169.038 193.796H167.035L166.606 193.939L166.32 194.225L166.176 194.368L166.32 194.797L166.176 195.369L165.89 195.083L165.175 194.225L163.744 193.653L163.029 193.08L162.599 191.65L163.172 190.219L164.03 188.359L164.316 187.501V186.356L164.03 185.784L163.172 185.641L162.599 185.212L162.17 184.782L162.313 183.781L162.17 182.922L160.739 181.635L159.165 180.204L158.021 177.486L157.878 176.914L157.591 176.341L156.876 176.484L156.017 175.483L155.731 174.768L155.445 172.908L154.873 171.906L154.157 171.048L153.728 170.332L152.87 167.614L152.44 166.899L151.725 166.47L151.439 166.613L150.723 166.326L149.865 166.756L149.293 166.326L149.006 165.611L149.579 164.896L149.293 164.037L149.722 162.607L149.865 161.462L149.579 160.747L149.149 160.175L148.72 159.316V158.458L149.006 155.882V153.307L148.434 152.02L147.862 151.161L147.146 150.446L146.717 149.874L145.858 149.301H145.572L145.143 149.158L144.714 149.587L144.571 149.301L145 148.443L145.143 146.869L145 144.866L144.714 143.006L144.141 141.719L142.281 139.573L139.42 136.711L137.13 133.135L135.556 130.13L134.126 124.837L133.553 123.406L134.269 121.975L134.698 118.828L134.841 116.968L134.698 115.394L133.41 111.96V111.245H133.696L133.983 111.674L134.126 112.247L134.555 113.248L135.127 114.822L135.413 114.965L135.7 114.536L136.558 112.962V110.673V108.527L136.844 106.953L135.986 106.095L134.984 104.664L133.983 103.949H132.838V104.378L133.553 104.664L133.983 104.95L133.839 105.379L133.124 105.093L132.409 104.664L130.692 103.662L130.262 102.518L129.69 101.946L129.261 100.658H128.688L128.116 100.944L127.544 101.087L127.973 101.803L128.402 102.089L128.975 102.375L129.404 102.661L128.831 102.804L127.401 102.375L120.962 101.23L118.959 100.658L116.24 100.229L115.811 99.2274L114.809 98.9412L113.235 98.7982L112.377 98.0828L112.663 97.7967H113.378L113.808 97.5106L113.378 96.0799L112.663 93.5046L112.806 92.074L111.661 90.5002L109.515 88.9264L107.655 88.068L106.94 87.3527H105.795L103.935 86.3512L102.79 85.7789L102.504 84.9205L101.359 85.3497L100.787 85.4928H100.215L99.4992 84.7775L99.213 82.9176L98.6407 82.4884L98.4976 83.2037V85.7789V86.2082L98.7838 86.6374H99.07H99.3561V86.4943L99.7854 87.0666L99.6423 87.2096L99.213 87.3527L98.6407 88.2111L98.4976 88.7834L98.0684 89.0695L97.496 89.2126L97.3529 89.6418L97.0668 89.9279L96.9237 90.2141L96.4944 90.7863H94.7774H92.9173L91.2003 90.6433L89.1971 89.7849L88.1955 88.9264L87.0509 88.4972L85.9062 87.925L85.477 87.4958L84.9046 86.7804L84.3323 86.4943V85.7789L82.9014 85.2067L80.7552 83.919L80.0397 83.3468L79.3243 83.2037L78.752 82.3453L77.4642 81.9161L75.4611 79.9131L73.744 77.7671L72.8855 77.624H69.8808H69.5946L69.1653 77.3379L68.4499 76.4795L68.3068 76.3364L67.8776 76.1934L67.0191 75.478L66.5898 75.3349L65.159 75.1919L64.7297 75.0488L64.1574 74.4765L63.1558 72.9028L62.5835 72.6166L61.725 72.4736L59.4356 70.6137L59.2925 69.6122V68.4677V67.3231L59.4356 66.0355V65.3202L59.2925 64.7479L59.0064 64.1756L58.7202 63.6033L58.434 63.3172L58.0048 63.0311L57.7186 62.888L57.5755 62.6019L57.4324 61.8865L57.8617 61.1712L58.2909 60.4558L58.434 59.4543L58.0048 57.4514L57.2894 56.0207L56.4308 54.59L55.2862 53.1593L55 52.8732L55.1431 52.1579L55.8585 51.1564L56.717 50.5841L57.4324 49.7257L57.8617 48.5811V47.7227V46.8643L58.0048 46.0059L58.2909 45.0044L58.8633 43.7168L59.7218 42.8584L60.5803 42.4292L62.7265 42.5723L63.5851 42.4292L64.0143 42ZM260.183 298.236H260.469L261.328 298.522L262.615 299.094L263.76 299.952L264.618 301.383H264.332L263.331 300.095L262.329 299.38L261.328 298.808L260.612 298.665L260.183 298.236ZM237.289 287.649L237.146 285.789V284.644L237.432 283.643L237.719 283.07L237.432 284.93L237.576 286.933L238.434 287.792L240.294 288.507L240.151 289.222L237.862 288.364L237.289 287.649ZM168.609 220.12L168.037 220.406L167.178 221.122L166.463 220.406L165.747 220.263L165.175 220.549L164.746 219.977L164.173 219.834L163.458 218.976L162.886 218.69L162.456 218.833L162.027 218.546L161.169 218.69L160.739 218.403V217.688L159.595 217.545L159.452 217.116L158.45 216.543L157.305 215.971L156.733 215.399H156.304L155.874 215.113L157.019 214.397L158.307 213.539L158.879 212.681L159.165 212.538L159.308 212.108L159.595 211.536L159.738 211.25L159.881 210.678L159.738 210.105L159.308 209.676L159.165 207.816L159.308 205.67L159.738 203.81L160.167 201.951L160.453 201.378L160.739 200.663L161.312 200.234L161.884 199.804L162.599 200.377H163.458L164.316 199.661L165.032 199.089L165.747 198.946H166.892L167.607 198.803L168.037 198.374L168.466 197.945L169.038 197.658L168.895 198.088L168.323 198.66L168.466 199.518L169.038 199.948V200.234L168.895 200.663V201.092L168.609 201.521L168.895 202.094L168.752 202.809L170.183 204.812L171.9 208.246L171.184 209.962L171.041 211.393L170.469 213.825L169.897 214.397L170.183 215.113L169.467 215.971L169.181 216.973L168.752 217.545L168.609 218.403L168.752 219.405L169.181 219.548L169.467 220.12L169.038 220.406L168.609 220.12ZM65.4452 75.7642L66.7329 76.0503L68.593 77.624L70.1669 79.7701L70.8824 81.2008H70.31L69.8808 81.0577L69.4515 80.6285L69.3084 80.1993L68.3068 81.0577L66.4467 80.0562L65.0159 78.0532L65.4452 75.7642ZM293.665 336.149L293.808 335.29V332.858L294.237 332.429H295.095L295.811 332.715L296.383 333.001L296.669 333.86V334.146L296.24 334.432L295.525 335.004L294.666 335.576L293.808 336.006L293.665 336.149ZM291.089 337.436L291.232 337.007L292.091 335.576L292.234 334.718L292.377 334.289L292.663 334.432L292.806 335.004L292.377 336.006L292.091 336.149L291.804 336.578L291.661 336.864L291.518 337.15L291.375 337.293H291.232H291.089V337.436ZM204.952 257.461L204.666 257.032L205.095 256.603L205.668 257.461L205.954 258.176L205.238 258.033L204.952 257.461Z" fill="#6F9C76"/>
</svg>
