<svg width="380" height="380" viewBox="0 0 380 380" fill="none" xmlns="http://www.w3.org/2000/svg">
<path d="M136.686 40L136.86 40.3476L137.207 40.6953L138.946 40.5214L139.293 40.8691L139.641 41.9119L139.989 42.0857H140.51L141.553 41.5643L142.075 41.3905L142.596 41.5643L143.292 42.6072L143.465 42.9548L144.335 43.1286L145.377 43.6501L146.421 44.5191L146.768 45.3882V47.6478L146.594 49.0382V49.5597L146.942 49.9073H147.811L148.159 50.0811L148.333 50.6026L148.507 51.2978V51.6454V53.7312L148.333 54.4264L147.985 55.6431L147.811 56.8598L147.463 57.5551V58.0765L147.29 58.5979L146.421 59.6408L146.073 60.1622L147.463 60.6837L147.811 61.0313H147.985V61.5527L148.159 61.7265L148.68 62.0742H148.854L149.549 62.9432L150.071 63.9861L150.419 64.8552L150.592 66.0718L150.419 67.1147L149.549 69.5481V70.591V70.9386L149.897 71.2862L150.071 71.6338L150.245 72.1553L150.071 72.6767L149.028 74.4148L149.897 75.6315L150.071 75.9791L150.94 76.6744L151.288 76.8482H151.809H152.157L152.505 77.3696L152.678 78.0649V79.1078L152.852 79.803L153.374 80.1507L155.286 81.8888L155.807 82.584L157.372 84.496L158.067 85.5388L158.936 86.4079L159.632 87.2769L160.327 89.7103L161.022 92.4913L163.108 98.4009V99.27L163.63 102.051L163.804 103.268L165.021 103.789L166.411 104.137L166.933 104.832L167.454 106.396L167.628 107.265L167.454 107.787L166.933 108.482L166.585 109.177L166.759 109.873L167.802 110.742L168.845 110.915L169.714 110.742H170.757L170.931 110.915L171.278 111.437L171.626 111.611L171.974 111.437L172.669 111.089H173.886L174.407 111.437L174.755 112.306L175.624 111.611L177.362 113.001L178.579 112.654L179.101 113.001L179.622 113.175L179.97 113.001L180.318 112.654L180.839 113.001L181.187 112.827L181.534 112.654H182.056L182.23 112.827L183.099 113.87L184.663 114.913L185.359 115.608L185.011 116.477H185.706H186.402L186.923 116.825L187.445 117.173L186.923 118.042V118.216L187.445 118.389H187.792L188.835 119.432L189.357 119.78L190.052 119.954L193.007 118.737L194.398 119.606L195.962 119.954L197.353 120.649L198.396 121.866L199.265 120.823L200.656 121.344L202.22 122.213L203.611 122.561L203.09 123.778V124.299L203.785 124.473H205.002L205.349 124.82L206.566 126.732L207.088 127.254L210.912 129.166L212.824 129.687L214.562 129.861L216.822 129.166L217.865 129.513L218.213 130.73L218.734 131.078L219.777 130.73L221.342 129.861H222.037L224.992 130.209L228.121 129.861H231.946L232.815 130.209L232.989 130.904L233.684 131.251L238.03 131.425L238.899 131.773L239.942 132.121L240.811 132.816L241.332 133.685L241.68 134.554L242.202 135.249L243.766 135.944L245.852 138.204L246.895 138.899L247.59 139.247H248.46L249.503 139.421L249.85 139.768L250.198 140.637L250.719 141.506L251.762 141.68L251.936 141.506V141.159L252.11 140.811H252.458L252.805 141.159L252.979 141.506L253.153 141.854L253.675 142.028L254.718 141.506V140.464L254.37 139.247L254.196 138.204L254.37 137.856L255.587 137.161L256.456 137.683L257.499 137.335L258.542 136.466V135.597L259.237 135.423L261.671 135.597L264.974 135.249L263.583 142.897L264.104 144.983L263.757 146.199L263.583 148.806L263.235 149.849L262.54 150.718L262.018 152.978L260.628 156.454L258.89 161.147L255.934 167.231L248.981 178.702L244.114 197.126L239.42 215.203L236.639 238.841L236.465 240.753L236.118 243.013L235.77 254.137L235.248 255.006L234.379 255.353L230.903 255.006V255.353H232.293L233.336 255.527L234.032 256.049L234.205 257.439L233.858 262.48H234.205L234.553 261.089L234.901 257.439L235.248 255.875L235.77 257.787L234.901 268.737L234.032 273.951L233.51 283.859L234.901 299.502L234.205 306.107L234.379 302.978L234.205 302.109L233.684 302.63L232.293 308.366L231.772 309.061L230.207 310.8L230.033 311.321V312.016L229.86 312.364H229.512L228.121 312.016L229.164 313.233V314.276L227.6 318.273L227.252 318.969L227.426 319.838L227.947 320.185H228.469L228.99 319.838L229.512 319.49V318.795L229.338 317.231L229.512 316.535L230.033 315.84H230.207L230.381 316.362L230.555 317.231V318.621L229.512 323.14L230.903 328.528V330.093L231.076 330.788L231.598 333.569L231.772 334.264L231.946 334.786L232.815 337.219L232.467 337.567L231.076 338.436L230.729 338.61L230.207 338.957L229.86 339.479L229.338 340H228.817L228.295 339.479L227.774 338.957L227.426 338.436L226.904 338.088L226.383 337.567V336.698L226.904 336.002L227.252 335.307L226.557 334.786L225.688 334.264L224.818 333.569L223.776 333.048L223.08 332.874H221.863L220.473 332.352L219.256 332.005H218.213L217.344 331.831L216.475 331.136L215.605 330.44L214.91 329.745L213.867 328.876L213.519 327.486L213.172 326.443L212.129 326.095L211.433 326.269L210.912 326.443L210.564 326.79L210.043 326.964L209.521 327.138H209.174H209L208.304 326.79H207.609L207.262 327.833V329.05L207.088 330.093L206.566 330.44H205.871L205.176 330.267L204.654 329.919L203.785 330.267L203.437 329.745L203.09 328.876L202.568 329.05L201.873 329.745L201.351 329.571L200.83 329.05L200.134 328.528L199.787 328.702L199.613 328.876L199.439 329.05L199.091 328.702L198.744 328.528H198.396H198.222H197.875H196.31L194.746 328.702L193.007 329.224L191.269 329.397L190.748 329.05L190.226 328.876L189.704 328.528L189.183 328.007L188.314 329.224L186.923 329.745L185.359 329.919L183.794 330.093L183.099 330.44L182.577 331.136L182.056 331.831L181.534 332.352L180.491 332.526H179.101L177.884 332.352L176.841 332.178L175.103 331.831L173.538 331.483L171.974 330.962L170.409 330.267H170.235L170.062 330.093H169.888L168.497 329.571L167.106 329.224L165.542 328.876L164.151 328.702L162.935 328.528L161.718 328.355L160.675 328.007L159.632 327.138L158.936 326.095L158.241 324.878L157.72 323.488L157.198 322.271L156.329 320.707L155.46 319.143L154.591 317.752L153.895 316.188L153.721 315.84L153.548 315.666L153.374 315.319L153.2 314.971L152.678 315.84L151.983 316.709L151.288 317.404L150.592 317.578L149.723 317.057L148.854 316.014L147.985 314.797L147.29 313.928L146.768 313.581L146.247 313.059L145.725 312.712L145.204 312.538L144.682 312.712V312.885L144.856 313.059L145.03 313.581L145.204 314.45L145.377 315.145L145.551 316.014L145.725 316.709V318.273L145.377 318.621L144.508 318.447L143.118 317.926L142.249 317.578L141.206 317.404L140.336 317.057L139.293 316.709L136.686 315.666L134.078 314.45L131.471 313.407L128.863 312.364L127.647 312.016L126.604 311.495L125.387 310.973L124.344 310.452L123.649 310.278L122.779 309.93L122.258 309.583L121.91 309.235L121.736 308.366L121.563 307.671L121.389 307.149L121.041 306.454L120.52 305.585L120.172 305.064L120.346 304.368L121.041 303.673L122.084 302.978L123.301 302.63L124.518 302.283L125.561 301.414L126.082 300.892L126.43 300.197L126.604 299.502L126.778 298.807L126.43 296.895L125.387 295.504L123.996 294.287L122.779 292.897L122.258 291.854L122.084 290.985V289.942L121.91 288.899L121.041 288.725L119.824 289.421L118.607 290.637L117.738 291.333L118.086 289.768L118.607 288.03L118.955 286.466L119.303 284.902L119.477 284.032L119.65 283.337L119.824 282.468V281.773L119.477 280.904L118.26 280.035L116.869 279.166L116 278.644L117.217 277.254L118.607 276.037L119.998 275.342L121.736 275.689L122.953 276.211L124.17 276.732L125.561 277.254L126.951 277.601L126.256 275.516L125.735 273.43L125.213 271.344L124.518 269.258L124.692 268.737L124.865 268.042L125.213 267.52L125.561 266.999L126.082 265.608L126.604 264.218L127.299 262.827L127.994 261.437L128.342 260.568L128.863 259.525L129.559 258.482L130.254 257.613L130.602 257.439L131.123 257.265L131.645 257.092H132.166H133.731H135.121L136.512 256.918L137.903 256.744L139.293 256.57H140.858L142.249 256.223L143.118 255.353L143.987 253.963L145.03 252.399L146.073 251.008L147.116 249.444L147.637 249.27L148.333 249.444L149.028 249.618L149.549 249.444L149.723 248.922L149.549 248.227L149.376 247.532L149.202 247.01L149.028 245.794L148.333 244.925L147.463 244.403L146.594 243.708L145.725 243.013L144.856 242.144L143.987 241.448L143.292 240.579L143.118 240.406L142.944 240.232L142.77 240.058L142.596 239.884L141.727 238.494L141.379 236.06V233.279L141.553 231.367L141.901 229.977L142.249 228.586L142.596 227.196L143.118 225.805L143.465 224.589V223.72L143.292 222.677L143.118 221.46L142.944 220.765L142.77 220.07L142.596 219.374L142.422 218.679V218.505V218.331V218.158L142.249 217.462L142.075 216.767L141.901 216.072V215.377L140.51 216.072L139.293 216.593L137.903 217.115L136.686 217.636L136.164 216.42L135.643 214.855L135.295 213.465V212.248L136.164 211.553L137.034 210.684L137.903 209.988L138.772 209.119L139.641 208.598L140.684 208.076L141.901 207.729L142.77 207.381L143.118 207.555L143.639 207.729L143.987 208.076L144.335 208.25L144.856 208.076L145.204 207.903L145.551 207.555L145.899 207.207L146.421 206.86H146.768L147.116 206.512L147.29 205.991V204.948V204.253L147.637 203.557L148.159 203.036L148.507 202.862L148.854 202.688H149.202H149.549L150.071 202.341L150.245 202.167L150.419 201.819L150.592 201.472L151.462 200.776L152.157 200.603L153.026 200.776L154.243 200.603L154.764 200.429L155.286 200.255L155.807 199.907L156.329 199.386L157.024 198.517L157.372 198.169L158.067 198.517L158.936 199.212L159.979 199.734L161.37 200.255L162.761 200.603L163.977 200.95L163.804 200.429V200.081L163.63 199.56L163.456 199.038L162.935 197.822L162.587 196.605L162.413 195.388L163.108 194.171L163.63 193.65L164.151 192.955L164.673 192.26L165.021 191.564L164.673 191.043L164.151 190.174L163.456 189.479L162.935 188.957L162.761 188.262L163.282 187.914H164.325H165.021L164.673 187.045L164.499 186.176L164.847 185.829L165.89 186.002H166.759L167.28 185.307L167.628 184.612L168.497 184.264L169.192 183.221L169.714 182.178L170.409 182.005L171.105 183.221L171.974 184.264L173.017 184.786H174.234L175.45 184.612L176.667 184.438L177.71 183.917L178.579 183.221L179.622 182.352L182.404 180.093L185.185 177.833L187.792 175.574L190.574 173.14L192.312 171.75L194.05 170.359L195.789 168.795L197.527 167.404L198.222 166.709L199.091 166.014L199.787 165.319V164.276V163.233L199.613 162.885L199.091 162.538H198.396H197.527L196.31 162.711L195.093 162.538L194.398 162.364L194.05 160.973V158.54L194.224 156.107L194.398 154.368L194.224 151.587V148.633V145.852V143.071V140.985L194.398 137.856L194.224 134.902L193.529 133.511L192.312 133.163L191.095 132.816L189.878 132.468L188.488 132.121L187.792 131.773L186.923 131.599L186.228 131.425L185.359 131.251L184.316 130.904L182.925 130.382L181.534 130.035H180.491L179.796 130.904L178.927 132.294L178.232 133.859L177.71 135.075L176.32 133.685L175.103 132.468L173.886 131.251L172.669 129.861L171.8 128.992L171.105 128.297L170.235 127.775L169.192 127.949L168.845 128.123L168.497 128.47L168.323 128.818L168.149 129.166H167.802L167.28 128.992L166.933 128.818L166.585 128.992L166.237 129.166L166.063 129.513L165.716 129.861L165.368 130.209L164.499 128.644L164.151 125.516L163.977 122.039L163.804 119.432L163.63 118.563L163.456 117.868L163.108 117.346L162.413 117.173L161.718 117.346H160.849H160.153L159.458 116.999L158.936 116.304L158.241 115.608L157.72 114.913L157.198 114.218L156.677 113.523L156.329 112.827L155.807 112.132L155.46 111.437H154.764L153.721 112.48L152.505 113.001L151.635 112.132L151.114 111.263L150.94 110.394V109.525V108.308V107.613L151.114 107.092L151.462 106.744L151.809 106.222L152.505 104.832L152.852 103.268L153.026 101.703L152.505 100.139L151.462 98.5747L149.897 97.7057L147.985 97.0104L146.421 96.3152L145.725 95.9676L145.03 95.6199L144.161 95.2723L143.639 95.0985L142.596 95.2723H141.553H140.51H139.467L140.51 94.2294L141.206 93.5342L141.727 92.6651V91.1008L141.901 89.8841L142.596 88.8413L143.292 87.7984L143.987 86.9293L143.465 86.7555L143.292 86.4079L143.118 85.8865L142.944 85.5388L142.422 85.1912L141.727 85.0174L141.206 84.6698L140.684 84.1483H140.336L139.641 83.9745L138.946 83.8007H138.772L138.424 83.6269L138.077 83.4531H137.729H137.207L135.643 81.3673L135.817 78.0649L136.86 74.4148L137.729 71.6338L138.077 70.0695L138.424 69.0266L138.077 68.1576L137.034 67.2885L136.512 66.4195L136.338 65.2028L136.164 63.8123L135.991 62.9432L135.643 60.1622L135.121 56.1645L134.426 52.3407L133.209 50.6026L131.645 50.2549L130.08 50.0811L128.516 49.9073L126.951 49.5597L126.604 49.0382L126.43 47.6478V46.2573L126.604 45.562L129.037 43.9977L131.471 42.4334L133.905 41.2167L136.512 40H136.686ZM231.25 313.059L232.119 310.8L232.467 310.104L232.815 311.147L232.119 312.885L231.076 314.45L229.86 314.971L230.207 314.45L230.903 313.581L231.25 313.059Z" fill="#6F9C76"/>
</svg>
