<svg width="380" height="380" viewBox="0 0 380 380" fill="none" xmlns="http://www.w3.org/2000/svg">
<path d="M72.1429 179.278L71.2859 175.85V172.422V168.993L70.4285 165.565L62.7145 163.851L59.2857 160.423L56.7144 156.138L55 147.567H58.4288L61.0001 146.71H64.4289H67.0002H70.4285L72.1429 144.996L73.0003 142.425L73.8572 139.854L77.286 140.711L79.8574 139.854L82.4287 137.283L85 134.711L88.4288 133.854L91.857 136.426L95.2858 138.997H99.5715L103 136.426L106.429 132.998L109.857 131.283L113.286 134.711L114.143 135.569L115 136.426L115.857 137.283L121 138.14H126.143L131.286 138.997L136.429 139.854H137.286L138.143 140.711V141.568H139L144.143 144.139L148.429 141.568L151 134.711L153.571 128.712L155.286 125.284L157.857 122.713L159.572 120.142L162.143 117.57L163 115.857V114.142L163.857 113.285L167.286 111.571H169L169.857 113.285L170.714 114.999L171.572 115.857L176.714 119.285L181.857 121.856L187.857 124.427L194.714 123.57L198.143 124.427H200.714H204.143H207.571L211.857 122.713L212.714 120.142L211.857 117.57V112.428L214.429 109L218.715 111.571L223 119.285L222.143 126.998L219.572 131.283L221.286 133.854L224.714 134.711L229.857 135.569L234.143 137.283L237.571 140.711L240.143 144.996L244.429 148.424L251.286 150.995L260.714 153.567L268.429 157.852L266.714 164.708L264.143 165.565H261.572L259.857 166.422L259 168.993V171.565L259.857 173.279L261.572 174.136H263.286L265 177.564L265.857 182.706L267.571 186.134L271.857 184.42L276.143 181.849L280.428 180.135H284.714L289 182.706L291.572 185.277L295 188.706L297.571 192.134L300.143 195.562L302.714 198.133L305.286 199.847L307.857 202.418L311.286 203.275L318.143 202.418L322.429 204.132L325 209.275L323.286 216.131L318.143 222.13L311.286 225.559H303.571L297.571 222.13V221.273H296.714V220.416L295.857 219.559L291.572 222.988L284.714 222.13L277.857 220.416L271.857 218.702L271 219.559L270.143 220.416L268.429 222.13L267.571 222.988L265 223.844L262.429 225.559L259.857 227.273L258.143 229.844V230.701L260.714 235.843L264.143 240.129L267.571 244.414L265.857 248.699L264.143 250.413L262.429 252.127L259.857 254.698L258.143 256.412L253 258.983L247 258.126L241.857 255.555L235.857 252.984L235 252.127L233.286 251.27H231.572L229.857 250.413L229 249.556H228.143L227.286 248.699H226.429H225.572L223.857 246.985L221.286 246.128L219.572 245.271H217L212.714 251.27L208.429 258.126L203.286 264.126L197.286 266.697L192.143 267.554L187 270.125L181.857 271.839L176.714 270.125L174.143 267.554L172.429 264.126L170.714 261.555L169 258.983L168.143 258.126L167.286 257.269L166.429 256.412V255.555L164.714 254.698L163.857 253.841H163L162.143 252.984L161.286 252.127L160.428 251.27V250.413H159.572L158.715 249.556L157.857 248.699L156.143 247.842L155.286 246.985H154.429V246.128L151.857 245.271L150.143 244.414L148.429 242.7L146.714 240.985L145 240.129L144.143 238.414L143.286 236.7L142.429 234.986L141.572 233.272L140.714 230.701L139.857 228.987L139 227.273L137.286 222.988L134.714 219.559L131.286 216.131L127.857 212.703H127L126.143 211.846H125.286L122.714 210.132V206.703L121.857 204.132L120.143 200.704L118.429 198.133L117.571 195.562L115.857 192.134V188.706V187.849V186.991V186.134L115 185.277L110.714 181.849L108.143 180.992L105.572 181.849L101.286 184.42L94.4289 185.277L86.7144 183.563L78.9999 180.992L72.1429 179.278Z" fill="#6F9C76"/>
</svg>
